<?xml version="1.0" encoding="UTF-8"?>
<svg version="1.1" viewBox="0 0 2048 1152" width="1280" height="1280" xmlns="http://www.w3.org/2000/svg">
<path transform="translate(0)" d="m0 0h2048v1152h-2048z" fill="#474646"/>
<path transform="translate(0)" d="m0 0h683v1152h-683z" fill="#FCFCFC"/>
<path transform="translate(1371,99)" d="m0 0h677v1053h-677z" fill="#171C1E"/>
<path transform="translate(1218)" d="m0 0h830v99h-677v1053h-119v-7l-2 1 1-96h-15l-6-3-3-3-2-6v-4h-2v13h-5l-1-1v-72l1-1h5v-7l2 1 1 51 1-3 2-30h2l1 20h22l1-19 1-13 2-7h1l-1 12v41h2v-25l1-28 5 2-7-9v-6l-11-3h-13l-9 3v6l-2 1v-25l6-12 3-3 7-2h8v-314h-10l-8-4-3-3-2-6-1-17 3 1 2-36h1v37l-1 4v7l8 5h9l7-3 3-2v-10l1-11h1v6h2v-25l1-28 5 2-5-6v-2h-2l-1-6-6-3h-18l-7 3-2 7-2 3h-3l-1 4h4v59l-1 62-4-1v-132h4l1-2 1-18 4-9 4-6 10-3 7 1v-308h-12l-6-3-4-4-3-9-1-7-1 66h-4v-70l1-1h5l-1-15 2-3 1 14 1-4v-35l-2-18h-3l-2 6h3v19h-5l-1-62-2-3v-6l1-2h2z" fill="#927C6F"/>
<path transform="translate(337,28)" d="m0 0h18l11 4 5 3 2 4 10 3 5 4 3 1 3 3 25 3 20 4 18 6 14 8 10 8 8 8 10 15 6 14 6 18 11 40 4 12 8 10 8 13 4 11 3 12 4 9 3 16v21l-4 23-7 19-8 16-7 12-12 17-5 6h-2l-2 4-3 4h-2l-1 3-6 5-5 5-10 8h-2l-2 6-5 1h-203l-6-3v3h-51l-3-2-5-18-3-14-16-16-7-9-9-12-7-11-6-11-7-14-9-24-5-22-2-13-1-12v-18l2-17 5-24 8-19 7-14 8-12 12-14 12-12 12-9 10-7 18-10 11-5 12-4 8-3 21-6 23-4 5-5 8-7h2v-2l7-4 9-4z" fill="#F3F2FA"/>
<path transform="translate(683)" d="m0 0h100l1 25 3 3v5h-4v3l4 1-2 2-1 1113h-101z" fill="#7E6E60"/>
<path transform="translate(1398,272)" d="m0 0h625l8 4 5 8v106l-3 6-8 6-4 1h-621l-8-4-6-7-1-4v-102l4-8 5-4z" fill="#014C67"/>
<path transform="translate(1400,113)" d="m0 0h622l8 4 5 6 1 3v105l-3 6-7 6-3 1h-624l-8-4-5-7-1-4v-101l3-7 5-5z" fill="#014C67"/>
<path transform="translate(1398,431)" d="m0 0h626l7 4 4 5 1 3v106l-4 7-8 5h-626l-8-5-4-6-1-3v-102l3-7 7-6z" fill="#014C67"/>
<path transform="translate(1357)" d="m0 0h691v99h-677v1053h-14z" fill="#76D0FD"/>
<path transform="translate(1283)" d="m0 0h74v1152h-78v-21l1-3 2-1 1-53 17 1 9-2 10-4v-4l-6-2v4l-2-1-1-31 7-1v-75l-2-2v-627h-6l1-2 8-1 2-2-1-4-4-2-2 4v-32h-33l-1-1v-75l4-2v-173l-5-1-3-5v-8l2-5 6-1z" fill="#7E6E60"/>
<path transform="translate(337,28)" d="m0 0h18l11 4 5 3 2 4 10 3 7 6 5 8 3 12 1 8v13l-1 14 1 3v10l-5 11-5 5-4 9-6 12-7 9v20l5 1 9 8 7 14 1 12 5 2 7 8 4 12v9l-2 9-5 15-3 5 14 1v7l-22 1 4 4 10 4 4 1h18v5l-3 1-5-1v-2h-8l-12-3-9-5-5 1-10 5-21 5h-7v-5l1-1 7 1h10l13-4 7-4v-2l-15-1v-6l1-1h6l-7-15-3-15v-10l4-11 6-8 6-3 6-1-1-9-4-10-10-7-2 8h-2l-1 8-20 76h-2l-7-23v-3l-4 4-12 18-3 5h-3l-5-9-7-12-7-18-4-14-2 12-2 33v21l1 2v6l-2 3-3-1-1-2 1-21 2-39 3-25 1-14 2-9-9 2-26 6-16 6-9 7h-2l-2 4-5 8-5 17-5 30-5 29-8 50-1 6-4-1-7-8-5-5-13-17-9-15-10-22-7-22-4-23v-34l3-16 4-16 9-21 9-15 8-11 15-16 11-10 15-11 11-7 21-10 12-5 19-7 16-4 2-5h2l2-6 4-7 8-7h2v-2l7-4 9-4z" fill="#C9E8FC"/>
<path transform="translate(745,107)" d="m0 0h4v1045h-33v-1044l17 1z" fill="#927C6F"/>
<path transform="translate(1218)" d="m0 0h50l1 20 4 1v2l-4 1v2l4 2 1 2v6l-3 3h-2v1113h-17v-7l-2 1 1-96h-15l-6-3-3-3-2-6v-4h-2v13h-5l-1-1v-72l1-1h5v-7l2 1 1 51 1-3 2-30h2l1 20h22l1-19 1-13 2-7h1l-1 12v41h2v-25l1-28 5 2-7-9v-6l-11-3h-13l-9 3v6l-2 1v-25l6-12 3-3 7-2h8v-314h-10l-8-4-3-3-2-6-1-17 3 1 2-36h1v37l-1 4v7l8 5h9l7-3 3-2v-10l1-11h1v6h2v-25l1-28 5 2-5-6v-2h-2l-1-6-6-3h-18l-7 3-2 7-2 3h-3l-1 4h4v59l-1 62-4-1v-132h4l1-2 1-18 4-9 4-6 10-3 7 1v-308h-12l-6-3-4-4-3-9-1-7-1 66h-4v-70l1-1h5l-1-15 2-3 1 14 1-4v-35l-2-18h-3l-2 6h3v19h-5l-1-62-2-3v-6l1-2h2z" fill="#917B6E"/>
<path transform="translate(389,47)" d="m0 0h2l3 3 25 3 20 4 18 6 14 8 10 8 8 8 10 15 6 14 6 18 11 40 4 12 8 10 8 13 4 11 3 12 4 9 3 16v21l-4 23-7 19-8 16-7 12-12 17-5 6h-2l-2 4-3 4h-2l-1 3-6 5-5 5-10 8-2-2 14-12 5-4 7-8 5-6h2l2-4 10-14 7-11 9-17 6-16 5-18 1-10v-18l-1-11-2-6-2 21-4 19-7 20-8 16-11 19-10 13-12 14-7 7-3 1-1-4v-11l-2-27-4-31-3-33-4-25-6-16-7-10-7-7-11-6-26-6-20-4-8-3 6 11 1 3v9h-1l-2-11-6-11-9-8-4-1-1-3v-17l7-9 6-12 4-9 5-5 5-11v-10l-1-3 1-14v-13l-3-16-3-7z" fill="#C9E8FC"/>
<path transform="translate(1334)" d="m0 0h23v1152h-23z" fill="#686766"/>
<path transform="translate(764)" d="m0 0h19l1 25 3 3v5h-4v3l4 1-2 2-1 1113h-17v-7l-2 1-1-3-1-98v-974l-1-32h-7l-3-3v-8l3-3 9 1z" fill="#6C6865"/>
<path transform="translate(337,28)" d="m0 0h18l11 4 5 3 2 4 10 3 7 6 5 8 3 12 1 8v13l-1 14 1 3v10l-5 11-5 5-4 9-6 12-7 9v20l5 1 9 8 7 14 1 12 5 2 7 8 4 12v9l-2 9-5 15-3 5 14 1v7l-22 1 4 4 10 4 4 1h18v5l-3 1-5-1v-2h-8l-12-3-9-5-5 1-10 5-21 5h-7v-5l1-1 7 1h10l13-4 7-4v-2l-15-1v-6l1-1h6l-7-15-3-15v-10l4-11 6-8 6-3 6-1-1-9-4-10-10-7-2 8h-2l-1 8-20 76h-2l-7-23v-3l-4 4-12 18-3 5h-3l-5-9-7-12-7-18-4-14-2 12-2 33v21l1 2v6l-2 3-3-1-1-2 1-21 2-39 5-32 2-16 3-11 3-5 1-4h2l2-5 2-4 8-8-1-4-3-5v-2h-2l-1-7h-2l-2-8-6-5-4-8-1-12 3-5h2l-4-12v-23l7-16 3-5 8-7h2v-2l7-4 9-4z" fill="#DAB9A7"/>
<path transform="translate(271,988)" d="m0 0h155l7 2 11 4 5 5 4 2 8 14 3 6 1 5v12l-2 9-7 11-1 3-7 6-5 2v2l-12 4h-165l-10-3-8-6-8-8-6-12-2-11 1-13 4-12h2l2-6h2l2-4 6-5 10-5z" fill="#0CAAF2"/>
<path transform="translate(1268)" d="m0 0h15v20l-6 1-1 5v8l2 4 5 2v173l-3 2v75l33 1 1 28h3l4 3-1 4-2 2-8 1-1 2h-18l-8-2 1 462 3-4h5l3 6v11l-1 3h-2v2h-5l-3-4-1 153-4 1v75l6 1h25l1 1 1 30 1 1v-4l6 2 1 4-2 2-9 3-12 2-14-2v53l-3 1-1 24h-10v-1113l4-1v-10l-5-2 1-3h4v-2l-5-1z" fill="#7E6E60"/>
<path transform="translate(751)" d="m0 0h13v26h-9l-2 2v10h10l1 40v967l1 98 1 2 2-2-1 9h-18v-1045l-7 1-28-1-5-5 4-5 1-26h2v31h2v-6h24l1 1v6h2l-1-2-1-30-2-2h8l1-2z" fill="#7E6E60"/>
<path transform="translate(1357)" d="m0 0h14v1152h-14z" fill="#F9F9F9"/>
<path transform="translate(683)" d="m0 0h12v1152h-12z" fill="#666"/>
<path transform="translate(1283)" d="m0 0h32l1 212 3 3v76l-6 1-33-1-1-1v-75l4-2v-173l-5-1-3-5v-8l2-5 6-1z" fill="#927C6F"/>
<path transform="translate(1326)" d="m0 0h8v1152h-8z" fill="#AEB0AE"/>
<path transform="translate(337,28)" d="m0 0h18l11 4 5 3 2 4 10 3 7 6 5 8 3 12 1 8v13l-3 16-7 13-6 5-7 2h-9l-10-3-5-6-4-11-2 8-5 8-6 3-4 1h-10l-9-3-5-4-4-11-6-17v-23l7-16 3-5 8-7h2v-2l7-4 9-4z" fill="#827167"/>
<path transform="translate(695)" d="m0 0h7v1152h-7z" fill="#B2B4B2"/>
<path transform="translate(1254,820)" d="m0 0h10l4 12v102l-2-3-2-11-10 1 5 8 4-1 3 6 2 7v102l-2-3-2-12-2 1-1 7 3 1 4 12v102l-1 1h-15v-7l-2 1 1-96h-15l-6-3-3-3-2-6v-4h-2v13h-5l-1-1v-72l1-1h5v-7l2 1 1 51 1-3 2-30h2l1 20h22l1-19 1-13 2-7h1l-1 12v41h2v-25l1-28 5 2-7-9v-6l-11-3h-13l-9 3v6l-2 1v-25l6-12 3-3 7-2 11 1v-90z" fill="#ADAFAD"/>
<path transform="translate(764)" d="m0 0h19l1 25 3 3v5h-4v3l4 1-4 2v355l-2-4-2-11-11 1-2 1v-94l2-9-1 1-2 1-1-4-1-97v-108l-1-32h-7l-3-3v-8l3-3 9 1z" fill="#736B64"/>
<path transform="translate(318,158)" d="m0 0h3l5 7 1 26 12 3 9 1 16-3 6-3h3l-1 8-11 43-9 34-2 7h-2l-7-23v-3l-4 4-12 18-3 5h-3l-5-9-7-12-7-18-4-14-2 12-2 33v21l1 2v6l-2 3-3-1-1-2 1-21 2-39 5-32 2-16 3-11 3-5 1-4h2l2-5 2-4 5-5z" fill="#181D1F"/>
<path transform="translate(702)" d="m0 0h5v1152h-5z" fill="#6D6057"/>
<path transform="translate(762,38)" d="m0 0h1l1 40v967l1 98 1 2 2-2-1 9h-8v-1112z" fill="#645951"/>
<path transform="translate(1334)" d="m0 0h4v1152h-4z" fill="#4E4E4E"/>
<path transform="translate(1322)" d="m0 0h4v1152h-4z" fill="#645951"/>
<path transform="translate(691)" d="m0 0h4v1152h-4z" fill="#4E4E4E"/>
<path transform="translate(1254,387)" d="m0 0h10l4 12v103l-2-4-2-11-3-1-4-8 1 3 5 14 4 9 1 3v103l-2-3-2-12h-3l-1-3-4 8-5 3h-16l-6-4-3-5-1-3-1-17 3 1 2-36h1v37l-1 4v7l8 5h9l7-3 3-2v-10l1-11h1v6h2v-25l1-28 5 2-5-6v-2h-2l-1-6-6-3h-18l-7 3-2 7-2 3h-3l-1 4h4v59l-1 62-4-1v-132h4l1-2 1-18 4-9 4-6 10-3 9 2v-77z" fill="#CDCECE"/>
<path transform="translate(1271,38)" d="m0 0h2v1114h-4v-1113z" fill="#645951"/>
<path transform="translate(292,55)" d="m0 0h8l-1 6-2 4-16 4-25 9-23 11-18 11-14 11-10 9-7 7-9 11-7 10-9 16-7 17-5 19-2 13v34l4 23 9 27 9 19 11 17 11 14 1 3 3 1 7 8 3 5-1 4-4-2-8-8-9-11-13-18-9-16-9-19-6-16-6-24-2-16v-35l2-14 4-17 6-17 11-20 8-11 7-9h2l2-4 9-9 14-11 14-9 17-9 15-6 25-8z" fill="#FCFCFC"/>
<path transform="translate(337,28)" d="m0 0h18l11 4 5 3 2 4 10 3 7 6 5 8 3 21v11l-3 15-3 4-1-5h-2l-2-12-5-13-8-13-4-3-17 3-12 3-16 7-11 8-6 8-3 7-1 5-3-1-4-11v-23l7-16 3-5 8-7h2v-2l7-4 9-4z" fill="#191E20"/>
<path transform="translate(1326)" d="m0 0h3v1152h-3z" fill="#C3C4C3"/>
<path transform="translate(1223,489)" d="m0 0h1v18l-2 3-4-1 1 132 3 1v-62l1-59h-4l1-4 3-1 2-3 2-7 7-3h18l7 4v6h2l5 6v2l-4-1-2 52h-2l-1 7v8l-7 5-4 1h-9l-9-6v-7l1-4v-20l-1 19-2 2v-3l-1 1v15h-1l-1 53-4 1-2-2v-136h6z" fill="#BAB9B7"/>
<path transform="translate(1280,214)" d="m0 0h38l1 1v76l-6 1-33-1-1-1v-75z" fill="#C6C6C6"/>
<path transform="translate(1279,958)" d="m0 0h38l1 1v75l-1 1-33 1-6-2v-75z" fill="#84B47B"/>
<path transform="translate(1218)" d="m0 0h4l1 24 3 3v6l-3 1-1 2h4l-1 3h-2l1 10 4-9 4-6 5-2h11l3 1v-8h-3v-2l7-1 1 22h2v21l-8-1h-15l-8 2 2 20 1 5v45l-1 4v7l8 5h11l8-5v-7l-1-4v-36l1-9h1l1 41h2v-25l1-28 4 3v75l-5 1v-11l-2 10-8 6-2 1h-11l-6-3-4-4-3-9-1-7-1 66h-4v-70l1-1h5l-1-15 2-3 1 14 1-4v-35l-2-18h-3l-2 6h3v19h-5l-1-62-2-3v-6l1-2h2z" fill="#EAD987"/>
<path transform="translate(710)" d="m0 0h41v67l-2 3h-33l-6-2z" fill="#8EB387"/>
<path transform="translate(1283,1074)" d="m0 0 17 1 6-1h9l1 53 3 1v24h-40v-21l1-3 2-1z" fill="#927C6F"/>
<path transform="translate(1254,820)" d="m0 0h10l4 12v102l-2-3-2-11h-11l3 8v3h2l1 11v10l-7-1-4-1h-13l-9 3v6l-2 1v-25l6-12 3-3 7-2 11 1v-90z" fill="#D0D1D2"/>
<path transform="translate(1235,63)" d="m0 0h15l8 3 1 1v6h2l5 6v2l-4-1-2 52h-2l-1-6-1-26v36l1 4v7l-5 4-4 2h-11l-8-5-1-1v-7l1-4v-45l-2-13v-12z" fill="#171C1E"/>
<path transform="translate(1222)" d="m0 0h46l1 20 4 1v2l-4 1v2l4 2 1 2v6l-3 3-2 1-1 28-2-3-2-11h-2v9h2l4 11v103l-2-4-3-10h-13l8-8 2-13h1v11l-1 5 5-1-1-76h2l-5-6v-2h-2l-1-6-2-2h2l-1-19 1-2h-2l-1-2v-20l-7 1v2h3v8h-14l-6 3-5 10-2 5h-1v-12l3-3h-4l1-3h3l-2-7-2-2z" fill="#CECECF"/>
<path transform="translate(1223,966)" d="m0 0 2 1 1 51 1-3 2-30h2l1 20h22l1-19 1-13 2-7h1l-1 12v41h2v-25l1-28 3 1 1 2v54h-3l-3 19-4 4h-2v2l-5 2h-12l-6-3-3-3-2-6v-4h-2v13h-5l-1-1v-72l1-1h5z" fill="#CACACA"/>
<path transform="translate(318,158)" d="m0 0h3l5 7 1 26 12 3 9 1 16-3 6-3h3l-1 8-11 43-9 34-2 7h-2l-7-23v-3l-4 4-12 18-3 5h-3v-2l4-4 10-15 7-9 4-9v-14l-19-38-2-14v-12l-3-4-4 2-7 9v-3l1-3 5-5z" fill="#675B53"/>
<path transform="translate(776,1036)" d="m0 0 3 1 4 12v103h-16v-7l-2 1 1-101 3-8z" fill="#D0D1D2"/>
<path transform="translate(549,242)" d="m0 0 2 1 2 6 1 11v18l-2 14-6 20-8 18-5 9-7 11-10 14-11 12-6 7-11 9-4 4h-2l1-7 3-16 10-9 9-10 14-19 12-21 7-16 6-19 4-23z" fill="#FCFCFC"/>
<path transform="translate(369,62)" d="m0 0h2l7 10 8 16 2 11-4-2-4-3-10-2-11 3-2 4-7 2-2 2-5-3-7-3-1-2-6-2h-11l-6 3-4 4h-2l1-6 6-9 9-8 12-6 15-5z" fill="#DAB8A7"/>
<path transform="translate(1235,949)" d="m0 0h13l11 4 2 7 5 6v2l-4-1-2 52h-2l-1-8v-33l1-8-1 3-3 32-23 1-1-21-1-2-2-19v-11z" fill="#171C1E"/>
<path transform="translate(769,928)" d="m0 0h9l3 7 2 6v102l-2-3-3-11h-8l-2-1v2h-2v-93z" fill="#D0D1D2"/>
<path transform="translate(1253,171)" d="m0 0h11l4 11v103l-2-4-2-10h-10l-3 2v-94z" fill="#D0D1D2"/>
<path transform="translate(769,495)" d="m0 0h9l3 7 2 6v102l-2-3-3-11h-10l-2 1v-94z" fill="#D0D1D2"/>
<path transform="translate(769,820)" d="m0 0h10l4 12v103l-2-4-2-11h-10l-3 2v-94z" fill="#D0D1D2"/>
<path transform="translate(769,387)" d="m0 0h10l4 13v102l-2-4-3-10h-10l-2 1v-94z" fill="#D0D1D2"/>
<path transform="translate(1254,279)" d="m0 0h10l4 12v102l-2-3-2-11-11 1-2 1v-93z" fill="#D0D1D2"/>
<path transform="translate(771,711)" d="m0 0h7l3 7 2 6v103l-2-4-3-11-10-1v2h-2v-93l2-7z" fill="#D0D1D2"/>
<path transform="translate(768,171)" d="m0 0h11l4 11v103l-2-4-2-10h-11l-2 1v-94z" fill="#D0D1D2"/>
<path transform="translate(769,279)" d="m0 0h10l4 13v102l-2-4-2-11-11 1-2 1v-94z" fill="#D0D1D2"/>
<path transform="translate(1257,711)" d="m0 0h6l3 6 2 7v102l-2-3-3-11-10-1-1 3h-1v-93l3-9z" fill="#D0D1D2"/>
<path transform="translate(774,603)" d="m0 0 5 1 4 12v102l-2-3-3-11-10-1v2h-2v-93l3-8z" fill="#CECECE"/>
<path transform="translate(1260,603)" d="m0 0 4 1 4 12v102l-2-3-3-11h-10l-2 1v-93l3-8z" fill="#CECECE"/>
<path transform="translate(768,63)" d="m0 0h11l4 12v102l-2-3-3-11h-10l-2 1v-93z" fill="#D0D1D2"/>
<path transform="translate(384,220)" d="m0 0h9l7 6 4 7 3 16-1 9-4 12-6 9h-14l-4-5-4-8-3-10v-8h2v-13l5-10z" fill="#EFEFF6"/>
<path transform="translate(1268,40)" d="m0 0h1v461h-1l-1-102-3-9v-3l-10 1-2 8-1 77h-2l-1-310 5-1h10l3 7 1 4v-99l-3-11h-2v-9h2l3 11zm-15 131-2 8v94l3-2h10l3 14h1v-103l-4-11zm1 108-3 9v93l2-1 11-1 2 11 2 3v-102l-4-12z" fill="#927C6F"/>
<path transform="translate(1282,221)" d="m0 0h13v3l-5 5-4 9-2 13h30l-2-10-4-11-4-5-3-3 2-1h12l1 1v62h-34l-1-2v-59z" fill="#81B477"/>
<path transform="translate(1234,503)" d="m0 0h18l6 3v16l-1 4-2 33h-24l-1-21-1-2-2-19v-11z" fill="#181D1E"/>
<path transform="translate(1279,958)" d="m0 0h38l1 1v75l-1 1-33 1-6-2v-75zm2 8-1 1v60l1 3h34l1-2v-62h-16l1 2h2v2h2l2 5 3 7 1 4v9h-28v-8l5-13 4-5 3-3z" fill="#D0D3D4"/>
<path transform="translate(262,302)" d="m0 0h2l2 10 2 27 1 18v47l-2 1-5-2-6-13-5-9-1-5 3-23 2-20 4-22z" fill="#CBE7F9"/>
<path transform="translate(710)" d="m0 0h2l1 62h34l1-23-2 1-1 7-1 1h-28l-1-1v-8l9-1v-4l7 2h2l-1-5-17-1v-9l7-1h16l7 1 2 6-6 1v8h5l3-1 1 2v32l-5 1h-29l-6-2z" fill="#BEC8BE"/>
<path transform="translate(1961,482)" d="m0 0h24l3 3v30l-3 3h-25l-3-4v-28z" fill="#C4E7FC"/>
<path transform="translate(1960,165)" d="m0 0h25l3 3v30l-4 3h-23l-4-4v-28z" fill="#C5E7FB"/>
<path transform="translate(763,186)" d="m0 0h1l1 90 1 3 1-2h12v1h-11l-1 9v93l1-1h11l4 15v6l-2-3-2-10-10 1-2 7v93l1-1h10l3 7 2 8v6l-2-3-3-9h-9l-4 13h-1l-1-5z" fill="#716963"/>
<path transform="translate(1960,324)" d="m0 0h26l2 2v31l-2 2h-26l-3-3v-29z" fill="#C6E8FC"/>
<path transform="translate(373,183)" d="m0 0 5 1 8 7 7 14 1 12 5 2 7 8 4 12v9l-2 9-5 15-3 5 14 1v7l-22 1 4 4 10 4 4 1h18v5l-3 1-5-1v-2h-8l-12-3-9-5-5 1-10 5-21 5h-7v-5l1-1 7 1h10l13-4 7-4v-2l-15-1v-6l1-1h6l-7-15-3-15v-10l4-11 6-8 6-3 6-1-1-9-4-10-4-5-8-6zm11 37-7 6-4 9v13h-2v8l5 15 6 8h14l7-11 4-15-2-16-3-8-7-8-2-1z" fill="#B0B1AF"/>
<path transform="translate(1253,22)" d="m0 0h2l1 22h2v21l-8-1h-15l-8 3-3 1v-14l2-11 6-9 5-2h11l3 1v-8h-3v-2z" fill="#FAFAFB"/>
<path transform="translate(1222)" d="m0 0h29v22l-3 3h3v8h-14l-6 3-5 10-2 5h-1v-12l3-3h-4l1-3h3l-2-7-2-2z" fill="#4D4C4A"/>
<path transform="translate(305,47)" d="m0 0 1 3-5 9-1-4-24 4-26 8-13 5-16 8-13 7-16 12-13 12-9 10-10 14-9 16-5 13-3 8-5 21-1 10v35l2 16 6 24 10 25 11 21 13 19 8 10 12 13 4 5h-3l-14-14-7-9-9-12-7-11-6-11-7-14-9-24-5-22-2-13-1-12v-18l2-17 5-24 8-19 7-14 8-12 12-14 12-12 12-9 10-7 18-10 11-5 12-4 8-3 21-6 23-4z" fill="#DAE2E7"/>
<path transform="translate(1261,1038)" d="m0 0 3 2 1 3v88h-10l-1-1v-82l4-3z" fill="#CDCDCD"/>
<path transform="translate(1283,1128)" d="m0 0h32l4 1v23h-40v-21l1-2z" fill="#85B47C"/>
<path transform="translate(1238,920)" d="m0 0h13l3 3 2 5v3h2l1 11v10l-7-1-4-1h-13l-9 3v6l-2 1v-25l6-12z" fill="#FBFBFB"/>
<path transform="translate(414,279)" d="m0 0h1v7l-21 1 10 5 7 2h8l1-1h8l1 1v16l7 44 1 5v19l-6 17h-4l-3-31-1-18v-33l1-11h-3v-2h6l1-5-8 1h-10l-12-4-6-4v-3h22z" fill="#CBE7F9"/>
<path transform="translate(776,1036)" d="m0 0 3 1-1 2h-9v92h10v-79l1-9 2 3 1 3v103h-16v-7l-2 1 1-101 3-8z" fill="#AEB0AE"/>
<path transform="translate(1230,985)" d="m0 0h1l1 20h22v-7h1l1 24 1 4v8l-8 5h-14l-7-5v-7l1-5z" fill="#202324"/>
<path transform="translate(1230,99)" d="m0 0h1v20h23v-8h1l1 25 1 4v7l-5 4-4 2h-11l-8-5-1-1v-7l1-4z" fill="#272929"/>
<path transform="translate(1238,473)" d="m0 0 5 1 4-1 6 3 4 9 2 10v10l-7-1h-25v-13l4-13 4-4z" fill="#FAFAFB"/>
<path transform="translate(1261,519)" d="m0 0 3 1 1 2v68h-5l-2 7-5 5-2 1h-16l-6-4-3-5-1-3-1-17 3 1 2-36h1v37l-1 4v7l8 5h9l7-3 3-2v-10l1-11h1v6h2v-25z" fill="#CACBCB"/>
<path transform="translate(765,506)" d="m0 0h1l1 90 1-1h10l2 3 3 12v6l-2-3-3-9-9 1-2 7-1 93h2v-2h10l2 3 3 12v6l-2-3-3-9h-7l-3 3-1 5-3-3-1-105v-101z" fill="#716963"/>
<path transform="translate(1261,79)" d="m0 0 4 3v75l-5 1v-11l-2 10-8 6-2 1h-11l-6-3-1-1-1-11 6 2 2 1h11l8-5v-7l-1-4v-36l1-9h1l1 41h2v-25z" fill="#CBCCCC"/>
<path transform="translate(461,69)" d="m0 0 6 2 4 2v2l4 2 12 11 9 13 5 11 6 17 6 19 6 22v5l-4-5-11-23-11-28-6-14-9-16-7-9-10-10z" fill="#FCFCFC"/>
<path transform="translate(324,98)" d="m0 0 15 2 7 2-1 8-4 8-6 4-4 1h-11l-8-3-4-5-2-5v-8l9-3z" fill="#D9BBAB"/>
<path transform="translate(362,99)" d="m0 0h20l7 3 1 10-4 7-5 3-4 1h-11l-7-2-5-5-3-8v-6z" fill="#D9BBAB"/>
<path transform="translate(1235,87)" d="m0 0h16l4 1 1 3v9l-2 19h-23l-1-20-1-9 2-2z" fill="#171C1E"/>
<path transform="translate(1238,973)" d="m0 0h9l8 2 1 3-1 20-1 7-23 1-1-21-1-2v-7z" fill="#171C1E"/>
<path transform="translate(1248,604)" d="m0 0h1l1 10 1 98 2-1-1 10-1 1v98l2-1-1 10-1 90h-6l3-1z" fill="#655E59"/>
<path transform="translate(769)" d="m0 0h14l1 25 3 3v5h-4v3l4 1-5 3h-2v9l-4 1-7-1v-10h-2v-14h2z" fill="#D2D3D4"/>
<path transform="translate(1254,820)" d="m0 0h10l4 12v102l-2-3-2-11-13 1h-13l-7 2 2-3 7-2 11 1v-90zm1 2-1 1v91l8 1 3-1v-88l-2-4z" fill="#AEB0AE"/>
<path transform="translate(713,28)" d="m0 0h2v2h12l5 1 1 5-4 1-5-3 1 5h-10l1 8h28l1-7 3-1v23l-1 1h-34z" fill="#81B577"/>
<path transform="translate(1234,503)" d="m0 0h18l6 3v16l-2 9-1-3h-21l-5 1-2-12v-11z" fill="#171C1E"/>
<path transform="translate(1283,1035)" d="m0 0h26v28h-23l-2 4z" fill="#917B6E"/>
<path transform="translate(1261,391)" d="m0 0h3v2h2l2 6v103l-2-4-2-11-3-1-1-6z" fill="#D3D7DA"/>
<path transform="translate(769,495)" d="m0 0h9l3 7 2 6v102l-2-3-3-11h-10l-2 1v-94zm6 2-6 1v92h10l1-4v-83l-2-6z" fill="#AEB0AE"/>
<path transform="translate(1284,291)" d="m0 0h26v27l-22 1-1 4h-2z" fill="#927C6F"/>
<path transform="translate(1249,164)" d="m0 0h1l1 6 2-2h7l1 2h-8l-1 9v93l2-2 10 1 2 6v6l-2-4-10 1-3 10v97l1-2 3 1h-2l-1 10-1 77h-2z" fill="#676666"/>
<path transform="translate(769,928)" d="m0 0h9v3h-9v92h10l1-88 2 3 1 3v102l-2-3-3-11h-8l-2-1v2h-2v-93z" fill="#AEB0AE"/>
<path transform="translate(774,603)" d="m0 0 5 1 4 12v102l-2-3-3-11-10-1v2h-2v-93l3-8zm-5 3v92l9 1 2-5v-82l-2-6z" fill="#AEB0AE"/>
<path transform="translate(769,820)" d="m0 0h10l4 12v103l-2-4-2-11h-10l-3 2v-94zm8 1-8 1v92l10 1 1-1v-86l-2-7z" fill="#AEB0AE"/>
<path transform="translate(769,387)" d="m0 0h10l4 13v102l-2-4-3-10h-10l-2 1v-94zm2 2-2 1v92h10l1-4v-83l-2-6z" fill="#AEB0AE"/>
<path transform="translate(771,711)" d="m0 0h7l3 7 2 6v103l-2-4-3-11-10-1v2h-2v-93l2-7zm5 2-7 1v92l9 1 2-2v-86l-2-6z" fill="#AEB0AE"/>
<path transform="translate(1260,603)" d="m0 0 4 1 4 12v102l-2-3-3-11h-10l-2 1v-93l3-8zm-6 3v91l1 1h10v-88l-2-4z" fill="#AEB0AE"/>
<path transform="translate(1257,711)" d="m0 0h6l3 6 2 7v102l-2-3-3-11-10-1-1 3h-1v-93l3-9zm5 2-8 1v92l8 1 3-1v-88l-2-5z" fill="#AEB0AE"/>
<path transform="translate(1119)" d="m0 0h5v21h2v2h-2v2h2v14h-2v63l-5 1v-64h-3v-8h-8v8h-3v-18h3v7h8v-7l2-1z" fill="#D1D6D9"/>
<path transform="translate(1254,279)" d="m0 0h10l4 12v102l-2-3-2-11-11 1-2 1v-93zm7 1-7 2v91l1 1h8l2-1v-88l-2-5z" fill="#AEB0AE"/>
<path transform="translate(906,807)" d="m0 0h4v136l-5-1v-133z" fill="#CED3D5"/>
<path transform="translate(1253,171)" d="m0 0h11l4 11v103l-2-4-2-10h-10l-3 2v-94zm1 1v93l9 1 2-1v-88l-2-5z" fill="#AEB0AE"/>
<path transform="translate(1119,509)" d="m0 0h4l1 2v132l-1 2h-4z" fill="#CED3D5"/>
<path transform="translate(906,241)" d="m0 0 4 1v134l-4 1-1-1v-134z" fill="#CED3D5"/>
<path transform="translate(1119,242)" d="m0 0h4l1 3v131l-1 2h-4z" fill="#CED3D5"/>
<path transform="translate(906,508)" d="m0 0h4v135l-5-1v-133z" fill="#CED3D6"/>
<path transform="translate(1119,809)" d="m0 0 5 1v132l-1 2h-4z" fill="#CED3D6"/>
<path transform="translate(769,279)" d="m0 0h10l-1 3v-2l-2 1h-7v93h10l1-88 2 3 1 3v102l-2-4-2-11-11 1-2 1v-94z" fill="#AEB0AE"/>
<path transform="translate(768,171)" d="m0 0h11l4 11v103l-2-4-2-10h-11l-2 1v-94zm1 1v93l10 1 1-1v-87l-2-6z" fill="#AEB0AE"/>
<path transform="translate(808)" d="m0 0h5l1 20 5 2v6 3l1 5-3 3h-3v62l-5 1-1-1z" fill="#A19078"/>
<path transform="translate(768,63)" d="m0 0h11l4 12v102l-2-3-3-11h-10l-2 1v-93zm1 1v93l10 1 1-5v-83l-2-6z" fill="#AEB0AE"/>
<path transform="translate(67,574)" d="m0 0h6l5 11 4 11 2 7h2l1-5 8-21 2-3h6v36h-5l-1-23-4 9-5 12-1 2h-4l-8-18-3-9v27h-5z" fill="#1C1D1D"/>
<path transform="translate(764)" d="m0 0h5v25h-2v14h2v10h11l-1-4 1-5 3-1v30l-2-4-1-3h-13l-2 2-1-27-2 2h-7l-3-3v-8l3-3 9 1z" fill="#927C6F"/>
<path transform="translate(1223,966)" d="m0 0 2 1 1 51 2-3v7l-2 2v-3l-1 1 2 19-2-3v-4h-2v13h-5l-1-1v-72l1-1h5z" fill="#EBDA87"/>
<path transform="translate(1253,921)" d="m0 0 2 1 4 7 4-1 3 6 2 7v102l-2-3-2-12-2 1-1 7 3 1 1 5-3-3-3 3 1-15 1-9 3 4v-54h2l-7-9v-6l-2-1h2l-2-19 1-2h-2z" fill="#ADAEAC"/>
<path transform="translate(763,620)" d="m0 0h1l1 96h1v97h2v-2h10l2 3 3 13v5l-2-3-2-9-10 1-4 13h-1l-1-5z" fill="#726A62"/>
<path transform="translate(1218,509)" d="m0 0 5 1-1 7h-2l-1 4h4v59l-1 62-4-1z" fill="#EBDA87"/>
<path transform="translate(230,583)" d="m0 0h9l6 4 2 3v13l-6 8h-9l-5-3-4-6v-11l3-5z" fill="#222"/>
<path transform="translate(561,583)" d="m0 0h9l7 6 1 3v10l-4 6-5 3h-6l-5-2-4-6v-11l3-6z" fill="#212120"/>
<path transform="translate(1012,508)" d="m0 0h3v134h-4v-133z" fill="#EBDA87"/>
<path transform="translate(718,69)" d="m0 0 23 1v25h-21l-1-2z" fill="#927C6F"/>
<path transform="translate(1011,808)" d="m0 0h4v133h-4z" fill="#EBDA87"/>
<path transform="translate(810,508)" d="m0 0 3 1v133h-4v-133z" fill="#EBDA87"/>
<path transform="translate(809,808)" d="m0 0h4v133h-4z" fill="#EBDA87"/>
<path transform="translate(1218,242)" d="m0 0h4v133h-4z" fill="#EBDA87"/>
<path transform="translate(1011,242)" d="m0 0h4v133h-4z" fill="#EBDA87"/>
<path transform="translate(809,242)" d="m0 0h4v133h-4z" fill="#EBDA87"/>
<path transform="translate(1219,808)" d="m0 0h3v133h-4v-132z" fill="#EBDA87"/>
<path transform="translate(1283,291)" d="m0 0 2 1v31h2v-5h23v-27h3l1 28h3l4 3-1 4-2 2-8 1h-20l-9-1-3-3 1-4 3-2z" fill="#645A52"/>
<path transform="translate(287,303)" d="m0 0 4 2 2-2 1 4 6 3 3 6v9l-4 1-6 7h-7l-2-3-5-2-2-4v-7l3-6 3-3 3-1z" fill="#CACBCB"/>
<path transform="translate(1295,968)" d="m0 0 7 1 3 7v7l-2 2 9 2v8l-1 1h-28l-1-1v-8l7-1 2-14z" fill="#CBCCCC"/>
<path transform="translate(1282,1035)" d="m0 0 2 2 1 26 2-1h16l6 1v-28l2 1 1 30 1 1v-4l6 2 1 4-2 2-7 2h-25l-8-2-1-5 4-2v-27z" fill="#645B55"/>
<path transform="translate(905)" d="m0 0h5v102l-5-1z" fill="#CED3D6"/>
<path transform="translate(1296,224)" d="m0 0 7 1 3 6v8l-4 1 12 3v8h-30v-8l1-1h6v-7l3-10z" fill="#CECECE"/>
<path transform="translate(1231,574)" d="m0 0h24l2 5v8l-7 5-4 1h-9l-9-6v-7l2-5z" fill="#1C2021"/>
<path transform="translate(136,194)" d="m0 0h1v44l2 16 6 24 10 25 11 21 13 19 8 10 12 13 4 5h-3l-14-14-7-9-9-12-7-11-6-11-7-14-9-24-5-22-2-13-1-12v-18l2-16z" fill="#DAE2E7"/>
<path transform="translate(1011)" d="m0 0h4v100h-4l-1-60-1-1v-15l-5 1 1-3 5-2z" fill="#EAD987"/>
<path transform="translate(710)" d="m0 0h2l1 62h34l1-23-2-1 4-1v32l-5 1h-29l-6-2z" fill="#C8CCCD"/>
<path transform="translate(312,574)" d="m0 0h5v16h18v-16h5v36h-5v-16h-18v16h-5z" fill="#252626"/>
<path transform="translate(1268,40)" d="m0 0h1v245h-1l-1-103-3-11h-11v-1l7-1h-7l-3 3v-8l-2-1 5-1h10l3 7 1 4v-99l-3-11h-2v-9h2l3 11zm-7 128m5 113 2 4-2 2-1-4z" fill="#907B6E"/>
<path transform="translate(382,583)" d="m0 0h9l5 5v22h-4v-2l-6 3-8-1-3-3v-8l3-4 5-1h8l-2-6h-9l-1 3h-4l1-4 3-3z" fill="#212121"/>
<path transform="translate(549,234)" d="m0 0 3 4 4 19v21l-4 23-7 19-8 16-7 12-12 17-5 6h-2l-2 4-3 4h-2l-1 3-6 5-5 5-10 8-2-2 14-12 5-4 7-8 5-6h2l2-4 10-14 7-11 9-17 6-16 5-18 1-10v-18l-1-11-2-6-1 13h-1v-20z" fill="#DAE2E7"/>
<path transform="translate(373,183)" d="m0 0 5 1 8 7 7 14 1 12 5 2 7 8 3 10v10h-3l-4-16-6-8-3-2h-9l-6 5-4 9-2 11-4 1v-9l4-11 6-8 6-3 6-1-1-9-4-10-4-5-8-6z" fill="#285667"/>
<path transform="translate(714,71)" d="m0 0h2v31h2v-6h24l1 1v6h2v-5l2-1v2l5 1-1 5-7 2h-30l-5-5 4-5z" fill="#645A52"/>
<path transform="translate(1223,489)" d="m0 0h1v18l-2 3-4-1 1 132 3 1v-62l1-59h-4l1-4 5 1 1 53 2-3v7l-2 2v-3l-1 1v15h-1l-1 53-4 1-2-2v-136h6z" fill="#8C786C"/>
<path transform="translate(1229,985)" d="m0 0h1v37l-2 12 4 2 3 2h14l4-2h3l-1 8-2 4-5 2h-12l-6-3-3-3-3-22h3z" fill="#F6F7F7"/>
<path transform="translate(1229,539)" d="m0 0h1v37l-1 4v7l8 5h9l7-3h3l-2 10h-2v2l-3 2h-14l-6-4-3-5-1-3-1-17 3 1z" fill="#F8F9F9"/>
<path transform="translate(354,583)" d="m0 0h8l6 4 2 6v5h-18l2 5v3h9l5-2v4l-5 3h-7l-6-3-3-6v-10l4-7z" fill="#202020"/>
<path transform="translate(144,583)" d="m0 0h10l4 4 2 5v6h-18l3 7 1 1h7l5-2v4l-5 3h-7l-6-3-3-6v-11z" fill="#202020"/>
<path transform="translate(117,583)" d="m0 0h9l5 4 2 5v6h-18l2 7 2 1h7l5-2v4l-5 3h-7l-4-1v-2l-3-1-2-4v-10l3-7 4-1z" fill="#1F1F1F"/>
<path transform="translate(1292,718)" d="m0 0 5 2 3 3 1 3v15l-4 6-6 1-5-5-2-8 1-9 4-6z" fill="#7E6E60"/>
<path transform="translate(590,583)" d="m0 0h8l5 3 2 4v8h-18l3 7 2 1h6l5-2 2 1-2 4-4 2h-7l-6-3-3-5v-12l4-6z" fill="#1D1E1E"/>
<path transform="translate(518,583)" d="m0 0h7l6 5 1 10h-18l3 7 1 1h7l5-2v4l-5 3h-8l-6-5-2-6 1-9 3-5z" fill="#1D1E1E"/>
<path transform="translate(1296,66)" d="m0 0 5 2 4 6v13l-4 7-7 1-5-6-1-4v-9l4-8z" fill="#7E6E60"/>
<path transform="translate(1265,68)" d="m0 0 2 3 1 3v103l-2-4-3-10h-13l8-8 2-13h1v11l-1 5 5-1-1-76h2l-2-4z" fill="#ACAEAC"/>
<path transform="translate(1218,806)" d="m0 0 5 1 1 128 1 24 1-6h1l3 32-1 18h-1l-1-28-2-13h-2v-19h-5l-1-1v-135zm1 2-1 1v132h4v-133z" fill="#917B6E"/>
<path transform="translate(906,1078)" d="m0 0h4v74h-5v-73z" fill="#CED3D6"/>
<path transform="translate(445,60)" d="m0 0 6 1 10 4 14 9 10 9 7 8 8 13 7 18 5 16 10 36 3 8-1 3-6-8v-7l-10-35-6-18-5-12-9-14-9-10-8-6v-2l-8-2 1 2-4-2-13-8v-2z" fill="#DAE2E7"/>
<path transform="translate(1261,1038)" d="m0 0 3 2 1 3v88l-4-1-1-90z" fill="#D4D8DA"/>
<path transform="translate(1259,591)" d="m0 0 2 1v3h3l2 7v6l-3-4-9 1-2 7v92l1-1h10l3 7v5l-3-3-10 1h-3l-1-109h-11v-1l13-1 4-2 3-5z" fill="#917B6E"/>
<path transform="translate(1268)" d="m0 0h15v20l-6 1-1 5v9h-2l-1-7-5-2 1-3h4v-2l-5-1z" fill="#7D6D60"/>
<path transform="translate(1119,1080)" d="m0 0 5 1v71h-5z" fill="#CED3D6"/>
<path transform="translate(1283,1128)" d="m0 0h32l4 1v23h-3v-17h-34l-1 17h-2v-21l1-2z" fill="#C3C4C3"/>
<path transform="translate(1261,607)" d="m0 0h3l1 3v88l-4-1z" fill="#D4D8DA"/>
<path transform="translate(776,607)" d="m0 0h3l1 5v82l-2 5-2-2z" fill="#D4D8DA"/>
<path transform="translate(751)" d="m0 0h13v26h-9l-2 2-1 7h-1z" fill="#7F6E60"/>
<path transform="translate(1265,501)" d="m0 0 2 3 1 3v103l-2-3-2-12h-3l-2-5 1-8h1v8l3-1v-68h2l-2-4z" fill="#AEB0AE"/>
<path transform="translate(475,574)" d="m0 0h4v16h19v-15h4v35h-4v-17h-19v17h-4z" fill="#0D0E0F"/>
<path transform="translate(1231,1006)" d="m0 0h23v14l-2 1h-8l-1-2-1 2h-8l-3-1z" fill="#F1F1F2"/>
<path transform="translate(1231,560)" d="m0 0h23v13l-4 2h-13l-6-2z" fill="#F1F1F1"/>
<path transform="translate(1231,120)" d="m0 0h23v14l-11 1h-7l-5-2z" fill="#F1F2F2"/>
<path transform="translate(1265,393)" d="m0 0 2 3 1 3v103l-2-4-2-11-3-1-1-4 4-1z" fill="#AEB0AE"/>
<path transform="translate(433,572)" d="m0 0h4v14l4-3h8l4 3 1 3v22h-5l-1-22-1-1h-6l-3 2-1 20h-4z" fill="#2F2D2C"/>
<path transform="translate(1241,1050)" d="m0 0h10v95l2-1-1 8h-4v-101h-7z" fill="#726862"/>
<path transform="translate(292,253)" d="m0 0h1l1 43 1 7-1 3 5 1 6 7 1 8-3 8-7 5-9 1-8-5-3-4-1-3v-8l4-6 5-4h2l-1-3v-7h2v11l-4 3-3 1-2 6v7l2 4 6 1v4l7-1 6-8 4 1-2-12-4-4-4-2-1-10-1-2v-21z" fill="#D4DBDF"/>
<path transform="translate(253,583)" d="m0 0h5l1 22 1 1h6l3-3 1-20 5 1v27h-5l-1-2-4 2h-7l-4-4-1-3z" fill="#2D2B29"/>
<path transform="translate(722,20)" d="m0 0h16l7 1 2 6-6 1v8h5l3-1v3l-7 1-3-5v-6l-7 1 4 4v3h-2v-4l-19-2v-9z" fill="#D7DFE3"/>
<path transform="translate(1217,38)" d="m0 0h1v62h5v-19h-3l1-4 1-2h3l1 2 2 16v35l-1 5-2-1-1-11h-1v-19h-5l-1-1z" fill="#9C8F86"/>
<path transform="translate(817,23)" d="m0 0h1v7l2 2-1 5-5 3-1 60h-4v-66l2 2 5 1v-6l-4-1 1-2 3-1z" fill="#EAD987"/>
<path transform="translate(776)" d="m0 0h7l1 25 3 3v5h-4v3l4 1-2 2h-6l-3-3z" fill="#D5D9DC"/>
<path transform="translate(296,201)" d="m0 0h1v16l-2 8 3 1 1 10-2-3-1-4-2 12-2 33v21l1 2v6l-2 3-3-1-1-2 1-21 2-39 5-32z" fill="#514F4D"/>
<path transform="translate(1282,220)" d="m0 0h34l1 1v63h-1l-1-62h-12l-1 1 6 5 4 9 1 6-20-2v-1l13-1-2-11-3-3h-7l-3 17-7 1 3-11 6-8 2-2-13-1z" fill="#AEB0AE"/>
<path transform="translate(1012,1078)" d="m0 0h3v74h-4v-73z" fill="#EBDA87"/>
<path transform="translate(810,1078)" d="m0 0 3 1v73h-4v-73z" fill="#EBDA87"/>
<path transform="translate(1218,1079)" d="m0 0h4v73h-4z" fill="#EBDA87"/>
<path transform="translate(616,583)" d="m0 0h10l5 5v4l-5-1-2-3h-7v5l10 3 4 3v7l-4 4-3 1h-8l-5-4-1-5h5l2 4h7l2-1 1-4-10-3-5-3-1-1v-6z" fill="#272726"/>
<path transform="translate(193,574)" d="m0 0h5l8 16v2h2l1-5 7-13h5l-1 4-8 14-2 4-1 15h-5l-1-16-9-15z" fill="#232322"/>
<path transform="translate(1012,401)" d="m0 0h3v72h-4v-71z" fill="#EBDA87"/>
<path transform="translate(1219,136)" d="m0 0 4 1-1 70h-4v-70z" fill="#EBDA87"/>
<path transform="translate(1011,136)" d="m0 0h4v72l-4-1z" fill="#EBDA87"/>
<path transform="translate(1218,402)" d="m0 0h4v71h-4z" fill="#EBDA87"/>
<path transform="translate(809,402)" d="m0 0h4v71h-4z" fill="#EBDA87"/>
<path transform="translate(809,136)" d="m0 0h4v71h-4z" fill="#EBDA87"/>
<path transform="translate(1011,975)" d="m0 0h4v70h-4z" fill="#EBDA87"/>
<path transform="translate(809,975)" d="m0 0h4v70h-4z" fill="#EBDA87"/>
<path transform="translate(1218,692)" d="m0 0h4v70h-4z" fill="#EBDA87"/>
<path transform="translate(1011,692)" d="m0 0h4v70h-4z" fill="#EBDA87"/>
<path transform="translate(809,692)" d="m0 0h4v70h-4z" fill="#EBDA87"/>
<path transform="translate(1409,304)" d="m0 0h12l3 4-1 7 1 1-1 7-2 1h-12z" fill="#C4DEEE"/>
<path transform="translate(1280,214)" d="m0 0h38l1 2h-39l1 5 1 2v61h34v1l-9 1h-26l-2 4v-75z" fill="#B7B9B7"/>
<path transform="translate(1229,149)" d="m0 0 6 2 2 1h11l4-2h4l-2 10-6 4h-11l-6-3-1-1z" fill="#F5F6F6"/>
<path transform="translate(1254,387)" d="m0 0h10l1 6-2-4-8 1-1 85-3-1v-78z" fill="#AEB0AE"/>
<path transform="translate(766)" d="m0 0h3v25h-2v14h2v10h11l-1-4 1-5 3-1v30l-2-4-2-11h-10l-3 2z" fill="#AEB0AE"/>
<path transform="translate(1283 1e3)" d="m0 0h29l1 6-2 3h-28l-1-2v-6z" fill="#BDBEBD"/>
<path transform="translate(1223,966)" d="m0 0 2 1 1 51 2-3v7l-2 2v-3l-1 1 2 19-2-3v-4h-2v13h-5l-1-1v-72l1-1h5zm-5 9v70h4l1-17v-52z" fill="#A29A93"/>
<path transform="translate(1268,941)" d="m0 0h1v211l-2-1v-102l-4-12-2-1v-7l3-1 3 12z" fill="#927C6F"/>
<path transform="translate(1469,42)" d="m0 0h12l2 2v8l1 5-3 4h-12z" fill="#175167"/>
<path transform="translate(724,428)" d="m0 0h9l4 5v8l-5 5-5 1-5-3-2-3v-8z" fill="#7E6E60"/>
<path transform="translate(232,587)" d="m0 0h7l4 5v9l-3 5-2 1h-6l-3-2-1-3v-10l2-4z" fill="#F3F3F3"/>
<path transform="translate(563,587)" d="m0 0h6l3 2 1 3v10l-4 5h-6l-5-5v-10z" fill="#F1F1F2"/>
<path transform="translate(765,722)" d="m0 0h1v91h2v-2h10l2 3 3 13v5l-2-3-2-9-11 1h-3z" fill="#917B6E"/>
<path transform="translate(1284,261)" d="m0 0h29l1 1v6l-1 1h-29z" fill="#BDBEBD"/>
<path transform="translate(370,60)" d="m0 0 6 5 9 16 4 12-1 4-3-9-8-16-6-8v-2l-28 7-16 6-11 8-5 6-4 8h-2l1-5 6-9 7-6 14-8 11-4 19-4z" fill="#6D6159"/>
<path transform="translate(1281,964)" d="m0 0h28l6 1v1l-14 1 2 1v2h2l5 9 2 8-9-1-1-2 2-1v-7l-2-7h-9l-2 8-1 9-1 1h-6l2-9 5-8 4-3h-14z" fill="#AEB0AE"/>
<path transform="translate(765,939)" d="m0 0h1v91h2v-2h10l2 3 3 12v6l-2-3-3-9-10 1-1-2-2 2z" fill="#917B6E"/>
<path transform="translate(765,830)" d="m0 0h1l1 91 2-2 10 1 4 15v6l-2-3-3-9h-10-3z" fill="#907B6E"/>
<path transform="translate(765,506)" d="m0 0h1l1 90 1-1h10l2 3 3 12v6l-2-3-3-9-10 1-1-2-2 2z" fill="#907B6E"/>
<path transform="translate(1279,958)" d="m0 0h38l1 1v75l-1 1-33 1-5-1v-2h38v-73h-38l-1 2z" fill="#BCBEBC"/>
<path transform="translate(1966,472)" d="m0 0h13l11 3v4l-2 1h-31l-2-1v-4l10-2z" fill="#BFDFF1"/>
<path transform="translate(765,614)" d="m0 0h1v91h2v-2h10l2 3 3 12v6l-2-3-3-9h-7l-3 1h-3z" fill="#917B6E"/>
<path transform="translate(765,398)" d="m0 0h1l1 90 1-1h10l3 7 2 8v6l-2-3-3-9h-10l-1-1-2 2z" fill="#917B6E"/>
<path transform="translate(765,289)" d="m0 0h1l1 91 1-1h11l4 15v6l-2-3-2-10-11 1h-3z" fill="#917B6E"/>
<path transform="translate(1569,41)" d="m0 0 5 1 3 3v13l-5 4-5-1-3-3v-13z" fill="#195267"/>
<path transform="translate(287,312)" d="m0 0h6l4 2 2 4-1 7-5 4-7-1-4-5v-6z" fill="#215061"/>
<path transform="translate(765,181)" d="m0 0h1l1 90 4-1 8 1 4 14v7l-2-3-2-10-11 1-1-1-2 1z" fill="#907B6E"/>
<path transform="translate(1480,150)" d="m0 0h9l4 4v8l-4 4-6-1v7l-4-1v-20z" fill="#C1D8E6"/>
<path transform="translate(1250,722)" d="m0 0h1l1 91 1-2h10l3 7v6l-2-4-11 1h-3z" fill="#917B6E"/>
<path transform="translate(1218)" d="m0 0h4l1 24 3 3v6l-3 1-1 2h4l-1 3h-6l-4-4v-6l1-2h2z" fill="#E0D9B7"/>
<path transform="translate(1258,507)" d="m0 0h1v6h2l5 6v2l-4-1-2 52h-2l-1-6-1-40 1-4z" fill="#252727"/>
<path transform="translate(418,577)" d="m0 0h4v6h5v4h-5l1 19 4 1-1 4h-6l-3-5v-19h-5v-4h5v-5z" fill="#2E2D2C"/>
<path transform="translate(1967,313)" d="m0 0h12l3 2 8 1 1 3-2 2h-33l-1-4 1-1 8-1z" fill="#B6E2FB"/>
<path transform="translate(1258,67)" d="m0 0h1v6h2l5 6v2l-4-1-2 52h-2l-1-6v-44z" fill="#403E3C"/>
<path transform="translate(382,785)" d="m0 0 5 1 3 1 4-2 5 1 2 2v6l-3 3h-5l-5-1-1 1h-5l-3-3v-7z" fill="#DFDFDF"/>
<path transform="translate(251,785)" d="m0 0h3l2 3 2-3h2l1 2 1-2h8l2 2v8l-2 2h-5v5h-3l-1-4h-3l-1-3-6 2 2-4-1-5z" fill="#CDCDCC"/>
<path transform="translate(400,707)" d="m0 0h5l3 2 4-2 5 1 1 1v10h-8l-4-1-1 1h-5l-3-4v-5z" fill="#E5E7E7"/>
<path transform="translate(1473,461)" d="m0 0h3v22h-10l-3-3-1-6 3-6 5-1 2 1v-6z" fill="#C5E0F1"/>
<path transform="translate(1253,1136)" d="m0 0 11 1 3 11v4h-15v-7l-2 1v-7z" fill="#8F7A6E"/>
<path transform="translate(777,1136)" d="m0 0 3 3 2 9v4h-15v-7l-2 1v-8z" fill="#8F7A6E"/>
<path transform="translate(1252,819)" d="m0 0h1l-1 10-1 90h-6l4-1v-97z" fill="#796F69"/>
<path transform="translate(1250,290)" d="m0 0h1l1 90 1-1h11l2 6v6l-2-1v-3l-11 1-1-1-2 2z" fill="#907B6E"/>
<path transform="translate(167,577)" d="m0 0h5v7h4v3h-4v20h5v4h-7l-3-4v-20h-5v-3h5z" fill="#272727"/>
<path transform="translate(1290,132)" d="m0 0h5l3 3 1 4v8l-3 6h-6l-3-5v-11z" fill="#7E6E60"/>
<path transform="translate(1965,155)" d="m0 0h15l1 1 8 1 2 3-1 2h-34l-1-4 1-1 8-1z" fill="#C1E5FB"/>
<path transform="translate(1258,953)" d="m0 0h1l2 7 5 6v2l-4-1-2 52h-2l-1-8v-33l1-12z" fill="#292A2A"/>
<path transform="translate(1562,461)" d="m0 0h3v22h-10l-3-4v-7l5-5 5 1z" fill="#C4E0F1"/>
<path transform="translate(748)" d="m0 0h3v67h-1l-1-32-3 2-5-1v-8l6-2z" fill="#C3C6C6"/>
<path transform="translate(1283,988)" d="m0 0h29v7h-28l-1-1z" fill="#D8DEE3"/>
<path transform="translate(727,1)" d="m0 0h6l4 7 1 8-1 1-14 1v-10z" fill="#CECFCF"/>
<path transform="translate(258,707)" d="m0 0 5 1 3 1 3-2 5 1v3l-4-1-1 2 6 1 1 5-2 2h-5l-4-2-2 1h-6l-3-4 1-5z" fill="#E0E2E3"/>
<path transform="translate(725,2)" d="m0 0 2 1-3 5-1 10 14-2-2-11-2-3 4 2 5 8 2 9h-29l3-10 4-6z" fill="#AEB0AE"/>
<path transform="translate(1279,20)" d="m0 0 7 1 1 1v13l-1 3-2 1h-6l-3-5v-8l2-5z" fill="#E0E1E3"/>
<path transform="translate(337,147)" d="m0 0h22l3 1-2 4-6 4-8 1-10-5-2-4z" fill="#75665C"/>
<path transform="translate(481,733)" d="m0 0 6 1v2l4-1 5-2 3 1v3h-2v-2h-4v3l5 1 2 2v3l-2 1h-6l-2-2-3 2-9-1v-8z" fill="#E0E2E3"/>
<path transform="translate(446,785)" d="m0 0 5 1 3 3 3-4h5l2 4-6-2 3 3 3 2-1 5h-6l-4-1-7 1-3-2v-7z" fill="#E5E6E7"/>
<path transform="translate(414,279)" d="m0 0h1v7l-21 1 10 5 7 2h8l1-1h8l1 1-1 16-2-4-1 13v45h-1l-1-18v-33l1-11h-3v-2h6l1-5-8 1h-10l-12-4-6-4v-3h22z" fill="#D5DCE0"/>
<path transform="translate(1235,63)" d="m0 0h15l8 3v11h-1v-6l-6-1h-17l-6 1v5h-1v-10z" fill="#131414"/>
<path transform="translate(1229,99)" d="m0 0h1v37l-1 4v7l1 2v10l-3-2-3-9-1-9-1-3h2l-1-15 2-3 1 14 2-16z" fill="#C6CACB"/>
<path transform="translate(765,73)" d="m0 0h1l1 90 1-1h10l2 3v4h-8l-5 1-2 2z" fill="#927C6F"/>
<path transform="translate(1235,949)" d="m0 0h13l9 3 1 1v10h-1v-6l-8-1h-13l-8 1v6h-1v-10z" fill="#161717"/>
<path transform="translate(1261,930)" d="m0 0h2l2 5v28l-4-1-2-3v-6l-2-1h2l-2-19 3 1z" fill="#CCCDCD"/>
<path transform="translate(1252,385)" d="m0 0 3 1h-2l-1 10-1 77h-2v-84h2z" fill="#796F69"/>
<path transform="translate(1132,25)" d="m0 0h9v15l-3 4h-7l-1-3 7 1v-2l-7-2-1-2v-8z" fill="#BFC0BF"/>
<path transform="translate(1316,965)" d="m0 0h1v68h-38v-5l2 1 34 1z" fill="#D9E1E6"/>
<path transform="translate(772,168)" d="m0 0 8 1 3 8v5l-2-2-2-9h-11l-2 10-1 95h-1l-1-103 2-3z" fill="#7E6E60"/>
<path transform="translate(733)" d="m0 0h15v26l-3-2-6-16-4-5-2-1z" fill="#81B477"/>
<path transform="translate(1234,503)" d="m0 0h18l6 3v11h-1l-1-6-10-2h-8l-9 2-1 5h-1v-10z" fill="#111212"/>
<path transform="translate(1415,462)" d="m0 0 7 1 3 3v3l-4-1v-2h-7v11l1 2h6v-3l-4-1 1-3h6l1 1v8l-3 2h-8l-5-5v-11l3-4z" fill="#C3DEEE"/>
<path transform="translate(1250,181)" d="m0 0h1l1 91 2-2 10 1 1 6-13 1-2 2z" fill="#927C6F"/>
<path transform="translate(1258,966)" d="m0 0h1l-1 12-1 45 3-1v14l-2 8-5 2 3-10-2-1 3-1-2-12v-36l1-13z" fill="#C7CACB"/>
<path transform="translate(1414,145)" d="m0 0h7l4 4v2h-4l-1-2h-5l-1 1v12h6l1-3-4-2 1-2h7v9l-4 2-9-1-3-4v-11z" fill="#C4DFEF"/>
<path transform="translate(1255,477)" d="m0 0 4 2 3 7 2 1 4 14h1v108h-1l-1-102-4-11-4-10z" fill="#927C6F"/>
<path transform="translate(1284,244)" d="m0 0h29v6h-29z" fill="#DAE2E7"/>
<path transform="translate(1317,283)" d="m0 0h1v7h-38v-6l1 2 26-1 9-1z" fill="#D6DCDF"/>
<path transform="translate(299,756)" d="m0 0h3v3l4 1 6-1 2 4-6-2v3l5 1 1 5-1 1h-6l-2-1-1 2h-4l-1-3v-8h-2v-2h2z" fill="#DBDCDD"/>
<path transform="translate(1298,1138)" d="m0 0 5 2 3 5v7h-15l2-10z" fill="#CECECE"/>
<path transform="translate(277,785)" d="m0 0h5l3 3 1-3h7v2h-3v10l-5-1-2 1h-6l-2-2v-7z" fill="#E6E9EB"/>
<path transform="translate(421,704)" d="m0 0h4v3h2v2l9-1 1 1v5h-7l1 2 6 1-1 2h-6l-3-2v3h-5v-11l-2-1z" fill="#D4D5D6"/>
<path transform="translate(305,47)" d="m0 0 1 3-5 9-1-4-24 4-26 8-9 2 2-3 15-5 21-6 23-4z" fill="#DAE2E7"/>
<path transform="translate(1223,962)" d="m0 0h2l3 13v40l-1 5-2-2-1-51h-4l2-4z" fill="#333130"/>
<path transform="translate(216,731)" d="m0 0h2l2 4-1 9 2 1-5-1h-3l-1 1h-6l-2-3v-7l6-2 4 2z" fill="#EEEEEF"/>
<path transform="translate(1280,216)" d="m0 0h38v6l-2-1h-34l-2 1z" fill="#D7DDE1"/>
<path transform="translate(433,572)" d="m0 0h4v15h2l-1 3-1 20h-4z" fill="#0E1010"/>
<path transform="translate(1222,75)" d="m0 0h3l1 2 2 16v35l-1 5-2-1v-53l-5 2 1-4z" fill="#282827"/>
<path transform="translate(178,729)" d="m0 0 8 1 3 3v8l-4 4h-7z" fill="#544E4A"/>
<path transform="translate(1508,309)" d="m0 0h6l4 4v5h-10l3 3 5-1v4l-6 1-5-3-1-2v-6l2-4z" fill="#B2CEDE"/>
<path transform="translate(1249,164)" d="m0 0h1l1 6 2-2h7l1 2h-8l-1 9-1 2-1 99h-1z" fill="#676666"/>
<path transform="translate(1220,517)" d="m0 0 5 1 1 53 2-3v7l-2 2v-3l-1 1v12h-1l-1-8v-58h-4z" fill="#B1B3B1"/>
<path transform="translate(979,20)" d="m0 0h2v19h-9l-2-2v-9l3-3 6 1z" fill="#E1E4E6"/>
<path transform="translate(1541,467)" d="m0 0 5 1 3 3v6h-9l1 2h7v3l-1 1h-8l-3-3v-9z" fill="#B3CDDC"/>
<path transform="translate(930,25)" d="m0 0h8l3 3v8l-2 3h-7v5h-2z" fill="#DCDFE0"/>
<path transform="translate(1302,878)" d="m0 0 5 3 1 2v9l-4 5-4-1-2-3v-11z" fill="#7E6E60"/>
<path transform="translate(404,572)" d="m0 0h4v38h-4z" fill="#1B1B1B"/>
<path transform="translate(1495,467)" d="m0 0 5 1 3 3v6h-9l1 2h7v3l-2 1h-7l-3-3v-9z" fill="#B2CDDC"/>
<path transform="translate(763,186)" d="m0 0h1l1 90 1 3 1-2h12v1h-11l-1 9-2 6h-1l-1-6z" fill="#666"/>
<path transform="translate(1434,467)" d="m0 0 5 1 3 3v6h-9l1 2h7l-1 4h-7l-4-3v-9z" fill="#B2CDDC"/>
<path transform="translate(546,707)" d="m0 0 7 1 1 10 1-2h3l-1 6h-5l-3 2-5-1v-2l6 1v-3h-5l-2-2v-7z" fill="#565350"/>
<path transform="translate(1224,515)" d="m0 0 2 2 1 9 1 2v40l-1 5-2-2v-53l-4 1z" fill="#272727"/>
<path transform="translate(906,239)" d="m0 0 5 1v137l-2-1v-134h-4z" fill="#8D796D"/>
<path transform="translate(755,25)" d="m0 0h6l3 3 1 6-3 5h-7l-3-3v-8z" fill="#DFE1E3"/>
<path transform="translate(1525,309)" d="m0 0h6l3 4v5h-9v3h8l-1 3-6 1-5-4v-9z" fill="#B2D0E1"/>
<path transform="translate(1420,46)" d="m0 0 6 1 2 2v12l-9 1-3-2v-5l3-3h5l-1-2-7 1 2-4z" fill="#1F5C74"/>
<path transform="translate(1433,150)" d="m0 0 7 1 2 3v5h-9v3h8v3l-7 1-4-2-1-2v-8z" fill="#B2CDDD"/>
<path transform="translate(1306,118)" d="m0 0 4 1 3 5-1 9-3 3-4-1-3-6 1-8z" fill="#7E6E60"/>
<path transform="translate(1263)" d="m0 0h5l1 20 4 1v2l-4 1v2l2 2h-6v-5l-3 1z" fill="#CCCECF"/>
<path transform="translate(1302,773)" d="m0 0 5 1 2 3v9l-4 5-4-2-2-2v-10z" fill="#7E6E60"/>
<path transform="translate(1259,591)" d="m0 0 2 1v3h3l2 7v6l-3-4-9 1-3 9h-2v-10h-11v-1l13-1 4-2 3-5z" fill="#87766B"/>
<path transform="translate(546,583)" d="m0 0 5 1v4l-7 1-1 1-1 20h-4v-26h6z" fill="#121515"/>
<path transform="translate(290,583)" d="m0 0 5 1v4l-7 1-1 1-1 20h-4v-26h6z" fill="#121515"/>
<path transform="translate(312,95)" d="m0 0 2 1 5-1h7l2 2-4 2-13 2-5 1 2 11 4 6 9 4v1l-7-1-6-4-4-8-2-10 2-4h2v3l4-2z" fill="#8A766A"/>
<path transform="translate(1229,539)" d="m0 0h1v37l-1 4v7l1 2 1 10h2v2l-4-2-3-5-1-3-1-17 3 1z" fill="#D1D7DA"/>
<path transform="translate(1544,41)" d="m0 0 6 1 2 2v6l-6 7 7 2v2h-14l2-4 6-7 1-5-4 1-1 2h-4l1-4z" fill="#1B5267"/>
<path transform="translate(1195,25)" d="m0 0h6l3 5v6l-3 3h-6l-3-3v-8z" fill="#D8D9DA"/>
<path transform="translate(1446,41)" d="m0 0h4l1 9 3-3 4 1-3 4 2 5 2 4h-5l-2-5h-2v5h-4z" fill="#135067"/>
<path transform="translate(763,944)" d="m0 0h1l1 91h3l-1 10-2 5h-1l-1-5z" fill="#666"/>
<path transform="translate(1229,985)" d="m0 0h1v37l-2 12 3 1-2 1 2 9 4 4-5-2-3-3-3-22h3z" fill="#D1D6D9"/>
<path transform="translate(155,703)" d="m0 0h2l1 8 3-3 2 1 3-2h3v12l-7 1-4-5-1 4h-2z" fill="#EFF0F1"/>
<path transform="translate(1547,303)" d="m0 0h3l1 6h6l3 3v12h-4l-1-11-4-1-1 12h-3z" fill="#C7E5F8"/>
<path transform="translate(1280,1132)" d="m0 0h38v5l-2-1-34-1-1 17h-1z" fill="#D6DDE1"/>
<path transform="translate(723,472)" d="m0 0 5 1 3 4-1 7-5 3-5-2-1-2v-7z" fill="#7E6E60"/>
<path transform="translate(1256,38)" d="m0 0 3 1 2 4 1 6 2-1 1-8 4-1-1 29-2-3-2-11h-2v9h2l1 5-2-4h-2l-1-14-3-9z" fill="#A7A8A6"/>
<path transform="translate(1283,1006)" d="m0 0h22l6 1 1 3-1 1h-28z" fill="#D9E1E6"/>
<path transform="translate(1471,303)" d="m0 0h3l1 6h6l2 1 1 5v8l-4 1-1-11-4-1-1 12h-3z" fill="#C7E5F7"/>
<path transform="translate(161,759)" d="m0 0h7v13l-3 4h-5l-1-3h5l1-2h-5l-2-2v-7z" fill="#4F4D4B"/>
<path transform="translate(447,702)" d="m0 0h3v18h-8l-2-3v-7l3-3h3z" fill="#52504F"/>
<path transform="translate(1222,40)" d="m0 0h1l1 9h1l-1 19 3-1 3 24-1 25h-1l-1-23-2-18h-2l-1-21z" fill="#898784"/>
<path transform="translate(1464,150)" d="m0 0 3 1 1 11h3l1-11h4v14l-10 1-3-3v-12z" fill="#C4DFEF"/>
<path transform="translate(293,733)" d="m0 0 7 1v13l-3 3-6-1v-2l6 1v-2l-6-2-1-1v-7z" fill="#333"/>
<path transform="translate(763,1053)" d="m0 0h1l1 90 1 2 2-2-1 9h-4z" fill="#666"/>
<path transform="translate(368,780)" d="m0 0h3v17h-8l-2-2v-8l3-2h4z" fill="#424342"/>
<path transform="translate(759)" d="m0 0h5v26l-4-1-1-1z" fill="#645B55"/>
<path transform="translate(221,759)" d="m0 0 7 1v13l-3 3-6-1v-2h6v-2l-5-1-2-2v-6z" fill="#474443"/>
<path transform="translate(1260,488)" d="m0 0 2 3 3 7v19l-4-2v-2h-2l-1-6-2-2h3z" fill="#C6C6C6"/>
<path transform="translate(327,1025)" d="m0 0 4 1 4 7 1-8h3v15l-4-1-4-6v-2h-2v9h-3v-14z" fill="#014C68"/>
<path transform="translate(1284,291)" d="m0 0h4v26l15-1 7 1v1l-22 1-1 4h-2z" fill="#887568"/>
<path transform="translate(296,201)" d="m0 0h1v16l-2 8 3 1 1 10-2-3-1-4-2 12-1 12-3-3 1-15 4-24z" fill="#5D5855"/>
<path transform="translate(715,41)" d="m0 0h29v4l-13 1h-14l-2-2z" fill="#D9E1E6"/>
<path transform="translate(1267,29)" d="m0 0 4 1 1 8-6 2-1 9-3 1-1-1v-16l4 1 1-4z" fill="#E3E8ED"/>
<path transform="translate(1266,607)" d="m0 0 3 2v108h-1l-1-101-2-8z" fill="#917B6E"/>
<path transform="translate(1435,46)" d="m0 0 6 1 2 4-7-1-1 2 6 1 2 2-1 5-3 2-6-1-2-2v-3l4 1 3 1 1-2-7-2-1-5z" fill="#1F5367"/>
<path transform="translate(1965,40)" d="m0 0h31l-1 4h-28l-2-1z" fill="#1B5267"/>
<path transform="translate(1261)" d="m0 0h2v23l3-2 2 2h-3v5h8l1 2v6l-2 2-2-8-4 1-1 3-4-1z" fill="#DCE1E4"/>
<path transform="translate(238,759)" d="m0 0h7l2 3v7l-2 2h-6v4h-2v-15z" fill="#40403F"/>
<path transform="translate(763,404)" d="m0 0h1v95l3 1-2 9h-1l-1-5z" fill="#666"/>
<path transform="translate(1457,309)" d="m0 0h7l3 3v2h-4v-2h-5l1 2 7 3 1 5-4 3-6-1-3-3 1-2 4 2h3v-2l-7-3v-5z" fill="#C2DCEB"/>
<path transform="translate(373,183)" d="m0 0 5 1 8 7 7 14 1 12-4-2-1-9-4-10-4-5-8-6z" fill="#53514F"/>
<path transform="translate(1506,46)" d="m0 0 6 1 2 4-7-1-1 2 6 1 2 2-1 5-3 2-6-1-2-4h4l3 1 1-2-7-2-1-4z" fill="#1D5367"/>
<path transform="translate(426,785)" d="m0 0 6 1 1 1v7l-2 3h-6v4h-2v-15z" fill="#4F4C4B"/>
<path transform="translate(385,755)" d="m0 0h2v16h-8l-2-3 1-7 1-2h5z" fill="#40403F"/>
<path transform="translate(387,703)" d="m0 0h2v16l-7 1-3-4v-6l2-2h6z" fill="#373736"/>
<path transform="translate(1525,467)" d="m0 0 6 1 2 4-5-1-3-1 1 3 5 2 2 2-1 5-1 1h-8l-2-2v-3h3v2h5v-3l-6-1-2-2 1-5z" fill="#C3DCEC"/>
<path transform="translate(1510,467)" d="m0 0 6 1 2 4-8-1 1 2 6 3 1 5-3 2h-7l-3-3v-2h4v2h5v-3l-6-1-2-2 1-5z" fill="#C4E0F0"/>
<path transform="translate(1230,985)" d="m0 0h1v35l11 1 1-3 1 3h5v1l-14 1-3 1-1 8 9 5v1h-6l-6-4v-7l1-5z" fill="#45403D"/>
<path transform="translate(214,703)" d="m0 0h9l2 2v6l-2 2h-7v6h-2z" fill="#464341"/>
<path transform="translate(764,617)" d="m0 0h1l1 95 2-2-1 10-3-3z" fill="#7D6E60"/>
<path transform="translate(1284,263)" d="m0 0h29v4h-29z" fill="#DAE2E7"/>
<path transform="translate(1406,41)" d="m0 0 10 1v3h-6v16h-4v-16h-6v-3z" fill="#084E67"/>
<path transform="translate(362,703)" d="m0 0h2v16h-7l-3-3v-6l3-3h4z" fill="#3D3B3A"/>
<path transform="translate(196,755)" d="m0 0h2v16h-8l-2-3 1-7 2-2 5 1z" fill="#3C3C3B"/>
<path transform="translate(388,729)" d="m0 0h2v16h-8l-2-4v-5l3-3 5 1z" fill="#3C3C3C"/>
<path transform="translate(203,703)" d="m0 0h2v16h-8l-2-3 1-7 5-2 2 1z" fill="#393939"/>
<path transform="translate(763,620)" d="m0 0h1l1 96h1l-1 9h-1l-1-5z" fill="#666"/>
<path transform="translate(1521,46)" d="m0 0 5 1 3 3-4 1-4-2v3l5 1 3 3-2 5-6 1-3-1-2-4h4l4 1 1-2-7-2-1-5z" fill="#1A5267"/>
<path transform="translate(422,757)" d="m0 0h2v2h7v12h-8l-1-1v-9h-2v-2h2z" fill="#E9EAEC"/>
<path transform="translate(1439,309)" d="m0 0h3l1 11h4l1-11h3v15l-9 1-3-2z" fill="#C4DFEF"/>
<path transform="translate(400,731)" d="m0 0h2v2h10v2l-3 1-1 9h-8v-10l-2-1z" fill="#E3E7E9"/>
<path transform="translate(959,25)" d="m0 0h6l3 4v4h-9l1 4 7-1-1 3h-7l-3-4v-6z" fill="#D7D9DB"/>
<path transform="translate(1143,20)" d="m0 0h3l1 5h5l2 2v12h-3v-11l-4 1-1 10h-3z" fill="#D0D3D4"/>
<path transform="translate(722,20)" d="m0 0h16v1l-13 2 1 5 3 3-14-1v-9z" fill="#D1D5D8"/>
<path transform="translate(1283,1128)" d="m0 0h32l4 1v2h-39v-2z" fill="#AEB0AE"/>
<path transform="translate(764,401)" d="m0 0h1l1 94 2-1v5l-2 1-2-1z" fill="#7C6D60"/>
<path transform="translate(1165,21)" d="m0 0h9l2 2v3h-3l-1-2h-5v4l6 1 3 3v5l-2 2h-8l-3-3v-3l3 1v2h6l1-4-7-2-2-2z" fill="#DDDFE0"/>
<path transform="translate(332,759)" d="m0 0 6 1 2 1v8l-3 2h-5l-3-3v-6z" fill="#504F4E"/>
<path transform="translate(225,733)" d="m0 0 6 1 2 3-1 7-1 1h-6l-3-3v-6z" fill="#42403F"/>
<path transform="translate(1226,507)" d="m0 0h1l3 29 1 2 1 22-1 13 2 1-3 1-1-19h-1l-1-28-1-2-1-9-1-3z" fill="#7F7975"/>
<path transform="translate(916,21)" d="m0 0h7l3 1v4h-2l-1-2-6-1 1 4 7 3 2 2v5l-3 2h-7l-3-3v-3h2v3h7v-3l-8-4-1-6z" fill="#DEE0E2"/>
<path transform="translate(412,759)" d="m0 0 5 1 1 1v8l-2 2h-5v4h-2v-15z" fill="#3C3C3C"/>
<path transform="translate(194,733)" d="m0 0 6 1 2 2v6l-2 3h-6l-3-4 1-6z" fill="#4E4B49"/>
<path transform="translate(267,729)" d="m0 0h2v16h-7l-2-2v-7l2-3 5 1z" fill="#43413F"/>
<path transform="translate(397,117)" d="m0 0h1l-1 7-3 6-5 4-6 15-9 14-1 1v10l1 8h-2l-1-3v-17l7-9 6-12 4-9 5-5z" fill="#D3D7D9"/>
<path transform="translate(486,785)" d="m0 0h5l3 4v5l-3 3h-5l-3-4v-5z" fill="#41403E"/>
<path transform="translate(266,785)" d="m0 0 5 1 1 1v8l-2 2h-6l-1 4v-15z" fill="#3A3836"/>
<path transform="translate(468,707)" d="m0 0 7 1v9l-2 2h-6l-2-3v-6z" fill="#434242"/>
<path transform="translate(1258,507)" d="m0 0h1v6h2l5 6v2l-4-1-1 27h-1l-1-21-1 17h-1l-1-17 1-4z" fill="#66625F"/>
<path transform="translate(1218)" d="m0 0h4l1 25-5 1z" fill="#EBDA87"/>
<path transform="translate(394,785)" d="m0 0 5 1 2 2v6l-3 3h-5l-2-2v-8z" fill="#3F3D3B"/>
<path transform="translate(399,759)" d="m0 0 5 1 2 2v6l-3 3h-5l-2-2v-8z" fill="#353534"/>
<path transform="translate(382,597)" d="m0 0h9v7l-4 3-7-1-1-6z" fill="#E5E5E5"/>
<path transform="translate(1258,86)" d="m0 0h1l1 25v21h-2l-1-6v-35z" fill="#303030"/>
<path transform="translate(345,66)" d="m0 0 4 1-15 5-12 6-10 9-5 10h-2l1-5 6-9 7-6 14-8z" fill="#71645B"/>
<path transform="translate(263,757)" d="m0 0 1 2h7v12h-7l-1-1v-9h-2v-2h2z" fill="#9FA1A2"/>
<path transform="translate(319,733)" d="m0 0 5 2 1 1v6l-2 3h-6l-2-2v-8z" fill="#3A3939"/>
<path transform="translate(298,707)" d="m0 0 6 1 1 2v7l-2 2h-6l-2-3v-6z" fill="#464645"/>
<path transform="translate(380,94)" d="m0 0 4 2 4 3 1-2v5l-7-2h-25l1-2 6-1 5-2z" fill="#9A8477"/>
<path transform="translate(238,707)" d="m0 0 5 1 2 2v7l-2 2h-6l-2-3v-6z" fill="#3B3A3A"/>
<path transform="translate(1256,91)" d="m0 0h1v46h2l-1 9h-1l-2-10v-36z" fill="#C7C9C9"/>
<path transform="translate(1244,79)" d="m0 0 2 1v5h9l2-4v10h-2v-3h-20l-6 2v-7l1 3 4-1h7l1-5z" fill="#0F1010"/>
<path transform="translate(1268)" d="m0 0h5v20h-5z" fill="#6D6057"/>
<path transform="translate(1230,923)" d="m0 0 1 4-3 11-1 13 1 2h-2v6l-2 1v-25z" fill="#D5DCE0"/>
<path transform="translate(1219,79)" d="m0 0 1 2h3v19h-5v-19z" fill="#E8D786"/>
<path transform="translate(809)" d="m0 0h4l1 22-5 3z" fill="#ECDC92"/>
<path transform="translate(1244,519)" d="m0 0 2 1 1 4 8 1 2-4-1 10-1-3h-21l-5 1v-6l1 3 10-2 2-4z" fill="#0B0C0C"/>
<path transform="translate(1253,162)" d="m0 0h10l2 3v4h-12l-3 3v-8l-2-1z" fill="#927C6F"/>
<path transform="translate(734,132)" d="m0 0h6l2 2v7l-2 2h-5l-3-3 1-7z" fill="#7E6E60"/>
<path transform="translate(737,463)" d="m0 0h5l3 4-1 5-2 2h-5l-3-4 1-5z" fill="#7E6E60"/>
<path transform="translate(409,239)" d="m0 0h1v9l-2 9-5 15-3 5 14 1v1l-19 1 7-12 4-15v-6h2z" fill="#B2B2B0"/>
<path transform="translate(917,23)" d="m0 0h6l1 3h2l1-3 3 2v19h-1l-1-8-2-4-5-3-4-2z" fill="#635D59"/>
<path transform="translate(1310,291)" d="m0 0h3l1 34-3-3-1-5z" fill="#676665"/>
<path transform="translate(1253,920)" d="m0 0h11l2 6v6l-3-3h-2l-2 3z" fill="#837369"/>
<path transform="translate(518,587)" d="m0 0h6l3 3 1 5h-14l1-5z" fill="#E6E6E6"/>
<path transform="translate(397,279)" d="m0 0h17v5h-19z" fill="#706358"/>
<path transform="translate(1279,23)" d="m0 0h5l1 1v12l-4 1-3-2v-11z" fill="#91857B"/>
<path transform="translate(1243,966)" d="m0 0 3 1 1 4 8 1 1-5h1l-1 11-1-3-8-1h-9l-9 2v-6l1 3 11-2v-4z" fill="#0B0C0C"/>
<path transform="translate(119,587)" d="m0 0h6l3 4v4h-13v-5z" fill="#E6E7E7"/>
<path transform="translate(772,168)" d="m0 0 8 1 3 8v5l-2-2-2-9h-11l-2 10-2 3-1-11 2-3z" fill="#766E68"/>
<path transform="translate(146,587)" d="m0 0h6l3 3v5h-13l1-5z" fill="#E8E9E8"/>
<path transform="translate(360,759)" d="m0 0 7 1 1 1v10h-8l-2-1 1-5 6-1v-3l-6 2z" fill="#626160"/>
<path transform="translate(437,759)" d="m0 0h12l1 1v11h-2v-10l-4 1-1 9h-2l-1-9h-3l-1 9h-2v-11z" fill="#3F3D3C"/>
<path transform="translate(591,587)" d="m0 0h7l3 5-1 3h-12l1-6z" fill="#E9E9E9"/>
<path transform="translate(356,587)" d="m0 0h6l3 4v4h-13l1-5z" fill="#E8E9E9"/>
<path transform="translate(319,100)" d="m0 0h8l3 2v6l-4 2-4-3v-5l-6 3-3 2v-3l3-3z" fill="#74665E"/>
<path transform="translate(369,100)" d="m0 0h8l6 4v2l-6-2v-2h-4v6l-5 2-3-3v-5z" fill="#72665E"/>
<path transform="translate(741,70)" d="m0 0 3 1 1 32h-2l-2-7z" fill="#6D6864"/>
<path transform="translate(1259,575)" d="m0 0h1v15l-2 7-5 5-4 1 1-2h2v-2h2l1-11 1-1 1-10h2z" fill="#D0D5D7"/>
<path transform="translate(1223,945)" d="m0 0h1l1 14 1-6h1l3 32-1 18h-1l-1-28-2-13h-2z" fill="#7E7A76"/>
<path transform="translate(407,785)" d="m0 0 6 1 5-1 2 2v10h-2l-1-9h-3l-1 9h-2l-1-9-4-1v10h-2v-11z" fill="#313131"/>
<path transform="translate(1538,305)" d="m0 0h3l1 3 2 1v3h-3l1 8 2 4-4 1-2-2v-11l-3-1 1-2h2z" fill="#C4DEEF"/>
<path transform="translate(1230,36)" d="m0 0 1 4-3 11-1 14 2 1-5 2v-14l2-11z" fill="#D1D5D7"/>
<path transform="translate(348,759)" d="m0 0h2l2 6 3-6h2l-1 5-2 7-3-1-1-6h-2l-1 7h-3l-2-7 1-4 3 5z" fill="#484543"/>
<path transform="translate(525,754)" d="m0 0h3v5h5l2 2v10h-2l-1-9h-3l-1 9h-3z" fill="#4D4946"/>
<path transform="translate(1496,305)" d="m0 0h3v4h3l-1 3h-2v9l3 1-1 3-4-1-1-1v-11l-3-1v-2l2-1z" fill="#C5E0F1"/>
<path transform="translate(1254,1145)" d="m0 0h9l3 7h-14l1-6z" fill="#C2C3C3"/>
<path transform="translate(769,1145)" d="m0 0h9l3 7h-14l1-6z" fill="#C2C3C3"/>
<path transform="translate(1286,1036)" d="m0 0h1l1 24h21v3h-24z" fill="#7E6E60"/>
<path transform="translate(510,707)" d="m0 0 5 1 2 2v9h-8l-1-1v-5l1-1h5v-3h-4v2h-2z" fill="#918F8D"/>
<path transform="translate(427,733)" d="m0 0 6 1 1 1v10h-8l-1-5 2-2h5l-1-2-6 1z" fill="#606060"/>
<path transform="translate(322,707)" d="m0 0 6 1 1 1v10h-8l-1-5 2-2h5l-1-2-6 1z" fill="#807F7E"/>
<path transform="translate(1446,464)" d="m0 0h3l1 3 2 1v2l-2 1v8l2 1v3h-5l-1-1-1-11-2-1v-2l2-1z" fill="#C6E2F4"/>
<path transform="translate(339,255)" d="m0 0h2l5 16-1 2-3-7-1-7-5 5-4 5-8 14-4-1 3-3 9-14z" fill="#C7CBCC"/>
<path transform="translate(344,1029)" d="m0 0h6l2 3v3h-7v3h6v2l-5 1-3-1-1-2v-7z" fill="#015575"/>
<path transform="translate(503,759)" d="m0 0h5l2 2v10h-8l-1-5 2-2h5l-1-2-4-1v2h-2z" fill="#3C3A38"/>
<path transform="translate(481,733)" d="m0 0 6 1 1 6h-7l1 3h6l-1 2-9-1v-8z" fill="#343535"/>
<path transform="translate(499,707)" d="m0 0h4l2 3v4l-7 1v2l7-1-1 3h-6l-3-3v-6z" fill="#636261"/>
<path transform="translate(1446,147)" d="m0 0h3v3l3 1v2l-2 1v9h2v3l-5-1-1-1v-11l-3-1 1-2h2z" fill="#C5E1F3"/>
<path transform="translate(1299,921)" d="m0 0 4 2 1 1v8l-2 3-4-1-2-7z" fill="#7E6E60"/>
<path transform="translate(277,785)" d="m0 0h5l3 3v4h-8l1 2 6 1-1 2h-6l-2-2v-7z" fill="#646362"/>
<path transform="translate(251,759)" d="m0 0h6l2 2v10h-8l-1-5 1-2h6l-1-2h-5z" fill="#636160"/>
<path transform="translate(1966,48)" d="m0 0h19v4h-19z" fill="#064D67"/>
<path transform="translate(715,44)" d="m0 0 6 1h23v3h-28z" fill="#C2C3C2"/>
<path transform="translate(1487,41)" d="m0 0h4v20h-4z" fill="#1B5267"/>
<path transform="translate(1139,26)" d="m0 0h1v16l-2 2h-7l-1-3 7 1v-2l-7-2v-9h1l2 7 4-1 1-8z" fill="#E2E4E8"/>
<path transform="translate(1260,50)" d="m0 0h1v14h2l2 4v9l-4-2v-2h-2l-1-7z" fill="#C9C9C9"/>
<path transform="translate(243,785)" d="m0 0 5 1 1 1v5h-7v3l7-1v2l-2 1h-6l-1-2v-8z" fill="#807D7B"/>
<path transform="translate(192,785)" d="m0 0 3 1 1 5 3-6h2l2 5 2-4h2l-2 10-3 1-2-7-3 7h-2z" fill="#464543"/>
<path transform="translate(1181,25)" d="m0 0h6l3 3v2h-3v-2l-5 1v6l4 1 3-2 1 2-3 3h-6l-3-5v-5z" fill="#D1D2D3"/>
<path transform="translate(322,785)" d="m0 0 5 1 2 2v4h-8l1 2 6 1-1 2-7-1-1-2v-6z" fill="#605F5E"/>
<path transform="translate(455,759)" d="m0 0h5l2 2v10h-7l-2-2 1-4 6-1v-3l-6 2z" fill="#5C5B5A"/>
<path transform="translate(277,759)" d="m0 0 5 1 2 2v4h-8l1 2 6 1-1 2-7-1-1-2v-6z" fill="#403F3E"/>
<path transform="translate(186,707)" d="m0 0 5 1 2 1v5h-8l2 3h5v2h-7l-2-3v-6z" fill="#373736"/>
<path transform="translate(412,707)" d="m0 0 5 1 1 1v10h-8l-1-5 3-2h4l-1-2-5 1z" fill="#646464"/>
<path transform="translate(144,703)" d="m0 0 7 1 1 4-3-2h-4v3l6 3 1 1v5l-1 1h-9v-4h2v2h6v-4l-5-1-3-2v-5z" fill="#494847"/>
<path transform="translate(258,707)" d="m0 0 5 1 1 1v5h-7v3h7l-1 2h-6l-3-4 1-5z" fill="#727272"/>
<path transform="translate(1486,467)" d="m0 0 2 1v3h-4l-1 12h-4v-15z" fill="#C2DBEA"/>
<path transform="translate(947,26)" d="m0 0h6v2h2v5h-9v3h8v2l-2 1h-6l-3-3v-7h2v2h7l-1-4z" fill="#D0D1D2"/>
<path transform="translate(282,733)" d="m0 0 5 2v10h-8l-1-5 2-2h5v-3l-6 2v-3z" fill="#626160"/>
<path transform="translate(340,785)" d="m0 0 5 1 1 1v10h-8l-1-5 2-2h5v-3l-6 1v-2z" fill="#5E5F5F"/>
<path transform="translate(180,731)" d="m0 0 5 1 2 2v7l-2 2h-5z" fill="#F0F1F1"/>
<path transform="translate(1182,28)" d="m0 0h5v2l5-1v6l-5 1-4 1-2-2v-6z" fill="#514F4E"/>
<path transform="translate(764)" d="m0 0h2v37h-3l1-6-2-5h2z" fill="#897669"/>
<path transform="translate(343,733)" d="m0 0 5 2v5h-7v3h7l-1 2h-6l-2-2v-8z" fill="#7B7B7B"/>
<path transform="translate(370,707)" d="m0 0 5 1 2 2v4h-8l2 3 5-1-1 3h-6l-2-3 1-7z" fill="#393938"/>
<path transform="translate(154,703)" d="m0 0h1v16l-3-2-2-5-6-3 1-4 5 1h3z" fill="#DEE0E2"/>
<path transform="translate(780)" d="m0 0h3v25l-3-1z" fill="#AEB0AE"/>
<path transform="translate(1258,953)" d="m0 0h1l2 7 5 6v2l-4-1-1 27h-1l-1-26-1-2z" fill="#6F6863"/>
<path transform="translate(370,91)" d="m0 0 10 2v2l-15 2-5 2-1-4 6-3z" fill="#514C48"/>
<path transform="translate(417,733)" d="m0 0 5 2v5h-7v3h7l-1 2h-6l-2-2v-7l1-2z" fill="#393A3A"/>
<path transform="translate(430,708)" d="m0 0h6l1 1v5h-7l1 2 6 1-1 2h-6l-2-2v-7z" fill="#383938"/>
<path transform="translate(1428,309)" d="m0 0h8v3l-3 1-1 11h-4z" fill="#C5E0F1"/>
<path transform="translate(1117,22)" d="m0 0h2v16h-2v-7h-9v8h-2v-10h11z" fill="#E7E7E9"/>
<path transform="translate(286,759)" d="m0 0h8l2 2v10h-2l-1-9h-3l-1 9h-3z" fill="#4C4946"/>
<path transform="translate(288,282)" d="m0 0h1v13h3l1 2v6l-2 3-3-1-1-2z" fill="#3F5C66"/>
<path transform="translate(1268,40)" d="m0 0h1v28h-1zm-6 14h2l4 15-2 1-2-7h-2z" fill="#8B786D"/>
<path transform="translate(492,759)" d="m0 0 5 1 1 6h-7l1 3 3 2-5-1-1-1v-8z" fill="#2D2E2E"/>
<path transform="translate(1248)" d="m0 0h3v22l-3 1z" fill="#736861"/>
<path transform="translate(497,785)" d="m0 0h7l2 2v10h-2l-1-9-4-1v10h-3v-11z" fill="#373737"/>
<path transform="translate(222,780)" d="m0 0h2v6l5-1 2 1v11h-2v-10l-4 1-1 9h-2z" fill="#353636"/>
<path transform="translate(477,755)" d="m0 0h2v4h5l2 2v10h-2l-1-9h-3l-1 9h-2z" fill="#4B4A4A"/>
<path transform="translate(1249,134)" d="m0 0h6l2 6v7l-5 4-4 2h-11v-1h10v-2l7-4-1-11z" fill="#282827"/>
<path transform="translate(1251)" d="m0 0h3v21l-3 1z" fill="#AEB0AE"/>
<path transform="translate(155,703)" d="m0 0h2l1 8 3-3 2 1-1 6 2 4-4-2-2-2-1 4h-2z" fill="#343434"/>
<path transform="translate(1554,309)" d="m0 0 5 1 1 2v12h-4l-1-11-2-3z" fill="#C3DEED"/>
<path transform="translate(1248,23)" d="m0 0 6 1v11l-2 1-9-2h-9l3-2h11l3 1v-8h-3z" fill="#C2C6C7"/>
<path transform="translate(1223,962)" d="m0 0h2l2 10v16l-1 6h-1l-1-27h-4l2-4z" fill="#171A1B"/>
<path transform="translate(250,785)" d="m0 0 4 4-1 5-2 3 3-1v2h-4l-1-3h-7v-3h7z" fill="#EBECEE"/>
<path transform="translate(763,276)" d="m0 0h2l1 3 1-2h12v1h-11l-1 9-2 6h-1l-1-6z" fill="#696766"/>
<path transform="translate(1569,45)" d="m0 0 4 1v11l-3 2-2-2v-11z" fill="#76D1FE"/>
<path transform="translate(1265)" d="m0 0h3l1 21-4-1z" fill="#AEB0AE"/>
<path transform="translate(269,707)" d="m0 0 5 1v3l-4-1-1 2 6 1 1 5-2 2h-5l-2-4 7 1v-2l-6-2-1-4z" fill="#545250"/>
<path transform="translate(312,95)" d="m0 0 2 1 5-1h7l2 2-4 2-16 2z" fill="#A68E80"/>
<path transform="translate(457,785)" d="m0 0h5l2 4-6-2 3 3 3 2-1 5h-6l-2-3 7 1-1-2-5-2-1-4z" fill="#504C4A"/>
<path transform="translate(484,703)" d="m0 0h2v5h6l1 1v10h-2l-1-9h-3l-1 9h-2z" fill="#3D3E3E"/>
<path transform="translate(817,23)" d="m0 0h1v7l2 2-1 5-2 2h-6l-2-1 1-4 1 2 5 1v-6l-4-1 1-2 3-1z" fill="#DFDFE0"/>
<path transform="translate(280,707)" d="m0 0 6 1 1 3-6-2v3l6 2-1 5-4 1-3-1-1-3 7 1-1-2-5-2v-5z" fill="#4E4C4A"/>
<path transform="translate(1231,574)" d="m0 0h24l-1 4-3-1h-19l-2 1z" fill="#0F1111"/>
<path transform="translate(1478,309)" d="m0 0 5 1 1 5v8l-4 1-1-11-2-3z" fill="#C4E0F0"/>
<path transform="translate(305,47)" d="m0 0 1 3-5 9-1-4-14 1 1-2 15-3z" fill="#D3DADE"/>
<path transform="translate(349,785)" d="m0 0h8l1 1v11h-2v-10l-4 1-1 9h-2z" fill="#55514F"/>
<path transform="translate(318,92)" d="m0 0h11l3 1v2l3 1-3 1-1-1h-12l-6 1 1-3z" fill="#58504A"/>
<path transform="translate(728,21)" d="m0 0 7 1 1 4h-2l-1-2h-5l-1 4 7 2 2 3v3h-2v-4l-6-2-4-3 1-5z" fill="#F9F9FB"/>
<path transform="translate(308,759)" d="m0 0 5 1 1 3-6-2v3l5 1 1 5-1 1h-6l-2-1v-3l6 2v-2l-5-2v-5z" fill="#41403E"/>
<path transform="translate(1259,135)" d="m0 0h1v12l-2 10-4 2 2-9-2-1 3-3z" fill="#D7DDE1"/>
<path transform="translate(354,1029)" d="m0 0 4 1v2h2l1-3h2l-1 7 2 4-4-1v-2h-2l-1 3-3-1 2-3-1-5z" fill="#014C68"/>
<path transform="translate(171,759)" d="m0 0h2v10h5v-10h2v12h-8l-1-2z" fill="#504E4D"/>
<path transform="translate(1255,477)" d="m0 0 4 2 3 7 2 1 2 6v6l-4-4-5-14z" fill="#827269"/>
<path transform="translate(1495,47)" d="m0 0h4v14h-4z" fill="#1C5267"/>
<path transform="translate(973,28)" d="m0 0h5l1 1v7l-6 1-1-8z" fill="#5B5855"/>
<path transform="translate(494,733)" d="m0 0 5 1v3h-2v-2h-4v3l5 1 2 2v3l-2 1h-6l-2-4 6 2v-2l-5-3 1-4z" fill="#464646"/>
<path transform="translate(535,707)" d="m0 0h4l1 2v10h-2v-10l-4 2-1 8h-2v-11z" fill="#3E3B39"/>
<path transform="translate(296,228)" d="m0 0h1l3 11-1 4-1-6h-2l-1 11-2 2v-9l2-12z" fill="#C7CBCC"/>
<path transform="translate(211,759)" d="m0 0 5 1v11h-2v-10l-4 1-1 9h-2v-11z" fill="#404040"/>
<path transform="translate(1220,517)" d="m0 0 5 1v21l-2 1v-19h-4z" fill="#9A938D"/>
<path transform="translate(1222,40)" d="m0 0h1l1 9h1l-1 19h2v5l-3 2-1-21z" fill="#A5A09B"/>
<path transform="translate(744,28)" d="m0 0h4v7l-2 2-5-1v-6z" fill="#89B581"/>
<path transform="translate(1295,1138)" d="m0 0 3 1-5 5-2 8h-5l1-5 5-7z" fill="#AFB1AF"/>
<path transform="translate(251,785)" d="m0 0h3l2 3 2-3h2l-1 9 1 3h-2l-1-2-6 2 2-4-1-5z" fill="#4C4A49"/>
<path transform="translate(310,785)" d="m0 0 6 1v2l-6-1v3l6 1 1 4-2 2-7-1v-2l6 1v-3l-5-1-1-4z" fill="#434343"/>
<path transform="translate(372,733)" d="m0 0 5 1 1 1v10h-2l-1-9h-3l-1 9h-2v-11z" fill="#2F3030"/>
<path transform="translate(470,733)" d="m0 0 5 1 1 1v10h-2l-1-9h-3l-1 9h-2v-11z" fill="#4B4B4A"/>
<path transform="translate(307,733)" d="m0 0h4l1 2v10h-2v-10l-4 1-1 9h-2v-11z" fill="#444342"/>
<path transform="translate(1251,602)" d="m0 0h6l-4 1-1 9-1 2h-2v-10h-11v-1z" fill="#777573"/>
<path transform="translate(1224,489)" d="m0 0h1l1 16 3 1-2 1-2 7-3 3z" fill="#BABBB9"/>
<path transform="translate(1229,481)" d="m0 0 1 2-2 8-1 13 4 1h-5l-1-5v-14z" fill="#D9DFE4"/>
<path transform="translate(1468,470)" d="m0 0 4 1v9h-5l-1-7z" fill="#175167"/>
<path transform="translate(371,279)" d="m0 0h9l3 3v2h-11z" fill="#75675C"/>
<path transform="translate(1225,138)" d="m0 0h1l3 9 1 2v10l-3-2-2-6z" fill="#D4DADE"/>
<path transform="translate(1308,913)" d="m0 0h4l1 6-2 4-4-1-1-6z" fill="#7E6E60"/>
<path transform="translate(504,733)" d="m0 0 6 1-1 3-5-2v3l6 1 1 4-1 2h-7l-1-3 6 1 1-2-5-1-2-2 1-4z" fill="#4B4846"/>
<path transform="translate(468,785)" d="m0 0h5l2 3-6-1v3l6 1v5l-1 1h-6l-1-3 6 1v-3l-6-1z" fill="#434241"/>
<path transform="translate(226,735)" d="m0 0 4 1 1 1v5l-2 2-4-1-1-1v-5z" fill="#DDDEDE"/>
<path transform="translate(331,733)" d="m0 0 5 1v3h-2v-2h-4v3l5 1 1 5-1 1h-6l-2-4h2v2h4v-2l-5-3 1-4z" fill="#434343"/>
<path transform="translate(308,708)" d="m0 0h8l1 1v10h-2l-1-9-3-1-1 10h-2z" fill="#2F3030"/>
<path transform="translate(1558,470)" d="m0 0 4 2v6l-1 2-5-1v-7z" fill="#165167"/>
<path transform="translate(343,115)" d="m0 0 1 2-4 5-9 3h-10v-2l14-2 6-4z" fill="#927C6F"/>
<path transform="translate(1195,28)" d="m0 0h5l1 1v7l-5 1-1-1z" fill="#4E4B4A"/>
<path transform="translate(756,28)" d="m0 0 5 1 1 5-3 3h-3l-1-2v-6z" fill="#7B6C60"/>
<path transform="translate(246,733)" d="m0 0 5 1-1 3-4-1-1 2 5 1 2 2v3l-2 1h-6l-1-3 6 1v-2l-5-2-1-5z" fill="#484746"/>
<path transform="translate(208,733)" d="m0 0 6 2v3l-3-1v-2l-4 1v6h4l3-1-2 4h-6l-2-3v-7z" fill="#4B4A49"/>
<path transform="translate(341,707)" d="m0 0 5 2v2h-2v-2h-4v3l5 1 2 4-2 2h-6l-1-3 6 2v-4h-5l-1-5z" fill="#3D3D3C"/>
<path transform="translate(239,709)" d="m0 0 4 1 1 6-2 2-4-1-1-1v-5z" fill="#E4E4E4"/>
<path transform="translate(400,707)" d="m0 0h5l2 4-6-1v7l6-1-2 3h-5l-3-4v-5z" fill="#464443"/>
<path transform="translate(383,279)" d="m0 0h12l-2 4-5 2-5-4z" fill="#79695E"/>
<path transform="translate(293,232)" d="m0 0h1l-1 21-3-3 1-15z" fill="#595654"/>
<path transform="translate(732,160)" d="m0 0h5l1 1v6l-4 2-3-3z" fill="#7E6E60"/>
<path transform="translate(1485,153)" d="m0 0 4 1v8l-4 1-2-2v-6z" fill="#195267"/>
<path transform="translate(1143,20)" d="m0 0h2l1 7v12h-3z" fill="#D4D6D5"/>
<path transform="translate(1105,21)" d="m0 0h3v7h8v-7h1v8h-11v10h-1z" fill="#C6C7C6"/>
<path transform="translate(487,787)" d="m0 0h4l1 7-1 1h-5l-1-1v-5z" fill="#E6E7E7"/>
<path transform="translate(360,733)" d="m0 0 5 1v10h-2v-4h-4v4l2 1-4-1 1-5 1-1h5l-1-2-6 1 1-3z" fill="#403F3D"/>
<path transform="translate(1448,309)" d="m0 0h3v15l-5-1 1-3z" fill="#C8E7FB"/>
<path transform="translate(446,785)" d="m0 0 5 1 2 2v3h-2l-1-3h-4v6l6 1-1 2-7-1-1-1v-7z" fill="#3B3B3B"/>
<path transform="translate(399,761)" d="m0 0h4l1 7-1 1h-5l-1-6z" fill="#E5E6E6"/>
<path transform="translate(1133,28)" d="m0 0 5 1v6l-2 2-4-1v-7z" fill="#504E4D"/>
<path transform="translate(933,28)" d="m0 0 5 1v7l-4 1-2-2v-6z" fill="#4F4E4D"/>
<path transform="translate(382,785)" d="m0 0 5 1v3l-5-1v6l7-1-2 4h-5l-3-3v-7z" fill="#434241"/>
<path transform="translate(201,755)" d="m0 0h3v16h-3z" fill="#6C6866"/>
<path transform="translate(778,26)" d="m0 0 4 1-3 1-1 3h5l-4 2v3h8l-2 3h-6l-3-3v-7z" fill="#F3F3F6"/>
<path transform="translate(916,21)" d="m0 0h7l3 1v4h-2l-1-2-6-1 1 4 3 2-4 1-3-3 1-5z" fill="#D4D7D8"/>
<path transform="translate(1300,1138)" d="m0 0 4 1 5 6 2 4v3h-5l-2-10z" fill="#AEB0AE"/>
<path transform="translate(764,927)" d="m0 0h3 1l-1 10-2 6h-1l-1-12z" fill="#6D6966"/>
<path transform="translate(227,760)" d="m0 0h1v13l-3 3-6-1v-2h6l1-3-4-1h4v-8z" fill="#393A39"/>
<path transform="translate(318,735)" d="m0 0 5 1v6l-4 2-2-1v-7z" fill="#E4E5E6"/>
<path transform="translate(293,735)" d="m0 0 5 1v7l-4 1-2-2z" fill="#DFE1E1"/>
<path transform="translate(262,302)" d="m0 0h2l2 10v12h-1l-2-17-3 8-1-4z" fill="#DAE2E7"/>
<path transform="translate(349,295)" d="m0 0 7 1v4l-1 1h-7v-5z" fill="#2D5767"/>
<path transform="translate(390,107)" d="m0 0 3 2-2 6-6 7-4 2h-5l1-2 7-3 4-4z" fill="#917B6E"/>
<path transform="translate(379,72)" d="m0 0 3 3 5 12 2 6-1 4-3-9-6-13z" fill="#6F635A"/>
<path transform="translate(1217,28)" d="m0 0 1 3h5v1h-5l1 4h7l-1 3h-6l-4-4v-6z" fill="#E8E9EA"/>
<path transform="translate(1e3 22)" d="m0 0h6v17h-2v-15l-5 1z" fill="#E5E8EB"/>
<path transform="translate(367,1026)" d="m0 0h2l2 5h-2l2 10-4-1v-9h-2z" fill="#014C68"/>
<path transform="translate(1253,921)" d="m0 0 2 1 4 7 4-1 3 6-1 4-2-8h-2v6l-3-3v-2h-2z" fill="#BABDBD"/>
<path transform="translate(240,761)" d="m0 0 5 1v6l-4 2-2-2z" fill="#E0E1E1"/>
<path transform="translate(384,735)" d="m0 0 4 1v7l-4 1-2-2v-5z" fill="#E4E5E5"/>
<path transform="translate(195,735)" d="m0 0 4 1 1 5-2 3-4-1v-7z" fill="#ECECEC"/>
<path transform="translate(469,709)" d="m0 0 4 1v7l-4 1-2-2v-5z" fill="#E8E9E9"/>
<path transform="translate(383,709)" d="m0 0 4 1v7l-4 1-2-2v-5z" fill="#DDDEDD"/>
<path transform="translate(767,602)" d="m0 0 3 1h-2l-1 9-2 5h-1l-1-10 2-4z" fill="#6F6A65"/>
<path transform="translate(298,324)" d="m0 0v3l-5 6h-7v-4l9-2z" fill="#CBCCCD"/>
<path transform="translate(426,787)" d="m0 0 5 1v6l-5 1-1-1v-6z" fill="#E6E7E7"/>
<path transform="translate(394,787)" d="m0 0h4l1 7-1 1h-5v-7z" fill="#EDEFF0"/>
<path transform="translate(380,761)" d="m0 0 5 1v7h-5l-1-1z" fill="#E6E7E7"/>
<path transform="translate(191,761)" d="m0 0 5 1v7h-5l-1-1z" fill="#E5E5E5"/>
<path transform="translate(216,731)" d="m0 0h2l2 4-1 9 2 1-5-1-1-11z" fill="#554D48"/>
<path transform="translate(199,709)" d="m0 0 4 1v6l-4 2-2-2v-5z" fill="#E8E9E9"/>
<path transform="translate(345,66)" d="m0 0 4 1-15 5-7 3-3-1 12-6z" fill="#7A6B60"/>
<path transform="translate(1267,29)" d="m0 0 4 1v7h-6v-6z" fill="#9E9995"/>
<path transform="translate(1207,25)" d="m0 0h7l-1 3h-3l-1 11h-2z" fill="#D3D6D9"/>
<path transform="translate(299,709)" d="m0 0 4 1v7h-5l-1-1v-5z" fill="#EEEFF0"/>
<path transform="translate(251,702)" d="m0 0h3v2l-2 1-1 3 3 1h-3v10h-2v-10l-2-1h2l1-5z" fill="#343434"/>
<path transform="translate(767,385)" d="m0 0h1l-1 10-2 6h-1l-1-9 1-6 2 1z" fill="#6F6966"/>
<path transform="translate(420,295)" d="m0 0h8v5l-3 1-5-1-1-3z" fill="#215467"/>
<path transform="translate(742,25)" d="m0 0 5 1-4 2h-2v8h5l3-1v3l-7 1-3-5 1-7z" fill="#F0F2F4"/>
<path transform="translate(767,1035)" d="m0 0h1l-1 10-2 5h-1l-1-9 1-5z" fill="#6F6A66"/>
<path transform="translate(333,761)" d="m0 0 4 1v7h-5l-1-6z" fill="#EDEEEE"/>
<path transform="translate(299,756)" d="m0 0h3l1 5h-2l1 8 1 2h-3l-1-2v-8h-2v-2h2z" fill="#4A4A49"/>
<path transform="translate(317,709)" d="m0 0 5 1 4-1 1 3-6 2-3 6-3-1h2z" fill="#D4D6D6"/>
<path transform="translate(389,47)" d="m0 0h2l3 3 20 2v1h-22z" fill="#D6DDE1"/>
<path transform="translate(288,785)" d="m0 0h5v2h-3v10h-3v-11z" fill="#585653"/>
<path transform="translate(437,710)" d="m0 0h3v6l-2 3-7-2-1-3h7z" fill="#D9DADB"/>
<path transform="translate(318,158)" d="m0 0h3l4 5v2l-4-2-1-2-4 2-7 9v-3l1-3 5-5z" fill="#655E59"/>
<path transform="translate(780,28)" d="m0 0h4v4l3 1h-4l1 4h-5l-1-4 3-2-2-2z" fill="#BABDBD"/>
<path transform="translate(1224,935)" d="m0 0h1l1 17 2 1h-2v6l-2 1z" fill="#C3C4C3"/>
<path transform="translate(503,764)" d="m0 0 5 1v5l-1 1h-5l-1-5z" fill="#7D7B7A"/>
<path transform="translate(383,188)" d="m0 0 6 1-2 1 6 11 1 3v9h-1l-2-11-6-11z" fill="#CACED0"/>
<path transform="translate(1242,131)" d="m0 0 1 4 4 1-4 1h-11l-3 1 1-4 12 1z" fill="#252626"/>
<path transform="translate(1258,45)" d="m0 0 2 2v14l-1 5-3-1h2l-1-19z" fill="#DEE4E9"/>
<path transform="translate(1254,1026)" d="m0 0h3v8l-6 4h-6l4-3 5-3z" fill="#222221"/>
<path transform="translate(216,783)" d="m0 0h2v2h2v2h-2v8h2v2l-4-1v-9h-2v-2h2z" fill="#323333"/>
<path transform="translate(515,709)" d="m0 0 2 1v9h-8l-1-1v-5l3 1-1 4 4-2z" fill="#323231"/>
<path transform="translate(443,709)" d="m0 0 4 1v7h-4l-1-1v-6z" fill="#EBECED"/>
<path transform="translate(216,705)" d="m0 0 7 1-1 5h-6z" fill="#DDDFDF"/>
<path transform="translate(1414,315)" d="m0 0h5l1 5-1 1h-6v-5z" fill="#1D5367"/>
<path transform="translate(969,29)" d="m0 0h1v5h-2l-1 4v-2l-7 1-1-4h10z" fill="#625B56"/>
<path transform="translate(364,787)" d="m0 0h4v8l-5-1v-6z" fill="#EFF0F2"/>
<path transform="translate(265,787)" d="m0 0 5 1v6l-5 1z" fill="#F2F3F4"/>
<path transform="translate(296,783)" d="m0 0h2v2h2v2h-2v8h2v2h-3l-1-2v-8h-2v-2h2z" fill="#383938"/>
<path transform="translate(422,757)" d="m0 0h2v2h2v2h-2l1 8 1 2-4-1v-9h-2v-2h2z" fill="#3A3A3A"/>
<path transform="translate(412,761)" d="m0 0 4 1v7h-5v-7z" fill="#F0F1F2"/>
<path transform="translate(222,761)" d="m0 0 4 1v7h-5v-7z" fill="#F0F1F1"/>
<path transform="translate(161,761)" d="m0 0h4v8l-5-1v-6z" fill="#ECEEEF"/>
<path transform="translate(293,733)" d="m0 0 5 1v1h-5v7l5 2v1h-6l-2-2v-7z" fill="#3B3938"/>
<path transform="translate(263,735)" d="m0 0 4 1v7h-5v-7z" fill="#F3F4F4"/>
<path transform="translate(546,709)" d="m0 0 4 1v7h-4l-1-1z" fill="#EBEDED"/>
<path transform="translate(358,709)" d="m0 0 4 1v7h-5v-7z" fill="#F1F1F1"/>
<path transform="translate(421,300)" d="m0 0h8l-1 10-2-4-1 6h-1v-10h-3z" fill="#D3DBE0"/>
<path transform="translate(367,102)" d="m0 0 5 1v5l-4 2-2-4z" fill="#252828"/>
<path transform="translate(1965,57)" d="m0 0h10v3l-1 1h-7l-2-1z" fill="#1B5267"/>
<path transform="translate(1262,1028)" d="m0 0h2l2 7v5l-5-4v-7z" fill="#8E7A6E"/>
<path transform="translate(1242,1018)" d="m0 0 2 1v2h5v1l-14 1-3 1-3 3v-5l2-1h11z" fill="#2F2E2D"/>
<path transform="translate(250,760)" d="m0 0 7 2v2h-6l-1 5-3-1v-6l3 1z" fill="#D7DADB"/>
<path transform="translate(501,735)" d="m0 0 5 5 3 1-1 3-4-1-2-1-1 2v-3l-3-1z" fill="#DDDEDF"/>
<path transform="translate(481,733)" d="m0 0h4l1 5h-6v6h-2v-8z" fill="#939291"/>
<path transform="translate(402,270)" d="m0 0 1 2-3 5 14 1v1l-19 1 6-9z" fill="#C0B3AB"/>
<path transform="translate(324,102)" d="m0 0 5 1v6l-3 1-2-1-1-5z" fill="#262828"/>
<path transform="translate(332,94)" d="m0 0 4 1v4h-11l1-4h5 1z" fill="#7D6C62"/>
<path transform="translate(1258,953)" d="m0 0h1l2 7 5 6v2l-4-1v-3h-3l-1 2z" fill="#4E4A47"/>
<path transform="translate(767,819)" d="m0 0h1l-1 9-2 6h-1l-1-10 2-1z" fill="#6D6966"/>
<path transform="translate(243,785)" d="m0 0 4 1-5 3v5h7v2l-2 1h-6l-1-2v-8z" fill="#423F3D"/>
<path transform="translate(428,759)" d="m0 0h3v12h-3z" fill="#63625F"/>
<path transform="translate(263,757)" d="m0 0 1 2h3v2h-2l1 8 1 2-4-1v-9h-2v-2h2z" fill="#353535"/>
<path transform="translate(400,731)" d="m0 0h2l2 4h-2v9l2 1h-4v-10l-2-1z" fill="#323434"/>
<path transform="translate(322,707)" d="m0 0 6 1 1 1v10l-2-1-1-8-6 1z" fill="#363634"/>
<path transform="translate(392,707)" d="m0 0h3v12h-3z" fill="#797470"/>
<path transform="translate(166,707)" d="m0 0h3v12h-3z" fill="#686969"/>
<path transform="translate(1258,67)" d="m0 0h1v6h2l1 3-2 1-2 14h-1z" fill="#7B7875"/>
<path transform="translate(426,785)" d="m0 0 6 1-1 3-5-1-1 8h-2v-10z" fill="#363636"/>
<path transform="translate(519,757)" d="m0 0h2v2h2v2h-2l1 8 1 2h-3l-2-10z" fill="#373838"/>
<path transform="translate(219,733)" d="m0 0h2l2 9 2 3-6-1z" fill="#E9E9EA"/>
<path transform="translate(1252,277)" d="m0 0h14v6l-2-4-11 1z" fill="#7A706A"/>
<path transform="translate(959,25)" d="m0 0h6l-1 2 1 4h-7l-1-3z" fill="#919090"/>
<path transform="translate(946,25)" d="m0 0h5l1 6h-7l-1-4z" fill="#8E8C8A"/>
<path transform="translate(237,760)" d="m0 0 3 1v9l-1 5h-2z" fill="#3A3734"/>
<path transform="translate(183,755)" d="m0 0 3 1-1 15h-2z" fill="#545555"/>
<path transform="translate(324,757)" d="m0 0 1 2h2v2h-2l1 8 1 2h-3l-1-2v-8l-2-1 3-1z" fill="#333434"/>
<path transform="translate(340,734)" d="m0 0 3 1-1 1-1 7h7l-1 2h-6l-2-2v-8z" fill="#404040"/>
<path transform="translate(235,733)" d="m0 0h6v2l-4 1v9h-2z" fill="#635F5B"/>
<path transform="translate(438,731)" d="m0 0h2v3l2 1h-2v9l2 1-4-1v-9l-2-1z" fill="#3D3E3F"/>
<path transform="translate(178,729)" d="m0 0 8 1 2 3h-3l-6-2v14h-1z" fill="#312F2E"/>
<path transform="translate(422,705)" d="m0 0h2v3l2 1h-2v9l2 1-4-1v-9l-2-1z" fill="#363636"/>
<path transform="translate(459,705)" d="m0 0h2v3l2 1h-2l1 8 1 2h-3l-1-2v-8l-2-1z" fill="#373736"/>
<path transform="translate(755,25)" d="m0 0h6l-1 3-4 1v7h-4v-8z" fill="#CBCBCC"/>
<path transform="translate(1254,820)" d="m0 0h10l2 5-1 3-2-5h-8l-2 1z" fill="#AEB0AE"/>
<path transform="translate(407,785)" d="m0 0 5 1-2 2-4-1v10h-2v-11z" fill="#423F3C"/>
<path transform="translate(500,761)" d="m0 0 1 2h2v-2l5 1v2l-6 2-2 3-2-3 1-4z" fill="#D6D7D8"/>
<path transform="translate(277,759)" d="m0 0 4 1 1 4h-6l-2 4v-6z" fill="#8D8C8B"/>
<path transform="translate(406,733)" d="m0 0h6v2l-3 1-1 9h-2z" fill="#525251"/>
<path transform="translate(417,733)" d="m0 0 5 2-1 3h-7l-1-2 1-2z" fill="#868687"/>
<path transform="translate(546,583)" d="m0 0 5 1v4l-8 1 1-5z" fill="#363534"/>
<path transform="translate(290,583)" d="m0 0 5 1v4l-8 1 1-5z" fill="#363635"/>
<path transform="translate(1413,307)" d="m0 0h6l1 4-1 1h-6z" fill="#1F5367"/>
<path transform="translate(370,91)" d="m0 0 7 1v1l-11 1-3 2 2 1-5 2-1-4 6-3z" fill="#6C6058"/>
<path transform="translate(187,709)" d="m0 0 4 1 2-1v5h-8l1-4z" fill="#908F8E"/>
<path transform="translate(507,709)" d="m0 0 1 2h2v-2h4v3l-5 1v6h-2l-1-5-1-4z" fill="#D8D9DA"/>
<path transform="translate(435,708)" d="m0 0 2 1v5l-7-1 1-4z" fill="#888"/>
<path transform="translate(256,709)" d="m0 0h1v8h7l-1 2h-6l-3-4 1-5z" fill="#3A3A39"/>
<path transform="translate(373,183)" d="m0 0 5 1 5 5-4 1-6-5z" fill="#595552"/>
<path transform="translate(496,786)" d="m0 0 3 1v10h-3z" fill="#514D4A"/>
<path transform="translate(492,759)" d="m0 0 5 1-1 4h-6v-4z" fill="#878888"/>
<path transform="translate(371,709)" d="m0 0 6 1v4h-8l1-4z" fill="#959494"/>
<path transform="translate(339,255)" d="m0 0h2l5 16-1 2-3-7-1-7-3 1z" fill="#CFCAC7"/>
<path transform="translate(389,206)" d="m0 0h1l1 9-12 4v-2l7-3h3z" fill="#C5CACB"/>
<path transform="translate(742,154)" d="m0 0 5 1-1 5-5-1z" fill="#7E6E60"/>
<path transform="translate(491,766)" d="m0 0h7v5l-6-1z" fill="#C6C8CA"/>
<path transform="translate(437,759)" d="m0 0 4 1-4 2-1 9h-2v-11z" fill="#474747"/>
<path transform="translate(365,735)" d="m0 0h1v10l-7-1v-4h4v4h2z" fill="#A2A1A0"/>
<path transform="translate(1474,53)" d="m0 0h5l1 3-1 2h-6z" fill="#76D1FE"/>
<path transform="translate(1263,38)" d="m0 0h3l-1 11-3 1-1-4h2z" fill="#CECECE"/>
<path transform="translate(973,25)" d="m0 0h4v3l-4 1-2 6h-1v-7z" fill="#DEE0E2"/>
<path transform="translate(731,28)" d="m0 0h8l1 8-2-1v-5h-2l1 6-2-3z" fill="#C4C6C5"/>
<path transform="translate(767,1143)" d="m0 0h1l-1 9h-4l1-8 2 1z" fill="#736B65"/>
<path transform="translate(1240,918)" d="m0 0 8 1-4 2-10 1h-3l5-3z" fill="#C8CCCE"/>
<path transform="translate(446,787)" d="m0 0 5 1 1 4h-7z" fill="#9B9B9A"/>
<path transform="translate(422,736)" d="m0 0h1v8h-6l-2-1v-3h7z" fill="#D7DADC"/>
<path transform="translate(244,709)" d="m0 0h5v10l-2-4-2 1z" fill="#DBDCDE"/>
<path transform="translate(1226,507)" d="m0 0h1l1 15-2 4-1-9-1-3z" fill="#615C59"/>
<path transform="translate(329,267)" d="m0 0 2 1-7 11-2 3h-3v-2l4-4z" fill="#615D5A"/>
<path transform="translate(322,75)" d="m0 0 4 1-9 6-2 2-3-1 7-6z" fill="#72655C"/>
<path transform="translate(315,39)" d="m0 0 2 1-8 8h-2l-1 4-2 1 2-6 5-5z" fill="#4F4E4C"/>
<path transform="translate(439,785)" d="m0 0h2v2l-2 1-1 9h-2v-11z" fill="#363534"/>
<path transform="translate(374,759)" d="m0 0h2v2l-2 1-1 9h-2v-11z" fill="#3A3B3A"/>
<path transform="translate(330,735)" d="m0 0h4v2h2l1-2 2 1v6l-2-4-2 2-5-2z" fill="#D8DBDC"/>
<path transform="translate(1257,486)" d="m0 0h3v16h-1z" fill="#D8E0E4"/>
<path transform="translate(406,229)" d="m0 0h2l3 9v10h-1l-1-9z" fill="#CCD7DC"/>
<path transform="translate(1433,159)" d="m0 0h9l-1 3-6 1-2-1z" fill="#375966"/>
<path transform="translate(1226,67)" d="m0 0h1l1 15-2 4-1-9-1-3z" fill="#625E5B"/>
<path transform="translate(1257,933)" d="m0 0 3 1v16h-1z" fill="#DAE1E6"/>
<path transform="translate(159,760)" d="m0 0 3 1-1 1v6l3 3-5-1-1-1v-7z" fill="#3A3A3A"/>
<path transform="translate(947,26)" d="m0 0h6l1 6h-10l1-3v2h7l-1-4z" fill="#E3E7EA"/>
<path transform="translate(1165,21)" d="m0 0h9l2 2v3h-3l-1-2-7-2z" fill="#CED0D1"/>
<path transform="translate(1297,1140)" d="m0 0h4l1 4-6 1-1-2z" fill="#DAE2E7"/>
<path transform="translate(1223,935)" d="m0 0h1v10l-1-2h-5v-3l4 1z" fill="#8D786B"/>
<path transform="translate(355,759)" d="m0 0h2l-1 5-2 7-2-1 1-7z" fill="#5D5B59"/>
<path transform="translate(228,708)" d="m0 0h5l-2 2-1 9h-2z" fill="#353738"/>
<path transform="translate(1228,580)" d="m0 0h1v6l4 1 3 2v2l-4-1-4-3z" fill="#343231"/>
<path transform="translate(1252,147)" d="m0 0m-1 1 3 2-6 3h-11v-1h10v-2z" fill="#444240"/>
<path transform="translate(1474,45)" d="m0 0 5 1-1 4-5-1z" fill="#76D1FE"/>
</svg>
