<?xml version="1.0" encoding="UTF-8"?>
<svg version="1.1" viewBox="0 0 1600 790" width="1280" height="1280" xmlns="http://www.w3.org/2000/svg">
<path transform="translate(0)" d="m0 0h1600v790h-1600z" fill="#0A0D13"/>
<path transform="translate(501,141)" d="m0 0h938l3 3v646h-945v-644l2-4z" fill="#0B0E14"/>
<path transform="translate(0)" d="m0 0h1600v107h-1600z" fill="#0B0E14"/>
<path transform="translate(994,315)" d="m0 0h421v146l-12 5-33 13-30 12-4 1-3-10-6-5-6-2h-9l-5 4-22 5-9 5-8 7-7-3v-3l7 1v-4l-4-2-7-2 1-4 3 1-1-2-6 1 2 6 2 3 2 6 6 3-2 6-13 24-5 9-9 5-1 2 9 2 1-5 3 1 5 5 11 4-3 9-4 7-2 1h-9l-9-4v-2l-6-2-10-5-5-1-10 6-11 6-25 14-24 14-7 4-7-1-34-20-9 1-32 7-55 9-9 1z" fill="#FBFDFB"/>
<path transform="translate(303,148)" d="m0 0h27l24 4 24 8 23 12 16 12 12 11 11 12 12 18 9 17 6 16 5 21 1 12-1 4h1v28l-3 18-6 20-11 23-2 4 8 1 8 7 3 7v9l-3 7h-2l-1 4-7 4-10 1-8-3-4-3v-3h-2l-3-5-11 11-13 10-15 9-9 3-3 3-17 6-15 4-14 2h-33l-19-3-20-6-18-8-18-11-11-9-12-11-12-14-11-17-10-21v-6h-2l-4-14-3-15-1-8v-27l3-19 5-19 9-21 10-17 13-16 15-15 16-12 16-9 3 1 1-3 21-8 23-5z" fill="#363638"/>
<path transform="translate(993,315)" d="m0 0h1l1 278 39-6 29-5 31-7 7 1 34 20 7-1 52-30 10-6 11-6 6-1 5 3 12 6v2l9 3h9l3-3 6-13-7-1-8-5-2-3h-2l-1 4-9-2 1-3 9-5 15-29 5-9-6-2-2-2-2-7-2-2v-5l3-2 4 1v2h-3l-1 3 7 1 4 3v4l-7-1 1 3 6 2 9-8 8-4 22-5 5-4h9l8 3 6 7 1 8 29-12 30-12 18-7h2v-146h1v147l-1 170h-421l-1-1z" fill="#052F3F"/>
<path transform="translate(306,150)" d="m0 0h20l23 3 23 7 21 10 12 8 14 11 15 15 12 16 9 16 6 14 5 16 4 22v34l-3 17-4 15-6 15-8 16-2 3-6 1-2 4-5 4-3 5-1 8-5 6h-2l-5 6-7 5-10-1-3-2h-8l-10 3h-12l-4-2h-9l-1-4-1 11-1 24-11 2 1-8 1-53 3-9 6-2h11l6 3 5-1 5-7 38-4 15-3 9-5 1-2v-17l-4-17-7-21-5-11-8-19-6-12-4-10-1-5h-2l-4-11-5-6v-2l-3-1v-3l-5-4-4-9-2-3h-5-3l-6-2v2h-2v4l-57 1-1 4v28l1 3 56 1-3 2-2 1 4 5 6 2 3 2 13 2 5 6 5 14 4 18 4 24v7h-15l-21-6-2-2-10-3-11-3-12-2-2 1-6-4h-15l-8 4h-3l-3-3-5-1-3-5v-2l-5-2 1-7 8-4 4-5 3-8-1-15-2-5-3-3 1-1v-10l-4-6-1-9-1-5-2-1v-2-6l-6 1-4-1h-3l-2-5-3-2-8-1-1 2h-5l-2 4-11 1-5 5-3 1-5 6-6 10-4 13v14l6 17 7 11 5 9-1 5-8 3-5 9-4 5-6 2-4 3h-8l-10 5-9 4-5 6-6 5-5-16-3-17-1-11v-16l2-17 4-19 7-19 8-16 10-15 10-11 7-8 11-9 5-4 14-9 21-10 19-6 17-3z" fill="#D4C0AD"/>
<path transform="translate(1263,352)" d="m0 0h5l2 2 5 62v10l-13 8-22 12-4 4 5 2 10 6 1 4-25 14-8 5-5-2-13-8h-4l-7 4-5-1h-1l-1 5-17 10-11 6-10 6 16 10v3l-25 14-8 5-5-1-14-9v-2l-10 6-5-1-1-1-2-18-3-39v-15l9-6 21-12 10-5 8-5 13-7 11-7 11-6 5-1 2 1 2 18 1 11-2-26v-7l7-5 11-6 6-3 13-8 25-14 9-5z" fill="#07303F"/>
<path transform="translate(165,593)" d="m0 0h303l4 3 1 3v23l-2 4-2 1h-306l-3-4v-26z" fill="#21262D"/>
<path transform="translate(432,203)" d="m0 0 5 5 11 15 10 19 7 20 4 19 1 7v34l-3 17-4 15-6 15-8 16-2 3-6 1-2 4-5 4-3 5-1 8-5 6h-2l-5 6-7 5-10-1-3-2h-8l-10 3h-12l-4-2h-9l-1-4-1 11-1 24-11 2 1-8 1-53 3-9 6-2h11l6 3 5-1 5-7 38-4 15-3 9-5 1-2v-17l-4-17-9-27h2v-53z" fill="#B4A18E"/>
<path transform="translate(368,214)" d="m0 0h5l3 2 1-1h5l5 7 3 7 4 3v3l5 5 3 4 4 9 2 2 3 9 7 17 7 15 7 16 8 24 3 14v17l-6-1-1 3-8 4-6 1-17 1-18 2h-15v-11l2-11 3-1 1-5 6-9 5-1 15 1-7-42-5-16-4-8-2-2-13-2-4-3-6-2-4-5 3-2-53-1-2-4v-28l2-4 2-1h55v-4h2z" fill="#764C32"/>
<path transform="translate(869,774)" d="m0 0h484l4 3v13h-492v-12z" fill="#FBFDFB"/>
<path transform="translate(524,358)" d="m0 0h247v29l-24 1h-223z" fill="#585858"/>
<path transform="translate(260,217)" d="m0 0h8l5 4 2 4 2-2v2h9v6l2 1v2l2 5 1 9 4 6v10 2l3 3 1 4 1 15-4 10-7 6-5 1-1 18-4 10-4 4h-2v3l-8 3-1 1h-6v-2l-9-1v-2l-5-1-8-6-1-2v-20l-9-16-4-7-5-14v-14l4-13 8-13 4-4 5-3 3-3h11l1-4 4-1z" fill="#794E33"/>
<path transform="translate(293,250)" d="m0 0 3 3 1 13 3 5 1 6 3-5 7-5 15-3 15-5-31-1v-1h55l-3 2-2 1 4 5 6 2 3 2 13 2 5 6 5 14 4 18 4 24v7h-15l-21-6-2-2-10-3-11-3-12-2-2 1-6-4h-15l-8 4h-3l-3-3-5-1-3-5v-2l-5-2 1-7 8-4 4-5 3-8-1-15-2-5-3-3 1-1v-10z" fill="#B5A28F"/>
<path transform="translate(356,156)" d="m0 0 7 1 16 6 17 9 13 9 11 9 12 12v51l-1 53h-3l-8-19-9-20-3-7-1-5h-2l-4-11-5-6v-2l-3-1v-3l-5-4-4-9-2-3h-5-3l-6-2v2h-2v4h-19v-54l3-1 5 3v-7z" fill="#D4C0AD"/>
<path transform="translate(1174,410)" d="m0 0h2l1 3 4 50v14l-17 10-23 13-24 14-16 9h-2l-1-5-4-53v-9l19-11 23-13 26-15z" fill="#090F15"/>
<path transform="translate(527,774)" d="m0 0h309l4 3v13h-316v-13z" fill="#FBFDFB"/>
<path transform="translate(175,240)" d="m0 0h3l4 8 14 4 6 7 2 3 2 7 6 7 3 6 2 6 5 3 1 2 2-2 10 17 1 6-9 4-5 9-4 5-6 2-4 3h-8l-10 5-9 4-5 6-6 5-5-16-3-17-1-11v-16l2-17 4-19 7-19z" fill="#B5A28F"/>
<path transform="translate(1264,370)" d="m0 0h1l2 6 4 42v5l-6 4-7 3-27 15-36 21h-2l-1-3-1-21-2-21-1-1v-15l38-22h2l-1 6 9-3 19-11z" fill="#4D5253"/>
<path transform="translate(423,376)" d="m0 0h7v34l-5 6h-2l-5 6-7 5-10-1-3-2h-8l-10 3h-12l-4-2h-9l-1-4-1 11-1 24-11 2 1-8 1-53 3-9 6-2h11l6 3 5-1 5-7 38-4z" fill="#B5A28F"/>
<path transform="translate(293,250)" d="m0 0 3 3 1 13 3 5 1 6 3-5 7-5 15-3 15-5-31-1v-1h47v3h-2v-2h-8l1 68-8-1-7-1-2 1-6-4h-15l-8 4h-3l-3-3-5-1-3-5v-2l-5-2 1-7 8-4 4-5 3-8-1-15-2-5-3-3 1-1v-10z" fill="#B5A18E"/>
<path transform="translate(374,218)" d="m0 0 2 1v4h5l2 3-3 1-1 4h9l3 2-1 4h2v2l-2 1 3 2v2l4 1-3 1 5 10-1 2h-2l-1 2-5-4-2-4-5-2-2 5-5 3-67-1-2-4v-28l2-4 2-1h60z" fill="#45403D"/>
<path transform="translate(1263,352)" d="m0 0h5l2 2 5 62v10l-13 8-22 12-4 4 5 2 10 6 1 4-25 14-8 5-5-2-13-8h-4l-7 4-3-1-1-21-3-37v-14l26-15 24-14 27-15 5-3h2v-2l-5 1zm1 18-20 11-12 7-5 1 1-6-5 2-18 10-17 10v15l1 1 2 22 1 20 1 3 5-2 25-14 21-12 17-10 8-3 2-2-2-26-2-21-2-6z" fill="#073040"/>
<path transform="translate(258,232)" d="m0 0 14 1 10 4 6 5 1 4h-6v4l9 2 1 3-1 1h-6l-1 5h-4-3v2h-2v2h-6l1 2 2 1-4 3v8l9-2h4v-2h2l-2 5h-2l1 5 4 2 1 3-7 3-10 1-12-3-3-3v-2l-4-1-5-5-1-2-3-1-3-6v-2h-4l4 9 3 14-2 2h-7l-3-3-6-7 1-9h2v-2h4l1-5-4-2v-3l3-3 3-1 2-7 2-1 5-9 3-5 7-4z" fill="#C3804B"/>
<path transform="translate(526,315)" d="m0 0h82l31 1v19l-1 1h-113l-1-1v-19z" fill="#585958"/>
<path transform="translate(303,148)" d="m0 0h27l24 4 24 8 23 12 16 12 12 11 11 12 12 18 9 17 6 16 5 21 1 12-1 4h1v28l-3 18-6 20-11 23-2 4 8 1 8 7 3 7v9l-3 7h-2l-1 4-7 4-10 1-8-3-4-3v-3h-2l-2-7v-11l4-6 5-4 3-3h4l2-5 8-16 7-19 4-18 1-8v-34l-4-22-5-16-4-10-9-17-12-16-9-10-9-9-16-12-16-9-16-7-20-6-23-3h-20l-22 3-15 4-16 6-4 1 1-3 21-8 23-5z" fill="#0E1117"/>
<path transform="translate(1287,422)" d="m0 0 4 3 5 1v-2h2v3h10l5 5v5l4 1-1 2 2 4v14l-3 10-4 5-6 2h-8l-8-3h-5l1 7-6-1-5-5-2-5v-8l3-8-1-4-2-5v-9l5-6 6-3h4z" fill="#083140"/>
<path transform="translate(708,710)" d="m0 0h43v42h-43z" fill="#0B0E13"/>
<path transform="translate(1174,438)" d="m0 0h2l1 4 2 25v8l-9 6-29 16-4 1-2-21-1-4v-13l14-7 21-12z" fill="#043244"/>
<path transform="translate(1222,495)" d="m0 0 7 1 18 8-1 5-30 23h-2v-7h-4v4l-4-1-2-2-13 1v3l4 2h-4v4l7-1v3h-5v2l7 2-1 3-4 3-5-1-20-9 1-4 11-9 19-14 13-10z" fill="#0C3240"/>
<path transform="translate(407,267)" d="m0 0h3l6 15 6 13 7 19 2 16-2 6-2 2-2 7-4 4h-4l-3-4v-2h-2l-1-7-3-12-3-3 1-5-3-21-5-14-1-1v-11z" fill="#98643F"/>
<path transform="translate(260,217)" d="m0 0h8l5 4 2 4 2-2v2h9v6l2 1v2l2 5 1 9 4 6v10h-5l2 6 3 4v3l-5 1-3-5 1-4-4-2v-3l-3 2-1-2h2v-2l3-3 1-3 6-1v-3l-9-1-1-2 1-3 5-1-3-5-9-5-11-2-13 1-9 6-8 9h-2l-7 14-1 3v6l-3 4-1 3h-2l-2-6v-14l4-13 8-13 4-4 5-3 3-3h11l1-4 4-1z" fill="#423E3D"/>
<path transform="translate(1200,525)" d="m0 0 5 1 5 3v-4h4l2 11 12 3 17 6 1-5 3 1 5 5 11 4-3 9-4 7-2 1h-9l-9-4v-2l-6-2-10-5-15-7-8-5-7-2 1-3h5l-3-1h-4v-4l2-1-2-1v-3z" fill="#CCB69D"/>
<path transform="translate(242,296)" d="m0 0 3 1 4 6 5 3h12l5 3v5l-3 4v2l5 1 1 4 5-1-1 5-3 6-4 2-3 3-5 2-3-2v2l-11-1-9-9v-2h-2l1-11-1-4-3-13 1-4z" fill="#C47F48"/>
<path transform="translate(1090,504)" d="m0 0 2 3 2 18 5 1 8-5h2v2l5 2-1 3-16 9-8 5h-10l-35-9-1-2 24-14z" fill="#D7EBEF"/>
<path transform="translate(1263,407)" d="m0 0h5l1 2 1 13-9 6-49 28-17 10h-2l-1-3-1-20h9l4 3 8-1 6-7 2-4 6 2 5-1 5-5 8-10 8-8 4-2 4 3 1-5z" fill="#07A8D8"/>
<path transform="translate(353,413)" d="m0 0h1l1 12 9-1 5 2h11l10-3h8l5 2 7 1v3l-5 2v2l-6 2v2l-16 8-21 9-10 2v-27z" fill="#986440"/>
<path transform="translate(544,711)" d="m0 0 6 2 10 6 3 1v22l-17 10-6-2-13-8v-20l4-4z" fill="#053749"/>
<path transform="translate(1265,358)" d="m0 0h3l5 66-12 8-1 2-5 1-46 26-5 3-2-1 5-5 28-16 26-15 8-3 1-1-2-26-2-21-2-5-20 11-12 7h-5l1-6-18 10-17 10-5 2 1 15 1 1 1 21 2 1h-2l2 23 5-3 3 1-4 4-5 3h-2l-5-63 1-5 27-15 19-11 14-8z" fill="#091118"/>
<path transform="translate(246,164)" d="m0 0 3 2-15 8-12 8-11 10-7 6-9 11-4 5-10 15-9 20-6 20-3 17-1 11v16l2 18 5 21 2 4 9-10 7-4 10-4 3-2h8l5-4h5l2-4 5-8 4-4 7-1v15l5 5 4 3 4 1v2l5-1 4 2v3h-5l-9-3v-2l-11-1-11 4h-6l1-10-4 2-1 2-5 1v2h-7l-5 3h-2l-1 3h-6l-2 3-4 1-4 5h-2l-1 5-4-1v-3h-2l-4-14-3-15-1-8v-27l3-19 5-19 9-21 10-17 13-16 15-15 16-12z" fill="#433F3D"/>
<path transform="translate(303,148)" d="m0 0h27l24 4 24 8 23 12 16 12 12 11 11 12 12 18 9 17 6 16 5 21 1 12-1 4h1v28l-3 18-6 20-11 23-2 4 8 1 4 4-5-2-3-1h-14l2-2h4l2-5 8-16 7-19 4-18 1-8v-34l-4-22-5-16-4-10-9-17-12-16-9-10-9-9-16-12-16-9-16-7-20-6-23-3h-20l-22 3-15 4-16 6-4 1 1-3 21-8 23-5z" fill="#2F3034"/>
<path transform="translate(424,206)" d="m0 0h1v90l-2-3-11-23-4-10-1-5h-2l-4-11-5-6v-2l-3-1v-3l-5-4-3-9h2l1 6 4 2 3 1 3 8 4 2 6 8-1-5-2-1h2v-11l3-10 5 1 3 3 2 11h3z" fill="#CEB89E"/>
<path transform="translate(1563,14)" d="m0 0h8l8 5 4 6 1 9-4 10-4 3-5 2h-8l-8-4-4-5-2-5v-8l4-6 6-5z" fill="#3C393A"/>
<path transform="translate(627,613)" d="m0 0h19l6 5 1 4v16l-5 6-2 1h-19l-5-4-1-2v-20l4-5z" fill="#0D0F14"/>
<path transform="translate(669,718)" d="m0 0h29l-1 19-1 10-1 2-13 3-9-3-2-1-1-4z" fill="#BD7E4C"/>
<path transform="translate(1234,449)" d="m0 0 7 3 10 6 1 4-25 14-8 5-5-2-13-8v-3l19-11z" fill="#092E3C"/>
<path transform="translate(1141,502)" d="m0 0 9 2 11 7v3l-25 14-8 5-5-1-12-8-1-4 28-16z" fill="#0A303F"/>
<path transform="translate(959,714)" d="m0 0h6l4 3v5h6l3 5v8l-3 4-7 1 1 5-5 3h-8l-3-2-2-7-6-1-1-1v-7l2-7 1-1h5v-5l2-2z" fill="#4C4D4E"/>
<path transform="translate(623,719)" d="m0 0h28l-1 15-1 11-1 3-9 3-8-1-6-2-2-21z" fill="#08AFE1"/>
<path transform="translate(258,232)" d="m0 0 14 1 10 4 6 5-1 2-9-3-3-4-3-1h-15l-12 6-2 4-5 8 2 6 2 5 1 4 3 7 2 1v2l5 1 1 2-4-1v2h7l4 2v5l12 2-4 2-12-3-3-3v-2l-4-1-5-5-1-2-3-1-3-6v-2h-4l4 9 3 14-2 2h-7l-3-3-6-7 1-9h2v-2h4l1-5-4-2v-3l3-3 3-1 2-7 2-1 5-9 3-5 7-4z" fill="#986540"/>
<path transform="translate(368,214)" d="m0 0h5l3 2 1-1h5l5 7 3 7 4 3v3l5 5 3 4 5 13-1 5-2 2-14 2h-13l-6-2-4-2-7-1-1-2 3-1 14-1 5-3 1-5 7 3 3 5 3 1 3-2-4-8v-2l2-1-3-1-4-5h3v-2h-2v-4l-2-1-9-1 1-4 2-2-6-2-2-4-5 2-3-1v-4h2z" fill="#C4804A"/>
<path transform="translate(746,359)" d="m0 0h25v28l-25 1z" fill="#B5A28F"/>
<path transform="translate(424,195)" d="m0 0 7 6 1 1v51l-1 53h-3l-3-8z" fill="#D4C0AC"/>
<path transform="translate(909,720)" d="m0 0h9l9 3 6 4 1 1v6l-5 4-9 3h-14l-9-4-3-3v-6l5-5z" fill="#13B1E0"/>
<path transform="translate(590,710)" d="m0 0 6 2 13 8-4 4-9 4-2-2-7 1-1 1 1 7 1 1 7-1 2-1 4 2-1 4-5 3h-9l-5-4v-2l-8 4v-21z" fill="#08AFE1"/>
<path transform="translate(607,316)" d="m0 0h32v19l-1 1h-30z" fill="#0EA9D8"/>
<path transform="translate(407,269)" d="m0 0h2l6 16 6 14 3 10-2 1 2 4 1 9-2 4h-6l-1-4-2-1 1-3h-2v-2l-3-1-2-9 1-2-1-4 1-8-2-4-4-4-3-8 2-6z" fill="#C57F48"/>
<path transform="translate(242,296)" d="m0 0 3 1 4 6 5 3h12l5 3v5l-3 4v2l5 1 1 4 5-1-1 5-3 6h-3l2-6-10 1-1-4 3-5-8-1v-2l-5-1 1-4-5-2-2-4-6-1 4 9 1 11-2 10-4-4v-2h-2l1-11-1-4-3-13 1-4z" fill="#996540"/>
<path transform="translate(280,260)" d="m0 0 2 1-1 4 4-2 1 5 3 3-1 3 2 4 5-1-4-7-1-1v-5l4 1 4 4 1 4 1 15-2 4-1-3-4 6-8 1-12-2 3-2 7-1 3-1-6-7v-3l3-3 1-2h-2v2l-9 2h-4l-1-8 3-3-2-1 1-3 6 1v-2h2v-2z" fill="#7B5136"/>
<path transform="translate(1287,422)" d="m0 0 4 3 5 1v-2h2v3h10v1l-10 1-9 6-6 8-3 6-2 2 5 3v10l-1 3-3 1 9 2-4 2 1 7-6-1-5-5-2-5v-8l3-8-1-4-2-5v-9l5-6 6-3h4z" fill="#0E3544"/>
<path transform="translate(609,720)" d="m0 0h1v22l-13 8-3 2h-6l-16-10v-21h1l1 19 5-3h2l5 5h9l5-3 1-3-5-1-3 2h-5l-3-4v-5l4-3h5l3 2 9-5z" fill="#0B394A"/>
<path transform="translate(1173,404)" d="m0 0h3v3l-25 14-24 14-25 14-10 6 5 71-4-1-2-18-3-39v-15l9-6 21-12 10-5 8-5 13-7 11-7 11-6z" fill="#1E2126"/>
<path transform="translate(773,716)" d="m0 0h2v2h2v-2h3l3 11 2 7v6l6-2 1 3 2 1v3l-8 5-4-1v-5l-8 3-2 3-10-2-2-1v-7l5-3h2l2-7 2-4 1-9z" fill="#F9FBF8"/>
<path transform="translate(1264,353)" d="m0 0h3v2l-27 15-24 14-16 9-15 9h-2l5 66v6l-4-1-5-65v-7l7-5 11-6 6-3 13-8 25-14 9-5 10-6z" fill="#191B20"/>
<path transform="translate(1173,422)" d="m0 0h1l1 13-15 9-23 13h-2l-1-4v-9l25-14z" fill="#08AFE1"/>
<path transform="translate(544,711)" d="m0 0 6 2 12 7v2l-5 3h-3v2h-3v-2l-8-1-4 2-1 2v6l4 4h6l3-3h3v2l2 1-6 5-8 1-7-3v-3l-6 3h-2v-19l4-4z" fill="#08AFE1"/>
<path transform="translate(1172,414)" d="m0 0h2l2 10 1 18-1-4-27 15-12 7-4-1-1-18v-4l21-12zm1 8-27 15-12 7v9l1 4 6-2 24-14 10-6-1-13z" fill="#042F3F"/>
<path transform="translate(673,616)" d="m0 0h20l1 1v24l-5-4v2h-16l-1-1v-21z" fill="#08AFE1"/>
<path transform="translate(382,343)" d="m0 0 8 1 9 3 3 4 1 4v9l-6 1-9 1-5-1h-8v-8l5-12z" fill="#C47F48"/>
<path transform="translate(1251,545)" d="m0 0 14 5-3 9-4 7-2 1h-9l-9-4v-2l-6-2-22-11v-2h8l26 9h8z" fill="#B4A18E"/>
<path transform="translate(179,231)" d="m0 0 7 1 12 12 4 9 6 5 3 10 1 4 4 8v4h2l2-4 4 10-1 4-1-3-5-2-2-2-2-6-4-8-5-6-2-6-6-8-14-4-2-2-2-5-2-1 1-5z" fill="#CEB89E"/>
<path transform="translate(297,288)" d="m0 0h1v6l-4 6-7 5h-3l-2 7-4 3-2-1v-6l-8-4-4-1-13-1-5-4-2-5h3v2l9-1 2-1 12 2h19l4-1z" fill="#433F3E"/>
<path transform="translate(246,164)" d="m0 0 3 2-15 8-12 8-11 10-7 6-9 11-4 5-10 15-9 20-6 20-3 17-1 11v16l2 18 4 18v7l-2-3-4-15-3-19v-27l3-19 5-19 9-21 10-17 13-16 15-15 16-12z" fill="#3E3938"/>
<path transform="translate(549,616)" d="m0 0 6 1 3 1 1 3-2 7-4 8-5 4-5 2h-7l-6-2v-1l7-2-4-5-2-3v-11l9 5 5 1 1-6z" fill="#08AFE1"/>
<path transform="translate(1264,370)" d="m0 0 1 2-27 15-24 14-23 13-2 6h-1v-15l38-22h2l-1 6 9-3 19-11z" fill="#055671"/>
<path transform="translate(258,72)" d="m0 0h15l5 4 1 2v7l-3 5-4 2h-12l-5-3-3-5 1-7z" fill="#23282E"/>
<path transform="translate(78,15)" d="m0 0h12l6 4 4 5 1 3v8l-4 8-6 4h-2l-1-8 5-3 1-2v-13l-5 2h-10l-4-2v6l-1 5 3 5 4 3-5 1-1-3-2 1 2 4 5 1v3l-6-2-5-6-1-3v-10l4-7z" fill="#F3F8F7"/>
<path transform="translate(838,213)" d="m0 0 4 2 7 7 1-5 5 1v17l-4 4h-8l-7-7-6-5v-5-4h2l1-3z" fill="#C17C47"/>
<path transform="translate(1174,438)" d="m0 0h2v5l-13 11-8 7-12 11-5 3h-2l-1-5v-10l27-15z" fill="#08AFE1"/>
<path transform="translate(241,366)" d="m0 0h8l5 5v6h-2v2l-2 2 6 1 1 4h2v2l2 1-6 2-9-2-3-9v-3l-9-2-2 13-7 3h-3v-7l1-3h2v-2l3-3 4-6 7-1z" fill="#413D3C"/>
<path transform="translate(1563,14)" d="m0 0h8l8 5 4 6 1 9-2 5h-1l-3-9-3-6v-2h-9v4l9 1 2 4-1 7h-2v-3l-9-2-1-2-1-8-5 1-1 4 2 4h-2v2l-6 2-1-7 2-7 7-6z" fill="#CCB8A4"/>
<path transform="translate(708,710)" d="m0 0h43v42h-43zm2 3v36h39v-36z" fill="#A0673E"/>
<path transform="translate(347,258)" d="m0 0h8l-1 8-1 42-1 18-5-1z" fill="#CFB99F"/>
<path transform="translate(1143,547)" d="m0 0h5l17 11 3 2v4l-9 5-5-1-18-11-1-4 5-4z" fill="#14171D"/>
<path transform="translate(970,723)" d="m0 0h5l3 4v8l-3 4-7 1 1 5-5 3h-8l-3-2-1-3v-8l2-3 13-2 2-1z" fill="#D1BCA8"/>
<path transform="translate(1206,416)" d="m0 0h2l1 14 5-5 4-5h2v10l-4 10-6 5h-6l-3-3-1-3v-12l5-10z" fill="#07A7D7"/>
<path transform="translate(245,298)" d="m0 0 6 3 13 1 11 4 2 4 1 4 5-4 1 3-2 13-3 7-4 4h-2v3l-8 3-1 1h-6v-2h2v-2l4 1 6-2 1-3 4-2 4-10-6 2-1-5-5-1 2-5 2-6-5-2h-12l-5-3-4-5z" fill="#764C32"/>
<path transform="translate(360,369)" d="m0 0h3v2l8 2 1 6 3 1v2l2 1-3 6-5 1-6-3h-16l-1-2 3-7h2l1-2 4 1 1-6z" fill="#383738"/>
<path transform="translate(934,214)" d="m0 0h7l5 3 2 3v9l-4 5-3 1h-8l-5-5v-10l4-5z" fill="#DFEBEB"/>
<path transform="translate(260,217)" d="m0 0h8l5 4 2 4 2-2v2h9v6l2 1v2l1 5-2-1v-3l-7-1v-2h-6v-2h-3v-2l-3 1v-2l-5 1-7-3-1 2-4 1-5-2v-2l-3 1-1 4-5 1v-3l4-4h11l1-4 4-1z" fill="#66584F"/>
<path transform="translate(1298,428)" d="m0 0h12l2 2-1 4-1-1h-7l-9 6-6 8-1 4 2 5v10l-4 4-6-1-1-2h4v-13l-5-2 4-6 5-9 8-7z" fill="#0A0E14"/>
<path transform="translate(1220,404)" d="m0 0h2l-1 11 1 3v13l-5 10-5 5-8 1-6-4-1-12 3-10 6-8 3-2h8zm-14 12-5 8-1 3v12l2 5 2 1h6l6-5 4-10v-10l-3 1-6 8-2 1-1-14z" fill="#042F3F"/>
<path transform="translate(627,613)" d="m0 0h19l6 5 1 4v16l-5 6-2 1h-19l-5-4-1-2v-20l4-5zm1 3-3 3-1 3v14l3 5 4 1h12l5-2 1-2v-19l-4-3z" fill="#B97B4A"/>
<path transform="translate(588,72)" d="m0 0h9l5 5 1 2v6l-5 6-2 1h-7l-6-5-1-2v-6l4-6z" fill="#2D3237"/>
<path transform="translate(1263,362)" d="m0 0 3 1 1 13-2-1-1-4-20 11-12 7h-5l1-6 5-4 25-14z" fill="#042D3D"/>
<path transform="translate(430,402)" d="m0 0h1l1 13h-3l-10 10-13 10-15 9-9 3-3 3-17 6-15 4h-7l2-1v-2h2v-37h1v37l17-4 21-9 13-7h3v-2l3-2h3v-2l5-3 5-5 6-5 1-11h1v9l6-6z" fill="#313134"/>
<path transform="translate(387,339)" d="m0 0 8 1 2 3 4 2 6 11 2 2 2 8-6 4h-13l-19-1v-8l2-7 1 3-1 8 4-1h8l4 1 6-1 5-1v-8l-3-7-12-4-5-1 2-3z" fill="#97633F"/>
<path transform="translate(283,313)" d="m0 0 5 1 4 7 6 1 1 3h2v2l-5-2-3-2 6 12v3h-9l-5-3-5 1-1 3-6 1v-3l6-5 3-9z" fill="#433F3D"/>
<path transform="translate(590,718)" d="m0 0 8 2 4 5-6 3-2-2-7 1-1 1 1 7 1 1 7-1 2-1 4 2-1 4-5 3h-9l-5-4-2-3v-10l5-6z" fill="#F4FAFA"/>
<path transform="translate(1183,462)" d="m0 0h1l1 11 5 1 8-5 4 2 4 4-10 6-11 6-6 3h-7l-5-2 5-4 11-6z" fill="#D0E9EF"/>
<path transform="translate(424,206)" d="m0 0h1v90l-2-3-11-23 1-3v2h3v-2l6-1z" fill="#B5A28F"/>
<path transform="translate(371,366)" d="m0 0h1v11l26-2 16-2h10l10-4 3-3h5l-1 4-9 5-15 3-38 4-3 5-1-2v-3-2l-4-1z" fill="#48413E"/>
<path transform="translate(472,295)" d="m0 0h1v28l-3 18-6 20-11 23-2 4 8 1 4 4-5-2-3-1h-14l2-2h4l2-5 8-16 7-19 4-18 3-20z" fill="#333234"/>
<path transform="translate(1173,404)" d="m0 0h3v3l-25 14-24 14-25 14-2-1 1-3 17-10 10-5 8-5 13-7 11-7 11-6z" fill="#1D2025"/>
<path transform="translate(359,224)" d="m0 0 4 2v26h-3v-3h-2l-2-10-4 6-5-1v-2h-3l-2 3h-2l2-11 4-1 2 2 4-1 1-4h2v-2h2l-1 4h2v-2h2l-2-5z" fill="#736459"/>
<path transform="translate(541,718)" d="m0 0h8l6 4 1 3h-2v2h-3v-2l-8-1-4 2-1 2v6l4 4h6l3-3h3v2l2 1-6 5-8 1-7-3-3-6v-8l4-6z" fill="#F2F9F9"/>
<path transform="translate(311,258)" d="m0 0h31l-2 3-12 3-13 3-7 3-5 4-2 4h-1l-1-9 10-8z" fill="#CFB99F"/>
<path transform="translate(1260,475)" d="m0 0h7l12 5 4 5-10 6-6 5-6-3v-3l7 1v-4l-4-2-7-2 1-4 3 1-2-4z" fill="#CBB59C"/>
<path transform="translate(280,484)" d="m0 0h4l1 10 2-3 4 1 4-1h7v2h-6l1 2 5 2v5l-2 2h-12l-3-4-1 3h-4z" fill="#282A2E"/>
<path transform="translate(305,74)" d="m0 0h16v15l-1 1h-14l-1-1z" fill="#0B98C3"/>
<path transform="translate(231,273)" d="m0 0 5 1 3 9 2 9-2 2h-7l-3-3-6-7 1-7z" fill="#C27E49"/>
<path transform="translate(1177,419)" d="m0 0h2l2 16 2 21h1v22l-18 11-11 6-12 6 2-4 24-14 11-6v-14l-3-35z" fill="#1A3B48"/>
<path transform="translate(165,486)" d="m0 0h8l5 5v7l-5 5h-8l-4-5v-8z" fill="#F0F8F8"/>
<path transform="translate(1200,543)" d="m0 0 5 2 12 6v2l-11 6v-2l-10-2-6-4-6-5 1-2 7 3 4-1z" fill="#D5EBF0"/>
<path transform="translate(1007,213)" d="m0 0h3v22h-11l-4-4v-6l4-5h6z" fill="#B6D8DD"/>
<path transform="translate(380,231)" d="m0 0h8l3 2-1 4h2v2l-2 1 3 2v2l4 1-3 1 5 10-1 2h-2l-1 2-5-4-2-4-6-3v-6l3-5 2-4-7-2z" fill="#7B4F34"/>
<path transform="translate(1520,24)" d="m0 0h9l4 8v6l-1 1h-15l-1-2v-8z" fill="#4B7582"/>
<path transform="translate(1027,24)" d="m0 0h9l2 1v16l-2 1h-9l-2-2v-14z" fill="#0C1017"/>
<path transform="translate(289,239)" d="m0 0h1l1 9 4 6v10h-5l2 6 3 4v3l-5 1-3-5 1-4-4-2v-3l-3 2-1-2h2v-2l3-3 1-3 6-1v-3l-9-1-1-2 1-3 5-1z" fill="#7F5236"/>
<path transform="translate(1436,23)" d="m0 0h7l5 5v7l-4 4h-9l-3-3v-8l2-4z" fill="#0F171E"/>
<path transform="translate(787,214)" d="m0 0h3v9h10v-9h4v21h-4v-8h-9v8h-5v-20z" fill="#DAE5E5"/>
<path transform="translate(633,621)" d="m0 0h7l5 4v8l-5 4h-7l-4-4v-8z" fill="#B6794A"/>
<path transform="translate(1265,426)" d="m0 0m-4 1h4l-1 3-4 4-5 1-46 26-5 3-2-1 5-5 28-16z" fill="#081821"/>
<path transform="translate(25,74)" d="m0 0h7l3 1h7v12l-9 1-8-1z" fill="#1C8CAD"/>
<path transform="translate(1158,422)" d="m0 0m-1 1m-2 1h2v5h2v2l-23 13h-3l-1-7 21-12z" fill="#04374A"/>
<path transform="translate(220,328)" d="m0 0v3l-1 6 8 2-3 3-2 1h-6l1-10-4 2-1 2-5 1v2h-7l-5 3h-2l-1 3h-6l-2 3-4 1-4 5h-2l-1 5-4-1-1-7 3 4 9-10 7-4 10-4 3-2h8l5-4h5z" fill="#554A43"/>
<path transform="translate(368,214)" d="m0 0h5l3 2 1-1h5l5 7 3 7 4 3v3l2 2-1 2h-3v-2h-2v-4l-2-1-9-1 1-4 2-2-6-2-2-4-5 2-3-1v-4h2z" fill="#A56F47"/>
<path transform="translate(255,486)" d="m0 0h4v14l7-1 3-3h5v-3l-6 1 1-3h7l2 3v9h-10l-2-1v2h-11z" fill="#5A848C"/>
<path transform="translate(1234,449)" d="m0 0 5 2v2l-20 11-12 7v2l-5-1-1-4 19-11z" fill="#0B0E14"/>
<path transform="translate(456,234)" d="m0 0 3 4 8 20 5 21 1 12-1 1-1 25h-1l-1-29-4-22-5-16-4-10-1-5z" fill="#2E2F33"/>
<path transform="translate(1264,353)" d="m0 0h3v2l-27 15-24 14-6 2 1-4 28-16 6-3 15-9z" fill="#232428"/>
<path transform="translate(425,376)" d="m0 0h5v34l-3 4h-2l-1-8v-29z" fill="#CEB89F"/>
<path transform="translate(1268,364)" d="m0 0 3 1 4 51v10l-13 8h-2l2-4 10-6-4-51z" fill="#214755"/>
<path transform="translate(233,247)" d="m0 0h2v2h-2l-7 14-1 3v6l-3 4-1 3h-2l-2-6v-14l3-10 2 4 1 4 1-2 3-1 4-6z" fill="#4B4440"/>
<path transform="translate(628,724)" d="m0 0h18l-1 15-1 4-8 2-7-2v-5h3v2h8l1-5h-8v-3h9v-4h-14z" fill="#F5FAF9"/>
<path transform="translate(1275,452)" d="m0 0 1 3 4-1 1 4v5l-3 1v2l4 1-3 1 9 2-4 2 1 7-6-1-5-5-2-5v-8z" fill="#163946"/>
<path transform="translate(1141,502)" d="m0 0 6 1v2l-24 14-7 4-1 2-4-1-1-4 28-16z" fill="#0B0E14"/>
<path transform="translate(722,416)" d="m0 0h7l1 3h2l1-3h7l1 1v8l-3 2-5-1-2-2-3 3-6-1-2-2 1-7z" fill="#96B6B8"/>
<path transform="translate(1283,471)" d="m0 0h6l8 3h8l8-3-2 5-4 3-18 4h-4z" fill="#C9B59D"/>
<path transform="translate(257,242)" d="m0 0h11l5 3v3l-4 1 3 7-3 2h-7l-2-3-3 2h-3l2-4 10-4-1-2-9 1-5 2 1-4z" fill="#8B5B3A"/>
<path transform="translate(894,220)" d="m0 0h11 4l7 1 1 1v13h-3l-1-12-4 1-1 2-1 9h-3l-1-12-4 1-1 11h-4z" fill="#DBEAEA"/>
<path transform="translate(1258,432)" d="m0 0m-1 1 3 2-23 13-2 2-12 6-20 12h-2l-1 2v-4-4l5-2-1 3 46-26z" fill="#072F3E"/>
<path transform="translate(1128,460)" d="m0 0h3v3l-10 5 1 3 2 1v-2l6-1-1 2h-2v2l-11 6h-3v-2l-2-1v-2l-2-1v-2l5-3v-4l5-3h2v3l5-1v-2z" fill="#042F3F"/>
<path transform="translate(162,273)" d="m0 0h1v13l-1 11v16l2 18 4 18v7l-2-3-4-15-3-19v-27z" fill="#2F3033"/>
<path transform="translate(647,172)" d="m0 0h5l-3 1v2l6 1 1-4h2l1 3 1-3h10 4v8h-2l-2-2-1 2-10 1-4-2v2h-8z" fill="#99A6A3"/>
<path transform="translate(1163,489)" d="m0 0 1 2 7 2-4 4-12 7h-2v2l-5-2-4-4z" fill="#D0E9EF"/>
<path transform="translate(142,73)" d="m0 0h11v15l-4-1h2v-2l-4 1-1 3-3 1v-2h-2l-1-2v-11z" fill="#376C7C"/>
<path transform="translate(675,725)" d="m0 0h17v3h-14v4h13v11l-8 2-7-2v-5h3v3l8-1v-4l-12-1z" fill="#FAFBF8"/>
<path transform="translate(165,515)" d="m0 0h6l3 2 1 9-3 4h-8l-3-4v-7z" fill="#24262A"/>
<path transform="translate(345,153)" d="m0 0 8 1 3 1v13l-1 9h-1l-1-10-6-1v38h-1l-1-17z" fill="#C8B49F"/>
<path transform="translate(724,719)" d="m0 0h4l5 16 1 4h-4l-1-5h-6l-1 5h-4l5-19z" fill="#A86D40"/>
<path transform="translate(1254,437)" d="m0 0 1 2 6 1-2 4-16 9-5-2-2-1 1-3z" fill="#D1E9EF"/>
<path transform="translate(335,605)" d="m0 0h8l1 1v11h-6v-5h-2v5h-3l-1-2-2 2h-5l-1-1v-5l7-1h3z" fill="#769CA3"/>
<path transform="translate(1566,22)" d="m0 0h9l6 12v9l-5 4h-6v-6l2-1 2 1-1-7 2 2-1 2h2v-7l-1-3-9-2z" fill="#805437"/>
<path transform="translate(935,217)" d="m0 0h5l4 3v9l-4 3h-5l-4-4v-7z" fill="#1A1F23"/>
<path transform="translate(680,621)" d="m0 0h7l3 2 1 9-5 1h-9l-2-1 1-8z" fill="#222A30"/>
<path transform="translate(228,484)" d="m0 0h3v19h-10l-2-2v-7l2-3h6z" fill="#E7F1F1"/>
<path transform="translate(360,261)" d="m0 0h7l5 3 9 1v2l11 2 2 5-2 4-5-5-7-2-7-1-4-3-6-2z" fill="#714C35"/>
<path transform="translate(285,334)" d="m0 0 7 4 1 3 4 1h-12l-10 5-5 3 2-4h-5v-3l7-4h5l1-4z" fill="#20242B"/>
<path transform="translate(1061,213)" d="m0 0h3l1 12 4-5h4l-4 8 5 7h-5l-3-4v-2h-2v6h-4v-21z" fill="#A6D5DF"/>
<path transform="translate(232,370)" d="m0 0h5v4l-3 1-2 13-7 3h-3v-7l1-3h2v-2l3-3z" fill="#48423F"/>
<path transform="translate(243,239)" d="m0 0v3l-6 10h-2l-1 7-4 1-2 6 3 2-1 5h-4v2h-2l-1 3-2-2 3-4v-7l6-12 5-5z" fill="#764C32"/>
<path transform="translate(1125,213)" d="m0 0h3l1 8 1-1h6l2 2v13h-3l-1-12-5 2-1 10h-4v-21z" fill="#AAD6DF"/>
<path transform="translate(233,237)" d="m0 0 3 1 2-1 1 5-4 5-5 3-3 5h-3l-1 3h-1l-1-10 4-3 1-1 3-4z" fill="#363639"/>
<path transform="translate(1016,220)" d="m0 0h7l3 3v12h-11l-2-3 1-4 8-3-1-1h-7v-3z" fill="#BAC5C5"/>
<path transform="translate(414,74)" d="m0 0 5 1 3 3v8l-3 3h-6l1-8-4-1 1 7-3-1v-8l3-3z" fill="#1C4C5D"/>
<path transform="translate(1047,220)" d="m0 0h7l3 2v13h-11l-2-2 1-5 4-2h5l-1-2h-8z" fill="#DCE7E6"/>
<path transform="translate(582,454)" d="m0 0h2l2 5 7-1v-4h3l1 5h3l-2 3 2 3h-4l-10 1-2-4-4 1-2 2 1-5z" fill="#4A5657"/>
<path transform="translate(604,419)" d="m0 0h7l1 6h1l1-6h13l-2 1v7h-3v-7h-2v7h-16l-2-2 1-5z" fill="#799493"/>
<path transform="translate(358,373)" d="m0 0 3 3h3l2 2-5 7-10 1-4 1-1-2 3-7h2l1-2 4 1v-3z" fill="#21262D"/>
<path transform="translate(1144,220)" d="m0 0h7l2 4v11h-11l-2-5 2-3 7-2v-2l-7 1v-3z" fill="#E0EEEE"/>
<path transform="translate(966,220)" d="m0 0h7l2 2v13h-11l-1-1v-6l8-3v-2l-7 1v-3z" fill="#DEECED"/>
<path transform="translate(1172,414)" d="m0 0h2l1 10-2-1-12 7-4-1-1-3 4-5z" fill="#042D3C"/>
<path transform="translate(557,454)" d="m0 0h12l1 1v9l-12 1-2-1v-9z" fill="#E6E4DE"/>
<path transform="translate(912,723)" d="m0 0h3v2l5 2 1-1h7l2 4-3 4h-5l-1 3h-2v-3h-3l1-6h-3l-1 6h-3z" fill="#2B2E32"/>
<path transform="translate(1089,213)" d="m0 0h3l1 8 6-1 3 4v11h-4l-1-11-4 1-1 10h-3z" fill="#EAF5F6"/>
<path transform="translate(353,230)" d="m0 0h2v11l-3 4-5-1v-2h-3l-2 3h-2l2-11 4-1 2 2 4-1z" fill="#C9B6A3"/>
<path transform="translate(222,653)" d="m0 0h2l1 2 1-2h3l1 3 3-3h2l3 1h-2v3h2v-2h3v-2h11v2l-3 1 3 2-1 3h-5l4-1v-2l-6-2-1 5h-2v-3l-3 1h2v2h-5l-2-2-4 2-1-2-4 2z" fill="#555552"/>
<path transform="translate(810,286)" d="m0 0h5v2l-2 1 3 2v2l4-1-3-2 1-4h10v9h-19v-2l3-1-3-2z" fill="#BACACA"/>
<path transform="translate(979,220)" d="m0 0h10l4 3v12h-4l-1-11h-4l-1 11h-4z" fill="#DFE2DE"/>
<path transform="translate(454,77)" d="m0 0h3l1 5h3l-2 3 2 4-5-3v2l-6 1-2-2-1 2h-5l-2-4 3-2-1-2 6 1 1-1h5z" fill="#312D2D"/>
<path transform="translate(970,24)" d="m0 0h6l3 3 1 8 1 4-3-2-8-1-3-3v-6z" fill="#16262F"/>
<path transform="translate(767,735)" d="m0 0 5 5 2 7-2 3-10-2-2-1v-7l5-3h2z" fill="#B47645"/>
<path transform="translate(578,633)" d="m0 0h3v9h19v-9h3v12h-25z" fill="#545353"/>
<path transform="translate(648,535)" d="m0 0h8v4h2l1-4 3 1 5-1 1 4h-4v2h4v2h-5l-3-3-1 3-4-1-1-3-2 4h-5l-2-2 1-5z" fill="#8EB8BD"/>
<path transform="translate(716,453)" d="m0 0h3v13h-7l-2-2-1 1h-6l-1-1v-5l1-1h6l1 2 3-2h3z" fill="#8A9FA2"/>
<path transform="translate(233,338)" d="m0 0h6l5 2v2l9 1v2l2 1-2 2h-8l-9-4v-2h-8z" fill="#21262D"/>
<path transform="translate(53,78)" d="m0 0h7l1 3h4l1 3 1-3h2l-2 7h-3l-2-2-2 2h-6l-3-3 1-6z" fill="#88B3B9"/>
<path transform="translate(525,74)" d="m0 0 3 3 5 1-2 6v5h-2v-2l-8 1-2-7-1-3h5v-2h2z" fill="#366877"/>
<path transform="translate(299,653)" d="m0 0h8l1 3 1-2h3l1 2 1-3h4v8h-2l-1-3-1 3h-3l-1-3-1 3h-2l-2-3-2 3h-5l-1-1v-6z" fill="#363A3C"/>
<path transform="translate(335,484)" d="m0 0h4l1 7h5l2 2v10h-3l-1-9h-3l-1 9h-4z" fill="#C6EAF2"/>
<path transform="translate(448,402)" d="m0 0 7 1 2 3-1 5-5 3-6-2-2-3 1-5z" fill="#FAFCFA"/>
<path transform="translate(257,227)" d="m0 0h11l3 1v2h3v2h6v2l7 1 2 4-1 4-6-5-6-3v-2l-20-2-2 1v-3z" fill="#373639"/>
<path transform="translate(280,484)" d="m0 0h4l1 10 2-3 4 1-3 4 2 4 1 3-4-1-2-2-1 3h-4z" fill="#E8F1F1"/>
<path transform="translate(430,198)" d="m0 0 4 2 11 14 11 18-1 4-3-4-9-15-13-16z" fill="#2B2E33"/>
<path transform="translate(349,165)" d="m0 0 4 1v24l-5-1v-23z" fill="#FCFEFC"/>
<path transform="translate(327,224)" d="m0 0 5 1v5l-1 1h-5-2-12l-1-1v-5h13l3 1z" fill="#584E47"/>
<path transform="translate(1257,477)" d="m0 0 4 1v2h-3l-1 3 7 1 4 3v4l-7-1 1 3 5 2-1 2-6-2-2-2-2-7-2-2v-5z" fill="#2B383D"/>
<path transform="translate(777,415)" d="m0 0h2v12h-6-2-3v-6h-2v6l-3-1v-7h7 3 4z" fill="#8ED2E4"/>
<path transform="translate(262,225)" d="m0 0h10l3 2 8 1v-3h3v6l2 1v2l1 5-2-1v-3l-7-1v-2h-6v-2h-3v-2l-3 1v-2l-5 1-2-2z" fill="#423F3E"/>
<path transform="translate(330,220)" d="m0 0h39v1h-25v2l5 1v3h2l1 7h-3l-1 2-3-4h2l1-4h-5l-2-6-10 1z" fill="#5D554F"/>
<path transform="translate(258,216)" d="m0 0h11l7 2 3 5 7 1-3 2-7-1h-3l-2-5-3-2-8-1-1 2h-5l-2 4h-11l4-3 6-2z" fill="#B5A28F"/>
<path transform="translate(258,232)" d="m0 0 14 1 10 4 6 5-1 2-9-3-3-4-3-1-19-1-6 4-3-1 8-5z" fill="#845637"/>
<path transform="translate(862,284)" d="m0 0h2v2l4 1 1-1h6l1 5h-6v2h5v2h-12l-1-1-1-8z" fill="#B4D0D4"/>
<path transform="translate(687,675)" d="m0 0h3v6l8-1v3l-4-1v2l4 2-2 4h-9z" fill="#898C8A"/>
<path transform="translate(344,420)" d="m0 0h1v37l17-4 9-2v2l-19 6-5 1h-7l2-1v-2h2z" fill="#544339"/>
<path transform="translate(1177,419)" d="m0 0h2l2 16 1 13v21h-1l-3-28z" fill="#183843"/>
<path transform="translate(1264,376)" d="m0 0h3l4 42v5l-6 4-2-1 6-4-2-24h-2l-1-12z" fill="#065973"/>
<path transform="translate(588,680)" d="m0 0h7v12l-3 2h-5l-1-2 5-1-4-1-2-3 1-6z" fill="#80979A"/>
<path transform="translate(168,488)" d="m0 0 5 1 2 4-1 6-3 2-5-1-2-3 1-7z" fill="#191C21"/>
<path transform="translate(288,150)" d="m0 0h18v1l-22 3-15 4-16 6-4 1 1-3 21-8z" fill="#3C3838"/>
<path transform="translate(215,514)" d="m0 0h1v16l-7 1-3-3v-6l3-3 6 1z" fill="#25272C"/>
<path transform="translate(1267,373)" d="m0 0h2l4 51-6 4-2-1 5-4-2-26-1-12z" fill="#0A0D13"/>
<path transform="translate(526,676)" d="m0 0h2v11h5v-2l5-2h-4v-2l7-1v10h-15z" fill="#B7B7AF"/>
<path transform="translate(584,630)" d="m0 0 7 1 7 2v7h-14l-1-4 8-1-7-2z" fill="#8A5E3D"/>
<path transform="translate(556,680)" d="m0 0h7v12l-3 2h-5v-2l4-2-4-1-2-2 1-5z" fill="#9FB3B4"/>
<path transform="translate(783,737)" d="m0 0h2v3l6-2 1 3 2 1v3l-8 5-4-1-1-6z" fill="#BE7E4C"/>
<path transform="translate(857,493)" d="m0 0h4v2l5-2v11h-2l-1-5-1 4-6 1-2-2v-6z" fill="#97BCC4"/>
<path transform="translate(305,484)" d="m0 0h3l1 7h6l1 1v11h-3l-1-9h-3l-1 9h-3z" fill="#F0F7F7"/>
<path transform="translate(349,387)" d="m0 0h3v12l-2 7h-4v-18z" fill="#CEB89E"/>
<path transform="translate(178,230)" d="m0 0 1 3-8 19-5 17-2 11h-1v-12l5-17 9-20z" fill="#3B3838"/>
<path transform="translate(801,733)" d="m0 0 4 1 1 2 2-3h3v2h3v3h3v-3h2v7h-7l-4-2-2 1-5-1z" fill="#042E3E"/>
<path transform="translate(305,562)" d="m0 0h10l1 1v7l-2-1 1-2h-3l1 4h-9l-2-2v-5z" fill="#232427"/>
<path transform="translate(328,440)" d="m0 0 7 1 1 2 2 1-7 2-4 5-2 2-3 7-3-1v-8l3-3 5-2v-5z" fill="#21262D"/>
<path transform="translate(311,429)" d="m0 0h2v7l-3 9-2 3h-5l-2 1 1-4 6-10z" fill="#21262D"/>
<path transform="translate(371,79)" d="m0 0h2v2h7l-3 1v2l2 1h-5l-1 4-2-3-1-3-4-1 1 5 3 1-5 1-1-4h-6v2h5l-1 2-5-1-1-5 2-2 6 1 1-1h6z" fill="#8DABAE"/>
<path transform="translate(543,723)" d="m0 0h5l4 4-4 3-8 4h-3v-6l4-4z" fill="#08AFE1"/>
<path transform="translate(269,491)" d="m0 0h7l2 3v9h-10l-1-1v-5l7-1v-3l-6 1z" fill="#C4DADF"/>
<path transform="translate(193,491)" d="m0 0h7l2 3v9h-10l-1-5 2-2h5v-3l-6 1z" fill="#CFCFCC"/>
<path transform="translate(244,293)" d="m0 0h3v2h7l9 1v6h-12l-5-4z" fill="#423E3D"/>
<path transform="translate(1116,216)" d="m0 0h2v4h4v3h-4v9h4v3h-6l-2-3v-9h-2v-3h2v-3z" fill="#BCE2EA"/>
<path transform="translate(288,514)" d="m0 0h2v6l5-1-4 2-1 9h-6l-1-1-1-10 2-3 1 2 3 1z" fill="#2A2D31"/>
<path transform="translate(351,491)" d="m0 0h7l2 2v10h-10l-1-5 3-2h5l-1-2h-6z" fill="#F3F9F9"/>
<path transform="translate(236,491)" d="m0 0h7l2 2v10h-10l-1-5 7-3-4-1h-2z" fill="#D5DFE0"/>
<path transform="translate(472,295)" d="m0 0h1v28l-3 18h-2v-11l3-20z" fill="#2F3033"/>
<path transform="translate(430,279)" d="m0 0h1v27h-3l-3-8v-3h3l-1-11z" fill="#CCB79E"/>
<path transform="translate(953,220)" d="m0 0h7v3h-6v3l5 1 2 2-1 5-2 1h-8l1-4 5 1v-2l-6-3v-5z" fill="#D6E4E4"/>
<path transform="translate(121,26)" d="m0 0 7 1 1 1v7l-2 2h-6l-3-4 2-6z" fill="#BCC1B8"/>
<path transform="translate(216,25)" d="m0 0h2v5h5v7h-2v-6l-2 1-1 5h-2v-6h-3v5l2 1-4-1-1-4-1 5h-2v-11l7 1v2h2z" fill="#A4D4DE"/>
<path transform="translate(264,558)" d="m0 0h3v4l5 1v8h-2v-7h-3l-1 7h-6v-7l-2-1 3-3v2h3z" fill="#6C7A7D"/>
<path transform="translate(1253,483)" d="m0 0 5 5 2 6 6 3-2 6-3 3-5-9-3-10-1-3z" fill="#C8E7EE"/>
<path transform="translate(951,281)" d="m0 0h3v14h-8l-2-2v-5l2-2h5z" fill="#6F8C92"/>
<path transform="translate(845,286)" d="m0 0 5 1 1-1h7l1 1v8l-3-1v-2l-3-1v3l2 1-4-1-5 1z" fill="#514439"/>
<path transform="translate(647,675)" d="m0 0h2v15h-7l-3-4 2-5 5-1z" fill="#6C8B93"/>
<path transform="translate(1233,443)" d="m0 0 2 1-8 7-23 13-2-1 5-5z" fill="#071821"/>
<path transform="translate(361,331)" d="m0 0h6l1 3 7 1 12 3v2l-4 2-5 9-1-4 3-8-9-1-5-2v-2l-5-1z" fill="#554941"/>
<path transform="translate(948,723)" d="m0 0h12l-4 2-9 12-2-1-1-6 2-6z" fill="#08AFE1"/>
<path transform="translate(595,613)" d="m0 0h2l8 11-3 4-5-1-8-6 1-3 4 1 5 4-5-7z" fill="#AC7042"/>
<path transform="translate(722,416)" d="m0 0h7l1 1v8l-2 2-6-1-2-2 1-7z" fill="#ABCCD0"/>
<path transform="translate(967,281)" d="m0 0h3v14h-7l-3-3 1-5 1-1h5z" fill="#638F9A"/>
<path transform="translate(694,493)" d="m0 0h7l2 2v7l-2 2h-7z" fill="#E2E7E5"/>
<path transform="translate(828,733)" d="m0 0h8l1 1v5l4 1h-6l-3 1-6-1h-6l4-1v-2h-4v-3h2v2l5 1z" fill="#A66B3F"/>
<path transform="translate(1119,449)" d="m0 0 3 1 3 2v2l-9 5-6 2v-3l-3-1 4-3h3v-2z" fill="#043648"/>
<path transform="translate(1027,24)" d="m0 0h9l2 1v16l-2 1h-9l-2-2v-14zm1 1-1 1v14h3l3-10v3l-2 7h6v-14l-1-1z" fill="#4C4A4A"/>
<path transform="translate(1564,23)" d="m0 0 2 1v2l9 1 2 4-1 7h-2v-3l-9-2-1-2z" fill="#B5A08B"/>
<path transform="translate(824,493)" d="m0 0h3v9l4-2 1-4 3-3h3l1 8-4 2v-2h-2v2l-2 1h-7z" fill="#98B5B6"/>
<path transform="translate(1078,220)" d="m0 0h7v3h-6v3l5 1 2 2-1 5-1 1h-8l1-3h4v-2l-6-4 1-4z" fill="#D5E9EB"/>
<path transform="translate(644,496)" d="m0 0h4l1 2v6h-13l-2-4 2-3 2 1-1 2h3l-1-3z" fill="#6D7E80"/>
<path transform="translate(205,491)" d="m0 0h10l2 4v8h-4l-1-9h-3l-1 9h-3z" fill="#D1ECF1"/>
<path transform="translate(641,583)" d="m0 0 8 1 3-1 3 3v7h-3l-1-7h-1l-1 7-3-1-1-6h-1l-1 7-3-1v-8z" fill="#A5D1D8"/>
<path transform="translate(556,493)" d="m0 0h7v4h2l1-4h4v7h-14z" fill="#F8FAF7"/>
<path transform="translate(1264,353)" d="m0 0h3v2l-25 14-2-1 1-3 9-5 10-6z" fill="#1B1C21"/>
<path transform="translate(208,191)" d="m0 0 2 1-13 14-6 8-10 15-2 2v-3l8-13 11-14z" fill="#343336"/>
<path transform="translate(960,739)" d="m0 0 8 1 1 5-5 3h-8l-2-2 4-4h2z" fill="#B57644"/>
<path transform="translate(304,236)" d="m0 0 3 1v5l-1-2-2 7 1 4-5 1-2-5 1-7 3-3z" fill="#CFB99F"/>
<path transform="translate(786,215)" d="m0 0 3 1 1 8 1 1 8 1v1h-8v8h-5z" fill="#A6CDD4"/>
<path transform="translate(368,214)" d="m0 0h5l3 2 1-1h5l1 2-3 5-5-1-1-2-5 2-3-1v-4h2z" fill="#BC9878"/>
<path transform="translate(999,30)" d="m0 0 2 2v3h2l1-5h8l2 2-1 5-5 1-1 3-2-7-3 7-3-1h2l-2-6z" fill="#484440"/>
<path transform="translate(657,493)" d="m0 0h2v4l5 1v6h-2v-6h-3v6h-7l-2-1v-5l2-2h4z" fill="#45585C"/>
<path transform="translate(629,419)" d="m0 0h12l2 3-1 5h-1l-1-6-2-1v7h-8l-2-1v-6z" fill="#7E827D"/>
<path transform="translate(1410,172)" d="m0 0 4 1-1 4h-2l-2 4-5 5h-5l1-5 8-7z" fill="#264956"/>
<path transform="translate(1559,22)" d="m0 0 5 1 1 9 2 2-8 1-3-9z" fill="#8C5F3F"/>
<path transform="translate(609,720)" d="m0 0h1v11l-4 2h-5l-1-5 5-5z" fill="#326577"/>
<path transform="translate(784,493)" d="m0 0h6v2l-4-1v2h4v8h-2v-5h-2v5h-3v-5h-4v5h-2v-7l6-1z" fill="#AAC7CA"/>
<path transform="translate(279,298)" d="m0 0h15l-2 4-3 2-8 1-5-2z" fill="#3B393A"/>
<path transform="translate(97,81)" d="m0 0h8l1 2 1-2 4 1 2-1-1 7h-3l-1-2-1 2h-2l-1-2h-6l3 2h-5l-1-5z" fill="#A9C8CC"/>
<path transform="translate(1094,26)" d="m0 0h2v4l5 1 1 7h-2l-1-6-2-1-1 7h-7l-1-1v-5l2-2h3z" fill="#3D3C3A"/>
<path transform="translate(878,214)" d="m0 0h4v21h-4z" fill="#B3D9DE"/>
<path transform="translate(199,25)" d="m0 0h2v4h4l1 2v6l-3-1v-5h-2v6h-9l1-2 2 1v-2l-3-1v-3h5l-2 2 2 1 1-7z" fill="#96CFDC"/>
<path transform="translate(599,583)" d="m0 0h2l1 2 4-2 2 4 2-4h1l-1 10-4-1v-2h-2v3h-3l-2-6z" fill="#98B8BC"/>
<path transform="translate(172,559)" d="m0 0 5 1 1 1v8l-3 2-4-1-1-1v-8z" fill="#3E3730"/>
<path transform="translate(789,286)" d="m0 0h7l2 1v6l-2 2h-5v4h-2z" fill="#7F8885"/>
<path transform="translate(1074,286)" d="m0 0h13l1 1v8h-3v-7l-2 1-1 6h-3v-7h-3v7h-2z" fill="#B2D0D3"/>
<path transform="translate(531,322)" d="m0 0h5l1 1 11 1 1 5-5 1-2-4-3-1v5l-2-4-4 1v4h-2z" fill="#AEBDBC"/>
<path transform="translate(1017,286)" d="m0 0h7l2 2v5l-2 2h-5v4h-2z" fill="#75807F"/>
<path transform="translate(774,282)" d="m0 0h4l4 10v3l-3-1v-2h-6v3h-3l3-9z" fill="#8FABB0"/>
<path transform="translate(667,172)" d="m0 0 4 1 3-1v8h-2l-2-2-1 2-10 1 3-1v-7z" fill="#3C6872"/>
<path transform="translate(232,81)" d="m0 0 6 1 5-1-3 1v2l3 1v3l-7 1-5-1-1-5z" fill="#486A72"/>
<path transform="translate(1283,471)" d="m0 0h6l8 3h12l-3 2-13 1-5 3-4-1z" fill="#B5A18E"/>
<path transform="translate(161,313)" d="m0 0h1l2 18 4 18v7l-2-3-4-15-2-12z" fill="#49403C"/>
<path transform="translate(304,219)" d="m0 0 7 1-2 1-2 4h-5l-3 2h-3l-1 3-3-1v-4l7-4z" fill="#CDB79D"/>
<path transform="translate(311,80)" d="m0 0h9v9h-9z" fill="#181B20"/>
<path transform="translate(539,583)" d="m0 0 5 1 2 2-1 5-2 2h-5l-2-2v-6z" fill="#96A5A6"/>
<path transform="translate(1436,23)" d="m0 0h7l5 5v7l-4 4h-9l-3-3v-8l2-4zm3 1-4 2v2h-2l1 7 3 3 7-1 2-3v-6l-3-3z" fill="#3C6B79"/>
<path transform="translate(678,680)" d="m0 0 6 1 1 6-3 3-6-1-1-6z" fill="#85A1A6"/>
<path transform="translate(1064,286)" d="m0 0h6l2 1v6l-2 2h-6l-2-2v-5z" fill="#89A0A2"/>
<path transform="translate(469,274)" d="m0 0h2l2 17-1 1-1 25h-1l-1-29-1-12z" fill="#483E39"/>
<path transform="translate(642,613)" d="m0 0 6 1 4 4 1 4v16h-1l-1-15-1 14h-1l-1-18-3-2-10-1v-1l7-1z" fill="#614F45"/>
<path transform="translate(342,605)" d="m0 0 2 1v11h-6v-5h-2v5h-1v-6l1-4 4 1v-2z" fill="#888681"/>
<path transform="translate(625,533)" d="m0 0h2l1 3v7h-9l-2-2 1-5 1-1h6z" fill="#6A7778"/>
<path transform="translate(237,313)" d="m0 0 2 3 1 4-2 10h2l3 5 5 4-4-1-8-6-1-2v-16z" fill="#774D32"/>
<path transform="translate(290,264)" d="m0 0 4 1 4 4 1 8-2 3h-4v-3h2l-4-7-1-1z" fill="#905E3C"/>
<path transform="translate(1069,30)" d="m0 0 4 1 1 3 5-1v-2l-4 1 1-2 5 1v7h-6l-1-3-4 1 3 2-5-1-1-4z" fill="#4A4947"/>
<path transform="translate(902,726)" d="m0 0h7l1 1v5l-2 2h-5v3h-3l1-10z" fill="#26424C"/>
<path transform="translate(897,286)" d="m0 0h6l2 1v6l-2 2h-5l-3-2v-5z" fill="#6D7876"/>
<path transform="translate(667,680)" d="m0 0 6 1 1 5-4 4-5-1-1-6z" fill="#83A2A9"/>
<path transform="translate(1245,506)" d="m0 0 1 3-17 13-12 9h-2l2-4 14-10 13-10z" fill="#1E2025"/>
<path transform="translate(556,414)" d="m0 0h5l4 3h5l-1 4h-5l2 4-1 4-4-1 1-9-5-2z" fill="#A96F43"/>
<path transform="translate(598,369)" d="m0 0h5l2 2v6l-3 2-5-1-2-2 1-5z" fill="#A4BCBB"/>
<path transform="translate(831,286)" d="m0 0h6l2 2v5l-2 2h-6l-2-3 1-5z" fill="#8AA0A4"/>
<path transform="translate(1007,286)" d="m0 0h6l2 2v5l-2 2h-5l-3-2v-5z" fill="#8AA0A3"/>
<path transform="translate(425,273)" d="m0 0 4 2 2-1-1 7-2 3v11h-3z" fill="#D5C1AE"/>
<path transform="translate(346,81)" d="m0 0h8v10l-4 1 2-1-1-3-4 1-3-2v-5z" fill="#699AA6"/>
<path transform="translate(976,726)" d="m0 0 2 1v8l-3 4h-14v-1l7-2 6-5h2z" fill="#B87846"/>
<path transform="translate(588,581)" d="m0 0h2v3l2 1h-2v6h2v2l-4-1v-7l-6 1v4l3 1v2l-6-1-1-1v-5l4-3h6z" fill="#A1C7CC"/>
<path transform="translate(373,562)" d="m0 0h6v13h-2l-1-4-5-1v-6z" fill="#7F9697"/>
<path transform="translate(415,558)" d="m0 0h2v13h-6l-2-1v-6l2-2h4z" fill="#769599"/>
<path transform="translate(340,519)" d="m0 0 5 1 2 3v3l-7 1 6 2-1 2h-5l-3-4 1-5z" fill="#3A3B3D"/>
<path transform="translate(228,484)" d="m0 0h3v19l-5-1 1-2v-6h-5l1-3h4z" fill="#F4F9F8"/>
<path transform="translate(213,339)" d="m0 0h3v4l4 1-2 5-5 1-4-3v-4z" fill="#423E3D"/>
<path transform="translate(257,242)" d="m0 0h11l3 4-12 1-8 3 1-4z" fill="#6E4E39"/>
<path transform="translate(700,172)" d="m0 0h1v8l-6 1-7-1v-5l6-1h6z" fill="#4B443E"/>
<path transform="translate(480,81)" d="m0 0h11l-3 1v2l3 1-1 4h-9l-2-1v-5l4 1v-2z" fill="#738282"/>
<path transform="translate(675,535)" d="m0 0h6v10l-1 1h-6l4-1v-2l-5-1v-5z" fill="#90B0B4"/>
<path transform="translate(613,494)" d="m0 0h2v2l5 1-1 5h3l-1-5 4 1-1 5-7 2h-4l-1-9z" fill="#6E7573"/>
<path transform="translate(614,172)" d="m0 0h2v2h4v6l-1-4h-2v5h-7l-2-7 3-1 3 1z" fill="#747E7E"/>
<path transform="translate(142,75)" d="m0 0h9v8h-9z" fill="#0F1319"/>
<path transform="translate(733,458)" d="m0 0h7v9l-2 2h-5v-2h4v-2l-5-1v-5z" fill="#9FB7B9"/>
<path transform="translate(634,624)" d="m0 0 6 1 1 1v6l-5 2-4-4v-4h2z" fill="#0E0F14"/>
<path transform="translate(1241,377)" d="m0 0 2 1v3l-14 8h-2l1-5z" fill="#0A0D13"/>
<path transform="translate(1046,227)" d="m0 0 8 1 1 6-3 1h-6l-2-2 1-5z" fill="#95AEB3"/>
<path transform="translate(209,79)" d="m0 0 1 2 2 1h-2v5h-1v-5h-2v7l-4-1-4 1-1-2 3-1-3-2 1-3h10z" fill="#557077"/>
<path transform="translate(551,79)" d="m0 0h2v2h7l1 1v6h-2v-2l-2-1v3l-5 1-2-7z" fill="#738C8F"/>
<path transform="translate(625,578)" d="m0 0h2v6l4-1 2 1v9h-2l-1-7h-2l-1 7-3-1v-13z" fill="#ABD2D8"/>
<path transform="translate(320,560)" d="m0 0 1 2h6v9h-7v-7h-2v-2h2z" fill="#778284"/>
<path transform="translate(704,535)" d="m0 0h9l1 1v7h-2v-6l-2 1-1 5h-6v-7z" fill="#91CFDE"/>
<path transform="translate(394,438)" d="m0 0 2 1-5 5-9 3-3 3-5 2-7 1v-2l18-8z" fill="#37393C"/>
<path transform="translate(379,255)" d="m0 0 1 4-1 2h-7l2 4-4-2-10-2-1-2 3-1 14-1z" fill="#9E673F"/>
<path transform="translate(773,716)" d="m0 0h2v2h2v-2h3l1 7-6 3-3-1v-8z" fill="#BA8E6A"/>
<path transform="translate(331,562)" d="m0 0 5 1 1 1v5l-2 2h-5l-2-2v-5z" fill="#798D8F"/>
<path transform="translate(717,535)" d="m0 0h6v10l-1 1h-6v-1h5v-2l-5-1-1-5z" fill="#BBE2EC"/>
<path transform="translate(809,492)" d="m0 0h2v12h-7l-1-1v-5l5-1z" fill="#BFCAC6"/>
<path transform="translate(1069,220)" d="m0 0h4l-4 8 5 7h-5l-3-4v-2l-3-1v-2l5-5z" fill="#DEEAE9"/>
<path transform="translate(1151,281)" d="m0 0h3l1 6 4-1-2 5 2 4-4-1-4 1z" fill="#B4C3BF"/>
<path transform="translate(282,247)" d="m0 0 1 3 9 2 1 3-7 2-8-4 1-3h2z" fill="#996540"/>
<path transform="translate(260,217)" d="m0 0h8l4 4-2 3h-8l-3-5z" fill="#9B6945"/>
<path transform="translate(433,77)" d="m0 0h6l1 6-5 1v5h-3v-11z" fill="#4E6A6C"/>
<path transform="translate(578,680)" d="m0 0 6 1v8l-4 1-4-1v-4l5-1v-2l-5 1v-2z" fill="#C5CEC9"/>
<path transform="translate(648,415)" d="m0 0h3v12h-5l-1-1v-6l-2-1 1-3h2v3h2z" fill="#607777"/>
<path transform="translate(220,328)" d="m0 0v3l-1 6 8 2-3 3-2 1h-6l1-10-4-1h5z" fill="#595553"/>
<path transform="translate(1038,213)" d="m0 0h3v22h-3z" fill="#EEF6F6"/>
<path transform="translate(580,172)" d="m0 0h2l1 3h4 2v2h3v4h-8l-4-1z" fill="#637D80"/>
<path transform="translate(471,81)" d="m0 0h6v9l-2 2h-5l1-2 3 1v-2l-4-1-1-4z" fill="#41585C"/>
<path transform="translate(557,583)" d="m0 0h8l2 2v8l-3-1-1-6h-1l-1 7-3-1z" fill="#97BFC5"/>
<path transform="translate(261,77)" d="m0 0h3v6h2l2-5h3l1 7-1 2h-2v-2h-5v2h-2v-7h-2z" fill="#B6C7C6"/>
<path transform="translate(1578,39)" d="m0 0h3l-1 5-4 3h-6v-6l4-1z" fill="#A38C78"/>
<path transform="translate(130,30)" d="m0 0h5l-2 2 3 1 2-1-1-2h5l1 1v6h-13l1-2 2 1v-2l-3-1z" fill="#B9DAE0"/>
<path transform="translate(660,583)" d="m0 0 5 2v4l-5 1h4l-1 3-6-1-1-1v-6z" fill="#9EBBBF"/>
<path transform="translate(295,491)" d="m0 0h7v2h-6l1 2 5 2v5l-1 1h-8v-2h6l-3-3-3-2 1-4z" fill="#EDF5F5"/>
<path transform="translate(1230,421)" d="m0 0 4 2-2 10-2 2h-3v-6l-1-5z" fill="#073040"/>
<path transform="translate(1234,405)" d="m0 0 3 1 1 5-3 3-5 3h-3l1-5 2-2 2 1 1-4z" fill="#042F3F"/>
<path transform="translate(285,263)" d="m0 0h3l-1 4 4 2 4 5v3l-5 1-3-5 1-4-4-2z" fill="#403B3A"/>
<path transform="translate(1552,22)" d="m0 0 1 3 2 1v2l3 1 1 3h-2v2l-6 2-1-7z" fill="#B29E8B"/>
<path transform="translate(163,651)" d="m0 0 1 4h4l1-4v6l3-1v-4l3 1 2 8h-2v-2h-3v2h-2l-2-3h-4l-2 3-2-1 2-6z" fill="#2F7C93"/>
<path transform="translate(221,519)" d="m0 0 5 1 1 1v9h-8l-1-3 2-3h5v-3h-5z" fill="#404143"/>
<path transform="translate(184,343)" d="m0 0 3 1-2 5-5 1-4 5h-2l-1 5-4-1-1-7 3 4 9-10z" fill="#564A42"/>
<path transform="translate(337,233)" d="m0 0 5 1v7l-3 4v-2l-4-1v-8z" fill="#766457"/>
<path transform="translate(330,77)" d="m0 0h6l1 1v6h-4v5h-3z" fill="#203138"/>
<path transform="translate(1519,26)" d="m0 0h9l2 5h-3v2h-5v-2h-4z" fill="#0E1117"/>
<path transform="translate(630,680)" d="m0 0h6l2 2v8l-3-1v-7l-2 1-1 7h-3v-9z" fill="#ACC5C5"/>
<path transform="translate(182,491)" d="m0 0h7v2h-6l1 2 5 3v4l-2 1h-7v-2h6l-3-3-3-2 1-4z" fill="#EFF6F5"/>
<path transform="translate(303,449)" d="m0 0h1v9l1 4h-5l-4-2-2-2 2-1 1-4 3-3 1 7h2z" fill="#21262D"/>
<path transform="translate(430,402)" d="m0 0h1l1 13h-3l-7 7-4-1 3-3 1-11h1v9l6-6z" fill="#463D39"/>
<path transform="translate(378,268)" d="m0 0 14 1 2 5-2 4-5-5-7-2-5-1z" fill="#443C38"/>
<path transform="translate(544,680)" d="m0 0h6l2 2v8l-3-1v-7l-2 1-1 7-3-1v-8z" fill="#A4CACF"/>
<path transform="translate(548,583)" d="m0 0h6l2 2v8l-3-1v-7l-2 1-1 7-3-1v-8z" fill="#88BCC5"/>
<path transform="translate(267,514)" d="m0 0h2l1 5 5 1 1 1v9h-2v-9l-4 1-1 8h-2z" fill="#525252"/>
<path transform="translate(720,458)" d="m0 0h11v7h-2l-1-5-2 1v5l-6-1z" fill="#617678"/>
<path transform="translate(385,219)" d="m0 0h2l1 6 4 2 3 1 4 9 2 5-5-4v-2l-3-1v-3l-5-4z" fill="#BFAB95"/>
<path transform="translate(158,25)" d="m0 0h2v12h-6l-2-2 1-5h5z" fill="#8AA5A7"/>
<path transform="translate(566,680)" d="m0 0h2v8l2-1 2-7h2v10h-7l-2-2v-7z" fill="#A7CBCF"/>
<path transform="translate(330,653)" d="m0 0 5 1v9l-3 2-4-2 5-1-5-2v-5z" fill="#4A4642"/>
<path transform="translate(210,562)" d="m0 0 5 1 1 6-1 2h-5l-2-2v-5z" fill="#778D90"/>
<path transform="translate(242,559)" d="m0 0h2l4 8v4h-2v-3h-6l-1 3-1-3z" fill="#97ACAC"/>
<path transform="translate(193,559)" d="m0 0h6l2 2-1 4-5 1v5h-2z" fill="#74979D"/>
<path transform="translate(302,519)" d="m0 0 5 1 1 1v9h-8v-5l6-1-1-3-4-1z" fill="#3F4042"/>
<path transform="translate(241,519)" d="m0 0 5 1 1 1v9h-7l-1-5 1-1h5l-1-3-4-1z" fill="#404143"/>
<path transform="translate(327,488)" d="m0 0h3v3h3v2h-3v8h3v2h-5l-1-1v-9h-2v-2h2z" fill="#F8FCFA"/>
<path transform="translate(1268,364)" d="m0 0 3 1 1 16-1 9-2-4z" fill="#164150"/>
<path transform="translate(310,320)" d="m0 0h15l6 4-4 3-4-1-2-3-14-1z" fill="#5B4D44"/>
<path transform="translate(992,286)" d="m0 0h6l1 5-5 1 5 1-1 2h-6l-2-3 1-5z" fill="#B8CED0"/>
<path transform="translate(1131,286)" d="m0 0h6l1 1v8h-7l-1-4 3-3-3-1z" fill="#AEC8CB"/>
<path transform="translate(406,253)" d="m0 0 2 2 1 7-4 3-16 3-8-1v-1l15-2 8-1 2-3z" fill="#996540"/>
<path transform="translate(808,220)" d="m0 0h4v15h-4z" fill="#E4D9CB"/>
<path transform="translate(27,76)" d="m0 0h6v10h-6z" fill="#0F1319"/>
<path transform="translate(736,725)" d="m0 0h4v14l-4 1z" fill="#AE7041"/>
<path transform="translate(620,680)" d="m0 0h6l1 1v8l-6 1-2-1v-4l6-1v-2l-5 1z" fill="#B0C3C6"/>
<path transform="translate(314,653)" d="m0 0h4v8h-2l-1-3-1 3h-3l-1-3-1 3h-2l-1-7 2 2 1-2h3l1 2z" fill="#5A5651"/>
<path transform="translate(1171,536)" d="m0 0 9 3 14 6v2l-6-1-16-7z" fill="#1B1E23"/>
<path transform="translate(690,535)" d="m0 0h11l1 1v7h-2v-6l-2 1-1 5h-2v-6l-2 1-1 5h-2z" fill="#A5CED5"/>
<path transform="translate(762,493)" d="m0 0h5v2l-5 1-1 6h4v-2l-2-1 4-1 1 5-1 1h-6l-3-3 1-6z" fill="#B5D4D7"/>
<path transform="translate(1029,286)" d="m0 0 7 1v4h-6v2h5v2h-6l-2-2v-5z" fill="#B0CFD4"/>
<path transform="translate(1140,286)" d="m0 0h8l1 1v8h-3v-7h-3v7h-3z" fill="#94CAD4"/>
<path transform="translate(382,247)" d="m0 0h5l8 7h3l1 4h-3l-1 2-5-4-2-4-6-3z" fill="#996540"/>
<path transform="translate(166,77)" d="m0 0h5l1 5v3l-1 3-4-4v4h-2v-10z" fill="#648C93"/>
<path transform="translate(1580,21)" d="m0 0 3 4 1 9-2 5h-1l-3-9-2-5h2v2h2z" fill="#B5A28F"/>
<path transform="translate(280,484)" d="m0 0h3l1 14-1 5h-3z" fill="#E4DFD8"/>
<path transform="translate(333,323)" d="m0 0 13 2 6 2-3 2h-8l-4-2-2 1-3-1z" fill="#564941"/>
<path transform="translate(800,286)" d="m0 0h6l1 1v8h-7l-1-4 3-3h-2z" fill="#B3C9CA"/>
<path transform="translate(894,220)" d="m0 0h3l1 2v13h-4z" fill="#AFDAE3"/>
<path transform="translate(979,220)" d="m0 0h3l1 2v13h-4z" fill="#E7E9E6"/>
<path transform="translate(181,81)" d="m0 0h6l1 1v6l-5 1v3h-2z" fill="#578189"/>
<path transform="translate(35,76)" d="m0 0h5v10h-6v-9z" fill="#181B20"/>
<path transform="translate(563,531)" d="m0 0 1 3-1 3h6l-6 7-2-1 1-3-6-1 6-7z" fill="#AD7143"/>
<path transform="translate(219,280)" d="m0 0 3 4 2 9-2 1v-3l-5-2-2-2 1-4 2 1z" fill="#CAB59D"/>
<path transform="translate(1e3 223)" d="m0 0 5 1v7l-1 1h-5l-1-1v-6z" fill="#1B1B1E"/>
<path transform="translate(359,224)" d="m0 0 4 2v7l-4 1-3 5-1-4-2-1h2v-6h2l-1 4h2v-2h2l-2-5z" fill="#59524D"/>
<path transform="translate(532,174)" d="m0 0h11l1 6-3-1-1 1h-5v-2h-3z" fill="#698184"/>
<path transform="translate(442,81)" d="m0 0 6 1 5-1-3 2 1 4 1 2-4-2-1 2h-5l-2-4 3-2z" fill="#87A3A5"/>
<path transform="translate(589,725)" d="m0 0h5l2 4-8 4h-3v-5z" fill="#08AFE1"/>
<path transform="translate(310,610)" d="m0 0h6l2 2-1 4-5 1v3h-2z" fill="#84A3A8"/>
<path transform="translate(294,605)" d="m0 0h1v12h-6l-1-1v-5l5-1z" fill="#86A4A8"/>
<path transform="translate(1096,282)" d="m0 0h6v2h-5l4 4 2 1v5l-2 1h-6v-2h6v-3l-4-1-3-2 1-4z" fill="#CCDDDC"/>
<path transform="translate(1161,286)" d="m0 0h6l1 1v8h-7l-1-4 5-3h-4z" fill="#BACED0"/>
<path transform="translate(464,256)" d="m0 0 1 2h2l3 12-1 6-2-1-4-18z" fill="#333235"/>
<path transform="translate(600,680)" d="m0 0 4 1 1 4h-6l1 2h4v3h-5l-3-3 1-5z" fill="#AEC9CD"/>
<path transform="translate(572,583)" d="m0 0 5 2v3h-6l1 2h4v3l-7-1-1-5z" fill="#ACCCD2"/>
<path transform="translate(334,484)" d="m0 0h1v19h-2v-2h-3v-8h3z" fill="#1D2026"/>
<path transform="translate(437,366)" d="m0 0h5l-1 4-9 5h-4l2-4 6-3z" fill="#50453E"/>
<path transform="translate(973,286)" d="m0 0h6l1 5-5 1 4 1v2h-6l-1-1v-7z" fill="#BDD2D5"/>
<path transform="translate(753,455)" d="m0 0 1 3h5v6l2-1 1-5h2v7h-6l-1-1v-5h-3v5l2 1-4-1v-8z" fill="#94D4E5"/>
<path transform="translate(1225,403)" d="m0 0 2 4v10l11-5-1 3-9 5-3-1-1-15z" fill="#08AFE1"/>
<path transform="translate(546,369)" d="m0 0 6 1v6l-6 1-2-2 1-5z" fill="#8EA3A4"/>
<path transform="translate(643,369)" d="m0 0h6l1 1v6l-1 1h-6z" fill="#89A1A3"/>
<path transform="translate(1132,220)" d="m0 0 5 1 1 1v13h-3l-1-12-3-1z" fill="#EDE9E1"/>
<path transform="translate(283,653)" d="m0 0 5 1 1 5-2 2h-5l-1-1v-5z" fill="#39393A"/>
<path transform="translate(297,606)" d="m0 0 6 1 1 8 1 2-4-1-1-4-1 5h-2z" fill="#91B1B7"/>
<path transform="translate(767,454)" d="m0 0 3 1h-2v3h4v-4l3 1v4h-2v6h-2v-6h-3v6h-2l-1-7z" fill="#A1D9E8"/>
<path transform="translate(1258,432)" d="m0 0m-1 1 3 2-20 11v-3l15-9z" fill="#193A46"/>
<path transform="translate(862,284)" d="m0 0h2v2h3v7l3 1-3 1-5-1-1-8z" fill="#524F47"/>
<path transform="translate(823,286)" d="m0 0h5v9l-5-1v-4l-4-1v-2z" fill="#637A7B"/>
<path transform="translate(283,225)" d="m0 0h3v6l2 1v2l1 5-2-1v-3l-7-1v-2h-5v-2h10z" fill="#816957"/>
<path transform="translate(911,220)" d="m0 0 5 1 1 1v13h-3l-2-12-2-2z" fill="#E4DFD7"/>
<path transform="translate(1477,24)" d="m0 0 3 1v13h-5v-13z" fill="#33697A"/>
<path transform="translate(959,714)" d="m0 0 5 1-4 6h-7v-5z" fill="#1494BB"/>
<path transform="translate(216,653)" d="m0 0 5 1 1 5-2 2-5-1-1-5z" fill="#433B36"/>
<path transform="translate(200,653)" d="m0 0 5 1 1 1v5l-1 1h-5l-2-5z" fill="#3D3A38"/>
<path transform="translate(648,535)" d="m0 0 4 1 1 6-1 1h-5l-2-2 1-5z" fill="#8AA4A9"/>
<path transform="translate(647,458)" d="m0 0h5l2 5-2 3-5-1-1-1v-5z" fill="#657A7D"/>
<path transform="translate(336,456)" d="m0 0h3l-1 3 2 2-7 1h-12l3-2 4-3 1 1h5z" fill="#24282F"/>
<path transform="translate(586,419)" d="m0 0h10l1 1v7h-2v-7h-2v7h-3v-7l-2 1-1 6h-1z" fill="#9AAAA7"/>
<path transform="translate(570,369)" d="m0 0 5 1 1 5-2 2-5-1-1-5z" fill="#91A7AA"/>
<path transform="translate(233,338)" d="m0 0h6l4 2-1 3-4 1-10-2z" fill="#0A0D13"/>
<path transform="translate(934,286)" d="m0 0h8l1 1v8h-3l-1-7-2 1-1 6h-2z" fill="#C8D5D1"/>
<path transform="translate(191,81)" d="m0 0h5l1 1v5l-2 2-5-1-1-5z" fill="#5B7A81"/>
<path transform="translate(1050,30)" d="m0 0 5 1 1 5-2 2-5-1-1-5z" fill="#443B37"/>
<path transform="translate(1369,25)" d="m0 0h3v5h4v2h-4v5h-3v-5h-4v-2h4z" fill="#335461"/>
<path transform="translate(609,369)" d="m0 0 5 1v6l-1 1h-5l-1-1v-6z" fill="#94ABAC"/>
<path transform="translate(425,264)" d="m0 0 1 2 5 1v7l-2 2-4-3z" fill="#CFB99F"/>
<path transform="translate(273,234)" d="m0 0 5 1 8 5 2 4-10-3-3-4v-2z" fill="#8F5E3C"/>
<path transform="translate(327,224)" d="m0 0 5 1v5l-1 1h-5l-3-1v-3l-3-2 7 1z" fill="#61534A"/>
<path transform="translate(293,560)" d="m0 0h2v2h2v2h-2v5h3v-7h2v9h-6l-2-7z" fill="#96A9A6"/>
<path transform="translate(684,535)" d="m0 0 5 1v7h-6l-1-5v-2z" fill="#98AFB0"/>
<path transform="translate(356,514)" d="m0 0h2v6l2 1-1 1-1 9h-2l-1-12-3 3 1-6z" fill="#43474A"/>
<path transform="translate(860,493)" d="m0 0 1 2 5-2v11h-2l-1-5-2 4v-5h-5l1-3h3z" fill="#738A8D"/>
<path transform="translate(604,419)" d="m0 0h5l1 7-6 1-2-2 1-5z" fill="#555D5D"/>
<path transform="translate(763,419)" d="m0 0h7l1 1v7h-3v-6h-2v6l-3-1z" fill="#8FAFAF"/>
<path transform="translate(1243,393)" d="m0 0 2 1 1 12 8-4 3 1-10 6h-3l-1-5z" fill="#08AFE1"/>
<path transform="translate(1250,393)" d="m0 0h2v11l-6 3-1-1v-7l2 2 2-1z" fill="#083140"/>
<path transform="translate(289,239)" d="m0 0h1l1 9 1 3h-9l-1-2 1-3 5-1z" fill="#644B3C"/>
<path transform="translate(241,653)" d="m0 0h11v2l-3 1 3 2-1 3h-5l4-1v-2l-6-2-1 5h-2l-1-5z" fill="#4F4E4B"/>
<path transform="translate(353,559)" d="m0 0h6l1 5-1-3-4-1v4h3l3 5-1 2-5-5v5h-2z" fill="#94C0C5"/>
<path transform="translate(192,521)" d="m0 0h1v9h-7l-1-5 6-2z" fill="#393B3D"/>
<path transform="translate(722,497)" d="m0 0h6l1 1v5l-1 1h-5l-2-2z" fill="#8CA5A9"/>
<path transform="translate(1183,456)" d="m0 0h1v22l-5 3-3-1 4-3z" fill="#263F48"/>
<path transform="translate(1179,444)" d="m0 0h2l1 4v21h-1l-2-16z" fill="#113542"/>
<path transform="translate(1145,226)" d="m0 0 4 1 1 3-3 3-5-1-1 2-1-4 2-3z" fill="#869B9F"/>
<path transform="translate(647,172)" d="m0 0h5l-3 1v2l5 1 1 5h-8z" fill="#5B7074"/>
<path transform="translate(215,81)" d="m0 0 5 1 1 4-3 3-5-2v-5z" fill="#537880"/>
<path transform="translate(921,726)" d="m0 0h7l2 4-3 4-5-1 1-6z" fill="#2E5C6C"/>
<path transform="translate(647,675)" d="m0 0h2v15h-2v-8l-6 2 1-4h4z" fill="#C6D4D0"/>
<path transform="translate(586,624)" d="m0 0 6 1 7 4v3l-9-3-4-2z" fill="#B37343"/>
<path transform="translate(529,579)" d="m0 0 5 1v1l-6 2v6l5 1 1 3h-6l-3-4v-7z" fill="#E2ECEB"/>
<path transform="translate(319,491)" d="m0 0h4v12h-4z" fill="#B7E6F2"/>
<path transform="translate(256,486)" d="m0 0h2v15h7v2h-9z" fill="#FCFEFC"/>
<path transform="translate(578,369)" d="m0 0h2v3h2v-2l6-1-1 8h-2l-3-3v3l-3-1z" fill="#B3CECF"/>
<path transform="translate(926,286)" d="m0 0h5l1 5h-5v1l5 1-1 2-7-1v-6z" fill="#D7E4E3"/>
<path transform="translate(233,229)" d="m0 0 3 1v2l2 4h-7l-1 3-4 1 2-6z" fill="#635850"/>
<path transform="translate(250,514)" d="m0 0h2v8l4-3-1 4v4l2 3-4-2-1-1-2 3z" fill="#464749"/>
<path transform="translate(951,281)" d="m0 0h3v14h-2l-1-6-6-1 1-2h5z" fill="#C5C8BD"/>
<path transform="translate(967,226)" d="m0 0 4 1 1 3-3 3-5-1-1 2v-6z" fill="#8B999B"/>
<path transform="translate(525,172)" d="m0 0 5 1v6l-1 2-4-1-1-1v-6z" fill="#6B7E81"/>
<path transform="translate(78,81)" d="m0 0h7l1 4h2l1-4 1 3-1 4h-4l-1-5-3 1-1 4h-2z" fill="#95C5CE"/>
<path transform="translate(967,27)" d="m0 0h2v6l8 1 1-6h1l1 7 1 4-3-2-8-1-3-3z" fill="#2F778C"/>
<path transform="translate(828,733)" d="m0 0h8l1 1v5l4 1h-6l-6-2z" fill="#704A30"/>
<path transform="translate(693,680)" d="m0 0h5v3l-4-1v2l4 2-2 4h-5v-2h4v-2l-4-1v-4z" fill="#B3CACC"/>
<path transform="translate(595,613)" d="m0 0h2l8 11-3 2-8-10z" fill="#B57543"/>
<path transform="translate(402,562)" d="m0 0 5 1v4h-5v2h5v2h-5l-2-2v-5z" fill="#9EB9BD"/>
<path transform="translate(276,562)" d="m0 0 5 1v4h-5v2h5v2h-5l-2-2v-5z" fill="#A8BBBB"/>
<path transform="translate(364,562)" d="m0 0 5 1v4h-5v2h5v2h-5l-2-2v-5z" fill="#A7BDBF"/>
<path transform="translate(1126,469)" d="m0 0 4 1-3 1v2l-11 6h-3l1-3 7-4h3v-2z" fill="#043F54"/>
<path transform="translate(1166,420)" d="m0 0 3 1v2l-10 6h-2l-1-3z" fill="#0A0D13"/>
<path transform="translate(884,281)" d="m0 0 4 1h-2v4l2 1h-2v8h-3l-1-9z" fill="#A9D2D9"/>
<path transform="translate(1051,281)" d="m0 0 4 1-1 5-1 8h-3l-1-9z" fill="#ABD0D7"/>
<path transform="translate(1107,220)" d="m0 0h3v15l-4-1z" fill="#EBE6DD"/>
<path transform="translate(382,217)" d="m0 0 5 5-1 5-4-1-1-2-5-1 4-2z" fill="#895A39"/>
<path transform="translate(827,720)" d="m0 0 7 1 5 6 4 4v4l-4-2-2-4-3-5-4-2-1 3z" fill="#062D3C"/>
<path transform="translate(265,650)" d="m0 0 5 1 1 4-3 3 3 1v2h-7l1-4 3-5-4-1z" fill="#B7CECE"/>
<path transform="translate(597,497)" d="m0 0h2l1 3 1-3h3l1 2 2-2-1 7h-7l-2-4z" fill="#9AB8B9"/>
<path transform="translate(841,493)" d="m0 0 5 1 1 9-1 1h-6v-2h4v-3l-3-1 3-1v-2l-4-1z" fill="#A7C4C8"/>
<path transform="translate(284,314)" d="m0 0h4l2 9-4 2-2-4z" fill="#393739"/>
<path transform="translate(286,225)" d="m0 0 4 5 1 7 1 9-2 2-1-9-1-5-2-1v-2z" fill="#B5A28F"/>
<path transform="translate(655,676)" d="m0 0h10v2h-4v12h-2v-12h-4z" fill="#D8EBEE"/>
<path transform="translate(584,630)" d="m0 0 7 1 7 2-1 3-13-3z" fill="#B77644"/>
<path transform="translate(265,558)" d="m0 0h2v4l5 1v8h-2v-7h-3l-1 7h-1z" fill="#ACC5C6"/>
<path transform="translate(229,515)" d="m0 0h2v14h6v2h-8z" fill="#424649"/>
<path transform="translate(309,491)" d="m0 0h6l1 1v11h-3l-1-9-3-1z" fill="#F8FCFA"/>
<path transform="translate(581,455)" d="m0 0 2 1-2 5 5 1 5 2v-2l-2-1 4 1-1 4h-6l-2-4-4 1-2 2 1-5z" fill="#9AB8BB"/>
<path transform="translate(716,453)" d="m0 0h3v13h-7v-1h6l-1-2h-4v-4l3-1z" fill="#596C6D"/>
<path transform="translate(224,289)" d="m0 0 4 2 4 5 2 8-3-1-7-12z" fill="#51443C"/>
<path transform="translate(907,286)" d="m0 0h7l1 1v8h-2v-7l-3 1-1 6h-2z" fill="#D8E3E2"/>
<path transform="translate(852,286)" d="m0 0h6l1 1v8l-3-1v-2l-3-1v3l2 1-4-1 1-4 4-2h-4z" fill="#D6EBEE"/>
<path transform="translate(221,277)" d="m0 0h3v7l6 7-7-1-4-11h2z" fill="#93613D"/>
<path transform="translate(1100,223)" d="m0 0 2 1v11h-4v-11z" fill="#AFE2EF"/>
<path transform="translate(288,150)" d="m0 0h18v1l-22 3h-7l2-2z" fill="#443E3B"/>
<path transform="translate(319,653)" d="m0 0h7l1 2v6h-2l-1-6h-1l-1 6h-3z" fill="#3C494E"/>
<path transform="translate(709,497)" d="m0 0 4 1-2 1h3l2-2 4 1h-3l1 4 2 2-6-1-5 1 2-1v-2h-2z" fill="#C6DADA"/>
<path transform="translate(352,496)" d="m0 0h3v2h2l-1 5h-6l-1-5z" fill="#B7BCBC"/>
<path transform="translate(268,444)" d="m0 0 4 2-2 4-2 3-6-2z" fill="#21262D"/>
<path transform="translate(1273,423)" d="m0 0 1 4-12 7h-2l2-4z" fill="#164150"/>
<path transform="translate(717,369)" d="m0 0h2v3h3l1-3 2 1v6l-3 1v-3h-3v3h-2z" fill="#92C2CA"/>
<path transform="translate(556,172)" d="m0 0h2v9h-5l-1-5 1-2h3z" fill="#6B898D"/>
<path transform="translate(1517,33)" d="m0 0h4v2l10-2v4h-14z" fill="#0C0F16"/>
<path transform="translate(608,680)" d="m0 0h5l-1 3-3-1v2l4 1v4l-6 1v-2h4v-2l-4-1v-4z" fill="#C4CFCB"/>
<path transform="translate(182,650)" d="m0 0h5l1 5-3 3 4 1v2h-8l1-4 3-2 1-3h-4z" fill="#B7CECF"/>
<path transform="translate(339,562)" d="m0 0h6l1 1v8h-2v-7l-3 1-1 6-2-1v-7z" fill="#91C0C8"/>
<path transform="translate(1277,452)" d="m0 0 5 1 1 5v6l-1 2h-4v-2l2-1v-8h-4z" fill="#056584"/>
<path transform="translate(690,419)" d="m0 0h8v8h-5l-1-6z" fill="#688788"/>
<path transform="translate(756,419)" d="m0 0h5l1 1v7h-5l-1-5h3l-3-1z" fill="#A5C0C3"/>
<path transform="translate(981,286)" d="m0 0 3 1 1 3 2-4 3 1-3 8-4-1-2-5z" fill="#BDD7D9"/>
<path transform="translate(25,74)" d="m0 0h7l1 2h-6v10h5v1h-7z" fill="#35788D"/>
<path transform="translate(582,585)" d="m0 0h6v7l-3 1v-2l-4-1z" fill="#1A2023"/>
<path transform="translate(619,581)" d="m0 0h2v2h2v2h-2v6h2v2l-4-1-2-7z" fill="#B8D3D4"/>
<path transform="translate(225,562)" d="m0 0 3 1 1 4 3-5 1 2-5 11-3-1 2-4-2-5z" fill="#96C0C6"/>
<path transform="translate(224,493)" d="m0 0 4 1v6l-4 1-2-2v-5z" fill="#222429"/>
<path transform="translate(341,491)" d="m0 0 5 1 1 1v10h-3l-1-9-3-2z" fill="#F2F7F6"/>
<path transform="translate(1259,403)" d="m0 0 2 1v3l2 1h-2l-1 5-4-2v-6z" fill="#093140"/>
<path transform="translate(634,369)" d="m0 0h3l1 3 1-3h2v8h-2v-2h-2l-1 2h-2z" fill="#CCD0C8"/>
<path transform="translate(184,26)" d="m0 0h2l1 5 4-1-1 5 1 2h-3l-1-2-1 2h-2z" fill="#9DD5E3"/>
<path transform="translate(280,606)" d="m0 0h6v2h-4l1 2 3 2h-4l1 3 3 2h-6z" fill="#A6D3DD"/>
<path transform="translate(611,535)" d="m0 0 5 1v7h-6l-1-3 2-2h3v-2l-4 1z" fill="#83A7AB"/>
<path transform="translate(818,493)" d="m0 0h4v2h-4l3 3 2 1-1 5h-6v-2l5 1-5-5v-4z" fill="#CADFE0"/>
<path transform="translate(696,495)" d="m0 0 5 1 1 4-3 3h-3z" fill="#26363B"/>
<path transform="translate(1198,463)" d="m0 0 3 1-4 4-5 3h-2v-7h2v3h3l1-3z" fill="#091219"/>
<path transform="translate(189,391)" d="m0 0 4 6 2-4h2l-1 5 2 3-2 2-4-2-4-9z" fill="#21262D"/>
<path transform="translate(467,335)" d="m0 0h1l1 10-2 7h-2l-1-4z" fill="#393637"/>
<path transform="translate(380,338)" d="m0 0h7v2l-4 2-5 9-1-4z" fill="#4D423B"/>
<path transform="translate(246,164)" d="m0 0 3 2-15 8h-3l4-4z" fill="#453F3D"/>
<path transform="translate(107,81)" d="m0 0 4 1 2-1-1 7h-3l-1-2-1 2h-2l-1-4z" fill="#B5D3D5"/>
<path transform="translate(55,79)" d="m0 0 4 1v6l-4 1-2-2 1-5z" fill="#1F1E1F"/>
<path transform="translate(525,77)" d="m0 0 2 2 4 2-3 1v3h-5l-1-3-2-2 5-1z" fill="#111419"/>
<path transform="translate(1532,32)" d="m0 0h1v6l-1 1h-15v-2h14z" fill="#4B5C61"/>
<path transform="translate(177,30)" d="m0 0h6v7h-6l-1-4 2-1z" fill="#BBC9C7"/>
<path transform="translate(122,28)" d="m0 0 5 1v6l-4 1-2-2v-5z" fill="#182025"/>
<path transform="translate(605,682)" d="m0 0 3 3 3 1v2h-4l-1 2-3-2-4-1v-2h6z" fill="#344143"/>
<path transform="translate(232,653)" d="m0 0h3l3 1h-2v3h2v-2h2v3l-2 1h2v2h-5l-2-4h-2z" fill="#58514D"/>
<path transform="translate(381,562)" d="m0 0h2v7h3v-6l2-1v9h-6l-1-1z" fill="#81C4D3"/>
<path transform="translate(619,458)" d="m0 0h5l1 4h-5v2h4v2l-5-1-1-1v-5z" fill="#899D9D"/>
<path transform="translate(787,416)" d="m0 0h6v2l-5 1v5h5l-1 3-6-1-1-1v-7z" fill="#BECECA"/>
<path transform="translate(736,417)" d="m0 0 3 1 1 6-5 1-1-1v-6z" fill="#171F24"/>
<path transform="translate(1254,404)" d="m0 0h2v6l-2 2h-5l2-6z" fill="#37474D"/>
<path transform="translate(431,389)" d="m0 0 4 4 4-3 2 1-7 6-3 4z" fill="#805B41"/>
<path transform="translate(228,382)" d="m0 0h3v4h-7l1 1 1 3-4 1v-7z" fill="#B4A08C"/>
<path transform="translate(778,288)" d="m0 0h2l2 4v3l-3-1v-2h-6v3h-3l2-5h6z" fill="#D2E8EB"/>
<path transform="translate(968,281)" d="m0 0h2v14h-7v-3h4l1-5z" fill="#DBDDD5"/>
<path transform="translate(166,257)" d="m0 0h1v8l-3 15h-1v-12z" fill="#413C3A"/>
<path transform="translate(657,493)" d="m0 0h2v4l5 1v6h-2v-6h-3v6h-2z" fill="#73B8C6"/>
<path transform="translate(669,496)" d="m0 0h6l2 2-1 6h-2v-6h-3v6h-2z" fill="#809796"/>
<path transform="translate(579,493)" d="m0 0h1v5h5v-5h2v11h-2v-5h-5v5h-1z" fill="#A7D0D6"/>
<path transform="translate(205,491)" d="m0 0 4 1-1 11h-3z" fill="#F0F7F7"/>
<path transform="translate(277,431)" d="m0 0 4 1-2 5h-3v2h-2v2l-3-1 1-5 5-2z" fill="#21262D"/>
<path transform="translate(724,417)" d="m0 0 4 1 1 4-2 3-4-1v-6z" fill="#1C1D20"/>
<path transform="translate(743,416)" d="m0 0h7l1 5h-2l-1-3h-2l-1 4 3 1h-3l-1 4-1-1z" fill="#AED8E1"/>
<path transform="translate(1210,413)" d="m0 0h5l-1 6-3 5h-1z" fill="#08AFE1"/>
<path transform="translate(271,336)" d="m0 0h2v4l-8 3-1 1h-6v-2h2v-2l4 1 6-2z" fill="#855839"/>
<path transform="translate(254,296)" d="m0 0h9v2h-2v2h-9l-3-2z" fill="#363639"/>
<path transform="translate(53,78)" d="m0 0h7l1 1v6l-2-4-4-1-1 5 5 2v1h-5l-3-3 1-6z" fill="#C6E0E4"/>
<path transform="translate(633,621)" d="m0 0h7l5 4v8h-1l-1-6-2 4-1-5-2-2 1-1-6-1z" fill="#604E43"/>
<path transform="translate(165,559)" d="m0 0h2l1 9-1 3h-2v-3h-5l1-4h2v3l2-1-1-6z" fill="#BBD3D3"/>
<path transform="translate(178,519)" d="m0 0h5v2h-5l3 3 2 1v5l-1 1h-5l1-3 3-1-4-3z" fill="#4A4A4C"/>
<path transform="translate(769,497)" d="m0 0h6v7h-6l1-5z" fill="#ACD1D9"/>
<path transform="translate(1157,490)" d="m0 0m-2 1h2l-2 4-12 6 2-4z" fill="#173844"/>
<path transform="translate(717,454)" d="m0 0h1v11h-6l-3-1 1-4 5-1-1 4h2z" fill="#CED7D3"/>
<path transform="translate(370,382)" d="m0 0h7l-3 7-4-1z" fill="#0D0F15"/>
<path transform="translate(1259,374)" d="m0 0 2 1-1 1 2 1v3l-8 3 1-5z" fill="#1D6A82"/>
<path transform="translate(629,322)" d="m0 0 3 1-2 1 3 2-1 5h-4l-1-6z" fill="#83BCCA"/>
<path transform="translate(571,324)" d="m0 0h2l1 2 1-2h5v7h-2l-1-5-1 4-4-1z" fill="#9EC7CB"/>
<path transform="translate(551,321)" d="m0 0 3 1h-2v2h4v7h-2v-6h-2v6h-2v-9z" fill="#C5C9C1"/>
<path transform="translate(1017,286)" d="m0 0h7l1 1v5l-2-3-4-1 1 6h-2v5h-1z" fill="#DFE9E8"/>
<path transform="translate(1410,172)" d="m0 0 4 1-1 4h-2l-2 4-5 5h-5l1-3 5-1 5-6h2v-3z" fill="#2C829C"/>
<path transform="translate(640,172)" d="m0 0h5l1 8h-4-2z" fill="#B0B0A8"/>
<path transform="translate(463,81)" d="m0 0h5v8l-6-1 1-4 2-1z" fill="#8FA2A3"/>
<path transform="translate(163,30)" d="m0 0h5v7h-6v-4l2-1z" fill="#B3C6C7"/>
<path transform="translate(1017,30)" d="m0 0 4 1 1 4h-5v2l3 1-5-1v-5z" fill="#494A49"/>
<path transform="translate(664,535)" d="m0 0 4 1v3h-4v2h4v2h-5l-1-1v-6z" fill="#BDCDCD"/>
<path transform="translate(641,531)" d="m0 0h3v12h-3z" fill="#92C4CE"/>
<path transform="translate(676,454)" d="m0 0 4 1-4 2-1 5 5 1v2h-6l-2-2v-6z" fill="#B5DBE1"/>
<path transform="translate(588,324)" d="m0 0h6l2 1v5h-4l-4-2z" fill="#BBD1D0"/>
<path transform="translate(1122,282)" d="m0 0h2v11h5v2h-7z" fill="#EAF3F3"/>
<path transform="translate(1159,286)" d="m0 0h2v2l4-1 1 2-5 2-1 5-4-5 2-4z" fill="#2A2B2D"/>
<path transform="translate(175,81)" d="m0 0 5 1v3h-5v2h4v2l-5-1-1-5z" fill="#80A3A8"/>
<path transform="translate(306,80)" d="m0 0h4v9h-4z" fill="#181B21"/>
<path transform="translate(311,75)" d="m0 0h9v4h-9z" fill="#171A20"/>
<path transform="translate(536,680)" d="m0 0h5v10l-3-1 1-4-2-1-1-1h-2v-2z" fill="#C2D5D6"/>
<path transform="translate(250,562)" d="m0 0h1v7h4v-7h2v9h-6l-2-7z" fill="#9EB6B2"/>
<path transform="translate(179,559)" d="m0 0h8l-2 5-2 7h-2l1-7 1-2-4-1z" fill="#9DB1B1"/>
<path transform="translate(172,559)" d="m0 0 5 1v8h-1l-2-7-2 1v6l4 2-4 1-2-2v-8z" fill="#C3DBDD"/>
<path transform="translate(594,454)" d="m0 0h2l1 5h3l-2 3 2 3h-4-2z" fill="#79BECC"/>
<path transform="translate(683,419)" d="m0 0h6l1 1v7h-3v-7l-2 1-1 6h-1z" fill="#A7A299"/>
<path transform="translate(669,419)" d="m0 0 5 1v3h-5l1 2h3v2l-5-1-1-1v-5z" fill="#8DA6A6"/>
<path transform="translate(694,369)" d="m0 0h2v3h3v-3h2v8l-1-3h-4v3h-2z" fill="#9AD2DF"/>
<path transform="translate(818,286)" d="m0 0h5l-1 2-3-1v2l4 1-1 5h-5v-2l3-1-3-2z" fill="#DAE8E8"/>
<path transform="translate(828,230)" d="m0 0h4v2l3 1v4l-5-1-2-2z" fill="#077CA1"/>
<path transform="translate(1015,227)" d="m0 0 2 1v5h6l-1 2h-7l-2-3 1-4z" fill="#DEE7E4"/>
<path transform="translate(843,210)" d="m0 0 5 1 3 4v2h-5v-2l-3-1z" fill="#0787AE"/>
<path transform="translate(71,81)" d="m0 0h5l1 4h-5v2l4 1h-5l-1-1v-5z" fill="#BDD2D4"/>
<path transform="translate(344,82)" d="m0 0h5l1 5-1 2-5-2z" fill="#4A6064"/>
<path transform="translate(200,25)" d="m0 0 1 4h4l1 2v6l-3-1v-5h-2v6h-1z" fill="#AAB1AC"/>
<path transform="translate(1566,22)" d="m0 0h9l-1 4h-8z" fill="#5B4F48"/>
<path transform="translate(347,610)" d="m0 0h5v3l-4 1 4 2-5 1-2-2v-4z" fill="#ABC4C6"/>
<path transform="translate(355,560)" d="m0 0 6 1 1 3v7l-4-5v-2h-3z" fill="#403B36"/>
<path transform="translate(627,369)" d="m0 0h3l2 8h-2v-2h-3v2h-2l1-6z" fill="#ACC6C7"/>
<path transform="translate(919,284)" d="m0 0 1 2h3v2h-2l1 7-4-1-1-8h2z" fill="#B6CDCB"/>
<path transform="translate(450,223)" d="m0 0 4 5 2 4-1 4-3-4-3-5z" fill="#2C2F34"/>
<path transform="translate(623,174)" d="m0 0 5 1v6h-5l-1-5z" fill="#868783"/>
<path transform="translate(668,172)" d="m0 0h4 2v8h-2l-2-2-2 2z" fill="#A2B7B4"/>
<path transform="translate(455,77)" d="m0 0h2l1 5h3l-2 3 2 4-5-3-1 2z" fill="#76B0B7"/>
<path transform="translate(1482,25)" d="m0 0 6 1 1 11h-4l1-10h-4z" fill="#2E7D95"/>
<path transform="translate(207,26)" d="m0 0 4 1 1 9-2-4-1 5h-2z" fill="#569EB1"/>
<path transform="translate(209,519)" d="m0 0 4 1-4 2-1 6 6 1-1 2-5-1-2-2v-6z" fill="#474849"/>
<path transform="translate(647,497)" d="m0 0 2 1v6h-6v-4l4-1z" fill="#869D9E"/>
<path transform="translate(402,433)" d="m0 0 4 1-5 4-6 4-2-1 3-4h3v-2z" fill="#2B2E34"/>
<path transform="translate(778,415)" d="m0 0h1v12h-6v-1h5l-5-2 1-3h3z" fill="#717570"/>
<path transform="translate(428,372)" d="m0 0m-13 1h13v2l-7 2v-2h-7z" fill="#4A423E"/>
<path transform="translate(218,268)" d="m0 0h3l1 8-1 3h-2l-1-3z" fill="#3F3C3C"/>
<path transform="translate(300,258)" d="m0 0 5 1 1 3-4 3-3-1z" fill="#CFB99F"/>
<path transform="translate(282,234)" d="m0 0 5 1 2 4-1 4-6-5-2-2z" fill="#444140"/>
<path transform="translate(1520,24)" d="m0 0h9l3 5-1 4-3-6-9-1z" fill="#327D94"/>
<path transform="translate(577,684)" d="m0 0 5 2 1 4h-6l-2-4z" fill="#8CAEB4"/>
<path transform="translate(650,583)" d="m0 0 4 1 1 2v7h-3l-1-7h-2z" fill="#9AC7CD"/>
<path transform="translate(704,535)" d="m0 0 4 1-1 7h-4v-7z" fill="#6A8C8E"/>
<path transform="translate(717,535)" d="m0 0h6v10h-1v-9l-2 1 1 4h-4l-1-5z" fill="#757B75"/>
<path transform="translate(794,497)" d="m0 0h4v3h-5v2h5v2h-6l-1-1v-5z" fill="#ABD3DC"/>
<path transform="translate(742,492)" d="m0 0h1v12h-5l2-2 1-4-4 1v-2h4z" fill="#B8E5F0"/>
<path transform="translate(677,369)" d="m0 0h2l1 2 4-2-2 5 2 3-4-2-1 2h-2z" fill="#D9D8D0"/>
<path transform="translate(248,340)" d="m0 0h6l4 2v3h-5l-5-3z" fill="#51453E"/>
<path transform="translate(621,322)" d="m0 0 5 1-1 7-2-1 1-2-4-1z" fill="#A2CBD6"/>
<path transform="translate(889,286)" d="m0 0h6l-1 2h-2v7h-3z" fill="#A1CBD2"/>
<path transform="translate(412,80)" d="m0 0h6l-2 1v6l5-1-2 3h-6l1-8z" fill="#307489"/>
<path transform="translate(144,30)" d="m0 0h7v7h-2v-6l-2 1-1 5h-2z" fill="#91D6E7"/>
<path transform="translate(218,562)" d="m0 0 4 1 2-1-1 5 1 4-4-1h-3l2-4z" fill="#ADC8C9"/>
<path transform="translate(841,495)" d="m0 0h3v2l-2 1 2 1v3h-4l-1 2-1-6z" fill="#121B22"/>
<path transform="translate(165,486)" d="m0 0 2 1 1 2-3 3-2 4h-2v-6z" fill="#E5F2F3"/>
<path transform="translate(377,447)" d="m0 0 4 1-2 2-5 2-7 1v-2z" fill="#333539"/>
<path transform="translate(1273,406)" d="m0 0h1l1 10v10l-2-3-1-6z" fill="#2E4C57"/>
<path transform="translate(232,370)" d="m0 0h5v4l-5 1h-2l1-4z" fill="#4D4B4A"/>
<path transform="translate(163,341)" d="m0 0h3l2 8v7l-2-3z" fill="#373536"/>
<path transform="translate(212,333)" d="m0 0 2 1-2 3-5 1v2h-9l3-3 9-2z" fill="#484341"/>
<path transform="translate(582,324)" d="m0 0h5v3h-4v2h4v2l-6-1v-5z" fill="#ACC4C5"/>
<path transform="translate(233,316)" d="m0 0h2l-2 9-3-1-1-4z" fill="#151920"/>
<path transform="translate(225,258)" d="m0 0h2l-2 8v6h-1l-1-5-2-1 2-6z" fill="#555"/>
<path transform="translate(319,225)" d="m0 0 5 2v4h-6l-1-5z" fill="#514E4D"/>
<path transform="translate(471,81)" d="m0 0h6v9l-2 2h-5l1-2h3l1-8z" fill="#A0BAB7"/>
<path transform="translate(550,78)" d="m0 0 3 1h-2v9l-2-3v-2l-4-1v-3z" fill="#1D2125"/>
<path transform="translate(283,516)" d="m0 0 4 4h-2v9l2 1-4-1-1-10z" fill="#555"/>
<path transform="translate(785,494)" d="m0 0 1 2h4v8h-2v-5h-2v5h-1z" fill="#9B8E81"/>
<path transform="translate(631,458)" d="m0 0 5 1v6l-3-1-1 1-3-1 1-3 2-1z" fill="#9ABDC0"/>
<path transform="translate(754,459)" d="m0 0h3l1 5 6 1v1h-12l1-2h1z" fill="#504D48"/>
<path transform="translate(724,458)" d="m0 0h7v7h-2l-1-5-2 1v4h-2z" fill="#CDD1C9"/>
<path transform="translate(231,382)" d="m0 0h1v6l-6 2-1-3h-2l1-2 7 1z" fill="#976643"/>
<path transform="translate(671,369)" d="m0 0 3 3 2 5-6-2v2h-2l2-6z" fill="#B5CDCE"/>
<path transform="translate(469,328)" d="m0 0 2 3-1 10h-2v-11z" fill="#282A2F"/>
<path transform="translate(561,324)" d="m0 0h5v3h-4v2h4v2l-5-1-1-5z" fill="#B3C6C5"/>
<path transform="translate(789,286)" d="m0 0h7l1 1v5l-4-4-2 1-1 10h-1z" fill="#E3ECEC"/>
<path transform="translate(1151,281)" d="m0 0h2v9l2 1h-2v4h-2z" fill="#8AD9EF"/>
<path transform="translate(269,270)" d="m0 0 2 1-1 2 3 1-2 3 4 1-6 1-1-8z" fill="#996540"/>
<path transform="translate(263,252)" d="m0 0h5l1 3-3 2-5-1v-3z" fill="#3F3B3A"/>
<path transform="translate(999,220)" d="m0 0h6l1 3-6 2h-3l1-4z" fill="#E6EFEE"/>
<path transform="translate(331,78)" d="m0 0h2v5h3l-1-5h2v6h-4v4h-2z" fill="#6FA8AE"/>
<path transform="translate(411,75)" d="m0 0 3 1-3 1 1 3h-2l1 7-3-1v-8z" fill="#217B97"/>
<path transform="translate(232,81)" d="m0 0 5 1v3h-5l1 3-3-1 1-5z" fill="#8DADB2"/>
<path transform="translate(593,681)" d="m0 0h1v11l-2 2h-5l-1-2 7-1-1-9z" fill="#F0F4F2"/>
<path transform="translate(305,562)" d="m0 0 4 1-4 2-1 4h4v2l-5-1-1-1v-5z" fill="#9DC6CC"/>
<path transform="translate(764,498)" d="m0 0 4 1-1 5h-6v-3l4 1v-2l-2-1z" fill="#B8D1D4"/>
<path transform="translate(676,419)" d="m0 0 5 1v7h-5l-1-4h3l1-3z" fill="#94BCC1"/>
<path transform="translate(234,337)" d="m0 0h10l5 2-1 3h-4v-2l-10-2z" fill="#3B3839"/>
<path transform="translate(267,293)" d="m0 0 14 1-1 2h-10l-3-1z" fill="#764C32"/>
<path transform="translate(895,288)" d="m0 0h2l1 4h4l2-4v6l-1 1h-5l-3-2z" fill="#BCE0E7"/>
<path transform="translate(401,242)" d="m0 0 4 4 3 6-1 3h-2l-4-11z" fill="#B5A28F"/>
<path transform="translate(359,243)" d="m0 0 3 1 1 8h-3v-3h-2z" fill="#645A53"/>
<path transform="translate(366,82)" d="m0 0h6v6h-5l-1-1z" fill="#10161B"/>
<path transform="translate(410,80)" d="m0 0 4 1v7l-3 1z" fill="#192228"/>
<path transform="translate(226,30)" d="m0 0h5v7h-6v-4l1 3 3-3-2-1z" fill="#BCE3EC"/>
<path transform="translate(170,26)" d="m0 0h2v9l4 1v1h-6z" fill="#C5D5D2"/>
<path transform="translate(314,653)" d="m0 0h4v8h-2l-1-3-2 3z" fill="#5E4D43"/>
<path transform="translate(312,562)" d="m0 0 4 1v7l-2-1 1-2h-3l1 4-3-1 1-4h4v-2l-4-1z" fill="#BCD7DA"/>
<path transform="translate(618,497)" d="m0 0 2 1-1 4h3l-1-5 4 1-1 5-1 1h-5l-1-1v-5z" fill="#9AB8B7"/>
<path transform="translate(808,493)" d="m0 0h2l-1 9h-4l1-5h2z" fill="#5D8893"/>
<path transform="translate(1118,470)" d="m0 0m-1 1 4 2-5 3h-5l1-3z" fill="#052430"/>
<path transform="translate(1273,447)" d="m0 0 3 2-2 10-2 1z" fill="#C8B29B"/>
<path transform="translate(735,416)" d="m0 0h5l1 1v8l-3 2-4-1 4-2h2l-2-6z" fill="#D3DFDD"/>
<path transform="translate(338,401)" d="m0 0 2 4v6h-4l1-9z" fill="#21262D"/>
<path transform="translate(1271,401)" d="m0 0h2l1 5-1 11h-1l-1-7z" fill="#043C50"/>
<path transform="translate(655,369)" d="m0 0h2l1 6-6 2 2-7z" fill="#B5D0D2"/>
<path transform="translate(1144,286)" d="m0 0 5 1v8h-3v-8z" fill="#A4CBCF"/>
<path transform="translate(1083,286)" d="m0 0 5 1v8h-3v-8z" fill="#ACCDCF"/>
<path transform="translate(227,239)" d="m0 0 1 4-1 5-3-2-3 2 2-5z" fill="#4F453F"/>
<path transform="translate(844,215)" d="m0 0h2v2h2l1-2 1 2v6l-7-6z" fill="#161D23"/>
<path transform="translate(690,174)" d="m0 0h4v6h-6v-5z" fill="#59544E"/>
<path transform="translate(326,150)" d="m0 0h18l3 1v2l-11-1-10-1z" fill="#4D4440"/>
<path transform="translate(357,82)" d="m0 0h4l1 3h-4v2h5l-1 2-5-1-1-5z" fill="#6B9299"/>
<path transform="translate(414,75)" d="m0 0 5 2-1 3h-6l-1-3z" fill="#14171D"/>
<path transform="translate(121,26)" d="m0 0 7 1-1 4-1-2h-6v6l-2-4z" fill="#B7DEE5"/>
<path transform="translate(944,732)" d="m0 0 3 4 4-3 2 2h-2v4l-6-1-1-1z" fill="#4E5051"/>
<path transform="translate(278,649)" d="m0 0 3 1h-2l1 5-1 6h-2v-11z" fill="#4B4F4F"/>
<path transform="translate(551,584)" d="m0 0 5 1v8l-3-1v-7z" fill="#AED3D9"/>
<path transform="translate(614,583)" d="m0 0 2 1v8l-3 1v-9z" fill="#91C4CE"/>
<path transform="translate(589,581)" d="m0 0 1 3 2 1h-2v6h2v2l-4-1-1-8h2z" fill="#DEF2F6"/>
<path transform="translate(607,531)" d="m0 0 3 1h-2l1 4-1 7h-2l-1-8z" fill="#C0BAAA"/>
<path transform="translate(736,498)" d="m0 0h5l-1 5-3 1-2-2z" fill="#66787A"/>
<path transform="translate(186,497)" d="m0 0 3 1v4l-2 1h-7v-2h6z" fill="#F5FAF9"/>
<path transform="translate(640,459)" d="m0 0h3v5l1 2h-6z" fill="#302E2E"/>
<path transform="translate(1198,450)" d="m0 0 3 2-2 5h-3l-1-3 1-3z" fill="#04465D"/>
<path transform="translate(1238,440)" d="m0 0 3 1-5 5-6 2 5-6z" fill="#08141C"/>
<path transform="translate(1198,409)" d="m0 0 2 1-1 1 2 1v2l-8 4 1-3h2v-5z" fill="#147391"/>
<path transform="translate(1263,372)" d="m0 0h2l1 4h-2v6l-2-4-3-2z" fill="#404B4F"/>
<path transform="translate(288,257)" d="m0 0 6 1v5l-6-2z" fill="#403D3D"/>
<path transform="translate(462,247)" d="m0 0 2 3 2 5-1 3-3-3-1-7z" fill="#24292F"/>
<path transform="translate(346,238)" d="m0 0 6 2 1 4-4 1-2-2z" fill="#B9A692"/>
<path transform="translate(520,81)" d="m0 0 3 1v3h7l-1 3h-8z" fill="#2D7E96"/>
<path transform="translate(261,77)" d="m0 0h3l1 8-1 2h-2v-7h-2z" fill="#A7A298"/>
<path transform="translate(137,30)" d="m0 0h5l1 1v6l-5-1z" fill="#BABFBA"/>
<path transform="translate(1575,24)" d="m0 0 3 4 2 6-3 1-2-7-3-2z" fill="#9D673F"/>
<path transform="translate(629,681)" d="m0 0 3 1v8h-3z" fill="#93C7D2"/>
<path transform="translate(172,652)" d="m0 0 3 1 2 8h-2v-2h-3v2l-2-1 2-4z" fill="#3F6672"/>
<path transform="translate(286,611)" d="m0 0h2v5l-2 1-4-2v-3z" fill="#47413E"/>
<path transform="translate(335,605)" d="m0 0 5 1v2l-4-1 1 4h-2v6h-1l-1-7z" fill="#CAD9D8"/>
<path transform="translate(599,584)" d="m0 0 3 4 3-1 1 3h-2v3h-3z" fill="#C9C9C1"/>
<path transform="translate(196,519)" d="m0 0h7v2l-6 2v7h-1z" fill="#464748"/>
<path transform="translate(619,496)" d="m0 0 4 1v2l-1 4-4-1z" fill="#28292A"/>
<path transform="translate(193,496)" d="m0 0 2 1-1 4 4-1-1 3h-5l-1-5z" fill="#E5EFEF"/>
<path transform="translate(1233,443)" d="m0 0 2 1-8 7-4 1 3-5z" fill="#071B25"/>
<path transform="translate(1247,435)" d="m0 0 2 1-4 5-6 2 1-4z" fill="#071A23"/>
<path transform="translate(629,419)" d="m0 0 5 1v3h-5l1 3h-2v-6z" fill="#92AAAB"/>
<path transform="translate(221,384)" d="m0 0h1v7l11-4-1 3-6 3-5-1z" fill="#504F4F"/>
<path transform="translate(1269,377)" d="m0 0h3l-1 13-2-4z" fill="#044257"/>
<path transform="translate(687,369)" d="m0 0 4 1h-3v2l4 1-1 4-4-1h3v-2l-4-1z" fill="#C6D6D5"/>
<path transform="translate(845,286)" d="m0 0h3l1 2v7h-3z" fill="#86B2BF"/>
<path transform="translate(815,286)" d="m0 0 3 1v3l3 3h-5l-4-5h3z" fill="#272A2C"/>
<path transform="translate(862,284)" d="m0 0h2v2l2 1h-2v7l2 1-4-1-1-8z" fill="#E6F4F6"/>
<path transform="translate(265,251)" d="m0 0h4l3 5-3 2h-7l4-1 1-2 1-3z" fill="#7E5135"/>
<path transform="translate(288,251)" d="m0 0 4 1 1 3-2 1-7-2 1-2z" fill="#B5A28F"/>
<path transform="translate(1069,220)" d="m0 0h4l-2 4-5 3v-3z" fill="#C2DCDF"/>
<path transform="translate(368,215)" d="m0 0 4 1-3 2 4-1v3l-4 1-3-1v-4z" fill="#B5855E"/>
<path transform="translate(563,175)" d="m0 0h2v6h-5v-4h3z" fill="#7E9493"/>
<path transform="translate(230,173)" d="m0 0 2 1-5 5-5 3-3-1z" fill="#303135"/>
<path transform="translate(566,172)" d="m0 0h2v7h4v2h-6z" fill="#646B68"/>
<path transform="translate(345,171)" d="m0 0h1v16l-2 4-2-1 2-4z" fill="#CFB9A0"/>
<path transform="translate(374,85)" d="m0 0h7v3l-7 1z" fill="#465E63"/>
<path transform="translate(209,79)" d="m0 0 1 2 2 1h-2v5h-1v-5h-2v6h-2v-7h4z" fill="#C3BFB6"/>
<path transform="translate(461,81)" d="m0 0 5 1-3 3-2 4-3-5z" fill="#262829"/>
<path transform="translate(1432,28)" d="m0 0 2 4 3 5 5 1v1h-7l-3-3z" fill="#25809B"/>
<path transform="translate(1062,30)" d="m0 0h4l-1 2-2-1 3 3v4h-5l1-2 2 1v-2l-3-1z" fill="#57514D"/>
</svg>
