<?xml version="1.0" encoding="UTF-8"?>
<svg version="1.1" viewBox="0 0 1600 785" width="1280" height="1280" xmlns="http://www.w3.org/2000/svg">
<path transform="translate(0)" d="m0 0h1600v785h-1600z" fill="#AEDDED"/>
<path transform="translate(0)" d="m0 0h1600v62h-1600z" fill="#F5ADE3"/>
<path transform="translate(0,62)" d="m0 0h1600v61h-1600z" fill="#343232"/>
<path transform="translate(417,347)" d="m0 0h10l12 5 7 6 6 1-2 11-6 25h-8l-6-18-1-7-3 9-4 16-1 1h-6v2l2 1-2 4v4l5 2 15 2v2h-18l-10-3 10 4 5 8 3 1 13-1 13-7 5-5-1-9-2-4 1-2v-20l4-5 2-1h11l5 5 2 10h-18l3 6h5l2-2h6l1 2-4 5-11 2 6 2-2 12-3 5 3-1 5-6 6-3 13-3h7l1-2 3 1 12 1 5 3 9 3v3l5 2 6 7 5 9 2 10 4 6 3 3 4 15 3 4v8l1 5-2 5 3 1 2-2-1-5 7-2 3-3v-7l8 1 3-1v-2l8-7 6-6 1-20h2l1 5h6l1 1v15h3v-11l3-5h5l-4 3-1 3h8l1-2v3h-9v3l9-1 8 2 7 6 5 3 8 16 5 9 2 7v12l-2 10h-2l9 9 5 7 5 10 3 12v11l-4 10-9 11 6-1h12l13 5 5 5v2h2l-1-14 4-13 5-5 2-3 7-3-3-9-4-9-2-3v-3l16 4 18-6 28 1v10l-2 10-5 10-2 2-1 6 4 12 1 6v15l-2 5-6 11-5 4-8 4h-15l-12-1-4 2-3 10-3 8-7 9-10 8-8 2 1 3 9 2 7 6 4 10-1 12-2 10-6 9-3 3h-3l-2 4-4 5-5 2-5 5-8 3h-6l-16 8-8 2-6 4-1 3-3 1-45 1-26-1-1-4h-2v-11l2-10 6-8 10-6 1-2 3-1 4-4 2-1v-5l-4-1-6-8-2-1v-2h-2l-3-5-7-9-4-2-16-2-5-2h-7l-4 5h-2l-1 8-5 9-9 7-10 5-5 1-15 1-5 3-4 15-4 9-5 6h-2l-2 4-9 3-11-1-11-4-5-3v-2l-4-2-5-4-4-7v-2l-3 1-3 7v3h-2l2 4-9-1-6-2v-2l-8-1v-2l-5-1-4-2 3-2 7-3 4-2 2-5 4-2h2l4-9 3-9v-34l-4-13-4-8 1 2v6l-3 3-11 3-9 6-8 3-2 3-1 7-7 7h-2l-1 7-4 7h-2v-2l-4-2-5-5-3-4-4-11v-6h-2l3 16v6h2l4 11 1 5-3-3-7-16-3-13-1-15 2-13 3-10 4-8 7-8 10-6 4-2-1-4 5 1h16l10-5 7-8 3-8v-14l-2-7 6 4 3 6 2 2 1 4 1 19-4 10-7 9-5 3 1 7 7 10 7 12 2 5 3 3 5 13 1 15-3 7h-5l-1 11-3 7-1 1 10 1 5 14 5 6 17 5h8l8-2 6-4 6-7 3-8v-9l-4-11-1-3 10 3 5 2h11l9-2 6-4h3l2-4 4-2 1-4 5-9 1-4v-15l-5-12-1-3-4-1-1-5h-2l-1-7-4-2-8-9h-9l-10 5-1 2-6 2-12 1-13-2-10-6-5-8-5-9-7-8-3-9-5-21-2-7-3-18-1-5h-2l-3-6v-8h-2l-5-20-1-14h-2l-5-23v-11l6-11 8-8 10-5 3-1h7l-1-5-3-6-3-3-9-18-2-10v-8l3-9 4-8 9-6z" fill="#D0B8B9"/>
<path transform="translate(498,713)" d="m0 0h15l9 4 8 6 4 5 2 11v16l1064 1v29h-1600v-29l258-1 2-5 4-8 2-3 3-10 7-11 3-3 13 11 12 7 5 4 10 6 11 6 6 4 1 1 93 1h34l5-1 1-15 5-11 6-7 10-6z" fill="#FBFBFA"/>
<path transform="translate(417,347)" d="m0 0h10l12 5 7 6 6 1-2 11-6 25h-8l-6-18-1-7-3 9-4 16-1 1h-6v2l2 1-2 4v4l5 2 15 2v2h-18l-10-3 10 4 5 8 3 1 13-1 13-7 5-5-1-9-2-4 1-2v-20l4-5 2-1h11l5 5 2 10h-18l3 6h5l2-2h6l1 2-4 5-11 2 6 2-2 12-3 5 3-1 5-6 6-3 13-3h7l1-2 3 1 12 1 5 3 9 3v3l5 2 6 7 5 9 2 10 4 6 3 3 4 15 3 4v8l1 5-2 5 3 1 2-2-1-5 7-2 3-3v-7l8 1 3-1v-2l8-7 6-6 1-20h2l1 5h6l1 1v15h3v-11l3-5h5l-4 3-1 3h8l1-2v3h-9v3l9-1 8 2 8 7 4 5 3 9v10l-1 4-3 7-1 2h-2l1 2 5-2-1 11-2 4-7 3-5 5-4 5-6 5-4 6-1 4h-2v9l4 9 4 5 7 4 5 1h14l10-5 7-8 3-7 2-7 2 2 1 9-1 11-4 9-5 5-7 4-4 1h-11l-12-6-7-5-7-8-4-1-5 2-16 14-11 12-4 4-9 7-8 4-16 4 1 10-4-2-8-11-1-5-6-9v-2l-4-2-3-4-3-17-1-5h-3l1-9 2-5-1 1-2 6-1 9-5 1-2-2h-15l-6 1-2 4-6 9v8l6 11 9 15 4 7-1 2-5-7-3-3-6-3-6 3-3 1-2 4-3 1v2l-9 3h-10l-9-4-11-9-9-7-7-6-3-9-5-21-2-7-3-18-1-5h-2l-3-6v-8h-2l-5-20-1-14h-2l-5-23v-11l6-11 8-8 10-5 3-1h7l-1-5-3-6-3-3-9-18-2-10v-8l3-9 4-8 9-6z" fill="#90BCC6"/>
<path transform="translate(742,529)" d="m0 0 29 1v10l-2 10-5 10-2 2-1 6 4 12 1 6v15l-2 5-6 11-5 4-8 4h-15l-12-1-4 2-3 10-3 8-7 9-10 8-8 2 1 3 9 2 7 6 4 10-1 12-2 10-6 9-3 3h-3l-2 4-4 5-5 2-5 5-8 3h-6l-16 8-8 2-6 4-1 3-3 1-45 1-26-1-1-4h-2v-11l2-10 6-8 10-6 1-2 3-1 4-4 15-9 1-2-5-1-2-1v-2l-9-4 3-3 6-2 5-8 7-1h7l2-4 5-5 5-3 12-10v-11l4-2 1 2v21h1v8l-1 7 11-4 9-3 11-5 12-1v-4l-9-1-13-6-1-2-3-1-2-6h-2l-4-8-3-12-1-3v-21l4-6 5-7 13-7 8-1h12l13 5 5 5v2h2l-1-14 4-13 5-5 2-3 7-3-3-9-4-9-2-3v-3l16 4 15-5z" fill="#D1BABA"/>
<path transform="translate(598,433)" d="m0 0h2l1 5h6l1 1v15h3v-11l3-5h5l-4 3-1 3h8l1-2v3h-9v3l9-1 8 2 8 7 4 5 3 9v10l-1 4-3 7-1 2h-2l1 2 5-2-1 11-2 4-7 3-5 5-4 5-6 5-4 6-1 4h-2v9l4 9 4 5 7 4 5 1h14l10-5 7-8 3-7 2-7 2 2 1 9-1 11-4 9-5 5-7 4-4 1h-11l-12-6-7-5-7-8-4-1-5 2-16 14-11 12-4 4-9 7-8 4-16 4 1 10-4-2-8-11-1-5-6-9v-2l-4-2-3-4-3-17-1-5h-3l1-9 4-8 12-13 7-8 9-10 13-13 3-5 10-10 8-7 14-12 9-9h4l1-5h2v-9l-5 1-1 10h-2z" fill="#D2471F"/>
<path transform="translate(383,638)" d="m0 0 4 4 6 18v34l-4 10-4 9-5 1-3 5-5 4-8 3 8 3v2l8 1v2l10 2h4l-1-3h2l-1-4 4-7h3l3 6 5 5 5 4v2l5 2 11 4 12 1 9-4 7-8 5-12 3-12 3-3 3-1 15-1 9-3 9-5 5-4 5-9 2-8h2l2-4 2-2h7l5 2 16 2 5 3 9 11v3h2v2l3 1 5 6v2l4 1 1 5-4 3h-2l-1 3h-3l-2 4-8 4-4 5-2 3-2 10-1 11h2l1 4h26v1h-39l-5-1-1-7v-9l-2-11-6-7-8-5-6-2h-15l-8 3-9 5-6 7-4 10-1 16-6 1h-34l-93-1-5-4-9-5-16-9-6-5-10-6-12-10-3 4-7 11-3 10-4 6-4 8h-6l-1-2 6-2 2-9 4-6 4-14 4-4 4-12 3-2h14l17 4 13 4 9 3-8-12-5-13-2-5 1-4 7 15 2 4-1-4-3-7v-4h-2l-3-15v-7h2l3 12 4 8 5 4 4 4v2h2l1-4 2-3 2-7 8-7 1-7 4-5 8-3 10-6 11-2v-8z" fill="#C6D5DA"/>
<path transform="translate(631,641)" d="m0 0h2l1 2v21h1v8l-1 7 11-4 9-3 11-5 12-2h7l9 3 7 6 4 10-1 12-2 10-6 9-3 3h-3l-2 4-4 5-5 2-5 5-8 3h-6l-16 8-8 2-6 4-1 3-3 1-45 1-26-1-1-4h-2v-11l2-10 6-8 10-6 1-2 3-1 4-4 15-9 1-2-5-1-2-1v-2l-9-4 3-3 6-2 5-8 7-1h7l2-4 5-5 5-3 12-10v-11z" fill="#731518"/>
<path transform="translate(644,16)" d="m0 0h312l2 1v25l-2 2h-311l-3-2v-25z" fill="#F9F9F8"/>
<path transform="translate(381,562)" d="m0 0 6 4 3 6 2 2 1 4 1 19-4 10-7 9-5 3 1 7 7 10 7 12 2 5 3 3 5 13 1 15-3 7h-5l-1 11-3 7-1 1 10 1 5 14 5 6 17 5h8l8-2 6-4 6-7 3-8v-9l-4-11-1-3 10 3 5 2h11l9-2 6-4h3l2-4 4-2 1-4 5-9 1-4v-15l-5-12-1-4 3 1 10 14 5 4 4 2 8-1 10-8 3-3 1-3 4-3v14l2 12 4 12 4 2 16 10 5 2 9 1v1h-7v2l7 2-2 4-9 5h-2l-1-4-4-1-6-8-2-1v-2h-2l-3-5-7-9-4-2-16-2-5-2h-7l-4 5h-2l-1 8-5 9-9 7-10 5-5 1-15 1-5 3-4 15-4 9-5 6h-2l-2 4-9 3-11-1-11-4-5-3v-2l-4-2-5-4-4-7v-2l-3 1-3 7v3h-2l2 4-9-1-6-2v-2l-8-1v-2l-5-1-4-2 3-2 7-3 4-2 2-5 4-2h2l4-9 3-9v-34l-4-13-4-8 1 2v6l-3 3-11 3-9 6-8 3-2 3-1 7-7 7h-2l-1 7-4 7h-2v-2l-4-2-5-5-3-4-4-11v-6h-2l3 16v6h2l4 11 1 5-3-3-7-16-3-13-1-15 2-13 3-10 4-8 7-8 10-6 4-2-1-4 5 1h16l10-5 7-8 3-8v-14z" fill="#95BEC7"/>
<path transform="translate(731,459)" d="m0 0h17l3 3 3 8 2 12v7h102l3 3v35l-2 2-117 1-14 5-4 1-11-3-4-2 1 4-4-2-5-23-2-24-2-4-1-14 3-3 14-4z" fill="#F7F8F7"/>
<path transform="translate(1156,11)" d="m0 0h183l8 4 4 5 2 6v8l-4 8-6 5-5 2h-182l-6-3-5-5-3-6v-10l4-8 7-5z" fill="#FAA122"/>
<path transform="translate(468,625)" d="m0 0h15l9 4 8 5 2 3 3 1 4 7 3 8v15l-3 8-5 9-5 4-1 2-12 6-6 1h-11l-14-5 4 9 1 4v9l-4 9-7 8-7 4-6 1h-8l-17-5-6-7-3-13 1-12 8-12 5-3 7-3 5-1h7l7 2h5l-4-4-4-13v-8l2-10 4-8 5-6 9-6z" fill="#FAFAF9"/>
<path transform="translate(494,406)" d="m0 0h11l9 3 10 4 2 1v2l4 2 6 7 5 10v24l-2 6v15l-3 10-5 6-9 5h-12l-14-7-3-2v-3l-12-4-5-4-8-6-8-8-2-6-2-10h-1v-18l2-2 3-8h3l2-4 5-6 13-4 7-2z" fill="#FEA320"/>
<path transform="translate(705,359)" d="m0 0h20l6 3 2 3v10l-5 6-5 1h-10v14h-8l-1-1 1 4 4 5 3-1 3-4h2l-1-14 12-1 5-2 5 4 1-17h7l1 20 1 1 7-1 1-20h7v26h-6v-3h-2v2l-4 2h-8l4 9 4 7 4 10 3 9v6h6l2 2v12h-9l1 2 4 2 1 19 1 7v8h-8l-3-19-4-9-1-1h-17l-18 2-14 4h-5l-1-1v-6l3-2 4-10 2-7-2 1-6 14-5 1v-2h3l-2-10-2-7 1-1-3-20v-18l4-7h2l2-4 5-4 3-2h3z" fill="#5FACC4"/>
<path transform="translate(404,427)" d="m0 0h15l12 6 5 5 4 10 5 16 6 19 6 23-1 4h-2v3l-8-1-23 4-15 4-9 3h-8l-3-9-6-25-3-16-2-12v-8l3-4 1-4 4-2 4-5 12-6 1-4z" fill="#1B4645"/>
<path transform="translate(796,631)" d="m0 0h2l8 13v16l-4 11-3 5h-2v3l-2 1-2 6-4 1-2 6-7 8-3 5-3 2-3 6-7 6-7 10h-2v2h-2l-2 4-10 4-9 1-11-2-10-5-7-1-8 5-4 3h-3v2l-8 7-6 3v2h-50l3-1 1-4 8-5 8-2 14-7 9-1 8-4 2-3 5-1 2-4 4-5h3l1-3h2l2-5 3-4 2-10 1-12-4-10-6-5 3-1 7 6 2 4 1 16v11l3 7 2 3h6l13-4 5-4h2v-3l5-5h2l2-5 7-9 4-6 1-5 5-3 6-8 6-9 5-5 4-6 5-5 4-1 1-3h2z" fill="#90BCC6"/>
<path transform="translate(523,670)" d="m0 0h7l5 2 16 2 5 3 9 11v3h2v2l3 1 5 6v2l4 1 1 5-4 3h-2l-1 3h-3l-2 4-8 4-4 5-2 3-2 10-1 11h2l1 4h26v1h-39l-5-1-1-7v-9l-2-11-6-7-8-5-6-2h-15l-8 3-9 5-6 7-4 10-1 16-6 1h-34l-4-3-24-11-9-3-8-2 1-2 8 1-1-3h2l-1-4 4-7h3l3 6 5 5 5 4v2l5 2 11 4 12 1 9-4 7-8 5-12 3-12 3-3 3-1 15-1 9-3 9-5 5-4 5-9 2-8h2l2-4z" fill="#AEDDEC"/>
<path transform="translate(446,511)" d="m0 0 6 1 3 5 3 9 3 15 3 12 3 9 2 9v8l-5 7-5 2-3 6-7 4-6 2h-13l-11-4-8-6-3-4-3-9-5-17-2-1-2-13-1-12-1-1v-8l5-3 15-5 25-5z" fill="#D6B956"/>
<path transform="translate(631,641)" d="m0 0h2l1 2v21h1v8l-1 7 11-4 9-3 11-5 11-1-3 2h-2v2l-8 3-1 1h5l1-1h8l2 6v8l-4 4-6 1v2l-24 12-10 7-15 6-6 3h-6l-4 4-12 5-6 5-11 9-4 7-3 1-5-3-4-5-2-5-1 1v9l1 5h-2l-1-4h-2v-11l2-10 6-8 10-6 1-2 3-1 4-4 15-9 1-2-5-1-2-1v-2l-9-4 3-3 6-2 5-8 7-1h7l2-4 5-5 5-3 12-10v-11z" fill="#302E2E"/>
<path transform="translate(581,613)" d="m0 0h25l10 7 6 5v4h4l3 5v3h2l1 4-2 2v11l-15 13-3 1-9 9h-9l-4 2-4 7-7 3-5-1-11-7-5-5-3-7-2-6-1-14 2-9 4-9 3-1 3-5 10-8 6-3z" fill="#F9B3AC"/>
<path transform="translate(611,349)" d="m0 0h12l10 3 11 8 1 4-1 5h-3v5h3l1 19 2 2 10 1 1-3v6h-6l-2 4-2 5-3 1-1 4h-2v2l-9 2-1 2-7 2h-14l-12-4v-2l-5-2-1-3-7-6-3-7-1 1h-8v-2h5v-20l2-2h7v22h7l-1-22-5-5-4-2 12-12 9-5z" fill="#F7F7F5"/>
<path transform="translate(383,638)" d="m0 0 4 4 6 18v34l-4 10-4 9-5 1-3 5-5 4-3 1h-9l1 3-9-1-10-4-10-8-7-11-1-5 2 2-1-4-3-7v-4h-2l-3-15v-7h2l3 12 4 8 5 4 4 4v2h2l1-4 2-3 2-7 8-7 1-7 4-5 8-3 10-6 11-2v-8z" fill="#F1EABD"/>
<path transform="translate(347,609)" d="m0 0 10 1 6 3 2 5 7 4 5 7 4 4 4 8v6l-3 3-11 3-9 6-8 3-2 3-1 7-7 7h-2l-1 7-4 7h-2v-2l-4-2-5-5-3-4-4-11v-6h-2l3 16v6h2l4 11 1 5-3-3-7-16-3-13-1-15 2-13 3-10 4-8 7-8 8-5z" fill="#C99443"/>
<path transform="translate(285,484)" d="m0 0h8l9 3 4 2v2l4 2 6 9 3 11v10l3 10 2 4-4 13-3 3-6 5-14 1-20-12-8-7-6-9-3-9-1-6 4-16 7-9 5-4z" fill="#721518"/>
<path transform="translate(611,569)" d="m0 0 5 1 8 7 14 5h17l3 3-11 6-4 6-3 5v21l3 9 2 9 2 5h2l2 6 4 1v2l4 1 13 5 5 1v4l-15 3-1 1-16 3v-24l-7-5-4-8-7-10-10-8-10-5-11-2h-7l-12 3-8 5-8 7-6 8-4-4-3-12 2-7 21-7 1-3 12-8 7-8 4-1v-2h2l2-4h2l1-4 6-3z" fill="#ADDDED"/>
<path transform="translate(749,530)" d="m0 0h22v10l-2 10-5 10-2 2-1 6 4 12 1 6v15l-2 5-6 11-5 4-8 4h-15l-12-1-4 2-3 10-3 8-7 9-10 8-8 2 1 2h-7v-3l-9-1-13-6-1-2-3-1-2-6h-2l-4-8-1-7 3 1 7 8 13 6h14l12-5 8-7 5-14v-10l-2-10h2l3 4v2h2l-3-6 1-3 5 6 12 6h13l8-3 8-7 4-8 2-8-1-9-3-7-3-4v-2l-5-2-6-3-16-2-2-2h2l-2-4 1-2-2-1v-2l7-3 8-1v-2l7-3z" fill="#8DBBC6"/>
<path transform="translate(643,493)" d="m0 0h2l-1 11-2 4-7 3-5 5-4 5-6 5-4 6-1 4h-2v9l4 9 4 5 7 4 5 1h14l10-5 7-8 3-7 2-7 2 2 1 9-1 11-4 9-5 5-7 4-4 1h-11l-12-6-7-5-7-8-4-1-5 2-16 14-11 12-4 4-9 7-8 4-16 4 1 10-4-2-8-11-1-5-7-11-1-3 7 1 4 1h13l10-5 7-8 16-16 11-12 6-8 9-5 8-7 7-8 5-5 4-5 6-9 3-1 2-2h2z" fill="#333131"/>
<path transform="translate(269,559)" d="m0 0h5l5 3 12 5v2l4 1 7 8 3 2v7l1 2v9l-2 7-4 6-5 6-1 3-10 3-6 2h-11l-6-1-3-3-6-4-5-5v-2l-3-1-4-8-1-11 1-7 5-9 9-10 10-4z" fill="#FAFAF9"/>
<path transform="translate(731,459)" d="m0 0h17l3 3 3 8 2 12v7l-13 1-2 3v32l2 4-8 4-11 3-11-3-4-2 1 4-4-2-5-23-2-24-2-4-1-14 3-3 14-4z" fill="#DBE4DB"/>
<path transform="translate(665,583)" d="m0 0h16l10 6 5 5 5 4v3h2l2 9v10l-5 14-7 7-11 5-3 1h-14l-14-7-4-4-3-6-2-1-1-7v-15l5-9 3-5 5-3 8-3 1-3z" fill="#E5CE93"/>
<path transform="translate(598,433)" d="m0 0h2l1 5h6l1 1v15h3v-11h1v6l10 1 4-1v2l5 2 1 2-3 1h-7l1 4-1 10-5 4h-2v2l-5 4-3 5-8 7-7 7-7 8-8 5h-2l1 3-12 11-6 7-8 7-15 16-1 1h-5l-5-5-4 1h-4l1-6 1-2h2l1-4h-3l-1 2 1-4 4-5 8-7 4-4 3 1 2 5 4-1 2-4-4-1 2-5 8-5 4-4h2l1-5 4-1 2-5h2l1-4 3-5 2-6h2l1-5 10-8 4-6 10-10h4l1-5h2v-9l-5 1-1 10h-2z" fill="#F89B21"/>
<path transform="translate(506,641)" d="m0 0 2 1 4 11v15l-3 8-5 9-5 4-1 2-12 6-6 1h-11l-14-5 4 9 1 4v9l-4 9-7 8-7 4-6 1h-8l-17-5-6-7-3-13 1-12 8-12 5-3 7-3 5-1h7l16 4 4 3 11 3 11 1 11-4 6-4 7-8 5-15 3-3-1-9-2-5z" fill="#F1EABF"/>
<path transform="translate(639,456)" d="m0 0 4 2 8 16 5 9 2 7v12l-2 10h-2l9 9 5 7 1 11-3 10-7 9-5 4-7 3h-14l-9-3-6-5-4-6-2-6v-7l1-2h2l1-5 6-8 4-2 2-4 5-6 4-2 5-2 3-14-6 3v-3h2l3-10 1-3v-10l-4-11z" fill="#D0B8B9"/>
<path transform="translate(94,12)" d="m0 0h11l18 2 13 6 4 1 24 1 6 3 3 5-1 8-5 5-2 1h-65l-14-3-20-9-4-5-1-7 3-5 4-2z" fill="#DD9EC2"/>
<path transform="translate(795,642)" d="m0 0 4 1 1 2v12l-7 14-10 14-8 10-13 15-8 11-8 9-5 3-8 1-9-2-11-7-3-3-6-2-5 3-5 5-11 9-14 7-11 7-5 2-1 2h-27l3-1 1-4 8-5 8-2 14-7 9-1 8-4 2-3 5-1 2-4 4-5h3l1-3h2l2-5 3-4 2-10 1-12-4-10-6-5 3-1 7 6 2 4 1 16v11l3 10 5 5 4 2h12l3-1 3-3h5l5-8 3-1 6-9 8-11 2-6h2l1-5 6-9 4-7 6-10 2-4 5-3z" fill="#5D8A93"/>
<path transform="translate(407,423)" d="m0 0h7l19 8 5 6 6 16 3 5 5 17 4 9 1 7h2v6h2l2 8 1 7 3 19v9l3 12 1 7v8l4 1-3 5v8l6 11 9 15 4 7-1 2-5-7-3-3-6-3-6 3-3 1-2 4-3 1v2l-9 3h-10l-9-4-11-9-9-7-7-6-3-9-5-21 1-4 6 20 3 9 5 6 12 6 4 1h13l10-4 4-4 2-4 5-2 4-6v-8l-2-9-3-9-4-18-4-15-2-7 1-3 2-1-2-11-7-24-7-22-4-12-2-4-8-5-9-3h-15l-1 5-12 6-4 5-4 1-1 5-2 3v8l4 24 6 26 3 11 5 1-1 2v8l1 1v8h-1l-2-11h-2l-3-6v-8h-2l-5-20-1-14h-2l-5-23v-11l6-11 8-8 10-5z" fill="#5E8A93"/>
<path transform="translate(353,550)" d="m0 0h9l9 3 7 3 5 5 2 4-3-1 2 5v14l-4 9-7 8-10 5h-16l-5-2 2 5-5 1-1-4-6-9-4-9-1-4v-9l5-15 3-1h3l4-4z" fill="#F9B4AC"/>
<path transform="translate(284,481)" d="m0 0h9l11 4 5 5 7 8 2 4 3 3 1 4h3l8 16 2 11-6 21-8 10-4 3-6 1 3 10 3 11 1 7v14l-2 7-6 11-6 5-3 3-7 3-3 1h-13l-7-1-8-4v-2l-4-2-6-7 10 2h23l9-2v-2l8-6 6-11 2-7v-14l-4-10-3-5-3-1-3-5-10-6-2-4-7-6 3-1 15 9 14-1 6-5h2l3-11 1-5-3-6-2-9v-8l-3-11-6-9-3-2v-2l-4-1-9-3h-8l-10 3-7 6-4 6-4 16 2 11 5 9 3 3 5 7-4-2-8-7-3-6-2-9v-17l3-7 4-4 4-5 6-5z" fill="#8FBCC6"/>
<path transform="translate(446,511)" d="m0 0 6 1 3 5 3 9 3 15 3 12 3 9 2 9v8l-5 7-5 2-3 6-7 4-6 2h-13l-11-4-8-6-3-4-2-4v-5l3 4v2h6l2-1h6v2l7-1 2-3 10-4 4-4-1-13-6-21-1-3-1-12-3-3v-3l-11-1 4-2z" fill="#CA9543"/>
<path transform="translate(511,543)" d="m0 0 2 1-3 8-1 6h3l2 5 3 17 4 5 3 3 7 11-3 3-5 2-3 2-7 2-12 8-5 2-5-5-7-8-6-12-6-10-1-2v-8l6-9 3-4 6-2h15l2 2h4l2-12z" fill="#D6B855"/>
<path transform="translate(770,614)" d="m0 0h10l6 4 2 4-1 6-6 5-5 5-6 8-8 9-4 4-3 5-3 3-4 1-3 7-4 6-6 7-8 10-5 5h-4l-3-5h-3v-2h-2v-6l6-7 5-9 4-4 8-12 4-8 12-16 6-7 7-9z" fill="#FBFBFA"/>
<path transform="translate(650,360)" d="m0 0h1v9h5v5h-5v17h4l1-10 2-1 3-6 6-5h11l6 5 2 3v9l-3 6-5 4h-11l-6-4v15l-5 13-8 9-9 6-6 1h-16l-12-6-5-5-3-1-6-11v-2h3v2l5 2v2l12 3h14l7-1 1-3 9-1v-2h2l1-5h3l1-5 3-4h6l-1-3h-10l-3-3v-19h-3v-5h3v-5z" fill="#8DBBC6"/>
<path transform="translate(416,350)" d="m0 0h13l12 6 2 4 2-1h7l-2 11-6 25h-8l-6-18-1-7-3 9-4 16h-9l-2-6-9 3-3 2h-3l-4-11v-10l3-6 7-9 8-7z" fill="#353131"/>
<path transform="translate(772,612)" d="m0 0 12 1 6 4v3l5 2 2 2-1 10-5 4-5 2-2 4-7 10h-2l-2 5-12 15-3 1-1 6-7 9-6 9-5 5h-2v3l-7 5-5 2-8 2h-6l-5-7-1-4v-24h1l2 6 1 1 5-9 3-3 3-6 4-1 2-6 6-10 4-7 5-5 9-11 3-3 6-8 5-4zm-2 2-8 4-8 10-6 7-11 15-7 13-6 9-4 4-7 11-3 3v6h2l1 2h2l3 5h4l5-5 9-11 8-10 3-5 1-4 5-2 4-4 3-6 5-4 7-8 4-6 5-5 6-5 1-6-3-5-5-3z" fill="#DBE4DB"/>
<path transform="translate(822,546)" d="m0 0h18l9 4 5 5 4 5-1 7-7 7h-8l-11-7-8-5h-6l8 6v2l4 2 3 2v2h2l1 2 3 1 4 5 10 8v2h2v2h-2v2l-5-2-9-5-6-2h-7l-12 3h-3l-1 2-3-1-4-7-1-4v-11l4-11 6-7z" fill="#FBFBFA"/>
<path transform="translate(677,707)" d="m0 0 5 1 1 5-5 4-1 2 10-6h4l-1 5-7 9-5 2-5 5-8 3h-6l-16 8-8 2-6 4-1 3-3 1h-33l-3-2 6-5 6-3 4-4h2v-2l7-1 10-5 12-2v-5l4-3 9-1 8-5 9-6 4-2z" fill="#D1461F"/>
<path transform="translate(505,637)" d="m0 0 3 1 10 14 5 4 4 2 8-1 10-8 3-3 1-3 4-3v14l2 12 4 12 4 2 16 10 5 2 9 1v1h-7v2l7 2-2 4-9 5h-2l-1-4-4-1-6-8-2-1v-2h-2l-3-5-7-9-4-2-16-2-5-2h-7l-4 5h-2l-1 2 1-10 4-6-2-5-1-1-2 9-1 9-5 12-4 5-9 6-4 2-25 2-4 3-2 10-4 13-3 5h-2v3h-3v2h-4l-1 3-4 1h-12l-6-2v-1l14-1 12-6 7-8 3-8v-9l-4-11-1-3 10 3 5 2h11l9-2 6-4h3l2-4 4-2 1-4 5-9 1-4v-15l-5-12z" fill="#8FBCC6"/>
<path transform="translate(613,532)" d="m0 0h2v4h-2v9l4 9 4 5 7 4 5 1h14l10-5 7-8 3-7 2-7 2 2 1 9-1 11-4 9-5 5-7 4-4 1h-11l-12-6-7-5-7-8-4-1-5 2-16 14-11 12-4 4-9 7-8 4-16 4 1 10-4-2-8-11 1-3 2 1 1-4 7-2h9l7-3 10-7 7-8 8-7 10-10 8-7 8-6h2l1-12z" fill="#608F98"/>
<path transform="translate(540,449)" d="m0 0h1v10l-2 6v15l-3 10-5 6-9 5h-12l-14-7-3-2v-3l-12-4-5-4-6-4-1-4-3-3 1-4 3 4v2l16 4h9l9-2 5-4 10-5 1-3 8-6 5-6 4 1v10z" fill="#D1471F"/>
<path transform="translate(480,513)" d="m0 0 7 1 8 4 16 5 1-3 5 1 1 3 3 1v-2l7-1-3 8-10 11-1 2h-3l-2 8-1 9-5 1-2-2h-15l-8 2-2-1-1-40 3-6z" fill="#AEDDED"/>
<path transform="translate(526,604)" d="m0 0h3v3h2l5 5 4 5 2 5 1 4h2l2 6v6l-4 5h-2l-2 4-7 6-4 2-1 3-6-2-8-9-13-19-2-4-4-4h6l5-4 14-9z" fill="#DAE3DA"/>
<path transform="translate(668,531)" d="m0 0 3 2 4 11 1 6v11l-4 10-9 11-3 2-7-1h-15l-14-5-8-7-5-1-7 4h-2l-1 4-4 4h-2v2l-4 2-7 8-12 8-3 3-12 5-7 2-1 8 2 4 2 9-5-5-7-10-1-3h2l-2-7 1-3 6-3 13-3 9-6 6-5h2l2-4 13-14h2l1-3 9-7 2-2 5-1 5 3 1 3 4 2v2l4 2 12 7 3 1h11l8-3 6-4 4-8 1-3 1-12-2-10z" fill="#8EBCC6"/>
<path transform="translate(840,546)" d="m0 0 7 1 7 4 7 10 3 6v21l-4 8-7 7-8 5-7 2h-13l-7-3-8-5-6-7-5-13v-7l2-2 2 13 4 6h3l15-4h7l6 2 11 6 2 1 1-1h2v-2h-2v-2l-4-2-7-6v-2l-3-1v-2l-4-1v-2h-2l-5-5-2-1v-2l-4-2-5-5h7l11 7 8 5h8l5-5 2-4-1-5-4-5v-2l-5-2-7-3z" fill="#DAE3DB"/>
<path transform="translate(383,638)" d="m0 0 4 4 6 18v6l-2-4v-3h-2l-3 9-4 4-13 4-8 4-3 4h-2l-2 4-4 7-5 6-3 2-5-1-8-6-3-4 4 10 5 5 6 8 4 4h-6l-6-4-7-10-2-4 1-3 1 2-1-4-3-7v-4h-2l-3-15v-7h2l3 12 4 8 5 4 4 4v2h2l1-4 2-3 2-7 8-7 1-7 4-5 8-3 10-6 11-2v-8z" fill="#E5CE92"/>
<path transform="translate(451,362)" d="m0 0h4l3 10-3 3v20l-1 4 3 5v6l-7 7-12 6-13 1-4-2-4-7-10-4-1-2 6 1 5 2 18 1v-2h-9l-8-2-4-2 1-5v-4-2l6-1 6-24 2-2 1 1 2 10 4 13v2h8l1-8z" fill="#E5CD92"/>
<path transform="translate(345,630)" d="m0 0h5l5 15 3 3 7-4 14-6v-7l2 2 4 8v6l-3 3-11 3-9 6-8 3-2 3-1 7-7 7h-2l-1 7-4 7h-2v-2l-4-2-5-5-3-4-4-11v-6h-2l-1 3v-16l2-2 2 12 4 8 7-1 8-7-2-13 2-2 1-6-1-5 3-3z" fill="#D7BA56"/>
<path transform="translate(641,511)" d="m0 0 7 4 10 3 3 3 3 7 1 11-1 7-3-4 1-7-5 1-2 6h-5v-2h-2l-2 5-2 3-2-1-1 2-7 4h-3v7l-5 1-6-5-5-12 2-12 6-4 3-6 4-5 8-4z" fill="#F9B4AC"/>
<path transform="translate(719,463)" d="m0 0 5 1v2l5 2 2 2 2 14 1 2 2 23 1 6-3 7-5 2h-8v-2h-2l-3-3-3-7-5-22-1-14-2-6 7-5z" fill="#FBFBFA"/>
<path transform="translate(611,462)" d="m0 0h6l3 4-1 4-10 8-5 9-12 12-7 8-8 5h-2l1 3-12 11-6 7-8 7-15 16-1 1h-5l-4-4 2-6 12-10 7-8 5-5 11-10 4-6 2-1 3-5 11-10h3l2-5 9-11 7-5 2-4z" fill="#D8B14D"/>
<path transform="translate(541,438)" d="m0 0 2 3 4 16 2 3 1 8v10l-1 10h-2l-2 9-5 5-4 5-9 5h-14l-10-2-10-4-5-5-5-2-4-5-1-5-3-1-4-7-3-1-8-11 1-2 10 10 9 6 6 3 8 3-1 3 5 2 12 6h12l9-5 4-5 3-11v-16l2-4z" fill="#8F988D"/>
<path transform="translate(760,579)" d="m0 0 2 3v16l-5 11-6 7-9 4h-11l-9-4-11-6-1 2v11l-3 14-7 10-9 8-7 2h-13l-14-7-5-5-6-7-1-4 7 6 13 6h14l12-5 8-7 5-14v-10l-2-10h2l3 4v2h2l-3-6 1-3 5 6 12 6h13l8-3 8-7 4-8z" fill="#5B8D99"/>
<path transform="translate(360,724)" d="m0 0h6l-2 2 8 3v2l8 1v2l5 1v2l11 2 17 7 16 8v1h-79l-1-1v-8l6-7 6-1-2-7-7-4 3-1h5z" fill="#DAE3DA"/>
<path transform="translate(306,523)" d="m0 0 8 1 5-1 3 10 2 4-4 13-3 3-6 5-14 1-20-12-8-7 3-2 13 1v-8l9-3z" fill="#D2471F"/>
<path transform="translate(368,553)" d="m0 0 9 2 5 4 3 4-1 2-2-1 2 5v14l-4 9-7 8-10 5h-16l-5-2 2 5-5 1-1-4-6-9-4-9-1-4v-9l5-15h4l-5 17v8l5 5v-7l9 4 11 1 2-5 4-1 2 3 5-1v-5l3-4 4 2 2 4 4-1-1-9-4-6-3-5-1-2-5-3z" fill="#D3BAB9"/>
<path transform="translate(285,484)" d="m0 0h8l9 3 4 2v2l4 2 6 9 3 11v8l-2 2-1-11-3-3-3-2 1-3-3-3-9-3-2-2v-3h-7l1 3 3 3v4h-2v7l-7 6-6 3-4-5-2-5h-2l-5 1v8l3 8-2 4 3 8-4-2-5-9-2-11 4-16 7-9 5-4z" fill="#313030"/>
<path transform="translate(404,427)" d="m0 0h15l12 6 5 5 4 10-1 4-4-10-1-1h-8v-2l-9 2v2l-5 2-1 3h-2l1 7-1 3h-8v2l-3-1-2-2h-6l-2-4-5-1-1 1v12l-1 2h3l1 4-2 3 1 13 3 13v6l-2-3-5-22-3-20v-8l3-4 1-4 4-2 4-5 12-6 1-4z" fill="#335059"/>
<path transform="translate(671,679)" d="m0 0h1v8l-9 6-28 14-15 8-14 6-18 9h-8l-4-2v-3l16-9 23-12 22-11 19-9z" fill="#8D9488"/>
<path transform="translate(794,634)" d="m0 0 1 2-3 5-4 5h-2l-1 6-6 10-4 7-6 10-2 1v3h-2l-2 7-10 14-4 6h-3l-2 6-3 3h-6l-2 3-3 1h-12l-9-6-2-6 4 4h6l13-4 5-4h2v-3l5-5h2l2-5 7-9 4-6 1-5 5-3 6-8 6-9 5-5 4-6 5-5 4-1z" fill="#D1BABA"/>
<path transform="translate(623,637)" d="m0 0 4 1v3 2l2 1 1 10-15 13-3 1-9 9h-9l-4 2-4 7-7 3-5-1-11-7-5-5-3-7-2-6-1-14 2 3 1 9 2 3 1 5 6 4 3 6 5 1 1-8-2-2 2-3 5 4 9-2 4-5 8-1 3-2h3l1-5 8-3h2v-2h2l-1-3 4-4 1-6z" fill="#DC9EC0"/>
<path transform="translate(631,641)" d="m0 0h2l1 2v20l-7 14-9 9-12 6-13 2-12-2-4-3 9-4 5-8 7-1h7l2-4 5-5 5-3 12-10v-11z" fill="#D2471F"/>
<path transform="translate(265,558)" d="m0 0h16l11 5 7 3 2 2v3l4 1 6 11 1 4v14l-4 11-6 9-5 4h-2v2l-9 3h-23l-10-5-7-7-5-7-2-5-1-1-1-12 2-10h1v13l3 9 2 4 2 1v2l4 2 1 3 4 2 7 3 4 2h11l16-4 1-4 7-9 2-3 1-6v-9l-1-6v-3l-10-10-3-1v-2l-5-1-11-5-1-1-13 1 1-2z" fill="#D6E0DA"/>
<path transform="translate(405,359)" d="m0 0h7l1 2-1 3h2l3 14v5h2v-7l4-12 1-5h9l6 21h1l3-11 2-10h7l-2 11-6 25h-8l-6-18-1-7-3 9-4 16h-9l-6-27z" fill="#0A0808"/>
<path transform="translate(32,11)" d="m0 0h11l6 4 4 6 1 9-4 8-6 4-3 1h-8l-7-4-4-5-1-3v-9l4-6 5-4z" fill="#B3DBE8"/>
<path transform="translate(594,693)" d="m0 0h7l3 1v3l-5 1v2l-9 5-2 6 2 1-12 7-1 2-7 2 3 2-7 8-1 2h13l5 1-6 7-4 3-3 6-3 1-5-3-4-5-2-5-1 1v9l1 5h-2l-1-4h-2v-11l2-10 6-8 10-6 1-2 3-1 4-4 15-9 1-2-5-1-2-1v-2z" fill="#333"/>
<path transform="translate(718,555)" d="m0 0 7 1 6 7v9l-5 4-11 2-4-1-2-3-4 2-2 4v8l1 3v7h-2l-1 3-2-4-5-5-13-8h-18l-1 4-8 3-2 2h-3l-2 5-5 9v22l4 2 1 4-6-5-2-7v-21l4-6 5-7 13-7 8-1h12l13 5 5 5v2h2l-1-14 4-13 5-5 2-3z" fill="#C9D1D3"/>
<path transform="translate(772,612)" d="m0 0 12 1 6 4v3l5 2 2 2-1 10-5 4-5 2-2 4-7 10h-2l-2 5-12 15-3 1-1 6-7 9-6 9-5 5h-2v3l-7 5-5 2-8 2h-6l-5-7-1-4v-24h1l3 12-1 3v10h2l2 3 2 2h11v-2l7-4 6-8h2v-2h2l2-4 7-10 4-8 6-4 6-8 7-9 8-11 8-7 2-6-2-5-3-1-3-5-4-2h-10l-8 4-9 12-4 4-11 15-7 13-7 10-3 3-7 11-3 3h-2l2-5 3-6 3-3 3-6 4-1 2-6 6-10 4-7 5-5 9-11 3-3 6-8 5-4z" fill="#C4D4D9"/>
<path transform="translate(749,530)" d="m0 0h15v13l-6 12-3 3-1 4-5-2-8-4-16-2-2-2h2l-2-4 1-2-2-1v-2l7-3 8-1v-2l7-3z" fill="#628C93"/>
<path transform="translate(284,481)" d="m0 0h9l11 4 5 5 7 8 3 5v6h2l7 24-1 12-4 10-7 7-12 5-1 3-11-8-5-3-1-3-7-6 3-1 15 9 14-1 6-5h2l3-11 1-5-3-6-2-9v-8l-3-11-6-9-3-2v-2l-4-1-9-3h-8l-10 3-7 6-4 6-4 16 2 11 5 9 3 3 5 7-4-2-8-7-3-6-2-9v-17l3-7 4-4 4-5 6-5z" fill="#939A8D"/>
<path transform="translate(494,406)" d="m0 0h11l9 3 10 4 2 1v2l4 2 6 7 5 10v14l-3 12-2 3v-13l-4-7-1-15-7-10-5-4-4-2-15-2h-4l-9 3h-6l-3 1h-6l-3 5-4 4-2 5h-2v23l3 6 3 3v9l4 5h-3l-8-8-2-6-2-10h-1v-18l2-2 3-8h3l2-4 5-6 13-4 7-2z" fill="#D7BA56"/>
<path transform="translate(840,546)" d="m0 0 7 1 7 4 7 10 3 6v21l-4 8-3 3h-3v-5h-2v-2l-4-2-7-6v-2l-3-1v-2l-4-1v-2h-2l-5-5-2-1v-2l-4-2-5-5h7l11 7 8 5h8l5-5 2-4-1-5-4-5v-2l-5-2-7-3z" fill="#DBE4DB"/>
<path transform="translate(731,459)" d="m0 0h17l3 3 3 8 2 12v7h-9l-3-19-5-8h-12l-15 4-6 2h-7l3 19 2 13 1 9 2 5 2 10 3 5 7 2 16-2 7-2v3l-14 5-4 1-11-3-4-2 1 4-4-2-5-23-2-24-2-4-1-14 3-3 14-4z" fill="#C3D6DC"/>
<path transform="translate(399,557)" d="m0 0 2 3 5 17 3 9 5 6 12 6 4 1h13l9-3 4 1-9 6-14 3 9 5h11l9-5 4-7 3-6 4-2 4 5v2h2l1-3 6 11 5 8-1 2-5-7-3-3-6-3-6 3-3 1-2 4-3 1v2l-9 3h-10l-9-4-11-9-9-7-7-6-3-9-5-21z" fill="#5B8E9A"/>
<path transform="translate(518,655)" d="m0 0 4 5-2 5-3 7v9l-4 9-5 5-6 5-10 5-5 1-15 1-5 3-4 15-4 9-5 6h-2l-2 4-9 3-12-3-3-4h15l4-1 1-2h4v-2h3v-3h2l2-5 5-16 1-7 5-4 25-2 9-5 5-5 3-4 4-10 2-14z" fill="#90BCC6"/>
<path transform="translate(409,592)" d="m0 0 7 6 9 7 10 8 8 3h10l9-2v-2l8-7 7-3 6 4v2l3 1 4 6 4 4 6 7 6 9-1 3-4-1-1-5h-2l-1-7-4-2-8-9h-9l-10 5-1 2-6 2-12 1-13-2-10-6-5-8-5-9-5-5z" fill="#8BBBC6"/>
<path transform="translate(699,716)" d="m0 0 2 1v2l3 1-5 3-5 5-11 9-14 7-11 7-5 2-1 2h-27l3-1 1-4 8-5 8-2 14-7 9-1 16-8 11-8z" fill="#92998C"/>
<path transform="translate(665,691)" d="m0 0m-2 1 5 1-4 3-17 8-10 7-8 4-10 4-6 3h-6l-4 4-12 5-6 5h-21l4-7 3-1 1-3-3-2 4-2h4l2-4 11-6 6-4h2v-2l8-4 5 2h3l-5 5-25 13-6 4h-2v3l4 1h8l17-8 42-21z" fill="#2E2D2D"/>
<path transform="translate(381,562)" d="m0 0 5 5 4 12v11l-3 12-6 8-7 4h-2l1 6 5 8-1 2-6-8-8-5v-4l-11-3h-13l4-3-1-4 5 1h16l10-5 7-8 3-8v-14z" fill="#939A8D"/>
<path transform="translate(417,347)" d="m0 0h10l12 5 7 6-1 2h-2l-5-5-9-4h-13l-7 2-8 7-7 10-1 3v10l3 8v3l13-6 3 1 1 6h8v1h-6v2l2 1-2 4v4l5 2 15 2v2h-18l-8-3h-5l-6-7-4-4-4-10-1-7v-8l3-9 4-8 9-6z" fill="#CB9443"/>
<path transform="translate(959,359)" d="m0 0h19l6 3 2 3v10l-2 4-3 2-5 1h-10v13h-7z" fill="#0A0909"/>
<path transform="translate(706,359)" d="m0 0h19l6 3 2 3v10l-5 6-5 1h-10v13h-7z" fill="#0A0909"/>
<path transform="translate(385,565)" d="m0 0 2 1 3 6 2 2 1 4 1 19-4 10-7 9-5 3 1 7 7 10 7 12 2 5 3 3 5 13 1 15-3 7h-5l-1-1-2-24-2-11-4-10-3-6-3-3-5-10-5-8 1-4 9-5 5-7 3-12v-11l-4-12z" fill="#91BCC6"/>
<path transform="translate(652,399)" d="m0 0h5l-1 10-5 10-5 5-5 4-8 3-12 1-9-3-6-3-9-9 2-1 12 4h14l7-1 1-3 9-1v-2h2l1-5h3l1-5z" fill="#618D96"/>
<path transform="translate(725,556)" d="m0 0h12l8 7v2l6 1 2 3v4l-4 1-5-1-7 9-4 1-5 7-4 2-6 4-5-10 1-5 4-4 9-3 3-2v-9l-6-6z" fill="#F8B4AC"/>
<path transform="translate(556,369)" d="m0 0h6l1 3 3-3h9l4 2 3-2h9l4 5v22h-7v-22l-7 1-1 1-1 19h-7l-1-20h-6l-1 1-1 19h-7z" fill="#151413"/>
<path transform="translate(538,465)" d="m0 0h1v15l-3 10-5 6-9 5h-12l-14-7-3-2 1-3 14-1 16-6 8-7z" fill="#343131"/>
<path transform="translate(511,647)" d="m0 0 4 4 3 5-2 9-1 9-5 12-4 5-9 6-4 2-25 2-4 3-2 10-4 13-3 5h-2v3h-3v2h-4l-1 3-4 1h-12l-6-2v-1l14-1 12-6 7-8 3-8v-9l-4-11-1-3 10 3 5 2h11l9-2 6-4h3l2-4 4-2 1-4 5-9 1-4z" fill="#638F98"/>
<path transform="translate(562,503)" d="m0 0 2 3-4 7 6-5-2 4-6 7-8 7h-2l-2 4-10 11-9 7-2 4-5 1h-4l1-6 1-2h2l1-4h-3l-1 2 1-4 4-5 8-7 4-4 3 1 2 5 4-1 2-4-4-1 2-5 8-5 4-4h2l1-5z" fill="#FCA120"/>
<path transform="translate(706,611)" d="m0 0h1v20l1 3-6 11-8 8-3 2-7 2h-13l-14-7-5-5-6-7-1-4 7 6 13 6h14l12-5 8-7 1-2h2l3-10z" fill="#618A91"/>
<path transform="translate(667,369)" d="m0 0h11l6 5 2 3v9l-3 6-5 4h-11l-6-5-2-5v-9l6-7z" fill="#101010"/>
<path transform="translate(532,369)" d="m0 0h11l6 5 2 3v10l-4 6-6 3h-9l-6-5-2-4v-9l4-6z" fill="#101010"/>
<path transform="translate(451,362)" d="m0 0h4l3 10-3 3v20l-1 2h-2l-2 4-1 1h-6l1 3-4 4-9 1-8-3-2-1v-5l12-8h3v2h8l1-8z" fill="#EEE7BC"/>
<path transform="translate(794,649)" d="m0 0 3 1-3 10-8 11-2 4h-2l-2 5-6 8h-2l-2 4-6 8-5 5-5 7h-2l-2 4-7 8h-2v2l-5 2-6-1-2-2 10-5 5-4 3-6 3-1 6-9 11-15 5-5 11-15h2l2-5z" fill="#36525A"/>
<path transform="translate(1071,369)" d="m0 0h6v3h2v-2l2-1h9l4 2 2-2h10l3 4v22h-6l-1-21-7 2-1 3-1 16h-6l-1-20h-6l-2 5-1 15h-6z" fill="#090707"/>
<path transform="translate(1574,15)" d="m0 0h7l7 4 3 6v7l-4 6-5 3h-9l-6-4-2-3v-11l5-6z" fill="#E3A7D2"/>
<path transform="translate(865,584)" d="m0 0 2 3v7l-2 9-4 7-9 7-10 3h-8l-10-4-5-3-4-4v-2l10 2h13l11-4 11-10 4-10z" fill="#5E8992"/>
<path transform="translate(764,530)" d="m0 0h7v10l-2 10-5 10-2 2-1 6 4 12 1 6v15l-2 5-13 13-12 3-9-1-5-2 3-1 3 1h11l10-5 5-6 4-10v-16l-3-8-3-7-3-5h2l1-5 4-5 4-9v-12z" fill="#91BDC7"/>
<path transform="translate(400,424)" d="m0 0h7l-1 3-4 1-1 5-12 6-4 5-4 1-1 5-2 3v8l4 24 6 26 3 11 5 1-1 2v8l1 1v8h-1l-2-11h-2l-3-6v-8h-2l-5-20-1-14h-2l-5-23v-11l6-11 8-8 10-5z" fill="#5F96A3"/>
<path transform="translate(582,383)" d="m0 0h1l5 17 3 4 4 1 2 2h5l-1 6 6-1 1 1h15l8-2 9-6 5-8 5 1 2 1-2 4-2 5-3 1-1 4h-2v2l-9 2-1 2-7 2h-14l-12-4v-2l-5-2-1-3-7-6-3-7-2 1v-12z" fill="#D8E1DA"/>
<path transform="translate(468,579)" d="m0 0h1v5h2l1-3 6 11 1 1v5h-2l-4-6-4 1-3 9-4 5-9 5h-11l-10-6v-1l15-3 8-5-2-2 4-4 2-4 5-2z" fill="#646D68"/>
<path transform="translate(844,358)" d="m0 0h8l7 4 3 4v3l-7 1-4-5h-7l-4 4-1 3v9l3 6 3 2 7-1 3-6 7 2-2 6-6 5h-12l-6-4-4-5-1-3v-12l3-7 7-5z" fill="#0F0F0F"/>
<path transform="translate(585,467)" d="m0 0 2 1-5 5-7 6-1 4-2 1-2 6-4 8h-2l-2 7-4-1-1 5-4 2-4 4-5 3-3 5 4 1-1 4-2 2-5-1-1-5-5 1 2-5 9-10 13-13 3-5 10-10 8-7z" fill="#D14A20"/>
<path transform="translate(872,369)" d="m0 0h14l4 4 1 22h-7-3l-2 1h-7l-5-5v-7l5-4 10-2v-3h-7l-1 2-6-1 1-4z" fill="#131312"/>
<path transform="translate(865,572)" d="m0 0 3 3 3 10v11l-1 7-2 2-3 8-7 7-11 5h-11l-13-4-6-4-5-6-4-7v-3l12 6-3 1-2-1 4 4v2l15 6h8l10-3 7-6h2l2-6 2-5 1-5v-7l-2-2z" fill="#8FBCC6"/>
<path transform="translate(506,641)" d="m0 0 2 1 4 11v15l-3 8-5 9-5 4-1 2-12 6-6 1h-11l-13-5v-3h-2l1-2 11 3 11 1 11-4 6-4 7-8 5-15 3-3-1-9-2-5z" fill="#D3DFDA"/>
<path transform="translate(1120,369)" d="m0 0h13l4 3 1 23h-6v-2l-6 3h-7l-4-4v-8l5-4 11-2-1-3h-7l-1 2-7-1 2-5z" fill="#0D0C0D"/>
<path transform="translate(1027,369)" d="m0 0h14l3 3 1 23h-6v-2l-6 3h-7l-4-4v-8l5-4 11-2-1-3h-7l-1 2-6-1 1-4z" fill="#0E0D0D"/>
<path transform="translate(353,550)" d="m0 0h9l7 4v2h-2l-2 6-4 6-10 4h-4l-5-5v-2l-6-2v-4l6-5z" fill="#F2EABE"/>
<path transform="translate(795,369)" d="m0 0h11l6 7v8h-17l2 5 1 1h5l2-2 7 1-3 5-3 2h-9l-6-3-3-5v-11l4-6z" fill="#111212"/>
<path transform="translate(606,369)" d="m0 0h10l6 4 2 7v4h-17l2 6h5l2-2 7 1-3 5-3 2h-10l-4-2-3-6v-11l3-6z" fill="#121111"/>
<path transform="translate(921,369)" d="m0 0h10l5 3 2 4v8h-16l2 6h6l1-2h7l-1 4-5 4h-10l-5-4-2-4v-12l3-5z" fill="#100F0F"/>
<path transform="translate(460,369)" d="m0 0h11l5 5 2 10h-18l3 6h5l2-2h6l1 2-4 5-3 1h-8l-5-3-3-5v-13l4-5z" fill="#0E0D0D"/>
<path transform="translate(643,493)" d="m0 0h2l-1 11-2 4-7 3-5 5-4 5-6 5-4 6-3-1 1-2-4 1-12 10-7 5v-3l4-6 9-5 8-7 7-8 5-5 4-5 6-9 3-1 2-2h2z" fill="#6E171A"/>
<path transform="translate(540,459)" d="m0 0h2l1 2 1 17-2 9-4 7-7 7-8 4-3 1h-11l-5-2-12-8-7-6-2-1v-2l-5-2-7-6h3l6 4 6 3 8 3-1 3 5 2 12 6h12l9-5 4-5 3-11v-16z" fill="#646D68"/>
<path transform="translate(993,359)" d="m0 0h6v13h2v-2l2-1h9l4 5v21h-7l-1-20h-8l-1 20h-6z" fill="#0B0A0A"/>
<path transform="translate(630,634)" d="m0 0 4 1 4 7 8 8v22l8-2 4 1-9 3-11 5-5 1 1-15-1-2v-20l-3-6z" fill="#8DB9C2"/>
<path transform="translate(1170,369)" d="m0 0h7l5 15v3h2l2-9 3-9h7l-3 11-10 24-2 2h-10v-5l6-2 1-6-8-21z" fill="#101010"/>
<path transform="translate(88,25)" d="m0 0 7 1 1 2 2-3 3 1 1 2 6 2 3-2 6 1 1-2 8 2 4-1h7l2 1v8l-4-1-5 1h-11v-2h-2v2h-8l-1-3h-2v3h-9l-2-4h-5v4h-4v-11z" fill="#AFD3DE"/>
<path transform="translate(1521,15)" d="m0 0 4 1v2h24l-1 9-2 3h-18v2h18l1 3h-2v5l-5 1-1-4 1-1h-8v5h-5v-5-3l-2-3-2-12-2-1z" fill="#404240"/>
<path transform="translate(784,650)" d="m0 0 1 2-6 10-4 7-6 10-2 1v3h-2l-2 7-10 14-4 6h-3l-2 6-3 3h-6l-2 3-3 1h-12l-9-6-2-6 7 7 5 1 2 1 8-1 8-6 2-3h2l1-2 6-5 1-4 2-1 2-4 3-1 2-5 4-5 2-6h2l1-4 8-10 5-8z" fill="#8EB8C0"/>
<path transform="translate(400,362)" d="m0 0 1 2-1 2h2l2 3 4-1 4 18-1 3-9 3-3 2h-3l-4-11v-10l3-6z" fill="#343131"/>
<path transform="translate(497,401)" d="m0 0 16 2 5 3 9 3v3l5 2 6 7 5 9 1 10-2 1-5-12-5-8-6-5v-2l-9-3-8-3-4-1h-11l-10 2-15 6-6 8-1-4 6-7 6-5 16-4h7z" fill="#C8D3D6"/>
<path transform="translate(756,369)" d="m0 0h7v26h-6v-3h-2v2l-4 2h-7l-4-3v-23h6l1 19 1 1 7-1z" fill="#0E0E0F"/>
<path transform="translate(721,556)" d="m0 0 4 1 5 4 1 2v9l-5 4-11 2-4-1-2-3h-3l3-7 4-5 2-3z" fill="#F2EBBF"/>
<path transform="translate(749,530)" d="m0 0h10l-4 10-9 6-16 3-1 3 11 2-4 1-11-1-2-2h2l-2-4 1-2-2-1v-2l7-3 8-1v-2l7-3z" fill="#8F9A90"/>
<path transform="translate(313,602)" d="m0 0h1v8l-3 10-7 10-8 6-14 3-9-1-10-6 3-1h20v-2l12-4 6-4 4-7 4-9z" fill="#5F8C96"/>
<path transform="translate(736,437)" d="m0 0h2l2 10h2l1-9h4l2 8 2-8h2l-1 7-2 8h2l3-8 4-2h5v-3h-5l-4 2 2-4h8l1 1v12h-9l2 3v3h-2l2 7v8l-1 6-2-4-3-17h-11v-3l2-1 1-9-3 7h-3l-3-10z" fill="#5EACC3"/>
<path transform="translate(613,532)" d="m0 0h2v4h-2v16l-5-1-5 3-15 15h-2l-1 3-6 5-5 5-8 7-4 4-8 4-11 1-5 3-1 5-4-2v-4l1-4 7-2h9l7-3 10-7 7-8 8-7 10-10 8-7 8-6h2l1-12z" fill="#67706A"/>
<path transform="translate(284,481)" d="m0 0h9l11 4 5 5 7 8 3 5 3 19 1 8h-3l-2-9v-8l-3-11-6-9-3-2v-2l-4-1-9-3h-8l-10 3-7 6-4 6-4 16 2 11 5 9 3 3 5 7-4-2-8-7-3-6-2-9v-17l3-7 4-4 4-5 6-5z" fill="#788884"/>
<path transform="translate(798,640)" d="m0 0 3 1 2 6v7l-3 10-7 12-10 14-6 7-9 11-6 7-9 11-8 7-6 2h-12l-10-5-5-4 1-2 11 7 9 2 10-2 5-4 2-3h2l2-4 9-12 13-15 12-16 6-9 5-11v-12z" fill="#5DADC6"/>
<path transform="translate(552,640)" d="m0 0h1v14l2 15-6-2-4 1h-8l-10-5v-2l10-2v-4l8-6 3-3 1-3z" fill="#659097"/>
<path transform="translate(742,529)" d="m0 0 7 1 1 2-9 5h-4v2l-13 4h-2v2l3 1-1 3 1 5h-6l-3-4-4-12-3-4v-3l16 4 15-5z" fill="#D0BABA"/>
<path transform="translate(668,547)" d="m0 0h1v9l-4 9-4 5-8 4-9 1-12-4-8-6 2-1 6 2h13l10-4 6-4 6-8z" fill="#656E69"/>
<path transform="translate(1150,369)" d="m0 0h12l5 6v2h-7v-3l-8 1-1 1v12l1 3 8-1 1-4 6 1-2 6-4 3h-9l-6-3-3-5v-11l3-5z" fill="#111212"/>
<path transform="translate(503,369)" d="m0 0h12l4 4 1 4h-7l-1-2h-7l-1 2v11l2 2h7l1-4 6 1-1 5-5 4h-9l-6-3-3-6v-10l4-6z" fill="#111"/>
<path transform="translate(428,369)" d="m0 0 2 1 2 10 3 10v3l-13 8-1 5 10 3 4 2h-9l-8-2-4-2 1-5v-4-2l6-1 6-24z" fill="#E5CE91"/>
<path transform="translate(605,701)" d="m0 0 6 2h3l-5 5-12 6-11 4-6 4h-3v2h-3v5h3v2l8 1 1 2h-2v2h-20l4-7 3-1 1-3-3-2 4-2h4l2-4 11-6 6-4h2v-2z" fill="#040202"/>
<path transform="translate(463,512)" d="m0 0h1l3 19v9l3 12 1 7v8l4 1-3 5-1 11h-2l-2-19-3-7-3-13-2-10 1-7h2z" fill="#92998C"/>
<path transform="translate(417,347)" d="m0 0h10l12 5 7 6-1 2h-2l-5-5-9-4h-13l-7 2-8 7-7 10-1 3v10l3 8 2 8 6 8 2 1v2l-4-2-4-5-4-4-4-10-1-7v-8l3-9 4-8 9-6z" fill="#AA9366"/>
<path transform="translate(622,681)" d="m0 0 3 1-2 7 4 1-3 3-10 4-3 2-1 3-4 1h-3l-5 2v2l-7 4h-3l1-6 8-5h2v-2l5-1v-3h-3v-2l10-3 9-6z" fill="#701619"/>
<path transform="translate(282,710)" d="m0 0h7v6l11 11 14 9 12 8 16 8 3 3h-8l-5-4-9-5-16-9-6-5-10-6-12-10 1-5z" fill="#DAE3DB"/>
<path transform="translate(650,360)" d="m0 0h1v9h5v5h-5v17h5l-1 5h-8l-3-3v-19h-3v-5h3v-5z" fill="#121111"/>
<path transform="translate(399,557)" d="m0 0 2 3 5 17 3 9 5 6 12 6 4 1h13l9-3 4 1-9 6-8 2-14 1-11-9-7-6-3-9-5-21z" fill="#8E968B"/>
<path transform="translate(32,11)" d="m0 0h11l6 4 4 6 1 9-4 8-6 4-3 1h-8l-7-4-4-5-1-3v-9l4-6 5-4zm1 3-5 3-4 6v7l3 6 7 4 9-1 6-5 2-5-1-7-4-6-4-2z" fill="#B2DCEA"/>
<path transform="translate(387,581)" d="m0 0h1v8l-5 13-4 5-11 6h-3l5 6-1 2-6-4v-4l-11-3-1-3 17-3 10-6 7-11z" fill="#646E69"/>
<path transform="translate(639,456)" d="m0 0 4 2 4 8 5 26v8l-3 8v2l-10 1-4 1-2-2 9-3 3-14-6 3v-3h2l3-10 1-3v-10l-4-11z" fill="#638E96"/>
<path transform="translate(290,492)" d="m0 0 7 1 2 4 11 4 2 5-2 1-4-3-1 4h-2l-1 3h-2v2l-8 4h-5-3l4-5 3-2 1-7h2l-1-6-4-2z" fill="#040202"/>
<path transform="translate(385,565)" d="m0 0 2 1 3 6 2 2 1 4 1 19-4 10-7 9-5 3v6l-4-2-3-5 1-4 9-5 5-7 3-12v-11l-4-12z" fill="#8CBBC6"/>
<path transform="translate(968,18)" d="m0 0h8l5 5v10l4 3v3h-3l-4-4h-11l-4-6 1-7z" fill="#EAA9D8"/>
<path transform="translate(381,712)" d="m0 0h2v2l5 2v2h2l-1 6-3 5-3 2 1 2-9-1-3-1v-2l-5-1-4-2 3-2 7-3 4-2 2-5z" fill="#5D8F9A"/>
<path transform="translate(33,14)" d="m0 0h9l6 4 3 7-1 7-5 6-5 2-9-1-5-4-2-5v-7l4-6zm1 2-1 1v5h-5l-1 1v8h6v6h8l1-1v-5h5l1-1v-7l-6-1v-5l-1-1z" fill="#F5ACE2"/>
<path transform="translate(759,454)" d="m0 0 3 1 1 19 1 7v8h-8l-3-19-4-9-1-1-12-1v-1h17l3 9 1 7 1-2v-8l-1-7h2z" fill="#90BCC6"/>
<path transform="translate(700,487)" d="m0 0h2l2 13 1 9 2 5 2 10 3 5 7 2 16-2 7-2v3l-14 5-4 1-11-3-4-2 1 4-4-2-5-23-1-13z" fill="#C6D6DB"/>
<path transform="translate(772,612)" d="m0 0 8 1v1l-13 2-7 5-7 10-4 4-11 15-7 13-7 10-3 3-7 11-3 3h-2l2-5 3-6 3-3 3-6 4-1 2-6 6-10 4-7 5-5 9-11 3-3 6-8 5-4z" fill="#C7D6DB"/>
<path transform="translate(758,594)" d="m0 0 1 4-6 11-8 6-10 2-13-4-6-4 2-1 2 1h17l8-3 10-8z" fill="#5D6966"/>
<path transform="translate(319,503)" d="m0 0 3 4v2h3l8 16 2 11-3 11-5 2-1-4 1-12-6-21v-3h-2z" fill="#8EBBC6"/>
<path transform="translate(601,440)" d="m0 0h5v9l-2 1-1 4-5 2-11 11-11 9-17 16-5 7h-2l1-3h2l1-5 7-6-1-5 7-2 3-3v-7l8 1 3-1v-2l8-7 7-8h2v-10z" fill="#E4B8AD"/>
<path transform="translate(1051,369)" d="m0 0h7l1 2 1-2h8l-1 5-2 2-5 1-1 2-1 16h-7z" fill="#101314"/>
<path transform="translate(611,462)" d="m0 0h6l3 4-1 4-10 8-2 2h-2l-4 4-4-2v-4l-3 2 2-4 7-5 2-4z" fill="#D8B45C"/>
<path transform="translate(795,642)" d="m0 0 2 1-2 6-10 14-9 11-7 10-5 3 1-4h2l1-5 6-9 4-7 6-10 2-4 5-3z" fill="#8A978E"/>
<path transform="translate(511,560)" d="m0 0 3 3 3 17 7 12 3 4-1 3-3-1-5-7-4-2-2-7-4-4-1-5-4-2-1-4 2-2 5 1z" fill="#FDA220"/>
<path transform="translate(1574,15)" d="m0 0h7l7 4 3 6v7l-4 6-5 3h-9l-6-4-2-3v-11l5-6zm0 2-5 3-3 5v7l1 2 7-2 1 1h5l3-1 5 2 1-2v-8l-5-6-2-1z" fill="#0B0909"/>
<path transform="translate(770,369)" d="m0 0h7 2 7l-1 7h-6l-1 2-1 17h-7z" fill="#121212"/>
<path transform="translate(392,683)" d="m0 0h1v11l-4 10-4 9-5 1-3 5-2-1-3 1-5 1-4-1-1 1h-7l-1-4 4-1h9v-2l12-4v3l5-8 6-14z" fill="#E4CD8D"/>
<path transform="translate(439,662)" d="m0 0 1 4 4 13 4 5h-6l-7-2h-7l-10 3-6 3-8 12-1 12 2 10-3-4-3-10 1-5 4-9 8-10 10-5 13-1h4l-1-15z" fill="#D7E1DB"/>
<path transform="translate(589,610)" d="m0 0 15 1 9 4 8 5 8 7 3 4v3h-2l-1 3-3-6v-2h-4l-2-5-10-7-4-3h-25l-4 3-6 3-7 6-3 5-5 1 6-8 11-9 6-3z" fill="#D2B8BA"/>
<path transform="translate(862,594)" d="m0 0 1 4-6 10-6 5-8 3h-8l-9-3v-2l11-1 12-5 11-10z" fill="#38565B"/>
<path transform="translate(647,468)" d="m0 0 3 4 6 11 2 7v12l-2 10-6-1-2-4 3-7v-10l-4-18z" fill="#8CBBC6"/>
<path transform="translate(519,463)" d="m0 0v3l-13 7-2 2-9 2h-9l-14-4-3-3 5-5 5 1 1 3 4 2 13 1 10-3 1-2z" fill="#CA9644"/>
<path transform="translate(668,735)" d="m0 0 2 1-14 8-16 8-3 3h-12l3-1 1-4 8-5 8-2 14-7z" fill="#5E645F"/>
<path transform="translate(518,655)" d="m0 0 4 5-2 5-3 7-2 7-6 11-9 8-9 4-3 1-20 1-5 2 2-4 3-2 25-2 9-5 5-5 3-4 4-10 2-14z" fill="#5DADC6"/>
<path transform="translate(480,487)" d="m0 0h3v2l5 2 7 6 10 7 4 1h11l9-4 8-7 4-7 1 4-6 8-7 6-8 4h-10l-19-7-6-7-4-2z" fill="#5B8E9A"/>
<path transform="translate(734,367)" d="m0 0 2 3-1 9-5 5-2 1h-12l1 6v8l-5 5h-4l-5-6 1-4 1 2h8v-14l15-2 4-5z" fill="#EAEDEB"/>
<path transform="translate(897,369)" d="m0 0h6l1 2 2-2h7l-1 7h-6l-2 4-1 15h-6z" fill="#090909"/>
<path transform="translate(329,615)" d="m0 0 2 1-7 10-6 16-1 4v20l3 13v6h2l4 11 1 5-3-3-7-16-3-13-1-15 2-13 3-10 4-8z" fill="#929B8E"/>
<path transform="translate(484,359)" d="m0 0h6v36h-6z" fill="#050303"/>
<path transform="translate(669,547)" d="m0 0 3 1-1 11-4 9-5 5-7 4-4 1h-11l-12-6-4-3 1-4 9 6 10 3 9-1 8-4 5-7 2-6z" fill="#5B8E99"/>
<path transform="translate(857,438)" d="m0 0h6l2 1v4l2 1v-6h3v11l5-1 1-10h2v13h-8l-4-1-2 2-6-1-4-4v-6z" fill="#AACDD4"/>
<path transform="translate(630,634)" d="m0 0h2l4 8 4 16v15l5 2-2 2-10 3 1-15-1-2v-20l-3-6z" fill="#648E95"/>
<path transform="translate(756,539)" d="m0 0 1 4-1 4-5 6-6 2-8-1-8-2 1-4 16-3 7-5z" fill="#37525A"/>
<path transform="translate(529,426)" d="m0 0h5l6 7 1 2v14l-3 12-2 3v-13l-4-7-1-15z" fill="#CA9745"/>
<path transform="translate(651,405)" d="m0 0 1 4-4 8-7 6-10 4h-9l-6-2v-1l10-1v-2l11-4 5-2v-2l6-4z" fill="#385158"/>
<path transform="translate(669,537)" d="m0 0 2 2v8h-3l-1 4-7 9-11 6-4 1h-13l-8-3-1 4-6-5-3-4-2-10 1-4 4 9 4 5 7 4 5 1h14l10-5 7-8 3-7z" fill="#939A8D"/>
<path transform="translate(454,692)" d="m0 0 4 2 3 10v3h2l-1 7-4 13-3 5h-2v3h-3v2h-4l-1 3-4 1h-12l-6-2v-1l14-1 12-6 7-8 3-8v-9l-4-11z" fill="#6E9296"/>
<path transform="translate(552,732)" d="m0 0 1 3-2 16h2l1 4h26v1h-39l-1-1v-21l4 4 4 10 1-9h2v-6z" fill="#94B0B2"/>
<path transform="translate(513,713)" d="m0 0 7 1 10 3 2 2 2 7 4 2 3 8v13l-1 6h-4l-1-7v-9l-2-11-6-7-8-5-6-2z" fill="#D9E2DB"/>
<path transform="translate(661,582)" d="m0 0h13v1l-11 1-1 4-8 3-2 2h-3l-2 5-5 9v22l4 2 1 4-6-5-2-7v-21l4-6 5-7z" fill="#CBCACD"/>
<path transform="translate(635,438)" d="m0 0h7l2 5 2 1v-6h2l1 10h4l1-10h2v13h-7l-5-1-1 1h-7l-3-3v-8z" fill="#ABCDD6"/>
<path transform="translate(648,399)" d="m0 0h4l-2 4-2 5-3 1-1 4h-2v2l-9 2-1 2-7 2h-14l-4-2 24-5 11-8z" fill="#BECED3"/>
<path transform="translate(534,374)" d="m0 0h7l3 3v10l-4 4h-6l-2-1-1-3v-9z" fill="#ABD8E7"/>
<path transform="translate(669,374)" d="m0 0h7l3 3v9l-2 4-2 1h-6l-2-1-1-3v-10z" fill="#ADD9E7"/>
<path transform="translate(556,369)" d="m0 0h6l1 3 4-2-3 6-1 19h-7z" fill="#111010"/>
<path transform="translate(847,598)" d="m0 0 5 2 2 2-9 6-7 2h-13l-7-3v-1l15-2 13-5z" fill="#C1D4DA"/>
<path transform="translate(272,504)" d="m0 0h1l3 10 4 5v4l-7 3-5-1-3-7v-6l1-2 5-2z" fill="#040202"/>
<path transform="translate(741,88)" d="m0 0h4l2 2 2-2 5 1h2l6-1 1 3-5-1v2l5 1v4l-5 1-2-3 5 1v-2l-6-1v4l-6 1h-4-5l-1-1v-7z" fill="#A0A8A4"/>
<path transform="translate(388,580)" d="m0 0 2 1v9l-3 12-6 8-7 4h-2l1 6 5 8-1 2-10-13-2-4 14-7 4-7 4-10z" fill="#5B8E9A"/>
<path transform="translate(643,493)" d="m0 0h2l-1 11-2 4-7 3-4 2-6 4 5-10 4-5 2-5 3-3h2z" fill="#353737"/>
<path transform="translate(643,85)" d="m0 0 3 1 2 5 2-3 1-3h4l1 5 2-2 5 1 1 1v6l-2 2-5-1-1-1-1 2h-3l-1-4-2 4h-2l-2-5-1 5h-1z" fill="#C0D1CD"/>
<path transform="translate(620,714)" d="m0 0m-27 0 2 1-17 10h-2v3l4 1h8l17-8 12-6h3l1 3-8 4h-6l-4 4-12 5-6 5v-3l-8-2v-2h-3l-1-3 1-2h3v-2l8-4z" fill="#313030"/>
<path transform="translate(742,404)" d="m0 0 2 1 1 7 1 5 2 9 2 11 1 4-2 7-2-4v-6l-3-1-2-10v-14l-2-2v-5z" fill="#65939D"/>
<path transform="translate(564,682)" d="m0 0 5 2 12 7 12 2v1h-7v2l7 2-2 4-8 4v-2h2l-2-4-10-8-9-8z" fill="#658D94"/>
<path transform="translate(456,410)" d="m0 0 1 2-3 9-5 5-5 3-6-1-8-3 2-2 8-2 11-6z" fill="#939A8D"/>
<path transform="translate(346,548)" d="m0 0h22l13 8-1 2-5-3-12-3-1-1h-9l-13 5-2 3-5-1 4-6z" fill="#C6D6DB"/>
<path transform="translate(1251,27)" d="m0 0 6 1 5-1 2 1 7-1h7v8l-2-1v-6l-2 1-1 6-3-1-4 1h-4l-5-1 2-1 2 1v-3h-5v3l-4 1-2-1v-6z" fill="#A58163"/>
<path transform="translate(88,25)" d="m0 0 7 1 1 2 2-3 3 1 1 2 4 2-1 6h-2l-1-2-1 3-5-1-1-3h-5v4h-4v-11z" fill="#BAD5DF"/>
<path transform="translate(408,345)" d="m0 0h21l6 2 4 2 5 3 4 5 3 2h-5l-7-6-12-5h-10l-14 5-5 3 1-4 4-3h2l1-3z" fill="#CCD0D2"/>
<path transform="translate(1526,20)" d="m0 0h21l-1 6-1 2h-18z" fill="#F1AADD"/>
<path transform="translate(239,583)" d="m0 0h1v13l3 9 2 4 2 1v2l3 1 3 7 7 4 1 4 2 1-4-1-6-3-7-7-5-7-2-5-1-1-1-12z" fill="#C5D6DB"/>
<path transform="translate(701,634)" d="m0 0 1 2-3 6h-2v2h-2l-1 3-8 5-4 1h-10l-9-4v-1l14 1 1-2 10-2 8-6z" fill="#353232"/>
<path transform="translate(450,433)" d="m0 0h5l1 9v18h-2l-2-8-4-2-2-10 3-6z" fill="#AFDDED"/>
<path transform="translate(459,438)" d="m0 0h1l1 14 3 6 3 3v9l4 5h-3l-8-8-2-6-1-7v-11z" fill="#CA9644"/>
<path transform="translate(581,374)" d="m0 0h5l1 1v21l-2-2-3-8-1 12h-7v-2h5v-20z" fill="#F8F8F7"/>
<path transform="translate(702,696)" d="m0 0h1l1 5v10l-2 1-3 5-11 8-9 6h-2l1-3 5-1 2-4 4-5h3l1-3h2l2-5 3-4z" fill="#646D68"/>
<path transform="translate(694,670)" d="m0 0 4 2 5 8 1 6-2 13-1 7-6 9-3 3-2-1 1-4-2-1 8-9 2-1 1-19v-4l-2-1-2-5z" fill="#333232"/>
<path transform="translate(584,609)" d="m0 0h19l7 2 10 6 5 4 2 4-4-2-6-5-10-5-11-2h-7l-12 3-8 5-8 7-5 5 2-5 5-5 7-6 8-5z" fill="#C6D6DB"/>
<path transform="translate(1195,372)" d="m0 0h3l-3 10-8 22-3 4-3 1h-7l-1-2 9-3 5-12 6-16z" fill="#ECECEB"/>
<path transform="translate(1010,433)" d="m0 0h2v18h-8l-3-3v-8l2-2 7 1z" fill="#1C1E1F"/>
<path transform="translate(605,701)" d="m0 0 6 2h3l-5 5-12 6-9 1 2-4 6-4h2v-2z" fill="#0C0A0A"/>
<path transform="translate(706,611)" d="m0 0h1v16l-2 6-5 10-4 5-7 4-3-1 8-5 1-2h2v-2h2l1-4v-2l-7 7-8 4-7 1 1-2 12-5 8-7 1-2h2l3-10z" fill="#656E69"/>
<path transform="translate(451,362)" d="m0 0h4l3 10-3 3-1 10-3-2-2 2-1-2-2 3 1-8z" fill="#DDDBD5"/>
<path transform="translate(638,415)" d="m0 0 2 1-10 5h-4v2l-6 2 2 1h9l10-3-3 3-10 3h-7l-9-3-7-4v-1l20-1 7-1 1-3z" fill="#656E69"/>
<path transform="translate(460,716)" d="m0 0h2l-1 8-3 7-7 8-7 4-4 2h-8l-5-3-1-2h15l4-1 1-2h4v-2h3v-3h2l2-5z" fill="#5CACC4"/>
<path transform="translate(926,438)" d="m0 0h6l3 2v8l-3 3-7-1-2-2v-7z" fill="#2C2A29"/>
<path transform="translate(403,439)" d="m0 0h7l1 4-2 3-9 4h-3l-6-4v-2z" fill="#7AB5C5"/>
<path transform="translate(704,438)" d="m0 0h7l2 2v8l-3 3-7-1-2-3 1-7z" fill="#272F30"/>
<path transform="translate(968,18)" d="m0 0h8l5 5v10l4 3v3h-3l-4-4h-11l-4-6 1-7zm1 2-4 4v5l4 4h6l4-4-1-7-3-2z" fill="#2C2C2C"/>
<path transform="translate(552,640)" d="m0 0h1l-1 22-6 1-1 1-9-1v-2l9-5 4-7 2-7z" fill="#646B66"/>
<path transform="translate(307,723)" d="m0 0 12 1 3 6-1 5-3 2-5-3v-4h-2l-2-2-4 1-2-1v-3z" fill="#D2BABA"/>
<path transform="translate(393,666)" d="m0 0h1l1 13v23l-3 7-2 3-4 2-3-1 3-3 3-7 3-9v-12z" fill="#CCD4D5"/>
<path transform="translate(339,610)" d="m0 0 7 1 6 2 7 4-3 1h-11l-7 2h-7l2-4 4-2z" fill="#D7BA56"/>
<path transform="translate(381,490)" d="m0 0h2l8 32 5 1-1 2v8l1 1v8h-1l-2-11h-2l-3-6v-8h-2l-5-20z" fill="#68949E"/>
<path transform="translate(497,401)" d="m0 0 16 2 3 4-7-1-2-1h-13l-17 5-3 3-5 2-6 8-1-4 6-7 6-5 16-4h7z" fill="#D3DCD8"/>
<path transform="translate(966,365)" d="m0 0h10l3 2v6l-4 3h-9z" fill="#ACDBEA"/>
<path transform="translate(403,460)" d="m0 0h7l1 5-6 3 3 16v8l-2-4-5-20-1-1v-5z" fill="#5B8E9A"/>
<path transform="translate(713,365)" d="m0 0h10l3 3v5l-4 3h-9z" fill="#ADDDED"/>
<path transform="translate(641,522)" d="m0 0 4 2 1 6h-5l-1 6-3 2h-3l-2-4 1-7 3-3z" fill="#F2EBBF"/>
<path transform="translate(528,601)" d="m0 0 3 1v2l-9 3-10 5-11 8-5 1-5-5-2-6 7 7 5-2 12-8 9-3 2-2z" fill="#E5CE94"/>
<path transform="translate(606,543)" d="m0 0h2v4l-8 6-17 16-7 7-2-1 6-8 13-13 8-6 1-2h2v-2z" fill="#324F58"/>
<path transform="translate(658,380)" d="m0 0h1l2 9 1 3-4 18-5 10-4 2 2-4 4-9 2-13-2-1v-10l2-4z" fill="#8DB8C3"/>
<path transform="translate(718,555)" d="m0 0 3 1-3 3-3 1-4 6-3 5-5 9-1 8-2-3 1-11 4-9 4-4 2-3z" fill="#C6D6DB"/>
<path transform="translate(492,427)" d="m0 0h2v2h3l-1 8-2 1h-9l-3-2 1-4 2-3z" fill="#D7BA56"/>
<path transform="translate(470,413)" d="m0 0h2l-2 5-5 6-2 5h-2v8l-2 2-3 12h-1v-18l2-2 3-8h3l2-4z" fill="#D7BA56"/>
<path transform="translate(705,85)" d="m0 0h8l2 2v9l-2 2h-8z" fill="#D8E6E4"/>
<path transform="translate(987,367)" d="m0 0 2 3-1 9-6 5-13 1-1 13h-7v-2h5v-14l15-2 3-1z" fill="#EEEFED"/>
<path transform="translate(253,627)" d="m0 0 10 2 23 1-4 2h-20l9 6 6 3v1h-6l-8-4v-2l-4-2z" fill="#95C0CA"/>
<path transform="translate(284,497)" d="m0 0h4l2 6v7l-5 3h-3l-1-2v-11z" fill="#67706A"/>
<path transform="translate(309,622)" d="m0 0 1 2-4 7-8 6-8 3-14 1-10-5-5-5 5 2 7 4 11 1 12-3 9-7z" fill="#5DADC6"/>
<path transform="translate(412,395)" d="m0 0h9v1h-6v2l2 1-2 4v4l5 2 15 2v2h-18l2-2-10-5-1-3z" fill="#CFB65B"/>
<path transform="translate(488,567)" d="m0 0h6l2 2-4 6-4 2h-9l2-6z" fill="#E6CF93"/>
<path transform="translate(407,423)" d="m0 0h7l19 8 5 6 3 9-2 2-5-12-8-5-9-3-11-1z" fill="#708A8A"/>
<path transform="translate(511,543)" d="m0 0 2 1-3 8-1 11h-7l-4-2h-8l-12 5-3 2 2-4 3-4 6-2h15l2 2h4l2-12z" fill="#E3CC9A"/>
<path transform="translate(706,597)" d="m0 0 5 5 10 6 3 2-6-1-2-1h-7l-2 3-1 11-4 10-1-3 3-9v-10l-2-10h2l3 4v2h2l-3-6z" fill="#939A8D"/>
<path transform="translate(863,604)" d="m0 0 2 1-2 5-7 7-7 4-13 1-11-3-7-5-2-4 3 1v2l15 6h8l10-3 7-6h2z" fill="#5DADC6"/>
<path transform="translate(268,541)" d="m0 0 5 4 8 3v3l6 5 2 4 5 3-2 1-11-5-6-8-7-8z" fill="#99B9C2"/>
<path transform="translate(593,485)" d="m0 0 5 1-1 4-7 7-5 6-4-2 1-5 5-2z" fill="#F8B6A9"/>
<path transform="translate(736,437)" d="m0 0h2l2 10h2l1-9h4l2 8 2-8h2l-1 7-2 6-4-1-1-6-3 7h-3l-3-10z" fill="#232D30"/>
<path transform="translate(572,468)" d="m0 0 5 1 2 2-4 4-3 5-12 11-3 3-3 5h-2l1-3h2l1-5 7-6-1-5 7-2 3-3z" fill="#C9D4D5"/>
<path transform="translate(709,573)" d="m0 0 4 5-3 5-2 3 4 7 3 3-1 2-4-1-3-4-2-5v-9l3-5z" fill="#FAB4AC"/>
<path transform="translate(757,438)" d="m0 0h8l1 1v12h-9l-2-1v-5l4-2h5v-3h-5l-4 2z" fill="#424949"/>
<path transform="translate(428,369)" d="m0 0 2 1-1 11-5 17h-9v-2l6-1 6-24z" fill="#D8D8CF"/>
<path transform="translate(712,537)" d="m0 0 4 1 9 9v3 4h-6l-3-4z" fill="#8CBBC6"/>
<path transform="translate(413,362)" d="m0 0 9 1-1 10-2 10h-2l-4-19z" fill="#C6984A"/>
<path transform="translate(533,85)" d="m0 0h3l3 8 3-8h3v13l-3-1-1-2-1 3h-3l-1-3-1 3h-2z" fill="#A1BEBD"/>
<path transform="translate(962,89)" d="m0 0h7v2l3-2h6l1 9h-7l-2-2-1 2h-2v-8l-3 1-1 7h-1z" fill="#9EA7A4"/>
<path transform="translate(1229,24)" d="m0 0h1v11h-5-4l-5-1v-6l5-1 2 1 6-1z" fill="#927E64"/>
<path transform="translate(693,668)" d="m0 0 4 1 6 5 2 4 1 16v11l3 12-3-3-2-6-1-7v-17l-4-10-6-5z" fill="#85928A"/>
<path transform="translate(762,591)" d="m0 0h1v8l-2 9-10 11-12 3-9-1-5-2 3-1 3 1h11l10-5 5-6 4-10z" fill="#5DADC6"/>
<path transform="translate(368,553)" d="m0 0 9 2 5 4 3 4-1 2-2-1 2 5v9h-1l-3-10-5-6-2-5-5-3z" fill="#CEBABA"/>
<path transform="translate(261,498)" d="m0 0 1 4-1 2-1 15 3 11 5 7 2 2 5 7-4-2-8-7-3-6-2-9v-17z" fill="#6F8A8C"/>
<path transform="translate(764,530)" d="m0 0 4 1-2 15-5 10-6 5-1-3 5-6 4-9v-12z" fill="#5DADC6"/>
<path transform="translate(551,377)" d="m0 0 2 2v11l-4 6-5 3h-8l-6-3 2-1h9l6-3 3-5z" fill="#EEEFED"/>
<path transform="translate(662,560)" d="m0 0 2 1-4 6-5 4-2 1h-14l-3-3 12-1 9-4z" fill="#333232"/>
<path transform="translate(645,480)" d="m0 0h1l2 8-1 17-3 4-4-1 2-1 3-14-6 3v-3h2l3-10z" fill="#636C67"/>
<path transform="translate(670,438)" d="m0 0h7l2 2v5h-9l1 3h5l3-1-2 4h-6l-3-3v-7z" fill="#7B8383"/>
<path transform="translate(1575,20)" d="m0 0h6l2 3-1 6-3 3-4-1-2-2v-7z" fill="#0D0C0C"/>
<path transform="translate(494,404)" d="m0 0h13l17 7 2 3-9-3-8-3-4-1h-11l-10 2-7 3-3-1 9-4z" fill="#E5CE93"/>
<path transform="translate(807,85)" d="m0 0h2l2 5 2-5h3l2 7 2-7h2l-2 12-3 1-3-8-3 8-3-3z" fill="#BED2C8"/>
<path transform="translate(680,89)" d="m0 0h5l1 3h-2v-2h-3v6h3v-2l9-2v-2l-6 1 1-2h6l1 1v8h-7-3l-6-1-1-6z" fill="#C4D7D2"/>
<path transform="translate(418,681)" d="m0 0 3 1-8 5-8 11-2 8 1 10 1 6-3-4-3-10 1-5 4-9 8-10z" fill="#C8D7DB"/>
<path transform="translate(715,384)" d="m0 0h13v1h-12l1 6v8l-5 5h-4l-5-6 1-4 1 2h3v2h7z" fill="#AEDEEE"/>
<path transform="translate(686,377)" d="m0 0 2 2v11l-4 6-5 3h-8l-4-2v-1l11-1 5-4 2-5z" fill="#F0F1EF"/>
<path transform="translate(635,411)" d="m0 0m-1 1m-1 1m-2 1 2 1-1 4-7 2h-14l-4-2z" fill="#CACBCE"/>
<path transform="translate(1e3 374)" d="m0 0h6v2l-5 3-1 19h-7l-1-2h5v-18l1-3z" fill="#E3E5E2"/>
<path transform="translate(787,372)" d="m0 0h2l-2 7h-6l-1 3-1 16h-7v-2h5v-18l2-3 6 1v-3z" fill="#E9E9E7"/>
<path transform="translate(912,372)" d="m0 0 4 1-2 6h-6l-1 2-1 17h-7l-1-2h6v-19l2-2 6 1z" fill="#F3F2F1"/>
<path transform="translate(749,88)" d="m0 0 5 1h2l6-1 1 3-5-1v2l5 1v4l-5 1-2-3 5 1v-2l-6-1v2l-6 1-1-7z" fill="#939893"/>
<path transform="translate(457,506)" d="m0 0 1 4 3 13-1 7-2 3-2-9-3-11 1-3 2-1z" fill="#656E69"/>
<path transform="translate(584,720)" d="m0 0h2l-1 3h-2l1 4 3-1 2 1 1-2 10-3 3 1-15 7h-8l-4-2v-3z" fill="#656E69"/>
<path transform="translate(549,643)" d="m0 0h1v6l-5 8-6 4-4-1 2-1v-4l8-6 3-3z" fill="#92998D"/>
<path transform="translate(1521,15)" d="m0 0 4 1v2h24l-1 9-3 1 2-8h-21l1 8-2-1-2-9-2-1z" fill="#474947"/>
<path transform="translate(804,432)" d="m0 0h14v3h-6v16h-3v-17h-6z" fill="#37474A"/>
<path transform="translate(393,364)" d="m0 0 1 2-2 5v15l3 10 5 5 4 6 2 1v2l-4-2-4-5-4-4-4-10-1-7v-8l3-9z" fill="#929B8F"/>
<path transform="translate(571,88)" d="m0 0 8 1v9h-4l-5-1-1-1v-6z" fill="#C1CCC4"/>
<path transform="translate(405,485)" d="m0 0 2 3 2-3 4 18v7l-5-1v-8l-3-12z" fill="#335059"/>
<path transform="translate(491,362)" d="m0 0h2v36h-8v-2l5-1z" fill="#FAFAF9"/>
<path transform="translate(381,712)" d="m0 0h2v2l4 1v2l-18 9 2 3-7-2-1-2 10-4 4-2 2-5z" fill="#939A8D"/>
<path transform="translate(747,408)" d="m0 0 5 5 6 18v6h6v1h-8l-2-5-4-16z" fill="#8DBAC4"/>
<path transform="translate(861,386)" d="m0 0 4 1-3 6-5 4-3 1h-9l-5-2v-1l14-1 5-4z" fill="#E9E9E7"/>
<path transform="translate(844,364)" d="m0 0h7l2 3-9 2-2 4-1 12-2-1-1-3v-9l3-5z" fill="#E1E2DF"/>
<path transform="translate(610,616)" d="m0 0 6 2 8 5 5 4 3 4v3h-2l-1 3-3-6v-2h-4l-2-5-10-7z" fill="#DAA4BF"/>
<path transform="translate(671,85)" d="m0 0h2v13h-6l-2-2v-6l2-2h4z" fill="#888987"/>
<path transform="translate(840,546)" d="m0 0 7 1 7 4 7 10 3 6v5l-5-5-3-8-4-5v-2l-5-2-7-3z" fill="#C6D6DB"/>
<path transform="translate(1068,371)" d="m0 0 2 1-1 6-7 2-1 4-1 14h-7v-2h6v-19l2-2 5-1z" fill="#F3F2F1"/>
<path transform="translate(918,85)" d="m0 0h8l1 1v5l-2 2h-5v5h-2z" fill="#B6B7AE"/>
<path transform="translate(1546,33)" d="m0 0 1 2h-2v5l-5 1-1-4 1-1h-8v5h-5v-5l2-2z" fill="#7A7774"/>
<path transform="translate(460,727)" d="m0 0 1 3-3 5-4 5h-2l-2 4-9 3-2-2 9-5 8-7z" fill="#91BDC7"/>
<path transform="translate(513,713)" d="m0 0 7 1 10 3 2 2 2 7 4 2 1 7-3-4v-3l-4-1-5-6-8-5-6-2z" fill="#C6D6DB"/>
<path transform="translate(812,376)" d="m0 0 2 2 1 9-20 1v-4h17z" fill="#DCDDD9"/>
<path transform="translate(793,505)" d="m0 0h6l2 3-1 5-2 2h-3v3h-2z" fill="#A89992"/>
<path transform="translate(725,437)" d="m0 0h2v14h-8l-3-3v-10h2l1 11 4-1 1-10z" fill="#1E2A2D"/>
<path transform="translate(591,435)" d="m0 0h7v18l-8 8-1-2 2-4 3-1 1-2h2v-15l-4 1v15l-3 1z" fill="#CEDBD9"/>
<path transform="translate(565,374)" d="m0 0h6v2l-4 2-1 2-1 18h-7v-2h5v-20z" fill="#EDEFED"/>
<path transform="translate(1096,374)" d="m0 0h6v2l-4 2-1 2-1 18h-7l-1-2h6v-20z" fill="#F6F6F5"/>
<path transform="translate(661,582)" d="m0 0h13v1l-11 1-1 4-8 3-2 2h-3l2-5z" fill="#DAD0C2"/>
<path transform="translate(639,456)" d="m0 0 4 2 4 8 3 16v4h-2l-1 2-1-2-1-16-4-11z" fill="#9EA096"/>
<path transform="translate(593,437)" d="m0 0h4v15l-4 1-1-3v-12z" fill="#B1DCEA"/>
<path transform="translate(1080,374)" d="m0 0h6v2l-4 2-1 2-1 18h-7v-2h5v-20z" fill="#F5F6F4"/>
<path transform="translate(800,573)" d="m0 0h1l2 13 6 10 7 8-2 1-10-10-5-13v-7z" fill="#C4D6DC"/>
<path transform="translate(820,433)" d="m0 0h2l1 5h6l1 1v12h-2v-11l-5 1-1 10h-2z" fill="#131F1F"/>
<path transform="translate(689,438)" d="m0 0h2l3 8 3-8h2v6l-6 12h-4v-2h3l-2-10z" fill="#1F2729"/>
<path transform="translate(478,378)" d="m0 0 2 2v7l-17 1-2 1-1-5h18z" fill="#DFDFDC"/>
<path transform="translate(417,347)" d="m0 0h10l12 5 7 6-1 2h-2l-5-5-9-4-12-1z" fill="#7C847B"/>
<path transform="translate(331,558)" d="m0 0 2 1-5 15v9l3 11-4-4-2-8 1-14 3-5z" fill="#C6D6DB"/>
<path transform="translate(410,460)" d="m0 0h4v5l-3 1-1 8-1 1-1 9h-1l-2-13-1-3 6-3z" fill="#335059"/>
<path transform="translate(1010,88)" d="m0 0h12l2 2v3h-6l3-1v-2l-3 1v4h5l-1 3-6-1v-7h-4v8h-2z" fill="#CDD7D0"/>
<path transform="translate(37,19)" d="m0 0 2 1v5l6 1v2l-5 1-1 5h-3l-1-5-5-1v-2l5-1z" fill="#F2AADE"/>
<path transform="translate(582,383)" d="m0 0h1l5 17 3 5-1 3-4-4-3-7-2 1v-12z" fill="#C6D6DB"/>
<path transform="translate(1079,85)" d="m0 0 2 3 5 1 1 6-2 3h-6z" fill="#A6A9A1"/>
<path transform="translate(1205,24)" d="m0 0h2l1 4 5-1 2 2-1 5-4 1h-3-2z" fill="#927B57"/>
<path transform="translate(711,609)" d="m0 0 11 6v1l-9-1v5h-2l-1 8-2 2 1-11v-8z" fill="#5DADC6"/>
<path transform="translate(434,362)" d="m0 0h2l2 8 4-2v7l-2 9-2-4-4-14z" fill="#D2D1C8"/>
<path transform="translate(1251,27)" d="m0 0 6 1 5-1-3 1v2l4 1-1 4-5-1 2-1 2 1v-3h-5v3l-4 1-2-1v-6z" fill="#727260"/>
<path transform="translate(375,623)" d="m0 0 6 5 7 12 3 8v6l-2-4-4-10-4-4-5-10z" fill="#CFBAB5"/>
<path transform="translate(239,583)" d="m0 0h1v13l3 9 2 4 2 1-1 2-5-2-3-5-1-12z" fill="#CAD9DB"/>
<path transform="translate(954,88)" d="m0 0 5 1 1 1v6l-2 2-5-1-1-1v-6z" fill="#9DA5A0"/>
<path transform="translate(1090,88)" d="m0 0 5 1 1 1v6l-2 2-5-1-1-1v-6z" fill="#99A19E"/>
<path transform="translate(851,88)" d="m0 0 5 1 1 1v6l-2 2-5-1-1-1v-6z" fill="#ADB4AE"/>
<path transform="translate(719,88)" d="m0 0 5 1 1 1v6l-2 2-5-1-1-1v-6z" fill="#ABB3B0"/>
<path transform="translate(392,655)" d="m0 0 2 3 4 15-1 9-2 1-1-4-2-19z" fill="#939A8D"/>
<path transform="translate(865,572)" d="m0 0 3 3 3 10v11l-2 1v-11h-2l-1-3-2 2z" fill="#91BDC7"/>
<path transform="translate(1071,85)" d="m0 0h3l4 10v3h-2l-1-4-5 1-1 3h-2l1-5z" fill="#DEE4D8"/>
<path transform="translate(483,88)" d="m0 0 5 1 1 7-2 2-5-1-1-1v-6z" fill="#AFB3AC"/>
<path transform="translate(144,28)" d="m0 0 5 1 1 1v7h-8l-1-4 1-4z" fill="#C2D7DD"/>
<path transform="translate(523,605)" d="m0 0 1 3-10 6-7 5-5 2h-3l6-5 14-9z" fill="#F2EBBF"/>
<path transform="translate(910,438)" d="m0 0h3l3 9 3-9 3 1-6 16-5 1v-2h3l-2-10z" fill="#282C2D"/>
<path transform="translate(656,372)" d="m0 0h2v5h-4v14h-3v-17h5z" fill="#EBEDE9"/>
<path transform="translate(562,85)" d="m0 0h1v13h-5l-2-2v-6l2-2h3z" fill="#A6A8A5"/>
<path transform="translate(1574,15)" d="m0 0h7l7 4 3 6v7l-2-2-2-8-5-4h-8l-5 3-2 4h-2l2-5 5-4z" fill="#282827"/>
<path transform="translate(635,651)" d="m0 0 2 2v19l-1 5 2 2-5 1 1-15-1-2z" fill="#656E69"/>
<path transform="translate(807,502)" d="m0 0 4 2 3 4 1-6h2v12l-3-1-4-6-1 7h-2z" fill="#6E6951"/>
<path transform="translate(403,460)" d="m0 0h7l1 5-3 2h-6l-2-1 1-5z" fill="#5B8E9A"/>
<path transform="translate(403,439)" d="m0 0h7l1 4-2 3-9 4h-3l-1-2 4-1 8-4 1-2-11 2-4 4-3-1v-2z" fill="#5B8E9A"/>
<path transform="translate(458,89)" d="m0 0h6l1 1v7l-1 1h-5l-2-2z" fill="#9FA49F"/>
<path transform="translate(474,88)" d="m0 0 5 1v9h-2v-8l-2 1-1 7h-2v-8h-3v8h-2v-9z" fill="#CBDACF"/>
<path transform="translate(26,24)" d="m0 0h1v7h6v6h7l-4 3-6-2-5-5z" fill="#EDA7D7"/>
<path transform="translate(131,28)" d="m0 0h6l2 1v8l-4-1-4 1-1-7z" fill="#B8D5DE"/>
<path transform="translate(396,740)" d="m0 0 6 1 26 12 1 2h-5v-2l-10-3-2-1v-2l-11-3-5-3z" fill="#C6D6DB"/>
<path transform="translate(630,634)" d="m0 0h2l4 8 3 11v2h-2l-1-2-1 5h-1l-1-15-3-6z" fill="#93988B"/>
<path transform="translate(556,523)" d="m0 0 3 1-1 3-8 6-3 5h-4l2-4 6-8z" fill="#FAB4AC"/>
<path transform="translate(452,505)" d="m0 0h2l2 5h-2v3l-8-1h-11l1-2 16-3z" fill="#333232"/>
<path transform="translate(623,449)" d="m0 0h3v2l5 2 1 2-3 1h-7v-1l-7-2v-2l7-1z" fill="#FBA423"/>
<path transform="translate(614,438)" d="m0 0h5l-4 3-1 3h8l1-2v3h-9v3l9-1-1 4h-6l-4-2v-9z" fill="#51261B"/>
<path transform="translate(838,438)" d="m0 0 5 1 2 2v4h-9l1 3h5l3-1-2 4h-6l-4-3v-7h2v3h8l-2-4z" fill="#202424"/>
<path transform="translate(1034,383)" d="m0 0h4v6l-3 2h-5l-2-2 1-4z" fill="#A6CAD5"/>
<path transform="translate(1291,27)" d="m0 0 3 1 5-1 2 2-1 5-4 1h-3-2z" fill="#707467"/>
<path transform="translate(65,17)" d="m0 0h6l2 2-1 4-4 1-1 5h-2z" fill="#F3ABE0"/>
<path transform="translate(650,682)" d="m0 0h8l-3 2-7 3-3 3-10 2v-2h3v-2l6-3 1-1h5z" fill="#090707"/>
<path transform="translate(564,682)" d="m0 0 5 2 12 7-5 4-12-11z" fill="#939A8D"/>
<path transform="translate(631,512)" d="m0 0 2 1-7 8-6 5-4 6-3-1 3-5 13-13z" fill="#D2471F"/>
<path transform="translate(601,440)" d="m0 0h5v9l-4 1v3h-2v-12z" fill="#D8E5E5"/>
<path transform="translate(926,440)" d="m0 0h6l1 1v6l-2 2-5-1-1-1z" fill="#D0E3E7"/>
<path transform="translate(857,438)" d="m0 0h6l2 1v3h-2v-2l-5 1v7l5 1 1-3 1 3-2 2-7-1-2-3v-6z" fill="#2D3230"/>
<path transform="translate(598,433)" d="m0 0h2l1 5h6l1 1v12h-1l-1-10h-5l-1 10h-2z" fill="#362423"/>
<path transform="translate(1e3 88)" d="m0 0h5l2 2v8h-7l-1-5 5-1v-2l-5 1z" fill="#BFC4B6"/>
<path transform="translate(645,634)" d="m0 0 7 6 13 6-3 1-7-3v2l3 1-1 3-5-5-6-7z" fill="#8F988C"/>
<path transform="translate(821,505)" d="m0 0 5 1 1 1v5l-2 2h-5l-1-1v-6z" fill="#606059"/>
<path transform="translate(1127,383)" d="m0 0h4v5l-3 3h-5l-2-2 1-4z" fill="#ACCCD6"/>
<path transform="translate(388,716)" d="m0 0h4v9l-2 5-3 2-5-1 4-2 2-5 2-6h-2z" fill="#5DADC6"/>
<path transform="translate(785,505)" d="m0 0 5 1 1 1-1 7h-5l-2-2v-5z" fill="#6B5B51"/>
<path transform="translate(1e3 439)" d="m0 0 4 1 1 2v6l-1 1h-5l-1-1v-7z" fill="#A8C8D1"/>
<path transform="translate(770,438)" d="m0 0h8l2 1v12h-2v-11l-5 1-1 10h-2z" fill="#1D2527"/>
<path transform="translate(938,438)" d="m0 0h2l1 10h4l1-10h2v13h-8l-2-2z" fill="#2A2122"/>
<path transform="translate(477,406)" d="m0 0 5 1-2 2-5 2-1 2-5 2-6 8-1-4 6-7 6-5z" fill="#C9D1D4"/>
<path transform="translate(646,702)" d="m0 0 2 1-11 8-8 4-4-2h3v-2l13-6z" fill="#040202"/>
<path transform="translate(646,438)" d="m0 0h2l1 10h4l1-10h2v13h-7l-3-2z" fill="#1E1B1B"/>
<path transform="translate(759,439)" d="m0 0 5 1v3l-9 3-3 8-3-1 1-3h2l1-7 2-3v2z" fill="#E4EDEF"/>
<path transform="translate(868,438)" d="m0 0h2v11l5-1 1-10h2v13h-8l-2-2z" fill="#191E1F"/>
<path transform="translate(526,414)" d="m0 0 4 1 5 5 7 12 2 8-2 1-5-12-5-8-6-5z" fill="#D4BCB6"/>
<path transform="translate(476,391)" d="m0 0h3l-2 5-5 3h-9l-3-3 13-2z" fill="#EFEFEE"/>
<path transform="translate(521,390)" d="m0 0 2 1-4 6-4 2h-8l-4-2v-1l11-1z" fill="#F3F1F1"/>
<path transform="translate(395,363)" d="m0 0 2 1-2 4-2 5v10l3 8v6l-3-3-2-8v-15z" fill="#656E69"/>
<path transform="translate(98,25)" d="m0 0 3 1 1 2 4 2-1 6h-2l-1-2-1 3h-3l-1-11z" fill="#BED5DC"/>
<path transform="translate(320,717)" d="m0 0 7 1v2l4 1v4l-3 1-8-5z" fill="#D2BABA"/>
<path transform="translate(324,698)" d="m0 0 4 5 11 13 3 3-5-1-5-4-7-11z" fill="#D7C0AE"/>
<path transform="translate(671,679)" d="m0 0h1v8l-7 5-2-1 4-5-2-2h3v-2l-7 1 3-2z" fill="#656E69"/>
<path transform="translate(694,644)" d="m0 0v3l-8 5-4 1h-10l-2-2 11-1 5-3z" fill="#335059"/>
<path transform="translate(479,595)" d="m0 0 4 5 3 6 5 8-1 2-5-7-3-3-4-2z" fill="#939A8D"/>
<path transform="translate(317,504)" d="m0 0 2 2 4 19v5h-3l-2-9v-8z" fill="#656E69"/>
<path transform="translate(937,391)" d="m0 0h3l-1 4-6 4h-8l-4-3 11-1z" fill="#F2F0EF"/>
<path transform="translate(810,391)" d="m0 0h4l-2 5-5 3h-8l-4-2v-1l11-1z" fill="#F2F1EF"/>
<path transform="translate(1168,390)" d="m0 0 2 1-4 6-5 2h-7l-4-2v-1l11-1z" fill="#F3F2F1"/>
<path transform="translate(416,355)" d="m0 0h14l7 2 2 4-5-1-13-3-5 1z" fill="#741518"/>
<path transform="translate(655,644)" d="m0 0 7 2 15 1v2h-12l7 3-4 1-10-5-3-2z" fill="#6C756F"/>
<path transform="translate(718,555)" d="m0 0 3 1-3 3-3 1-4 6-6 10-1-2 2-6 6-9h2v-2z" fill="#D8E2DB"/>
<path transform="translate(713,441)" d="m0 0h2l1 2v8l-3 3h-6l-2-1v-2l7-1z" fill="#C1DEE6"/>
<path transform="translate(455,391)" d="m0 0 7 4-2 7-4 1-3-4z" fill="#8D978C"/>
<path transform="translate(707,87)" d="m0 0h6l1 7-2 2h-5z" fill="#503F3B"/>
<path transform="translate(603,474)" d="m0 0 4 1-3 7-3 2-4-2 1-5z" fill="#FAB4AC"/>
<path transform="translate(989,438)" d="m0 0h5l-4 3-1 3h8l1-2v3h-9l1 3h5l3-1-1 3-7 1-3-3v-8z" fill="#1A1D1D"/>
<path transform="translate(892,438)" d="m0 0h5l-4 3-1 3h8l1-2v3h-9l1 3h5l3-1-1 3-7 1-3-3v-8z" fill="#1C1C1B"/>
<path transform="translate(705,440)" d="m0 0h5l1 1v6l-2 2-5-1v-7z" fill="#CDE3E7"/>
<path transform="translate(408,345)" d="m0 0h6v1l-4 1h7l-3 2-11 4-5 3 1-4 4-3h2l1-3z" fill="#CDCBC7"/>
<path transform="translate(1117,85)" d="m0 0h1l1 11h5v-11h3v10l-3 3h-5l-2-2z" fill="#CDD3C7"/>
<path transform="translate(454,692)" d="m0 0 4 2 3 10v3h2l-1 7-4 9-1-2 2-6v-9l-4-11z" fill="#939A8D"/>
<path transform="translate(753,599)" d="m0 0v3l-8 8-6 2-15-1v-1l13-1 8-3z" fill="#858C82"/>
<path transform="translate(880,383)" d="m0 0h3v5l-3 3h-5l-1-5 2-2z" fill="#D4E5EA"/>
<path transform="translate(890,374)" d="m0 0 2 2 1 22h-7v-2h5l-1-2z" fill="#F3F4F2"/>
<path transform="translate(463,374)" d="m0 0h6l2 3v3h-11l1-4z" fill="#E9EAE8"/>
<path transform="translate(547,89)" d="m0 0h6l1 4-5 2h5l-1 3h-5l-2-2v-6z" fill="#BFC6C3"/>
<path transform="translate(155,28)" d="m0 0 5 2v4l-1 3h-5l-2-2v-5z" fill="#B8D5DE"/>
<path transform="translate(349,549)" d="m0 0h16l4 4-6-1-1-1h-9l-14 5 1-3z" fill="#DBE4DB"/>
<path transform="translate(714,462)" d="m0 0h11v1l-13 3-6 2h-7l1-2z" fill="#CAD8DB"/>
<path transform="translate(727,440)" d="m0 0h3v13l-5 1-5-1 4-2h3z" fill="#CDE7EF"/>
<path transform="translate(657,399)" d="m0 0 3 1-2 10-5 10-4 2 2-4 4-9z" fill="#5DADC6"/>
<path transform="translate(448,382)" d="m0 0h1l-1 10-2 6h-8l-1-2h7l1-9z" fill="#F1F1F0"/>
<path transform="translate(429,376)" d="m0 0 2 1 3 9-1 3h-2l-4 1v-7z" fill="#D4B153"/>
<path transform="translate(1110,375)" d="m0 0 2 3v20h-7l-1-2 5-1z" fill="#FAFAF9"/>
<path transform="translate(924,374)" d="m0 0h7l1 6h-10l1-5z" fill="#A4CAD5"/>
<path transform="translate(535,648)" d="m0 0 2 1-5 4-4 2-1 3-6-2-6-7 6 3h7z" fill="#C4D6DC"/>
<path transform="translate(278,499)" d="m0 0 2 1v12l-2 2-3-6v-6z" fill="#767F77"/>
<path transform="translate(288,495)" d="m0 0 5 2 1 6h-2v7l-4 2 1-2v-7l-2-7z" fill="#323131"/>
<path transform="translate(272,487)" d="m0 0v3l-6 7-2 3-3 14-2 1 1-11 4-9 5-6z" fill="#556869"/>
<path transform="translate(635,438)" d="m0 0h7l1 4-7-1v7h5l2-2-1 4-1 1h-5l-3-3v-8z" fill="#21282A"/>
<path transform="translate(939,377)" d="m0 0 2 3v7h-17l-1 2-1-4h17z" fill="#F9FAF8"/>
<path transform="translate(1017,375)" d="m0 0 2 4v19h-8v-2h6z" fill="#FBFBFA"/>
<path transform="translate(824,89)" d="m0 0h5l1 4-5 1v2l5-1-1 3-6-1-1-1v-5z" fill="#BEC6C1"/>
<path transform="translate(162,28)" d="m0 0 3 1 1 2 1-2h2l-2 9-2 2-4-1 2-3-2-7z" fill="#C3D6DD"/>
<path transform="translate(1197,27)" d="m0 0h5l2 2-1 5-4 1v2h-2z" fill="#848067"/>
<path transform="translate(329,702)" d="m0 0 7 6 4 6 5 5-5-1-11-12-1-3z" fill="#ACA379"/>
<path transform="translate(346,548)" d="m0 0h3v2l-9 4-2 5-5-1 4-6z" fill="#C8D7DB"/>
<path transform="translate(1138,375)" d="m0 0 2 2 1 21h-7l-1-2h6l-1-2z" fill="#FAFAF9"/>
<path transform="translate(1045,374)" d="m0 0 2 3 1 21h-7v-2h5l-1-2z" fill="#F9F9F8"/>
<path transform="translate(797,374)" d="m0 0h6l2 2v4h-10l1-5z" fill="#CFE4EA"/>
<path transform="translate(534,374)" d="m0 0h7v3l-5 1-2 4v7l-3-2v-9z" fill="#EBEBE8"/>
<path transform="translate(532,530)" d="m0 0 4 1v2h2l-2 4-7 5v-6l2-2z" fill="#D2471F"/>
<path transform="translate(284,499)" d="m0 0h2v2h2v6l-4 4-3-9z" fill="#939A8D"/>
<path transform="translate(974,439)" d="m0 0h2l-1 5h8l1-2v3h-9l1 3h5l3-1-1 3-7 1-3-2v-9z" fill="#181E1F"/>
<path transform="translate(609,374)" d="m0 0h5l3 2v4h-10l1-5z" fill="#F1F1F0"/>
<path transform="translate(460,423)" d="m0 0h2l-3 12-1 2-2 14h-1v-18l2-2z" fill="#D9C1AC"/>
<path transform="translate(669,374)" d="m0 0h7v3l-5 1-2 3-1 7-2-1v-10z" fill="#E9EAE7"/>
<path transform="translate(446,85)" d="m0 0h2v5h6v-5h1v13h-1v-6h-6v6h-2z" fill="#EAE8D7"/>
<path transform="translate(456,697)" d="m0 0 2 2 2 7v9l-4 9-1-3 1-1 1-16z" fill="#D2C6A6"/>
<path transform="translate(318,679)" d="m0 0h2v6h2l4 11 1 5-3-3-7-16z" fill="#9C9B82"/>
<path transform="translate(392,683)" d="m0 0h1v11l-3 9-2-2-2 1 3-9z" fill="#E6CF93"/>
<path transform="translate(505,637)" d="m0 0 3 1 9 13-1 3-4-6-2 3-4-10z" fill="#92A49E"/>
<path transform="translate(458,598)" d="m0 0h2l-2 7-1 1h-8l-2-2z" fill="#334B53"/>
<path transform="translate(862,582)" d="m0 0h2v6l-4 8-2 1v-2l-2-1 2-2 1-4z" fill="#BDD1D5"/>
<path transform="translate(828,505)" d="m0 0 2 1 1 4 2-5h2l1 4 2-4 2 1-3 8-3-3-2 3h-2l-2-5z" fill="#6A6D68"/>
<path transform="translate(745,450)" d="m0 0 4 1 1 2 4 1 1 3h-13v-3l2-1z" fill="#5C97A6"/>
<path transform="translate(700,440)" d="m0 0h2l-2 9-4 9-4-1 3-3 2-9z" fill="#D6EAED"/>
<path transform="translate(597,416)" d="m0 0 10 3 4 2-4 1 5 6-5-1-10-10z" fill="#8F998D"/>
<path transform="translate(1123,374)" d="m0 0h7l1 4-2 1h-11l-1-2h5z" fill="#D9E8EB"/>
<path transform="translate(875,374)" d="m0 0h7l1 4-1 1h-12v-2h4z" fill="#D9E7EB"/>
<path transform="translate(1236,24)" d="m0 0h6l2 2-1 4-5 1-2 4z" fill="#84714F"/>
<path transform="translate(310,711)" d="m0 0 12 1 2 1v2l3 1-4 1-13-4z" fill="#D8E2DB"/>
<path transform="translate(760,579)" d="m0 0 2 3v9l-8 8 2-6z" fill="#939A8D"/>
<path transform="translate(569,510)" d="m0 0 4 1-1 4-6 5h-3l2-5z" fill="#FAB4AC"/>
<path transform="translate(764,502)" d="m0 0h6l2 4h-2l-1-2-4-1 1 3 5 2 1 5-1 1h-7l-1-4 2 1v2l5-1v-2l-7-3z" fill="#5E5D57"/>
<path transform="translate(582,433)" d="m0 0h14v1h-6v17h-2l-1-16-5-1z" fill="#0D1B1B"/>
<path transform="translate(505,374)" d="m0 0h7v2l-5 2-1 3v8l-3-1v-11z" fill="#E6E7E5"/>
<path transform="translate(966,365)" d="m0 0h10l2 3h-10v8h-2z" fill="#EBEFEB"/>
<path transform="translate(713,365)" d="m0 0h10l2 3h-10v8h-2z" fill="#EBEFEB"/>
<path transform="translate(127,28)" d="m0 0h4l-1 9h-6l-1-5z" fill="#AECFDA"/>
<path transform="translate(658,648)" d="m0 0 6 2 10 4 5 1v1l-8 1-12-6z" fill="#5B8E9A"/>
<path transform="translate(506,641)" d="m0 0 2 1 4 11v15l-2 4v-17l-3-9z" fill="#B8D2D9"/>
<path transform="translate(365,613)" d="m0 0 5 1 2 2 2 5 4 7-1 2-10-13z" fill="#939A8D"/>
<path transform="translate(669,440)" d="m0 0 1 4h8l1-3v4h-9l1 3h5l3-1-2 4h-6l-3-3v-7z" fill="#161A1A"/>
<path transform="translate(1152,374)" d="m0 0h6l1 2-5 2-1 2v9l-3-1v-12z" fill="#EAEBE9"/>
<path transform="translate(1030,374)" d="m0 0h7l1 4-3 1h-10v-2h4z" fill="#DCEBEE"/>
<path transform="translate(658,88)" d="m0 0 5 1 1 1v5l-6 1-1-7z" fill="#A0A39C"/>
<path transform="translate(1229,24)" d="m0 0h1v11h-5l-1-1v-6l5-1z" fill="#8A7758"/>
<path transform="translate(579,692)" d="m0 0 14 1v1h-7v2l7 2-2 4h-2l-2-4-8-4z" fill="#656E69"/>
<path transform="translate(700,632)" d="m0 0 1 3-8 8-8 4-7 1 1-2 12-5 8-7z" fill="#7E867C"/>
<path transform="translate(387,506)" d="m0 0 2 2 3 13 8-1 2 2-3 1h-8l-3-9z" fill="#384E54"/>
<path transform="translate(922,440)" d="m0 0 2 1-2 7-4 10-4 1-1-2 4-1v-6h2z" fill="#F5F7F4"/>
<path transform="translate(975,438)" d="m0 0h7l2 4-1 2h-8z" fill="#7E8A8B"/>
<path transform="translate(404,359)" d="m0 0 2 2 1 7-2 3h-2l-1-5h-2l2-5z" fill="#6D181A"/>
<path transform="translate(868,88)" d="m0 0h5l1 3-5-1v2l5 1-1 5h-5l-1-3 5 1v-2l-5-1z" fill="#CCD3C7"/>
<path transform="translate(27,27)" d="m0 0 2 1h1 5l2 7 4 2h-8v-6h-6z" fill="#AFDDED"/>
<path transform="translate(439,662)" d="m0 0 1 4 3 9-1 4-6 1 1-2h2l-1-15z" fill="#C6D6DB"/>
<path transform="translate(571,616)" d="m0 0m-1 1m-1 1 1 3-6 5-3 5-5 1 6-8z" fill="#D4B3BB"/>
<path transform="translate(260,529)" d="m0 0 4 2 4 6 2 2 5 7-4-2-8-7-3-6z" fill="#84948F"/>
<path transform="translate(812,435)" d="m0 0h7v2h-5v16h-2z" fill="#E0F0F5"/>
<path transform="translate(755,392)" d="m0 0h2v5l-4 2h-6l-5-3 2-1h7l4-1z" fill="#DFE2E0"/>
<path transform="translate(425,386)" d="m0 0h1l-1 10-1 2h-9v-2l6-1 1-5h2z" fill="#F2F2EC"/>
<path transform="translate(820,85)" d="m0 0h2l-2 12-3 1-3-8-1-3h3l2 5z" fill="#D4DBCC"/>
<path transform="translate(660,27)" d="m0 0 5 1v6l-5 1-2-2 1-5z" fill="#B7C0B4"/>
<path transform="translate(593,714)" d="m0 0 2 1-17 10h-2l1 4h-3l-1-3 1-2h3v-2l8-4z" fill="#333232"/>
<path transform="translate(389,703)" d="m0 0 5 1-2 5-2 3-4 2-3-1 3-3z" fill="#C8CDD1"/>
<path transform="translate(320,509)" d="m0 0 2 3 4 13v3h-3l-2-6z" fill="#7C9592"/>
<path transform="translate(301,485)" d="m0 0 4 1 5 5 6 7 3 5-1 3v-2h-2l-6-10-4-3v-3l-5-2z" fill="#6C8788"/>
<path transform="translate(751,465)" d="m0 0 2 2 3 15v7h-2l-3-19z" fill="#AEDEEE"/>
<path transform="translate(657,440)" d="m0 0h2v13l-5 1-5-1 3-3 5 1z" fill="#F2F5F5"/>
<path transform="translate(416,408)" d="m0 0 19 3v2h-18l2-2-3-1z" fill="#D7BA56"/>
<path transform="translate(439,363)" d="m0 0h5l-1 11h-1l-1-5-3 2-1-4z" fill="#632123"/>
<path transform="translate(399,557)" d="m0 0 2 3 5 17v5h-2l-5-21z" fill="#929F96"/>
<path transform="translate(568,480)" d="m0 0 3 1-10 9-4 4-3 5h-2l1-3h2l1-5z" fill="#D3BBB7"/>
<path transform="translate(823,440)" d="m0 0h4l-2 13h-3v-12z" fill="#E5F2F5"/>
<path transform="translate(651,731)" d="m0 0 2 1-10 6-10 5h-2v-2l16-8z" fill="#741518"/>
<path transform="translate(665,691)" d="m0 0m-2 1 5 1-4 3-9 4h-2l2-4z" fill="#212020"/>
<path transform="translate(866,581)" d="m0 0h1v5h2l1 7-4 10-1-4 1-5v-7l-1-4z" fill="#5DADC6"/>
<path transform="translate(388,521)" d="m0 0 1 3 5 1 1 8 1 1v8h-1l-2-11h-2l-3-6z" fill="#91A49E"/>
<path transform="translate(936,442)" d="m0 0 2 2v6l-3 3h-7l-1-2 6-2z" fill="#E2EDEA"/>
<path transform="translate(688,89)" d="m0 0h6l1 1v8l-6-1 1-5h3v-2l-6 1z" fill="#BDC2BA"/>
<path transform="translate(945,88)" d="m0 0 5 1v2l-4-1v2l4 1v4l-5 1v-3h2l-3-2z" fill="#CBD3CE"/>
<path transform="translate(784,650)" d="m0 0 1 2-6 10-3 4-2-1 5-9z" fill="#91BDC7"/>
<path transform="translate(529,604)" d="m0 0 4 1 8 11-1 2-5-6-4-3v-2h-2z" fill="#CDBABA"/>
<path transform="translate(758,88)" d="m0 0 5 1v2l-5-1v2l5 1v4l-5 1-2-3 5 1v-2l-4-1z" fill="#D1D7CD"/>
<path transform="translate(393,666)" d="m0 0h1l1 13v12l-2 3-1-12z" fill="#D2BABA"/>
<path transform="translate(521,583)" d="m0 0 7 1 7 2v2h-8-4z" fill="#741518"/>
<path transform="translate(994,438)" d="m0 0 4 2-1 4h-8l1-4z" fill="#889898"/>
<path transform="translate(897,438)" d="m0 0 4 2-1 4h-8l1-4z" fill="#8A9998"/>
<path transform="translate(619,438)" d="m0 0 4 2-1 4h-8l1-4z" fill="#8B9696"/>
<path transform="translate(1037,393)" d="m0 0h2l-1 5-9 1-3-3 10-2z" fill="#E9E7E4"/>
<path transform="translate(778,382)" d="m0 0h1v16h-7v-2h5v-13z" fill="#FBFBFA"/>
<path transform="translate(453,370)" d="m0 0 5 1-3 4-1 10-3-2v-7z" fill="#BFA55D"/>
<path transform="translate(310,608)" d="m0 0 1 3-5 7-2 4-6 4-3-1 8-6 6-10z" fill="#91B5B9"/>
<path transform="translate(569,577)" d="m0 0h4l-2 4-3 1-1 3-4 2 1-5z" fill="#335059"/>
<path transform="translate(663,440)" d="m0 0h5v2l-2 1-1 9-2 2-1-1v-12z" fill="#E1EFF4"/>
<path transform="translate(836,438)" d="m0 0 6 2 1 4h-8l-1-4z" fill="#899898"/>
<path transform="translate(638,415)" d="m0 0 2 1-10 5-4 1h-15v-1l14-1 7-1 1-3z" fill="#999F95"/>
<path transform="translate(883,393)" d="m0 0 1 4-3 2h-7l-3-3 10-2z" fill="#EDEDEB"/>
<path transform="translate(797,387)" d="m0 0h15v2h-7l-2 2h-5l-2-3z" fill="#A7D3E1"/>
<path transform="translate(581,89)" d="m0 0h7l1 1v8h-2v-8l-3 1-1 7h-2z" fill="#C5DADB"/>
<path transform="translate(340,593)" d="m0 0 7 2v2l2 2h-8l-2-2z" fill="#E6CF93"/>
<path transform="translate(784,434)" d="m0 0h2v4l3 1h-3v11l2 1-4-1-1-12z" fill="#1D1D1D"/>
<path transform="translate(859,88)" d="m0 0h5l1 3-5-1v2l5 1-1 5-5-1 1-2 4 1v-2l-5-1-1-3z" fill="#D5D9D3"/>
<path transform="translate(681,90)" d="m0 0h3v2l5-2h4v2l-9 2v2h-3l-1-4z" fill="#4A3E3A"/>
<path transform="translate(533,85)" d="m0 0h3l2 9-2-1-1 5h-2z" fill="#CBD9D0"/>
<path transform="translate(120,28)" d="m0 0 5 1-2 8h-4v-8z" fill="#BBDAE3"/>
<path transform="translate(402,702)" d="m0 0 1 4 1 10 1 6-3-4-3-10 1-4z" fill="#CACDD0"/>
<path transform="translate(701,634)" d="m0 0 1 2-3 6h-2v2l-4 2-3-1z" fill="#333B3E"/>
<path transform="translate(531,599)" d="m0 0 2 4 7 6 2 4v2l-4-2-8-11z" fill="#8F978B"/>
<path transform="translate(519,584)" d="m0 0 4 2 8 13h-3l-7-10z" fill="#CB853C"/>
<path transform="translate(498,582)" d="m0 0 4 1-1 4-7 1-1-2 3-3z" fill="#E6CF93"/>
<path transform="translate(327,540)" d="m0 0 4 1 1 6-5 2-1-4z" fill="#D2BABA"/>
<path transform="translate(884,440)" d="m0 0h6v2l-3 2-1 10-2-1z" fill="#DDEDF0"/>
<path transform="translate(879,440)" d="m0 0h2v13l-2 1-8-1v-1l8-1z" fill="#F9F9F8"/>
<path transform="translate(726,88)" d="m0 0h2l1 6h2l1-6h2l-1 6-2 4h-2l-3-7z" fill="#CAD0C5"/>
<path transform="translate(930,89)" d="m0 0h6l1 4h-6l3-1v-2l-3 1v4h5l-1 3-6-1v-7z" fill="#D4E0DB"/>
<path transform="translate(980,85)" d="m0 0h3v12l-3 1z" fill="#B1B99A"/>
<path transform="translate(316,681)" d="m0 0 2 1 6 14v2l-3-1-5-12z" fill="#C9CCD0"/>
<path transform="translate(529,664)" d="m0 0 4 1 4 2h8l6-1 1 2-5 1h-11l-7-3z" fill="#5DADC6"/>
<path transform="translate(335,599)" d="m0 0 7 3 2 6-5 1-1-4-3-4z" fill="#91BDC7"/>
<path transform="translate(949,440)" d="m0 0h2v13h-3-7v-1l8-1z" fill="#F9F9F8"/>
<path transform="translate(1279,27)" d="m0 0h5l-3 1 1 5 2-4h2l-1 5-4 1v2h-2z" fill="#4F6D73"/>
<path transform="translate(334,609)" d="m0 0h5l-4 3-9 7-1-3 7-6z" fill="#CBCACD"/>
<path transform="translate(483,557)" d="m0 0h20l4 4-5-1-1-1h-15l-4 1z" fill="#C7D2D6"/>
<path transform="translate(756,546)" d="m0 0 1 3-7 6-2 3-7-2 4-2 7-3z" fill="#6A726D"/>
<path transform="translate(565,522)" d="m0 0 2 1-13 13-3 2 1-4 12-11z" fill="#FEA320"/>
<path transform="translate(530,477)" d="m0 0h2l-2 4-7 5-6 1v-2l8-4z" fill="#6E171A"/>
<path transform="translate(962,440)" d="m0 0h5l-2 4-1 9-2 1z" fill="#F0F5F5"/>
<path transform="translate(591,435)" d="m0 0h6v2l-4 1v15l-3 1z" fill="#FBFBFA"/>
<path transform="translate(1010,433)" d="m0 0h2v18l-2-1-1-8-1-3h2z" fill="#293034"/>
<path transform="translate(413,362)" d="m0 0h2l3 12v8l-2-4z" fill="#EAE6D7"/>
<path transform="translate(438,350)" d="m0 0 5 1 5 6 3 2h-5l-8-7z" fill="#C8CFD3"/>
<path transform="translate(592,89)" d="m0 0h5l1 4-2-2h-3v4h5l-1 3h-5l-2-2v-5z" fill="#D1DFDD"/>
<path transform="translate(654,512)" d="m0 0 8 4 6 9-1 3-7-10-6-4z" fill="#C6D6DB"/>
<path transform="translate(882,438)" d="m0 0h7v2h-5v11h-2z" fill="#1C2A2E"/>
<path transform="translate(710,416)" d="m0 0h7v3l-4 3-3-1z" fill="#AEDEEE"/>
<path transform="translate(408,411)" d="m0 0 9 3 1 4-3 1-7-6z" fill="#939A8D"/>
<path transform="translate(742,404)" d="m0 0 2 1 1 7-2 3-3-4v-5z" fill="#5B8E9A"/>
<path transform="translate(394,396)" d="m0 0 3 1 7 10 2 1v2l-4-2-4-5-4-4z" fill="#8E998E"/>
<path transform="translate(924,387)" d="m0 0h14v1h-7l-1 3h-6l-1-2z" fill="#ABD6E4"/>
<path transform="translate(462,387)" d="m0 0h15l-1 2h-6l-2 2h-5z" fill="#A7D3E0"/>
<path transform="translate(451,373)" d="m0 0 1 3-2 9-2-2-2 3 1-8 2-4z" fill="#DCDBCF"/>
<path transform="translate(637,745)" d="m0 0h6l-5 4-10 4 1-3z" fill="#402C2C"/>
<path transform="translate(727,724)" d="m0 0 4 1-1 1 6 1 3 1-2 1h-9l-6-3v-1z" fill="#656E69"/>
<path transform="translate(360,589)" d="m0 0h2l3 5 1 5h-3l-5-8h2z" fill="#E4CD95"/>
<path transform="translate(538,512)" d="m0 0 2 1-12 13-2 2 1-5 4-2 1-3h2l2-4z" fill="#D1BAB5"/>
<path transform="translate(634,497)" d="m0 0 2 1-2 6-4 4h-2l2-5z" fill="#741518"/>
<path transform="translate(773,440)" d="m0 0h4l-2 4-1 9h-2v-12z" fill="#DDEFF5"/>
<path transform="translate(1130,393)" d="m0 0h2v4l-4 2h-6l-2-2 9-3z" fill="#EDECEB"/>
<path transform="translate(1098,89)" d="m0 0h1v7h4v-7h2v9h-6l-1-1z" fill="#D7E3DD"/>
<path transform="translate(972,89)" d="m0 0h6l1 9h-7l-1-4 1 2 4-1 1-2-2-1h2v-2l-6 1z" fill="#E2E7DF"/>
<path transform="translate(667,27)" d="m0 0h5v7l-1-3-3 2 2 2-4-1v-6z" fill="#AFB3A9"/>
<path transform="translate(75,20)" d="m0 0 2 1v6h2v-7l2 1v7l-5 1-1-1z" fill="#F8AEE6"/>
<path transform="translate(736,437)" d="m0 0h2l2 7v4h2v3h-3l-3-10z" fill="#122022"/>
<path transform="translate(431,433)" d="m0 0h4l4 7 2 6-2 2-5-12z" fill="#628184"/>
<path transform="translate(593,90)" d="m0 0 6 1v5h-6l-1-5z" fill="#858176"/>
<path transform="translate(1108,85)" d="m0 0 3 4-2 1v6h2v2l-4-1-1-9z" fill="#C2D4D6"/>
<path transform="translate(671,85)" d="m0 0h2v12h-2v-7l-4 1v-3h4z" fill="#CAD9D7"/>
<path transform="translate(978,29)" d="m0 0h2l1 4 4 3v3h-3l-5-6z" fill="#181716"/>
<path transform="translate(316,631)" d="m0 0h2l-2 10-2 8h-1l1-14z" fill="#C8CBCF"/>
<path transform="translate(285,555)" d="m0 0 2 1 2 4 5 3-2 1-11-5z" fill="#D2BABA"/>
<path transform="translate(738,547)" d="m0 0h5l-4 2-5 1 3 3-8-1 1-4z" fill="#656E69"/>
<path transform="translate(523,528)" d="m0 0 3 1-11 12-2 2 1-4z" fill="#D0B7AF"/>
<path transform="translate(602,450)" d="m0 0 1 4-5 2-6 5v-3l6-7h2v2h2z" fill="#E3BD9F"/>
<path transform="translate(614,438)" d="m0 0h5l-4 3-1 3h8l1-2v3h-10l-1 2v-7z" fill="#0F1212"/>
<path transform="translate(660,438)" d="m0 0h6l-3 3-1 10h-2z" fill="#272F32"/>
<path transform="translate(407,424)" d="m0 0h6l5 2-1 2-11-1z" fill="#656E69"/>
<path transform="translate(417,347)" d="m0 0h10l5 2v1h-15z" fill="#7E867D"/>
<path transform="translate(860,90)" d="m0 0h7l1 3 4 1v2l-5-1v2h-2l-1-4-4-1z" fill="#504E4D"/>
<path transform="translate(1259,28)" d="m0 0h7l1 5 4-1-2 3-4-1-3-3-3-1z" fill="#8F7E61"/>
<path transform="translate(332,643)" d="m0 0 2 1-1 5-4 2-1-2 1-5z" fill="#333232"/>
<path transform="translate(617,470)" d="m0 0m-1 1m-1 1m-1 1 1 3-5 4-3 5-2-1 5-8z" fill="#FEA320"/>
<path transform="translate(744,443)" d="m0 0 2 1-1 9h-4z" fill="#BBDADF"/>
<path transform="translate(712,442)" d="m0 0h1v6l-3 3-7-1-1-3 7 1 2-2z" fill="#0F1C1D"/>
<path transform="translate(846,443)" d="m0 0 2 4-6 2h-5l-1-4 10 1z" fill="#E5EDEC"/>
<path transform="translate(964,438)" d="m0 0 6 1v12h-2l-1-10z" fill="#1C2A2E"/>
<path transform="translate(932,441)" d="m0 0h1v6l-2 2-4-1 2-5z" fill="#B0D9E3"/>
<path transform="translate(751,438)" d="m0 0h2l-1 7-2 6h-3v-5h2z" fill="#16191B"/>
<path transform="translate(1123,384)" d="m0 0h7v2l-5 2-1 2-3-1 1-4z" fill="#E7E7E5"/>
<path transform="translate(1030,384)" d="m0 0h7v2l-5 2-1 2-3-1 1-4z" fill="#E1E3E0"/>
<path transform="translate(450,379)" d="m0 0 3 3 1 6-5 2z" fill="#E4CC8E"/>
<path transform="translate(392,359)" d="m0 0h3l-5 15h-1v-8z" fill="#C8CACD"/>
<path transform="translate(966,30)" d="m0 0 3 2h8l1 2-2 1h-9l-2-4z" fill="#353634"/>
<path transform="translate(108,20)" d="m0 0 4 1v7l-5 1-1-4h3l-1 2 2-2-1-3-2-1z" fill="#F8AEE6"/>
<path transform="translate(735,718)" d="m0 0 4 2-7 4h-12v-1l13-2z" fill="#8F998D"/>
<path transform="translate(402,462)" d="m0 0h7l-2 4-5 1-1-4z" fill="#5DADC6"/>
<path transform="translate(626,446)" d="m0 0 9 3 4 4-1 3-7-6-8-2z" fill="#CCB5AE"/>
<path transform="translate(902,442)" d="m0 0 2 2v4h-5l-1 1h-5v-3h9z" fill="#EBF2F1"/>
<path transform="translate(680,442)" d="m0 0 2 2v4h-5l-1 1h-5v-3h9z" fill="#EAF1F1"/>
<path transform="translate(697,438)" d="m0 0h2v6l-3 6-3-2 2-4z" fill="#253738"/>
<path transform="translate(1e3 439)" d="m0 0 4 1v2l-3 3-1 3h-2v-7z" fill="#CBDFE3"/>
<path transform="translate(827,438)" d="m0 0 3 1v12h-2v-11l-4-1z" fill="#371C1E"/>
<path transform="translate(526,414)" d="m0 0 4 1 5 5 2 3-1 4-4-6-6-5z" fill="#DEC6A2"/>
<path transform="translate(490,403)" d="m0 0h5l-1 2-12 3-2-2z" fill="#CAD0D3"/>
<path transform="translate(1071,85)" d="m0 0h3v8l-5-1z" fill="#A3ADA4"/>
<path transform="translate(1205,24)" d="m0 0h2l2 6-1 4-3 1z" fill="#8F8165"/>
<path transform="translate(658,677)" d="m0 0 2 3h-2v2l-6 1-2-2z" fill="#333232"/>
<path transform="translate(323,645)" d="m0 0 4 4-1 4-4-1v-6z" fill="#D2471F"/>
<path transform="translate(657,567)" d="m0 0 2 1-6 4h-10v-1l8-2z" fill="#335059"/>
<path transform="translate(822,506)" d="m0 0 3 1v5l-4 1-1-5z" fill="#E7F0F1"/>
<path transform="translate(786,506)" d="m0 0 4 2-1 5-4-1v-5z" fill="#EAEBE0"/>
<path transform="translate(623,449)" d="m0 0h2l-1 4-7 1-2-1v-2l7-1z" fill="#F6DBD1"/>
<path transform="translate(959,438)" d="m0 0 4 2-1 1-1 10h-2z" fill="#1C1818"/>
<path transform="translate(468,412)" d="m0 0h6l-4 2-7 9-1-4z" fill="#DFC7A0"/>
<path transform="translate(1010,88)" d="m0 0h6l1 2h-5v8h-2z" fill="#A7B4B4"/>
<path transform="translate(542,85)" d="m0 0h3v13h-2z" fill="#D6DCC5"/>
<path transform="translate(537,592)" d="m0 0 9 1 3 2h-10l-4 1z" fill="#335059"/>
<path transform="translate(662,560)" d="m0 0 2 1-4 6-6 1 5-5z" fill="#333536"/>
<path transform="translate(985,442)" d="m0 0 2 4v2h-5l-1 1h-5v-3h9z" fill="#E9EEE9"/>
<path transform="translate(709,442)" d="m0 0h2v5l-2 2-4-1 2-5z" fill="#5EADC6"/>
<path transform="translate(609,441)" d="m0 0 2 1v12h-3z" fill="#F6F1E1"/>
<path transform="translate(759,439)" d="m0 0 5 1v3l-8 2 1-4z" fill="#B4CCCF"/>
<path transform="translate(441,368)" d="m0 0h1v7l-1 5-2-3-1-6z" fill="#CC8B3F"/>
<path transform="translate(145,30)" d="m0 0 2 3v4h-5l-1-4z" fill="#B9DAE5"/>
<path transform="translate(1296,27)" d="m0 0h3l1 5-3 2-3-3v-3z" fill="#BB8953"/>
<path transform="translate(685,25)" d="m0 0h1v7l-6 1 1-5 4 1z" fill="#EBEEE3"/>
<path transform="translate(332,716)" d="m0 0 5 1 7 5-3 1-9-5z" fill="#DBE3D9"/>
<path transform="translate(552,640)" d="m0 0h1v9l-1 5h-1l-1-11z" fill="#D2471F"/>
<path transform="translate(704,596)" d="m0 0h2l3 10h-2l-3-4v-2h-2v-2h2z" fill="#91BDC7"/>
<path transform="translate(714,384)" d="m0 0h1v14h-7v-2l5-1z" fill="#FBFBFA"/>
<path transform="translate(469,375)" d="m0 0 2 2v3h-8l1-3z" fill="#ABD2DD"/>
<path transform="translate(924,374)" d="m0 0h5l1 2-4 2-1 2h-3l1-5z" fill="#F2F4F2"/>
<path transform="translate(565,85)" d="m0 0h2v13h-2l-1-11z" fill="#95B8C1"/>
<path transform="translate(561,720)" d="m0 0 3 1-5 5-5 6v-3l4-6z" fill="#7A837B"/>
<path transform="translate(654,676)" d="m0 0h5l-1 2-9 4-3-1z" fill="#040202"/>
<path transform="translate(352,600)" d="m0 0h4v2l3 3h-7l-2-4z" fill="#E6CF93"/>
<path transform="translate(402,521)" d="m0 0 3 1-7 4-1 2-3-1 2-4z" fill="#CA9644"/>
<path transform="translate(278,489)" d="m0 0 4 1-1 9-3-2z" fill="#741518"/>
<path transform="translate(999,442)" d="m0 0h1v6l-10 1v-3h9z" fill="#E9F1F0"/>
<path transform="translate(858,440)" d="m0 0h5v2l-3 2-1 4h-2v-7z" fill="#E5F1F2"/>
<path transform="translate(636,440)" d="m0 0h5v2l-3 2-1 4h-2v-7z" fill="#D9EBEE"/>
<path transform="translate(967,385)" d="m0 0h1v13h-7v-2l5-1z" fill="#FBFBFA"/>
<path transform="translate(1018,90)" d="m0 0h3v2l3 1-1 3h-5l-1-5z" fill="#807668"/>
<path transform="translate(931,90)" d="m0 0h3v2l3 1-1 3h-5l-1-5z" fill="#7F7466"/>
<path transform="translate(572,90)" d="m0 0 5 2v2h-2v2h-4v-5z" fill="#3C3C3C"/>
<path transform="translate(1540,36)" d="m0 0 5 1-1 4-5-1z" fill="#4E4A4C"/>
<path transform="translate(122,20)" d="m0 0 4 1v3l-2-1-1 1v5l-3-1v-6z" fill="#F6ADE4"/>
<path transform="translate(99,17)" d="m0 0 5 1-1 3-4-2v6l-2 1v-7z" fill="#F8AEE6"/>
</svg>
